<svg width="512" height="512" viewBox="0 0 512 512" fill="none" xmlns="http://www.w3.org/2000/svg">
<g clip-path="url(#clip0_1_2)">
<g filter="url(#filter0_d_1_2)">
<rect x="99" y="88" width="305" height="318" fill="white"/>
<rect x="99.5" y="88.5" width="304" height="317" stroke="black"/>
</g>
<path d="M314.757 147.525H197.243C190.714 147.525 184.249 148.811 178.217 151.309C172.184 153.808 166.704 157.47 162.087 162.087C157.47 166.704 153.808 172.184 151.309 178.217C148.811 184.249 147.525 190.714 147.525 197.243V314.757C147.525 327.943 152.763 340.589 162.087 349.913C166.704 354.53 172.185 358.192 178.217 360.69C184.249 363.189 190.714 364.475 197.243 364.475H314.757C327.943 364.475 340.589 359.236 349.912 349.913C359.236 340.589 364.474 327.943 364.474 314.757V197.243C364.474 190.714 363.188 184.249 360.69 178.217C358.191 172.185 354.529 166.704 349.913 162.087C345.296 157.47 339.815 153.808 333.783 151.31C327.751 148.811 321.286 147.525 314.757 147.525ZM256 324.391C242.474 324.391 229.251 320.38 218.004 312.865C206.757 305.35 197.991 294.669 192.815 282.172C187.639 269.675 186.284 255.924 188.923 242.658C191.562 229.391 198.076 217.205 207.64 207.64C217.205 198.076 229.391 191.562 242.658 188.923C255.924 186.284 269.675 187.639 282.172 192.815C294.669 197.991 305.35 206.757 312.865 218.004C320.38 229.251 324.391 242.474 324.391 256C324.391 264.981 322.622 273.875 319.185 282.172C315.748 290.47 310.71 298.009 304.36 304.36C298.009 310.71 290.47 315.748 282.172 319.185C273.875 322.622 264.981 324.391 256 324.391ZM327.242 201.58C324.024 201.58 320.878 200.626 318.202 198.838C315.526 197.051 313.44 194.509 312.209 191.536C310.977 188.563 310.655 185.292 311.283 182.135C311.91 178.979 313.46 176.08 315.735 173.804C318.011 171.528 320.91 169.979 324.066 169.351C327.223 168.723 330.494 169.045 333.467 170.276C336.441 171.508 338.982 173.593 340.77 176.269C342.558 178.945 343.512 182.091 343.512 185.309C343.512 189.624 341.798 193.763 338.747 196.814C335.695 199.865 331.557 201.58 327.242 201.58Z" fill="url(#paint0_linear_1_2)"/>
<path d="M256 211.545C247.208 211.545 238.613 214.152 231.302 219.037C223.992 223.922 218.294 230.865 214.929 238.988C211.564 247.111 210.684 256.049 212.399 264.673C214.114 273.296 218.348 281.217 224.566 287.434C230.783 293.652 238.704 297.885 247.327 299.601C255.951 301.316 264.889 300.436 273.012 297.071C281.135 293.706 288.078 288.008 292.963 280.698C297.848 273.387 300.455 264.792 300.455 256C300.455 244.21 295.771 232.902 287.434 224.566C279.097 216.229 267.79 211.545 256 211.545Z" fill="url(#paint1_linear_1_2)"/>
<path d="M256 0C114.615 0 0 114.615 0 256C0 397.385 114.615 512 256 512C397.385 512 512 397.385 512 256C512 114.615 397.385 0 256 0ZM389.333 312.5C389.332 332.877 381.237 352.419 366.828 366.828C352.419 381.237 332.877 389.332 312.5 389.333H199.5C179.123 389.332 159.58 381.237 145.171 366.828C130.762 352.42 122.667 332.877 122.666 312.5V199.5C122.667 179.123 130.762 159.58 145.171 145.171C159.58 130.763 179.123 122.668 199.5 122.667H312.5C332.877 122.668 352.419 130.763 366.828 145.172C381.237 159.581 389.332 179.123 389.333 199.5V312.5Z" fill="url(#paint2_linear_1_2)"/>
</g>
<defs>
<filter id="filter0_d_1_2" x="95" y="88" width="313" height="326" filterUnits="userSpaceOnUse" color-interpolation-filters="sRGB">
<feFlood flood-opacity="0" result="BackgroundImageFix"/>
<feColorMatrix in="SourceAlpha" type="matrix" values="0 0 0 0 0 0 0 0 0 0 0 0 0 0 0 0 0 0 127 0" result="hardAlpha"/>
<feOffset dy="4"/>
<feGaussianBlur stdDeviation="2"/>
<feComposite in2="hardAlpha" operator="out"/>
<feColorMatrix type="matrix" values="0 0 0 0 0 0 0 0 0 0 0 0 0 0 0 0 0 0 0.25 0"/>
<feBlend mode="normal" in2="BackgroundImageFix" result="effect1_dropShadow_1_2"/>
<feBlend mode="normal" in="SourceGraphic" in2="effect1_dropShadow_1_2" result="shape"/>
</filter>
<linearGradient id="paint0_linear_1_2" x1="7.99999" y1="504" x2="506.325" y2="5.67499" gradientUnits="userSpaceOnUse">
<stop stop-color="#FFCB52"/>
<stop offset="0.318" stop-color="#FF6341"/>
<stop offset="0.658" stop-color="#CD39A2"/>
<stop offset="1" stop-color="#515BCA"/>
</linearGradient>
<linearGradient id="paint1_linear_1_2" x1="8.00003" y1="504" x2="506.325" y2="5.67505" gradientUnits="userSpaceOnUse">
<stop stop-color="#FFCB52"/>
<stop offset="0.318" stop-color="#FF6341"/>
<stop offset="0.658" stop-color="#CD39A2"/>
<stop offset="1" stop-color="#515BCA"/>
</linearGradient>
<linearGradient id="paint2_linear_1_2" x1="8" y1="504" x2="506.325" y2="5.675" gradientUnits="userSpaceOnUse">
<stop stop-color="#FFCB52"/>
<stop offset="0.318" stop-color="#FF6341"/>
<stop offset="0.658" stop-color="#CD39A2"/>
<stop offset="1" stop-color="#515BCA"/>
</linearGradient>
<clipPath id="clip0_1_2">
<rect width="512" height="512" fill="white"/>
</clipPath>
</defs>
</svg>
