<svg width="54" height="58" viewBox="0 0 54 58" fill="none" xmlns="http://www.w3.org/2000/svg"><mask id="path-1-outside-1_3065_836" maskUnits="userSpaceOnUse" x="0.171387" y="0.275391" width="54" height="57" fill="black"><rect fill="white" x="0.171387" y="0.275391" width="54" height="57"></rect><path fill-rule="evenodd" clip-rule="evenodd" d="M22.39 1.41621C21.0004 1.86488 19.8223 2.93283 19.3057 4.21248C19.017 4.92724 19.0156 4.95848 19.0156 10.6173C19.0156 15.7392 19.0382 16.3844 19.2434 17.1162C19.6046 18.4043 20.2717 19.6659 21.0179 20.4718L21.6104 21.1117C21.6697 21.1758 21.7026 21.2599 21.7026 21.3472V22.8218V24.1106C21.7026 24.292 21.5628 24.4427 21.3819 24.4562L16.2348 24.8404C13.2276 25.0648 10.4314 25.308 10.0212 25.3808C8.6386 25.626 7.30457 26.5646 6.72555 27.6994C6.58982 27.9654 5.28766 32.906 3.83191 38.6783C1.47481 48.024 1.18349 49.2896 1.17186 50.2355C1.13912 52.9051 2.79971 55.3003 5.3929 56.3236L6.2079 56.6452C6.24746 56.6608 6.28956 56.669 6.33208 56.6694L11.0169 56.7102C15.1539 56.7462 15.8666 56.7244 16.5458 56.542C17.9513 56.1644 19.1041 55.0946 19.6524 53.6587L19.7768 53.3329C19.8281 53.1987 19.9569 53.1101 20.1005 53.1101H27.3267H34.5528C34.6965 53.1101 34.8253 53.1987 34.8766 53.3329L35.001 53.6587C35.5493 55.0946 36.7021 56.1644 38.1076 56.542C38.7876 56.7247 39.4944 56.7458 43.6364 56.7077C48.1969 56.6657 48.4153 56.6527 49.1355 56.3831C51.7804 55.3928 53.511 52.9462 53.4839 50.2355C53.4744 49.2865 53.1933 48.0595 50.8448 38.7192C49.3992 32.9695 48.0959 28.0291 47.9487 27.7404C47.3625 26.5914 46.0602 25.6485 44.6987 25.387C44.3207 25.3144 41.5226 25.0704 38.481 24.8449L33.2717 24.4586C33.0907 24.4452 32.9507 24.2944 32.9507 24.113V22.8231V21.3472C32.9507 21.2599 32.9837 21.1758 33.043 21.1117L33.6355 20.4718C34.3816 19.6659 35.0487 18.4043 35.4099 17.1162C35.6151 16.3844 35.6378 15.7392 35.6378 10.6173C35.6378 4.94873 35.6369 4.92849 35.3459 4.20774C34.937 3.19453 33.9207 2.12934 32.9235 1.66892L32.2066 1.33786C32.1616 1.3171 32.1127 1.30621 32.0632 1.30593L27.5141 1.28061C24.0174 1.26111 22.7681 1.29411 22.39 1.41621ZM32.0486 3.31214C32.7648 3.61046 33.4311 4.33509 33.6419 5.04497C33.8038 5.59038 33.9084 7.61778 33.7746 7.61778C33.7466 7.61778 33.4514 7.47755 33.1184 7.30608C32.1652 6.81517 31.4219 6.74293 27.3267 6.74293C23.2315 6.74293 22.4881 6.81517 21.5349 7.30608C21.202 7.47755 20.9068 7.61778 20.8788 7.61778C20.7449 7.61778 20.8495 5.59038 21.0115 5.04497C21.2182 4.34859 21.88 3.61859 22.5775 3.31726C23.2346 3.03343 31.3691 3.02906 32.0486 3.31214ZM32.2008 8.91344C32.7678 9.21576 33.1808 9.59607 33.4 10.0174C33.4966 10.2031 33.5756 10.3858 33.5756 10.4236C33.5756 10.4614 30.7636 10.4923 27.3267 10.4923C23.8898 10.4923 21.0777 10.4604 21.0777 10.4216C21.0777 10.0816 21.7456 9.2945 22.265 9.02229C22.9493 8.6636 23.3596 8.63548 27.5766 8.65785C31.399 8.67823 31.8015 8.70035 32.2008 8.91344ZM30.5926 12.367H33.5001C33.6961 12.367 33.8531 12.5293 33.8465 12.7252L33.7923 14.3354C33.7198 16.4923 33.5615 17.2219 32.9212 18.3498C32.0054 19.9629 30.1206 21.2246 28.2328 21.4881C25.6673 21.846 22.9807 20.5491 21.7321 18.3498C21.0919 17.2219 20.9335 16.4923 20.861 14.3354L20.8068 12.7252C20.8002 12.5293 20.9572 12.367 21.1532 12.367H23.115C27.5445 12.367 24.6999 12.367 30.5926 12.367ZM26.3837 23.3644C27.5451 23.5117 28.8849 23.3589 30.0818 22.9426L30.4907 22.8004C30.7159 22.722 30.9511 22.8892 30.9511 23.1277V23.7854V24.7869C30.9511 24.8789 30.9145 24.9671 30.8493 25.0321L29.1389 26.7395L27.5715 28.3041C27.4362 28.4391 27.2171 28.4391 27.0818 28.3041L25.5145 26.7395L23.804 25.0321C23.7389 24.9671 23.7023 24.8789 23.7023 24.7869V23.7854V23.1277C23.7023 22.8892 23.9375 22.722 24.1627 22.8004L24.5715 22.9426C25.0496 23.1088 25.865 23.2986 26.3837 23.3644ZM23.7648 27.6144L24.5459 28.3979C24.7637 28.6164 24.6089 28.9892 24.3005 28.9892H17.7463C10.6581 28.9892 10.3452 28.9989 10.0622 29.228L9.89468 29.3636C9.81396 29.4289 9.76679 29.527 9.76616 29.6309L9.73228 35.227L9.6995 40.6427C9.69835 40.8332 9.54353 40.9871 9.35295 40.9871H7.45142C5.81458 40.9871 5.20543 40.9473 5.20543 40.8403C5.20543 40.7595 5.88369 38.0177 6.71267 34.7476C8.35252 28.2785 8.41188 28.1198 9.40872 27.5356C9.91738 27.2374 10.217 27.2001 15.7289 26.7457C18.9114 26.4833 21.713 26.2621 21.9547 26.2541C22.3548 26.2409 22.5175 26.3632 23.7648 27.6144ZM38.6749 26.7325C44.5339 27.2087 44.7278 27.2328 45.2703 27.5506C45.5777 27.7307 45.9655 28.0859 46.1322 28.3399C46.3489 28.67 46.8651 30.4976 47.9417 34.7472C48.7702 38.0172 49.4479 40.759 49.4479 40.8399C49.4479 40.9474 48.8419 40.9871 47.2019 40.9871H45.3004C45.1098 40.9871 44.955 40.8332 44.9538 40.6427L44.9211 35.227L44.8872 29.6309C44.8866 29.527 44.8394 29.4289 44.7587 29.3636L44.5911 29.228C44.3082 28.9989 43.9952 28.9892 36.9071 28.9892H30.3529C30.0444 28.9892 29.8897 28.6164 30.1075 28.3979L30.8886 27.6144C31.6423 26.8583 32.3444 26.2401 32.4487 26.2407C32.5529 26.2414 35.3547 26.4627 38.6749 26.7325ZM22.7025 35.1415C22.7025 35.3329 22.5473 35.488 22.3559 35.488H17.1409H11.9259C11.7345 35.488 11.5793 35.3329 11.5793 35.1415V33.1759V31.2104C11.5793 31.019 11.7345 30.8638 11.9259 30.8638H17.1409H22.3559C22.5473 30.8638 22.7025 31.019 22.7025 31.2104V35.1415ZM30.0762 35.1415C30.0762 35.3329 29.9211 35.488 29.7297 35.488H27.3267H24.9237C24.7323 35.488 24.5771 35.3329 24.5771 35.1415V31.2104C24.5771 31.019 24.7323 30.8638 24.9237 30.8638H27.3267H29.7297C29.9211 30.8638 30.0762 31.019 30.0762 31.2104V35.1415ZM43.074 33.1759V35.1415C43.074 35.3329 42.9188 35.488 42.7274 35.488H37.5124H32.2974C32.1061 35.488 31.9509 35.3329 31.9509 35.1415V31.2104C31.9509 31.019 32.1061 30.8638 32.2974 30.8638H37.5124H42.7274C42.9188 30.8638 43.074 31.019 43.074 31.2104V33.1759ZM37.5124 37.3627H42.7274C42.9188 37.3627 43.074 37.5179 43.074 37.7093V44.2366V50.7638C43.074 50.9552 42.9188 51.1104 42.7274 51.1104H27.3267H11.9259C11.7345 51.1104 11.5793 50.9552 11.5793 50.7638V44.2366V37.7093C11.5793 37.5179 11.7345 37.3627 11.9259 37.3627H17.1409C25.6862 37.3627 26.8602 37.3627 37.5124 37.3627ZM9.70479 44.7677V46.3023C9.70479 46.5031 9.53463 46.6619 9.33429 46.648L9.05877 46.6289C7.8946 46.5483 7.03924 46.9816 6.43085 47.9599C6.15552 48.4029 6.14002 48.5601 6.08028 51.5166L6.02882 54.064C6.02369 54.3179 5.75618 54.4803 5.52856 54.3676L5.48263 54.3448C4.6674 53.9412 3.86228 53.0808 3.42461 52.1456C2.75634 50.7173 2.86932 49.864 4.59166 43.3305L4.64709 43.1201C4.68719 42.9679 4.82482 42.8618 4.98221 42.8618H7.20996H9.35813C9.54952 42.8618 9.70468 43.0169 9.70469 43.2083L9.70479 44.7677ZM50.0617 43.3305C51.784 49.864 51.897 50.7173 51.2287 52.1456C50.7911 53.0808 49.986 53.9412 49.1707 54.3448L49.1248 54.3676C48.8972 54.4803 48.6297 54.3179 48.6245 54.064L48.5731 51.5166C48.5133 48.5601 48.4978 48.4029 48.2225 47.9599C47.6141 46.9816 46.7588 46.5483 45.5946 46.6289L45.3191 46.648C45.1187 46.6619 44.9486 46.5031 44.9486 46.3023V44.7677L44.9487 43.2083C44.9487 43.0169 45.1038 42.8618 45.2952 42.8618H47.4434H49.6711C49.8285 42.8618 49.9662 42.9679 50.0063 43.1201L50.0617 43.3305ZM9.4882 48.7046C9.64368 48.877 9.69404 49.2993 9.72629 50.7011C9.7849 53.249 9.39934 53.0381 14.0822 53.0857C16.1426 53.1066 17.8283 53.1638 17.8283 53.2129C17.8283 53.5202 17.1258 54.2512 16.5586 54.5338L15.9775 54.8234C15.9295 54.8473 15.8766 54.8598 15.8229 54.8598H11.9298H8.30152C8.11012 54.8598 7.95496 54.7046 7.95496 54.5132V51.9014C7.95496 49.3239 7.98158 48.9135 8.1618 48.7144C8.43301 48.4147 9.22162 48.4089 9.4882 48.7046ZM46.4698 48.6927C46.6791 48.882 46.6984 49.1512 46.6984 51.8796V54.5132C46.6984 54.7046 46.5432 54.8598 46.3518 54.8598H42.7236H38.8304C38.7768 54.8598 38.7239 54.8473 38.6759 54.8234L38.0947 54.5338C37.5276 54.2512 36.8251 53.5202 36.8251 53.2129C36.8251 53.1638 38.5108 53.1066 40.5712 53.0857C45.254 53.0381 44.8685 53.249 44.9271 50.7011C44.9593 49.2993 45.0097 48.877 45.1651 48.7046C45.4171 48.4251 46.1667 48.4184 46.4698 48.6927Z"></path></mask><path fill-rule="evenodd" clip-rule="evenodd" d="M22.39 1.41621C21.0004 1.86488 19.8223 2.93283 19.3057 4.21248C19.017 4.92724 19.0156 4.95848 19.0156 10.6173C19.0156 15.7392 19.0382 16.3844 19.2434 17.1162C19.6046 18.4043 20.2717 19.6659 21.0179 20.4718L21.6104 21.1117C21.6697 21.1758 21.7026 21.2599 21.7026 21.3472V22.8218V24.1106C21.7026 24.292 21.5628 24.4427 21.3819 24.4562L16.2348 24.8404C13.2276 25.0648 10.4314 25.308 10.0212 25.3808C8.6386 25.626 7.30457 26.5646 6.72555 27.6994C6.58982 27.9654 5.28766 32.906 3.83191 38.6783C1.47481 48.024 1.18349 49.2896 1.17186 50.2355C1.13912 52.9051 2.79971 55.3003 5.3929 56.3236L6.2079 56.6452C6.24746 56.6608 6.28956 56.669 6.33208 56.6694L11.0169 56.7102C15.1539 56.7462 15.8666 56.7244 16.5458 56.542C17.9513 56.1644 19.1041 55.0946 19.6524 53.6587L19.7768 53.3329C19.8281 53.1987 19.9569 53.1101 20.1005 53.1101H27.3267H34.5528C34.6965 53.1101 34.8253 53.1987 34.8766 53.3329L35.001 53.6587C35.5493 55.0946 36.7021 56.1644 38.1076 56.542C38.7876 56.7247 39.4944 56.7458 43.6364 56.7077C48.1969 56.6657 48.4153 56.6527 49.1355 56.3831C51.7804 55.3928 53.511 52.9462 53.4839 50.2355C53.4744 49.2865 53.1933 48.0595 50.8448 38.7192C49.3992 32.9695 48.0959 28.0291 47.9487 27.7404C47.3625 26.5914 46.0602 25.6485 44.6987 25.387C44.3207 25.3144 41.5226 25.0704 38.481 24.8449L33.2717 24.4586C33.0907 24.4452 32.9507 24.2944 32.9507 24.113V22.8231V21.3472C32.9507 21.2599 32.9837 21.1758 33.043 21.1117L33.6355 20.4718C34.3816 19.6659 35.0487 18.4043 35.4099 17.1162C35.6151 16.3844 35.6378 15.7392 35.6378 10.6173C35.6378 4.94873 35.6369 4.92849 35.3459 4.20774C34.937 3.19453 33.9207 2.12934 32.9235 1.66892L32.2066 1.33786C32.1616 1.3171 32.1127 1.30621 32.0632 1.30593L27.5141 1.28061C24.0174 1.26111 22.7681 1.29411 22.39 1.41621ZM32.0486 3.31214C32.7648 3.61046 33.4311 4.33509 33.6419 5.04497C33.8038 5.59038 33.9084 7.61778 33.7746 7.61778C33.7466 7.61778 33.4514 7.47755 33.1184 7.30608C32.1652 6.81517 31.4219 6.74293 27.3267 6.74293C23.2315 6.74293 22.4881 6.81517 21.5349 7.30608C21.202 7.47755 20.9068 7.61778 20.8788 7.61778C20.7449 7.61778 20.8495 5.59038 21.0115 5.04497C21.2182 4.34859 21.88 3.61859 22.5775 3.31726C23.2346 3.03343 31.3691 3.02906 32.0486 3.31214ZM32.2008 8.91344C32.7678 9.21576 33.1808 9.59607 33.4 10.0174C33.4966 10.2031 33.5756 10.3858 33.5756 10.4236C33.5756 10.4614 30.7636 10.4923 27.3267 10.4923C23.8898 10.4923 21.0777 10.4604 21.0777 10.4216C21.0777 10.0816 21.7456 9.2945 22.265 9.02229C22.9493 8.6636 23.3596 8.63548 27.5766 8.65785C31.399 8.67823 31.8015 8.70035 32.2008 8.91344ZM30.5926 12.367H33.5001C33.6961 12.367 33.8531 12.5293 33.8465 12.7252L33.7923 14.3354C33.7198 16.4923 33.5615 17.2219 32.9212 18.3498C32.0054 19.9629 30.1206 21.2246 28.2328 21.4881C25.6673 21.846 22.9807 20.5491 21.7321 18.3498C21.0919 17.2219 20.9335 16.4923 20.861 14.3354L20.8068 12.7252C20.8002 12.5293 20.9572 12.367 21.1532 12.367H23.115C27.5445 12.367 24.6999 12.367 30.5926 12.367ZM26.3837 23.3644C27.5451 23.5117 28.8849 23.3589 30.0818 22.9426L30.4907 22.8004C30.7159 22.722 30.9511 22.8892 30.9511 23.1277V23.7854V24.7869C30.9511 24.8789 30.9145 24.9671 30.8493 25.0321L29.1389 26.7395L27.5715 28.3041C27.4362 28.4391 27.2171 28.4391 27.0818 28.3041L25.5145 26.7395L23.804 25.0321C23.7389 24.9671 23.7023 24.8789 23.7023 24.7869V23.7854V23.1277C23.7023 22.8892 23.9375 22.722 24.1627 22.8004L24.5715 22.9426C25.0496 23.1088 25.865 23.2986 26.3837 23.3644ZM23.7648 27.6144L24.5459 28.3979C24.7637 28.6164 24.6089 28.9892 24.3005 28.9892H17.7463C10.6581 28.9892 10.3452 28.9989 10.0622 29.228L9.89468 29.3636C9.81396 29.4289 9.76679 29.527 9.76616 29.6309L9.73228 35.227L9.6995 40.6427C9.69835 40.8332 9.54353 40.9871 9.35295 40.9871H7.45142C5.81458 40.9871 5.20543 40.9473 5.20543 40.8403C5.20543 40.7595 5.88369 38.0177 6.71267 34.7476C8.35252 28.2785 8.41188 28.1198 9.40872 27.5356C9.91738 27.2374 10.217 27.2001 15.7289 26.7457C18.9114 26.4833 21.713 26.2621 21.9547 26.2541C22.3548 26.2409 22.5175 26.3632 23.7648 27.6144ZM38.6749 26.7325C44.5339 27.2087 44.7278 27.2328 45.2703 27.5506C45.5777 27.7307 45.9655 28.0859 46.1322 28.3399C46.3489 28.67 46.8651 30.4976 47.9417 34.7472C48.7702 38.0172 49.4479 40.759 49.4479 40.8399C49.4479 40.9474 48.8419 40.9871 47.2019 40.9871H45.3004C45.1098 40.9871 44.955 40.8332 44.9538 40.6427L44.9211 35.227L44.8872 29.6309C44.8866 29.527 44.8394 29.4289 44.7587 29.3636L44.5911 29.228C44.3082 28.9989 43.9952 28.9892 36.9071 28.9892H30.3529C30.0444 28.9892 29.8897 28.6164 30.1075 28.3979L30.8886 27.6144C31.6423 26.8583 32.3444 26.2401 32.4487 26.2407C32.5529 26.2414 35.3547 26.4627 38.6749 26.7325ZM22.7025 35.1415C22.7025 35.3329 22.5473 35.488 22.3559 35.488H17.1409H11.9259C11.7345 35.488 11.5793 35.3329 11.5793 35.1415V33.1759V31.2104C11.5793 31.019 11.7345 30.8638 11.9259 30.8638H17.1409H22.3559C22.5473 30.8638 22.7025 31.019 22.7025 31.2104V35.1415ZM30.0762 35.1415C30.0762 35.3329 29.9211 35.488 29.7297 35.488H27.3267H24.9237C24.7323 35.488 24.5771 35.3329 24.5771 35.1415V31.2104C24.5771 31.019 24.7323 30.8638 24.9237 30.8638H27.3267H29.7297C29.9211 30.8638 30.0762 31.019 30.0762 31.2104V35.1415ZM43.074 33.1759V35.1415C43.074 35.3329 42.9188 35.488 42.7274 35.488H37.5124H32.2974C32.1061 35.488 31.9509 35.3329 31.9509 35.1415V31.2104C31.9509 31.019 32.1061 30.8638 32.2974 30.8638H37.5124H42.7274C42.9188 30.8638 43.074 31.019 43.074 31.2104V33.1759ZM37.5124 37.3627H42.7274C42.9188 37.3627 43.074 37.5179 43.074 37.7093V44.2366V50.7638C43.074 50.9552 42.9188 51.1104 42.7274 51.1104H27.3267H11.9259C11.7345 51.1104 11.5793 50.9552 11.5793 50.7638V44.2366V37.7093C11.5793 37.5179 11.7345 37.3627 11.9259 37.3627H17.1409C25.6862 37.3627 26.8602 37.3627 37.5124 37.3627ZM9.70479 44.7677V46.3023C9.70479 46.5031 9.53463 46.6619 9.33429 46.648L9.05877 46.6289C7.8946 46.5483 7.03924 46.9816 6.43085 47.9599C6.15552 48.4029 6.14002 48.5601 6.08028 51.5166L6.02882 54.064C6.02369 54.3179 5.75618 54.4803 5.52856 54.3676L5.48263 54.3448C4.6674 53.9412 3.86228 53.0808 3.42461 52.1456C2.75634 50.7173 2.86932 49.864 4.59166 43.3305L4.64709 43.1201C4.68719 42.9679 4.82482 42.8618 4.98221 42.8618H7.20996H9.35813C9.54952 42.8618 9.70468 43.0169 9.70469 43.2083L9.70479 44.7677ZM50.0617 43.3305C51.784 49.864 51.897 50.7173 51.2287 52.1456C50.7911 53.0808 49.986 53.9412 49.1707 54.3448L49.1248 54.3676C48.8972 54.4803 48.6297 54.3179 48.6245 54.064L48.5731 51.5166C48.5133 48.5601 48.4978 48.4029 48.2225 47.9599C47.6141 46.9816 46.7588 46.5483 45.5946 46.6289L45.3191 46.648C45.1187 46.6619 44.9486 46.5031 44.9486 46.3023V44.7677L44.9487 43.2083C44.9487 43.0169 45.1038 42.8618 45.2952 42.8618H47.4434H49.6711C49.8285 42.8618 49.9662 42.9679 50.0063 43.1201L50.0617 43.3305ZM9.4882 48.7046C9.64368 48.877 9.69404 49.2993 9.72629 50.7011C9.7849 53.249 9.39934 53.0381 14.0822 53.0857C16.1426 53.1066 17.8283 53.1638 17.8283 53.2129C17.8283 53.5202 17.1258 54.2512 16.5586 54.5338L15.9775 54.8234C15.9295 54.8473 15.8766 54.8598 15.8229 54.8598H11.9298H8.30152C8.11012 54.8598 7.95496 54.7046 7.95496 54.5132V51.9014C7.95496 49.3239 7.98158 48.9135 8.1618 48.7144C8.43301 48.4147 9.22162 48.4089 9.4882 48.7046ZM46.4698 48.6927C46.6791 48.882 46.6984 49.1512 46.6984 51.8796V54.5132C46.6984 54.7046 46.5432 54.8598 46.3518 54.8598H42.7236H38.8304C38.7768 54.8598 38.7239 54.8473 38.6759 54.8234L38.0947 54.5338C37.5276 54.2512 36.8251 53.5202 36.8251 53.2129C36.8251 53.1638 38.5108 53.1066 40.5712 53.0857C45.254 53.0381 44.8685 53.249 44.9271 50.7011C44.9593 49.2993 45.0097 48.877 45.1651 48.7046C45.4171 48.4251 46.1667 48.4184 46.4698 48.6927Z" fill="#BEC5D0"></path><path fill-rule="evenodd" clip-rule="evenodd" d="M22.39 1.41621C21.0004 1.86488 19.8223 2.93283 19.3057 4.21248C19.017 4.92724 19.0156 4.95848 19.0156 10.6173C19.0156 15.7392 19.0382 16.3844 19.2434 17.1162C19.6046 18.4043 20.2717 19.6659 21.0179 20.4718L21.6104 21.1117C21.6697 21.1758 21.7026 21.2599 21.7026 21.3472V22.8218V24.1106C21.7026 24.292 21.5628 24.4427 21.3819 24.4562L16.2348 24.8404C13.2276 25.0648 10.4314 25.308 10.0212 25.3808C8.6386 25.626 7.30457 26.5646 6.72555 27.6994C6.58982 27.9654 5.28766 32.906 3.83191 38.6783C1.47481 48.024 1.18349 49.2896 1.17186 50.2355C1.13912 52.9051 2.79971 55.3003 5.3929 56.3236L6.2079 56.6452C6.24746 56.6608 6.28956 56.669 6.33208 56.6694L11.0169 56.7102C15.1539 56.7462 15.8666 56.7244 16.5458 56.542C17.9513 56.1644 19.1041 55.0946 19.6524 53.6587L19.7768 53.3329C19.8281 53.1987 19.9569 53.1101 20.1005 53.1101H27.3267H34.5528C34.6965 53.1101 34.8253 53.1987 34.8766 53.3329L35.001 53.6587C35.5493 55.0946 36.7021 56.1644 38.1076 56.542C38.7876 56.7247 39.4944 56.7458 43.6364 56.7077C48.1969 56.6657 48.4153 56.6527 49.1355 56.3831C51.7804 55.3928 53.511 52.9462 53.4839 50.2355C53.4744 49.2865 53.1933 48.0595 50.8448 38.7192C49.3992 32.9695 48.0959 28.0291 47.9487 27.7404C47.3625 26.5914 46.0602 25.6485 44.6987 25.387C44.3207 25.3144 41.5226 25.0704 38.481 24.8449L33.2717 24.4586C33.0907 24.4452 32.9507 24.2944 32.9507 24.113V22.8231V21.3472C32.9507 21.2599 32.9837 21.1758 33.043 21.1117L33.6355 20.4718C34.3816 19.6659 35.0487 18.4043 35.4099 17.1162C35.6151 16.3844 35.6378 15.7392 35.6378 10.6173C35.6378 4.94873 35.6369 4.92849 35.3459 4.20774C34.937 3.19453 33.9207 2.12934 32.9235 1.66892L32.2066 1.33786C32.1616 1.3171 32.1127 1.30621 32.0632 1.30593L27.5141 1.28061C24.0174 1.26111 22.7681 1.29411 22.39 1.41621ZM32.0486 3.31214C32.7648 3.61046 33.4311 4.33509 33.6419 5.04497C33.8038 5.59038 33.9084 7.61778 33.7746 7.61778C33.7466 7.61778 33.4514 7.47755 33.1184 7.30608C32.1652 6.81517 31.4219 6.74293 27.3267 6.74293C23.2315 6.74293 22.4881 6.81517 21.5349 7.30608C21.202 7.47755 20.9068 7.61778 20.8788 7.61778C20.7449 7.61778 20.8495 5.59038 21.0115 5.04497C21.2182 4.34859 21.88 3.61859 22.5775 3.31726C23.2346 3.03343 31.3691 3.02906 32.0486 3.31214ZM32.2008 8.91344C32.7678 9.21576 33.1808 9.59607 33.4 10.0174C33.4966 10.2031 33.5756 10.3858 33.5756 10.4236C33.5756 10.4614 30.7636 10.4923 27.3267 10.4923C23.8898 10.4923 21.0777 10.4604 21.0777 10.4216C21.0777 10.0816 21.7456 9.2945 22.265 9.02229C22.9493 8.6636 23.3596 8.63548 27.5766 8.65785C31.399 8.67823 31.8015 8.70035 32.2008 8.91344ZM30.5926 12.367H33.5001C33.6961 12.367 33.8531 12.5293 33.8465 12.7252L33.7923 14.3354C33.7198 16.4923 33.5615 17.2219 32.9212 18.3498C32.0054 19.9629 30.1206 21.2246 28.2328 21.4881C25.6673 21.846 22.9807 20.5491 21.7321 18.3498C21.0919 17.2219 20.9335 16.4923 20.861 14.3354L20.8068 12.7252C20.8002 12.5293 20.9572 12.367 21.1532 12.367H23.115C27.5445 12.367 24.6999 12.367 30.5926 12.367ZM26.3837 23.3644C27.5451 23.5117 28.8849 23.3589 30.0818 22.9426L30.4907 22.8004C30.7159 22.722 30.9511 22.8892 30.9511 23.1277V23.7854V24.7869C30.9511 24.8789 30.9145 24.9671 30.8493 25.0321L29.1389 26.7395L27.5715 28.3041C27.4362 28.4391 27.2171 28.4391 27.0818 28.3041L25.5145 26.7395L23.804 25.0321C23.7389 24.9671 23.7023 24.8789 23.7023 24.7869V23.7854V23.1277C23.7023 22.8892 23.9375 22.722 24.1627 22.8004L24.5715 22.9426C25.0496 23.1088 25.865 23.2986 26.3837 23.3644ZM23.7648 27.6144L24.5459 28.3979C24.7637 28.6164 24.6089 28.9892 24.3005 28.9892H17.7463C10.6581 28.9892 10.3452 28.9989 10.0622 29.228L9.89468 29.3636C9.81396 29.4289 9.76679 29.527 9.76616 29.6309L9.73228 35.227L9.6995 40.6427C9.69835 40.8332 9.54353 40.9871 9.35295 40.9871H7.45142C5.81458 40.9871 5.20543 40.9473 5.20543 40.8403C5.20543 40.7595 5.88369 38.0177 6.71267 34.7476C8.35252 28.2785 8.41188 28.1198 9.40872 27.5356C9.91738 27.2374 10.217 27.2001 15.7289 26.7457C18.9114 26.4833 21.713 26.2621 21.9547 26.2541C22.3548 26.2409 22.5175 26.3632 23.7648 27.6144ZM38.6749 26.7325C44.5339 27.2087 44.7278 27.2328 45.2703 27.5506C45.5777 27.7307 45.9655 28.0859 46.1322 28.3399C46.3489 28.67 46.8651 30.4976 47.9417 34.7472C48.7702 38.0172 49.4479 40.759 49.4479 40.8399C49.4479 40.9474 48.8419 40.9871 47.2019 40.9871H45.3004C45.1098 40.9871 44.955 40.8332 44.9538 40.6427L44.9211 35.227L44.8872 29.6309C44.8866 29.527 44.8394 29.4289 44.7587 29.3636L44.5911 29.228C44.3082 28.9989 43.9952 28.9892 36.9071 28.9892H30.3529C30.0444 28.9892 29.8897 28.6164 30.1075 28.3979L30.8886 27.6144C31.6423 26.8583 32.3444 26.2401 32.4487 26.2407C32.5529 26.2414 35.3547 26.4627 38.6749 26.7325ZM22.7025 35.1415C22.7025 35.3329 22.5473 35.488 22.3559 35.488H17.1409H11.9259C11.7345 35.488 11.5793 35.3329 11.5793 35.1415V33.1759V31.2104C11.5793 31.019 11.7345 30.8638 11.9259 30.8638H17.1409H22.3559C22.5473 30.8638 22.7025 31.019 22.7025 31.2104V35.1415ZM30.0762 35.1415C30.0762 35.3329 29.9211 35.488 29.7297 35.488H27.3267H24.9237C24.7323 35.488 24.5771 35.3329 24.5771 35.1415V31.2104C24.5771 31.019 24.7323 30.8638 24.9237 30.8638H27.3267H29.7297C29.9211 30.8638 30.0762 31.019 30.0762 31.2104V35.1415ZM43.074 33.1759V35.1415C43.074 35.3329 42.9188 35.488 42.7274 35.488H37.5124H32.2974C32.1061 35.488 31.9509 35.3329 31.9509 35.1415V31.2104C31.9509 31.019 32.1061 30.8638 32.2974 30.8638H37.5124H42.7274C42.9188 30.8638 43.074 31.019 43.074 31.2104V33.1759ZM37.5124 37.3627H42.7274C42.9188 37.3627 43.074 37.5179 43.074 37.7093V44.2366V50.7638C43.074 50.9552 42.9188 51.1104 42.7274 51.1104H27.3267H11.9259C11.7345 51.1104 11.5793 50.9552 11.5793 50.7638V44.2366V37.7093C11.5793 37.5179 11.7345 37.3627 11.9259 37.3627H17.1409C25.6862 37.3627 26.8602 37.3627 37.5124 37.3627ZM9.70479 44.7677V46.3023C9.70479 46.5031 9.53463 46.6619 9.33429 46.648L9.05877 46.6289C7.8946 46.5483 7.03924 46.9816 6.43085 47.9599C6.15552 48.4029 6.14002 48.5601 6.08028 51.5166L6.02882 54.064C6.02369 54.3179 5.75618 54.4803 5.52856 54.3676L5.48263 54.3448C4.6674 53.9412 3.86228 53.0808 3.42461 52.1456C2.75634 50.7173 2.86932 49.864 4.59166 43.3305L4.64709 43.1201C4.68719 42.9679 4.82482 42.8618 4.98221 42.8618H7.20996H9.35813C9.54952 42.8618 9.70468 43.0169 9.70469 43.2083L9.70479 44.7677ZM50.0617 43.3305C51.784 49.864 51.897 50.7173 51.2287 52.1456C50.7911 53.0808 49.986 53.9412 49.1707 54.3448L49.1248 54.3676C48.8972 54.4803 48.6297 54.3179 48.6245 54.064L48.5731 51.5166C48.5133 48.5601 48.4978 48.4029 48.2225 47.9599C47.6141 46.9816 46.7588 46.5483 45.5946 46.6289L45.3191 46.648C45.1187 46.6619 44.9486 46.5031 44.9486 46.3023V44.7677L44.9487 43.2083C44.9487 43.0169 45.1038 42.8618 45.2952 42.8618H47.4434H49.6711C49.8285 42.8618 49.9662 42.9679 50.0063 43.1201L50.0617 43.3305ZM9.4882 48.7046C9.64368 48.877 9.69404 49.2993 9.72629 50.7011C9.7849 53.249 9.39934 53.0381 14.0822 53.0857C16.1426 53.1066 17.8283 53.1638 17.8283 53.2129C17.8283 53.5202 17.1258 54.2512 16.5586 54.5338L15.9775 54.8234C15.9295 54.8473 15.8766 54.8598 15.8229 54.8598H11.9298H8.30152C8.11012 54.8598 7.95496 54.7046 7.95496 54.5132V51.9014C7.95496 49.3239 7.98158 48.9135 8.1618 48.7144C8.43301 48.4147 9.22162 48.4089 9.4882 48.7046ZM46.4698 48.6927C46.6791 48.882 46.6984 49.1512 46.6984 51.8796V54.5132C46.6984 54.7046 46.5432 54.8598 46.3518 54.8598H42.7236H38.8304C38.7768 54.8598 38.7239 54.8473 38.6759 54.8234L38.0947 54.5338C37.5276 54.2512 36.8251 53.5202 36.8251 53.2129C36.8251 53.1638 38.5108 53.1066 40.5712 53.0857C45.254 53.0381 44.8685 53.249 44.9271 50.7011C44.9593 49.2993 45.0097 48.877 45.1651 48.7046C45.4171 48.4251 46.1667 48.4184 46.4698 48.6927Z" stroke="#BEC5D0" stroke-width="0.693117" mask="url(#path-1-outside-1_3065_836)"></path></svg>