<svg version="1.2" xmlns="http://www.w3.org/2000/svg" viewBox="0 0 2719 3812" width="2719" height="3812">
	<title>mover-svg</title>
	<style>
		tspan { white-space:pre } 
		.s0 { fill: #ff7a06 } 
		.s1 { fill: #f5f5f6 } 
		.s2 { fill: #393939 } 
		.s3 { fill: #ffb492 } 
		.s4 { fill: #4897d8 } 
		.s5 { fill: #2b6da3 } 
		.s6 { fill: #5e7ca9 } 
		.s7 { fill: #6f4326 } 
		.s8 { fill: #ebebeb } 
		.s9 { fill: #86a341 } 
		.s10 { fill: #757575 } 
		.s11 { fill: #a95d3a } 
		.s12 { fill: #1a1a1a } 
		.s13 { fill: #252525 } 
		.s14 { fill: #484848 } 
		.s15 { fill: #a5422b } 
		.s16 { fill: #a6c341 } 
		.s17 { fill: #cb3517 } 
		.s18 { fill: #45709c } 
		.s19 { fill: #bf986a } 
		.s20 { fill: #af895c } 
		.s21 { fill: #d2a978 } 
		.s22 { fill: #cca372 } 
		.s23 { fill: #cf7851 } 
		.s24 { fill: #f5f5f5 } 
		.s25 { fill: #ad6747 } 
		.s26 { fill: #263238 } 
	</style>
	<path id="Фигура_10" fill-rule="evenodd" class="s0" d="m380.3 1354c-16.6-45 18.5-106.6 18.5-106.6-17.8-49.7 4.3-87 4.3-87l24-37c-122.1-4.1-210-92.4-210-92.4 2.8-22.9 32.7-62.1 32.7-62.1 96.7-364.1 233.9-328.5 233.9-328.5 57.4-39.2 158.8-70.7 158.8-70.7 18.7-8.6 17.4-23.9 17.4-23.9 11-55.2 68.5-56.6 68.5-56.6l46.8 6.5 182.7 53.3c25.1-17 55.5 30.5 55.5 30.5l26.1 26.1 22.9-3.3c22.1-25.8 68.5-8.7 68.5-8.7 47.3-10.3 105.5 3.3 105.5 3.3 25.1-6.6 41.4 5.4 41.4 5.4 38.4-7.3 87 32.7 87 32.7 23.4-3.3 32.6 14.1 32.6 14.1 36.9-5.8 69.7 7.6 69.7 7.6-68.5 79.1-71.8 204.5-71.8 204.5 7 22.6-162.1-32.6-162.1-32.6-50.2 186.4-124 401.4-124 401.4-13.5 26.1-17.5 58.8-17.5 58.8-5.6 43-64.1 56.5-64.1 56.5l-280.7-34.8-203.4 28.3z"/>
	<path id="Фигура_27" fill-rule="evenodd" class="s1" d="m721.9 496.8c1-11.4-9.8-7.6-9.8-7.6-88.3 24.8-59.8 128.4-59.8 128.4 40 111.8 198 181.6 198 181.6 165.1-86.4 165.3-220.8 165.3-220.8-54-64.8-57.7-19.6-57.7-19.6 27.4 119.5-104.4 156.7-104.4 156.7-126.4-21-163.2-133.8-163.2-133.8-19-41.3 27.2-45.7 27.2-45.7 7.7-0.3 4.4-39.2 4.4-39.2z"/>
	<path id="Фигура_1" fill-rule="evenodd" class="s2" d="m248.7 3565.6c22.5 31.2-13.1 54.4-13.1 54.4-53.7 23.9-82.7-27.2-82.7-27.2-65-73-62-200.1-62-200.1 0.7-89.6-41.3-179.5-41.3-179.5-65.7-183.2 21.8-158.9 21.8-158.9 110-25.1 127.2 3.3 127.2 3.3l45.7 212.1 21.8 25.1c14.9 132.8-32.7 119.6-32.7 119.6-7.8 24.4 7.7 56.6 7.7 56.6 12.5 15.7 7.6 94.6 7.6 94.6z"/>
	<path id="Фигура_2" fill-rule="evenodd" class="s3" d="m233.4 3051.1c-53.5-1.7-62 30.4-62 30.4-22.2 90 5.5 194.8 5.5 194.8 6.8 9.6 26.1 11.9 26.1 11.9 35.3 8 62 3.3 62 3.3 16.5-48.4 74-122.9 74-122.9z"/>
	<path id="Фигура_3" fill-rule="evenodd" class="s2" d="m666.4 3393.8c0-0.1 59.1 64.2 77.2 105.5 0 0 17.9 4.1 20.7 22.8 0 0 23.3 19.2 26.1 29.4 0 0 17.8 33.8-6.5 44.6 0 0-54.9 26.1-167.5 26.1 0 0-52.4 7.5-76.2-44.6 0 0-19.8-40.5-13-62 0 0 13.4-16.4 3.2-28.3 0 0-14-49.2-3.2-69.6z"/>
	<path id="Фигура_4" fill-rule="evenodd" class="s4" d="m696.9 3390.5c13.6 39.5-30.5 25-30.5 25-142.5 4.1-280.7 57.7-280.7 57.7-42.2-102.3-52.2-332.9-52.2-332.9-8.2-97.1-11.9-325.3-11.9-325.3-18-65.7-2.2-142.5-2.2-142.5-24.8-124.6-20.7-204.5-20.7-204.5 11-61-5.4-130.6-5.4-130.6-11-41.5-12-135.9-12-135.9-25.4-50-19.6-114.3-19.6-114.3-10.7-528.9 100.1-671.2 100.1-671.2 14.1-25.9 13.1-60.9 13.1-60.9 0.7-8.9 16.3-14.1 16.3-14.1 40-14.8 54.4-38.1 54.4-38.1 17-20 52.2-42.4 52.2-42.4 151.4-237.6 125.1-380.8 125.1-380.8 7.3-30.4 1.1-40.2 1.1-40.2-16.4-91.8-93.6-225.2-93.6-225.2l59.9-26.1c82 131.3 89.2 245.8 89.2 245.8 14.5 4.9 18.4 49 18.4 49l8.7 47.9c44.4 17 288.3 5.4 288.3 5.4 5.5-38.3 13.1-85.9 13.1-85.9l13-16.4-1.1-40.2-8.7-17.4c12.8-65 3.3-196.9 3.3-196.9q5 0.6 9.8 2 4.9 1.3 9.4 3.4 4.6 2.1 8.8 4.8 4.2 2.8 7.9 6.1c10.3 3.7 17.4 2.2 17.4 2.2 18.2 27.3 13.1 141.4 13.1 141.4l-6.6 117.5c3.7 31.6-13 88.1-13 88.1 9.1 33.4-4.4 96.8-4.4 96.8-8.7 242.9-28.2 307.9-28.2 307.9 7.2 31.3-15.3 63.1-15.3 63.1-7.3 13.1 3.3 25 3.3 25 9.5 24.8 7.6 49 7.6 49 4.4 28.4 34.8 45.6 34.8 45.6 40.9 40.9-1.1 72.9-1.1 72.9-13.8 26.3-7.6 76.2-7.6 76.2 10.9 27-19.6 60.9-19.6 60.9-0.7 31.4-13 82.7-13 82.7 8 27.7 10.9 62 10.9 62 34.2 134.2 1 145.8 1 145.8 48.9 94.8 22.9 205.6 22.9 205.6 4.4 84.4-26.1 306.7-26.1 306.7 38.5 125.9-130.6 254.6-130.6 254.6-77 80-218.6 249.1-218.6 249.1 31.7 133.7 19.6 341.6 19.6 341.6zm-53.3-1192.3q-0.9 3.7-1.9 7.3-1.1 3.6-2.3 7.1-1.2 3.6-2.6 7-1.4 3.5-3 6.9c32 36.9 29.3 94.6 29.3 94.6 3.2 73-19.5 174.1-19.5 174.1 8 24 11.9 78.3 11.9 78.3 10.4-3.2 21.8-18.5 21.8-18.5-28.1-75.3-7.6-151.2-7.6-151.2 0.8-47.3 10.9-109.9 10.9-109.9-20.9-40-37-95.7-37-95.7z"/>
	<path id="Фигура_36" fill-rule="evenodd" class="s5" d="m687.1 989.6c23 84.5-89.2 329.6-89.2 329.6 58.1 48.3 379.6 34.8 379.6 34.8 56-162.4 26.1-352.4 26.1-352.4 26.4-7.7-316.5-12-316.5-12z"/>
	<path id="Фигура_31" fill-rule="evenodd" class="s6" d="m1005.8 1426.9c-115.4 75.1-555.9-6.5-555.9-6.5 497.7 100.1 555.9 6.5 555.9 6.5z"/>
	<path id="Фигура_5" fill-rule="evenodd" class="s5" d="m332.4 2914c-39.5 27.2-117.4 134.9-117.4 134.9 67.5 112 228.4 248 228.4 248 40.3 8.3 169.7-179.5 169.7-179.5z"/>
	<path id="Фигура_6" fill-rule="evenodd" class="s7" d="m197.5 1552c-8.9 115 47.9 415.6 47.9 415.6l508-210-62-426.4z"/>
	<path id="Фигура_7" fill-rule="evenodd" class="s8" d="m205.2 1567.3l36.9 376.4c15.3 17.9 480.9-202.4 480.9-202.4-25.2-243.4-69.7-389.4-69.7-389.4z"/>
	<path id="Фигура_8" fill-rule="evenodd" class="s9" d="m503.2 1520.5c40.1-39.2 212.2-124 212.2-124 18.4-5.7 7.6 10.8 7.6 10.8-129.3 83.6-219.8 113.2-219.8 113.2z"/>
	<path id="Фигура_9" fill-rule="evenodd" class="s10" d="m651.2 1455.2l31.5 206.7 42.5-19.6-30.5-206.7z"/>
	<path id="Фигура_11" fill-rule="evenodd" class="s3" d="m421.6 1122.3c-50.2 116.1-89.2 144.7-89.2 144.7-28.5 20.2-20.6 67.5-20.6 67.5 56.3 78.7 54.4 157.7 54.4 157.7 11.4 118.7 69.6 192.5 69.6 192.5 18.6 24.4 58.7 26.1 58.7 26.1 55.6 1.2 99 88.2 99 88.2 21 7.6 29.4 35.9 29.4 35.9 37.3 25.1 17.4 35.9 17.4 35.9-14.8 15.6-38.1-1.1-38.1-1.1 7.3 43.4-30.4 34.8-30.4 34.8-18.7-1.5-41.4 16.3-41.4 16.3-52.1 14.5-81.6 6.5-81.6 6.5-44.9 15.6-48.9-17.4-48.9-17.4-23.6-37.3-27.2-104.4-27.2-104.4-7.2-19-26.1-31.6-26.1-31.6-16-10.6-17.4-36.9-17.4-36.9-138.5-182.9-177.3-341.6-177.3-341.6-19-29.4 0-96.8 0-96.8 13-87.5 73.9-260 73.9-260 67.8 60.3 195.8 83.7 195.8 83.7z"/>
	<path id="Фигура_12" fill-rule="evenodd" class="s11" d="m529.3 1779.4c17.6 39.9 54.4 77.2 54.4 77.2-8.9 1.7-18.5-13-18.5-13-4.1-5.9-14.1-13.1-14.1-13.1-6.7-6.1-21.8-51.1-21.8-51.1z"/>
	<path id="Фигура_9_копия" fill-rule="evenodd" class="s12" d="m1513.6 2376.1l-20.3 62.9 14.8 1115.9 11.8 78.6 31.5 9.8 3.3 4.2 32 11.4 2.3 9.5 39 12.3 10.9-8.7 208.1 52.9 6.7 13.1 56.4 11.9 8.8-9.2 48.9 12.6 3.6-4.3 46.4 11.1 26.3-4.3 5.2-4.9 0.4-5.8 281.3-398.2 65.6-983.3-42.4-1.2-11.6-23c-2.7-5.1-10.2-5-10.2-5l-122.9-7.3-530.4 21.9-21.1 2.6-40.2 1.4-39.2 20z"/>
	<path id="Фигура_10_копия" fill-rule="evenodd" class="s13" d="m1634.4 2382.8l-3.1 28.1 272.5-5.8 25.2-30.2z"/>
	<path id="Фигура_11_копия" fill-rule="evenodd" class="s13" d="m1543.3 2450l-1.2 129.7 455.3 8 6.3-142.5z"/>
	<path id="Фигура_12_копия" fill-rule="evenodd" class="s2" d="m1561 2458.6l-1.4 52.4 416.5 0.4-0.1-51.3z"/>
	<path id="Фигура_13_копия" fill-rule="evenodd" class="s13" d="m1537.9 2583v134.4l454 20.2 5.6-147.3z"/>
	<path id="Фигура_14_копия" fill-rule="evenodd" class="s13" d="m1537.9 2720.6l1 130.7 448.5 33 4.6-145.1z"/>
	<path id="Фигура_15_копия" fill-rule="evenodd" class="s13" d="m1538.9 2853.4l-1.2 60.9 18.4 65.8 400.6 40.9 26.6-61.4 3-74.7z"/>
	<path id="Фигура_16_копия" fill-rule="evenodd" class="s14" d="m1572.9 3043.2l-9.8 78 4.9 30.6 320.8 46.5 4.6-31.8 35.6-81.8z"/>
	<path id="Фигура_17_копия" fill-rule="evenodd" class="s2" d="m1564.8 3123.3l3.8 29 318.6 45 7.3-28.7z"/>
	<path id="Фигура_18_копия" fill-rule="evenodd" class="s15" d="m1702.8 3073.5l-16.2 52.8 89.2 12.7 14-56.9z"/>
	<path id="Фигура_19_копия" fill-rule="evenodd" class="s14" d="m1619.9 3012.4l-0.1 19.6 42.5 7 1.1-21.2z"/>
	<path id="Фигура_20_копия" fill-rule="evenodd" class="s14" d="m1766.3 3028.1l-1.1 21.2 45.7 5.8 1-23.3z"/>
	<path id="Эллипс_1_копия" class="s16" d="m1692.5 3036.2c-4.3 0-7.7-3.5-7.7-7.7 0-4.2 3.4-7.7 7.7-7.7 4.2 0 7.7 3.5 7.7 7.7 0 4.2-3.5 7.7-7.7 7.7z"/>
	<path id="Эллипс_2_копия" class="s17" d="m1735.8 3042.6c-4.7 0-8.5-3.8-8.5-8.5 0-4.7 3.8-8.5 8.5-8.5 4.6 0 8.4 3.8 8.4 8.5 0 4.7-3.8 8.5-8.4 8.5z"/>
	<path id="Эллипс_3_копия" class="s18" d="m1879.3 3064.1c-6.8 0-12.4-5.5-12.4-12.4 0-6.9 5.6-12.4 12.4-12.4 6.9 0 12.5 5.5 12.5 12.4 0 6.9-5.6 12.4-12.5 12.4z"/>
	<path id="Фигура_21_копия" fill-rule="evenodd" class="s13" d="m1570.7 3153.3l35.5 413.1 246.9 55.7 34.6-424.3z"/>
	<path id="Фигура_22_копия" fill-rule="evenodd" class="s2" d="m1497.9 2911.5l39.9 215.6 12.2 0.8-17.6-214.5z"/>
	<path id="Фигура_23_копия" fill-rule="evenodd" class="s2" d="m1891.9 3173.4l14.4 2.8 120.9-217.1-41.3-3.3z"/>
	<path id="Фигура_24_копия" fill-rule="evenodd" class="s2" d="m2024.6 3281.5l-9.1-5.7-52 63.2-69.6 328.7 10.3 80.2 9-0.7-8.2-78.7 70.7-330.3z"/>
	<path id="Фигура_25_копия" fill-rule="evenodd" class="s14" d="m1610.3 3674.8l-20.2-7-4.5-9.4-60.8-385.5-25.7-80.3-1.1-278.4 39.3 211.3 60.3 477.1z"/>
	<path id="Фигура_26_копия" fill-rule="evenodd" class="s2" d="m1891.4 3175l13.8 1.8-37.6 452.9-14.4-4.5z"/>
	<path id="Фигура_27_копия" fill-rule="evenodd" class="s2" d="m2333.6 3296.5l-144.4 188.1-30.6 25.1-20.1-408.2c-3.4-23.4 3.1-50.9 3.1-50.9l64-500.6c3.8-20.7 17.4-27.3 17.4-27.3l142.4-22.9 21.2 24.4z"/>
	<path id="Фигура_28_копия" fill-rule="evenodd" class="s13" d="m2219.4 2528l26.6 26.9-58.6 511.1 2.3 418.6-31.7 24.5c-4.4-3.8-5.2-19.4-5.2-19.4l-16-392.9c-3.5-16.9 4.2-49.3 4.2-49.3l63.6-497.4c4.1-20.7 14.8-22.1 14.8-22.1z"/>
	<path id="Фигура_29_копия" fill-rule="evenodd" class="s2" d="m2353.7 2361.4l-14.9-26.1-133.6-8.1-426.2 15.7-109.9 8.4-53.4 2.3-40.3 20 535.8-15.6z"/>
	<path id="Фигура_13" fill-rule="evenodd" class="s2" d="m592.5 757l0.7 46.9 23.1 2.9 6.4 33.4-18.4 18.6 4.4 19.3 101.7-12.9-4.6-21.5-27-13.6 0.3-30.5 16.4-16.3-10.6-47.3z"/>
	<path id="Фигура_16" fill-rule="evenodd" class="s19" d="m1309.3 1550.9l14.2 829 993.2 23.9 318.7-81.6 5.4-818-1049.7 6.5z"/>
	<path id="Фигура_25" fill-rule="evenodd" class="s20" d="m2294.9 1549.8l344.9-44.5-1133.6 10.8-195.8 34.8z"/>
	<path id="Фигура_14" fill-rule="evenodd" class="s2" d="m1010.2 731.8c-1 3-10.9 54.4-10.9 54.4l17.4 6.5-1.1 32.6-20.7 14.2-3.2 20.7 94.6 17.4 7.6-30.5-11.9-7.6v-34.8l15.2-3.3 1.1-60.9c0 0-87.2-11.8-88.1-8.7z"/>
	<path id="Фигура_15" fill-rule="evenodd" class="s3" d="m1467.1 656.7c65.3 2.9 103.3-13 103.3-13 89.5-27.9 139.2 43.5 139.2 43.5 7.4 12.3 29.4 18.5 29.4 18.5 83.4 52.5 60.9 99 60.9 99-26.2 54.6-348.1 44.6-348.1 44.6-69.8 10.8-116.4 0-116.4 0-11.6 6.8-21.7 5.4-21.7 5.4-8.5 57-46.8 102.3-46.8 102.3-3.6 19.2-18.5 37-18.5 37 11.6 122.3-10.9 142.5-10.9 142.5-36.9 14.4-57.6-65.3-57.6-65.3-15.7 2.4-32.7-3.3-32.7-3.3 25.3 83-3.2 81.6-3.2 81.6-23.7-0.8-28.3-45.7-28.3-45.7-36.1-133.5-2.2-191.4-2.2-191.4 20.9-53 93.6-120.8 93.6-120.8 30.4-48.1 76.1-46.8 76.1-46.8 57.8-22.8 140.3-21.7 140.3-21.7 7.3-28.1 43.6-66.4 43.6-66.4z"/>
	<path id="Фигура_21" fill-rule="evenodd" class="s20" d="m2003.4 1546.6l40.2-54.4 25-672.3-73.9 12z"/>
	<path id="Фигура_17" fill-rule="evenodd" class="s21" d="m1309.3 1550.9l18.5 831.2 988.9 23.9-21.8-857.2z"/>
	<path id="Фигура_18" fill-rule="evenodd" class="s22" d="m1466 834l-3.3 711.5 543.9 1.1-6.5-715.8z"/>
	<path id="Фигура_19" fill-rule="evenodd" class="s20" d="m2013.2 801.4l6.5 721.3 529.8 4.3 37-37-3.3-685.3-40.3-14.2z"/>
	<path id="Фигура_20" fill-rule="evenodd" class="s21" d="m2019.7 1521.6l530.9 5.4-4.4-736.5-533 7.6z"/>
	<path id="Фигура_22" fill-rule="evenodd" class="s3" d="m709.9 446.8c14.5 11.7 7.6 87 7.6 87-43.5 4.8-32.6 41.3-32.6 41.3 38.7 123 167.5 143.6 167.5 143.6 147.8-51.1 106.6-163.1 106.6-163.1 45.6-52.5 35.9-92.5 35.9-92.5 23.5 5.5 34.9-33.7 34.9-33.7 33.8-73.2 16.3-91.4 16.3-91.4l-21.8-84.9-5.4-62-24-45.7-117.5-23.9-121.8 45.7-60.9 49-14.2 70.7-4.3 30.4c-26.3 11.8-10.9 37-10.9 37 21.4 91.2 44.6 92.5 44.6 92.5z"/>
	<path id="Фигура_26" fill-rule="evenodd" class="s23" d="m729.5 505.5c86.1 217.3 212.1 68.6 212.1 68.6-131.2 164.2-212.1-68.6-212.1-68.6z"/>
	<path id="Фигура_23" fill-rule="evenodd" class="s2" d="m987.3 215.1c18.4 22.4 24 141.4 24 141.4 12.2-23.8 33.7-18.5 33.7-18.5 16.3-144.2-19.6-191.5-19.6-191.5-32-64.6-69.6-47.8-69.6-47.8-15-3.4 13-10.9 13-10.9 9.5-12.3-20.6-1.1-20.6-1.1-0.7-29.3-12-16.3-12-16.3-8.9-14.3-15.2 13-15.2 13-7.5 10.2-10.9-11.9-10.9-11.9-11.6-15.7-40.3-5.5-40.3-5.5-34.7-15.6-85.9 18.5-85.9 18.5-53.1 12.3-82.7 63.1-82.7 63.1-37.4 40.2-32.6 86-32.6 86-13.6 53 5.4 83.7 5.4 83.7-4.1 14.3 12 21.8 12 21.8 11.5 6.1 9.8 35.9 9.8 35.9 13.6 10.2 3.2-46.8 3.2-46.8-3.4-69.4 18.5-91.4 18.5-91.4 25.2-14.9 35.9-35.9 35.9-35.9 31.3-24.5 67.5-3.2 67.5-3.2 21.7 18.3 67.4-20.7 67.4-20.7 15 6.8 53.3-5.4 53.3-5.4 44.9-2.1 45.7 43.5 45.7 43.5z"/>
	<path id="Фигура_24" fill-rule="evenodd" class="s24" d="m781.7 499l129.5 2.2c-76.2 107.7-129.5-2.2-129.5-2.2z"/>
	<path id="Прямоугольник_скругл._углы_1_копия" fill-rule="evenodd" class="s2" d="m898.3 345.6h39.9c1.3 0 2.6 0.3 3.8 0.8 1.2 0.5 2.3 1.2 3.2 2.1 1 1 1.7 2.1 2.2 3.3 0.5 1.2 0.8 2.5 0.8 3.8v8.3c0 1.3-0.3 2.6-0.8 3.8-0.5 1.2-1.2 2.3-2.2 3.3-0.9 0.9-2 1.6-3.2 2.1-1.2 0.5-2.5 0.8-3.8 0.8h-39.9c-1.3 0-2.6-0.3-3.8-0.8-1.2-0.5-2.3-1.2-3.2-2.1-1-1-1.7-2.1-2.2-3.3-0.5-1.2-0.8-2.5-0.8-3.8v-8.3c0-1.3 0.3-2.6 0.8-3.8 0.5-1.2 1.2-2.3 2.2-3.3 0.9-0.9 2-1.6 3.2-2.1 1.2-0.5 2.5-0.8 3.8-0.8z"/>
	<path id="Прямоугольник_скругл._углы_1" fill-rule="evenodd" class="s2" d="m761.3 345.6h39.8c1.3 0 2.6 0.3 3.8 0.8q1.8 0.8 3.3 2.1 1.3 1.5 2.1 3.3c0.5 1.2 0.8 2.5 0.8 3.8v8.3c0 1.3-0.3 2.6-0.8 3.8q-0.8 1.8-2.1 3.3-1.5 1.4-3.3 2.1c-1.2 0.5-2.5 0.8-3.8 0.8h-39.8c-1.4 0-2.7-0.3-3.9-0.8-1.2-0.5-2.3-1.2-3.2-2.1-0.9-1-1.7-2.1-2.2-3.3-0.5-1.2-0.7-2.5-0.7-3.8v-8.3c0-1.3 0.2-2.6 0.7-3.8 0.5-1.2 1.3-2.3 2.2-3.3 0.9-0.9 2-1.6 3.2-2.1 1.2-0.5 2.5-0.8 3.9-0.8z"/>
	<path id="Фигура_28" fill-rule="evenodd" class="s6" d="m649 2581.1c-15.5 12.7-42.4 89.2-42.4 89.2-82.5 30.3-279.6 243.7-279.6 243.7 137.4-144.4 274.1-237.1 274.1-237.1 12.7 16.2 47.9-95.8 47.9-95.8z"/>
	<path id="Фигура_29" fill-rule="evenodd" class="s6" d="m677.3 3054.3c-71.8 79.9-224.1 241.6-224.1 241.6-24.2 9.5-59.8-31.6-59.8-31.6-14.7-18.3-56.6-71.8-56.6-71.8 5.9 23.4 51.1 74 51.1 74 60.8 59.3 74 27.2 74 27.2 68.1-63 215.4-239.4 215.4-239.4z"/>
	<path id="Фигура_30" fill-rule="evenodd" class="s6" d="m714.3 2560.5c78.8-34.5 241.5 3.2 241.5 3.2-159.4-27.9-241.5-3.2-241.5-3.2z"/>
	<path id="Фигура_32" fill-rule="evenodd" class="s6" d="m1008 1703.2c-134 31.9-216.5 123-216.5 123 78-74.7 216.5-123 216.5-123z"/>
	<path id="Фигура_33" fill-rule="evenodd" class="s6" d="m738.2 2065.5c124.1-30.8 240.4 112 240.4 112-130.7-128.5-240.4-112-240.4-112z"/>
	<path id="Фигура_34" fill-rule="evenodd" class="s6" d="m323.7 2057.9c60.7 149.9 242.6 356.8 242.6 356.8-138-174.9-242.6-356.8-242.6-356.8z"/>
	<path id="Фигура_35" fill-rule="evenodd" class="s6" d="m668.6 2051.3c72.4-110.5 70.7-234.9 70.7-234.9-23.3 157.1-70.7 234.9-70.7 234.9z"/>
	<path id="Фигура_37" fill-rule="evenodd" class="s25" d="m1133.1 997.2c-1.9 36.3 14.1 70.7 14.1 70.7-10.4-34.7-14.1-70.7-14.1-70.7z"/>
	<path id="Фигура_38" fill-rule="evenodd" class="s25" d="m1170.1 994c-6.2 21.9 8.7 71.8 8.7 71.8q-2.3-8.8-4-17.7-1.6-8.9-2.7-18-1.1-9-1.6-18-0.5-9.1-0.4-18.1z"/>
	<path id="Фигура_39" fill-rule="evenodd" class="s25" d="m1208.2 990.7c-10.1 33.2 3.2 80.5 3.2 80.5-6.9-42-3.2-80.5-3.2-80.5z"/>
	<g id="&lt;Group&gt;">
		<g id="&lt;Group&gt;">
			<g id="&lt;Group&gt;">
				<g id="&lt;Group&gt;">
					<path id="&lt;Compound Path&gt;" fill-rule="evenodd" class="s26" d="m979.4 1215.3l-19.9 0.9 19.9 0.9v0.3c0 4.3-3.6 7.9-8 7.9h-14.8c-2.9 0-5.1-2.5-4.7-5.4q0.3-1.8 0.3-3.7c0-13.3-11.1-24.1-24.6-23.5-11.6 0.5-21.2 9.6-22.3 21.1-0.3 2.1-0.2 4.1 0.1 6.1 0.5 2.8-1.7 5.4-4.6 5.4h-12.9v-78.6h12.8l23.8 1.8c2.2 1.3 4.1 3.1 5.3 5.4l10.5 18.6 22.8 2.5c1.3 0 2.6 0.5 3.5 1.4l-45 1.2 54.4 1.4c0.9 0.6 1.7 1.5 2.3 2.4l-34.1 1.6 35.1 1.6q0.1 0.4 0.1 0.9zm-46.9-43.4l-9.6-17q0 0 0-0.1c-1.3-2.3-3.8-3.6-6.5-3.6h-22.4v20.7z"/>
					<path id="&lt;Compound Path&gt;" fill-rule="evenodd" class="s26" d="m928.7 1234.7c-10.3 0-18.5-8.2-18.5-18.5 0-10.2 8.2-18.5 18.5-18.5 10.2 0 18.5 8.3 18.5 18.5 0 10.3-8.3 18.5-18.5 18.5zm9.1-18.5c0-5-4.1-9.1-9.1-9.1-5 0-9.1 4.1-9.1 9.1 0 5 4.1 9.1 9.1 9.1 5 0 9.1-4.1 9.1-9.1z"/>
					<path id="&lt;Path&gt;" class="s0" d="m875.4 1163.6c0-11.7-6.9-22.4-17.6-27.2-3.8-1.8-8.1-2.7-12.4-2.7h-7.2-58.3-85.9c0 14.6 11.8 26.4 26.4 26.4h112.5c3.8 0 7.2 2.5 8.1 6.2h-120.3c0 14.6 11.8 26.4 26.3 26.4h94.6c3.9 0 7.2 2.5 8.2 6.2h-102.4c0 14.6 11.8 26.4 26.3 26.4h89.9 11.8z"/>
				</g>
			</g>
			<g id="&lt;Group&gt;">
				<path id="&lt;Path&gt;" class="s26" d="m884.2 1225.3h-4.8v-83.3c0-10.1-8.2-18.2-18.2-18.2h-1.6v-4.8h1.6c12.7 0 23 10.3 23 23z"/>
			</g>
		</g>
		<path id="&lt;Path&gt;" class="s26" d="m916.4 1145.6l-15.7 1.1h-12.8v-7.9h11.4c6.4 0 12.5 2.5 17.1 6.8z"/>
	</g>
</svg>