<?xml version="1.0" standalone="no"?>
<!DOCTYPE svg PUBLIC "-//W3C//DTD SVG 20010904//EN"
 "http://www.w3.org/TR/2001/REC-SVG-20010904/DTD/svg10.dtd">
<svg version="1.0" xmlns="http://www.w3.org/2000/svg"
 width="1218.000000pt" height="1218.000000pt" viewBox="0 0 1218.000000 1218.000000"
 preserveAspectRatio="xMidYMid meet">
<metadata>
Created by potrace 1.14, written by Peter Selinger 2001-2017
</metadata>
<g transform="translate(0.000000,1218.000000) scale(0.100000,-0.100000)"
fill="#000000" stroke="none">
<path d="M7014 8452 c-19 -3 -20 -9 -20 -96 l1 -93 50 -1 c97 -2 161 -11 225
-32 62 -21 171 -74 197 -95 7 -5 36 -30 66 -55 99 -83 200 -247 221 -360 3
-14 8 -36 12 -50 3 -14 7 -786 8 -1717 1 -930 4 -1695 8 -1698 6 -6 47 -8 144
-6 l40 1 -2 1698 c-1 933 -4 1715 -8 1737 -59 360 -328 651 -684 741 -63 15
-219 32 -258 26z"/>
<path d="M446 7818 c16 -176 38 -261 102 -399 48 -104 169 -266 247 -330 6 -5
26 -21 45 -37 109 -90 323 -186 460 -207 25 -4 54 -9 65 -11 11 -2 1059 -5
2329 -5 1270 0 2316 -5 2325 -9 9 -5 39 -19 66 -31 63 -29 115 -81 149 -147
14 -28 26 -54 26 -56 0 -5 -38 -7 -115 -6 -8 0 -44 0 -79 -1 -35 -1 -69 2 -75
5 -6 4 -11 4 -11 -1 0 -4 -16 -8 -35 -8 -19 0 -35 3 -35 7 0 4 -13 3 -29 -2
-15 -4 -33 -5 -40 -1 -6 4 -33 5 -59 1 -27 -3 -60 -3 -73 0 -13 4 -33 4 -44 0
-11 -4 -29 -4 -41 0 -11 5 -27 5 -34 0 -7 -5 -24 -4 -36 0 -14 6 -26 5 -29 0
-3 -5 -18 -5 -33 -1 -15 4 -38 5 -52 1 -14 -4 -36 -3 -50 0 -14 4 -34 4 -45 0
-11 -4 -29 -4 -41 0 -11 5 -27 4 -36 -1 -10 -6 -19 -6 -23 0 -3 7 -15 7 -29 1
-13 -5 -26 -6 -30 -3 -3 3 -30 5 -61 4 -54 -1 -72 -1 -97 -1 -7 1 -38 0 -69
-1 -30 -1 -60 0 -65 4 -6 3 -16 2 -23 -3 -8 -4 -27 -4 -42 0 -16 5 -29 5 -29
0 0 -4 -16 -4 -35 0 -21 5 -35 4 -35 -2 0 -5 -4 -6 -10 -3 -8 5 -38 6 -142 5
-10 0 -29 0 -43 0 -14 0 -32 0 -40 0 -8 0 -26 0 -40 0 -31 0 -51 0 -67 0 -7 1
-38 0 -69 -1 -30 -1 -60 0 -65 4 -6 3 -16 2 -23 -3 -8 -4 -27 -4 -42 0 -16 5
-29 5 -29 0 0 -4 -16 -4 -35 0 -21 5 -35 4 -35 -2 0 -5 -4 -6 -10 -3 -8 5 -38
6 -142 5 -10 0 -29 0 -43 0 -14 0 -32 0 -40 0 -8 0 -26 0 -40 0 -31 0 -51 0
-67 0 -7 1 -38 0 -69 -1 -30 -1 -60 0 -65 4 -6 3 -16 2 -23 -3 -8 -4 -27 -4
-42 0 -16 5 -29 5 -29 0 0 -4 -16 -4 -35 0 -21 5 -35 4 -35 -2 0 -5 -4 -6 -10
-3 -8 5 -38 6 -142 5 -10 0 -29 0 -43 0 -14 0 -32 0 -40 0 -8 0 -26 0 -40 0
-31 0 -51 0 -67 0 -7 1 -38 0 -69 -1 -30 -1 -60 0 -65 4 -6 3 -16 2 -23 -3 -8
-4 -27 -4 -42 0 -16 5 -29 5 -29 0 0 -4 -16 -4 -35 0 -21 5 -35 4 -35 -2 0 -5
-4 -6 -10 -3 -8 5 -38 6 -142 5 -10 0 -29 0 -43 0 -14 0 -32 0 -40 0 -8 0 -26
0 -40 0 -31 0 -51 0 -67 0 -7 1 -38 0 -69 -1 -30 -1 -60 0 -65 4 -6 3 -16 2
-23 -3 -8 -4 -27 -4 -42 0 -16 5 -29 5 -29 0 0 -4 -16 -4 -35 0 -21 5 -35 4
-35 -2 0 -5 -4 -6 -10 -3 -8 5 -38 6 -142 5 -10 0 -29 0 -43 0 -14 0 -32 0
-40 0 -8 0 -26 0 -40 0 -31 0 -51 0 -67 0 -7 1 -38 0 -69 -1 -30 -1 -60 0 -65
4 -6 3 -16 2 -23 -3 -8 -4 -26 -4 -41 0 -15 4 -33 4 -40 0 -7 -5 -23 -5 -34
-1 -12 4 -29 6 -40 3 -17 -4 -18 -11 -13 -85 4 -45 8 -91 11 -102 20 -91 28
-118 50 -178 89 -246 295 -469 532 -577 90 -41 101 -46 149 -59 90 -24 124
-31 196 -37 40 -4 938 -7 1994 -8 2075 -2 1935 1 2030 -54 55 -32 135 -141
135 -183 0 -5 -856 -9 -2023 -9 l-2024 0 3 -52 c3 -52 7 -89 19 -158 12 -68
64 -214 96 -270 5 -8 17 -31 28 -50 77 -143 271 -325 421 -396 93 -45 196 -83
240 -90 8 -2 31 -6 50 -10 19 -3 55 -8 80 -10 32 -3 4070 -7 4122 -4 9 0 3
2588 -6 2620 -3 14 -11 46 -16 73 -40 200 -165 424 -325 582 -169 166 -350
265 -590 320 -5 2 -26 6 -45 11 -19 5 -1420 10 -3112 11 l-3077 3 5 -52z"/>
<path d="M8119 7661 c-1 -3 -3 -772 -3 -1708 -2 -1530 0 -1703 14 -1704 8 0
130 0 271 0 211 0 263 2 294 15 74 31 117 102 109 183 -11 107 -9 242 3 308 7
39 15 79 17 91 13 68 107 257 160 323 92 114 238 230 358 284 205 93 446 108
663 41 47 -15 214 -92 225 -104 3 -3 30 -24 61 -47 109 -81 214 -210 271 -333
45 -98 55 -125 64 -165 28 -130 31 -184 23 -390 -3 -59 1 -77 21 -113 24 -43
69 -79 112 -88 48 -11 676 -5 718 6 73 20 135 68 187 145 22 34 31 60 39 123
6 41 5 42 -22 43 -52 2 -157 7 -299 14 -153 8 -248 12 -339 14 -95 2 -60 10
65 16 349 15 408 18 449 20 25 2 69 4 98 4 l52 1 0 610 0 610 -42 1 c-24 1
-65 2 -93 4 -27 1 -120 5 -205 9 -85 3 -199 9 -255 11 -187 10 -419 20 -622
29 -65 2 -63 16 3 17 83 2 239 7 239 9 0 0 47 3 105 5 58 2 164 7 235 10 72 3
177 8 235 11 58 3 150 7 205 10 55 3 110 5 123 5 12 -1 22 3 22 8 0 18 -77 90
-96 90 -21 -1 -406 9 -644 17 -85 3 -161 5 -167 4 -7 0 -19 0 -25 0 -7 0 -85
2 -173 4 -314 9 -662 18 -782 20 -121 2 -187 15 -82 17 84 1 324 7 544 14 110
3 306 8 435 11 231 5 483 12 508 13 21 2 13 16 -20 34 -18 9 -58 20 -88 23
-30 3 -68 7 -85 9 -16 2 -50 6 -75 9 -25 2 -65 7 -90 10 -62 7 -123 14 -200
22 -36 3 -78 8 -95 10 -16 2 -50 6 -75 8 -25 3 -61 7 -81 10 -20 2 -71 8 -115
11 -89 8 -92 9 -105 38 -5 12 -18 36 -29 52 -11 17 -23 37 -27 45 -11 24 -232
420 -269 482 -19 31 -34 58 -34 61 0 21 -86 142 -134 190 -88 87 -99 91 -256
102 -124 9 -146 11 -265 19 -166 13 -202 15 -288 22 -138 11 -151 12 -186 13
-64 2 -26 9 84 16 61 4 126 9 145 11 32 3 159 13 250 19 19 1 43 3 53 4 28 2
20 15 -35 56 -29 22 -54 43 -56 48 -2 4 -8 7 -14 7 -6 0 -32 13 -57 28 -81 50
-215 96 -346 118 -50 9 -584 13 -586 5z m1211 -496 c8 -5 21 -10 28 -11 23 -4
89 -54 114 -86 12 -17 42 -65 64 -107 23 -42 62 -111 88 -154 25 -43 46 -80
46 -81 0 -2 43 -79 95 -171 52 -92 95 -171 95 -175 0 -5 6 -11 13 -13 6 -3
-10 -6 -38 -7 -47 -1 -1385 -2 -1451 -1 l-30 1 0 403 c0 221 3 404 8 407 13
10 952 5 968 -5z m308 -1032 c-10 -2 -28 -2 -40 0 -13 2 -5 4 17 4 22 1 32 -1
23 -4z m812 -207 c0 -3 -4 -8 -10 -11 -5 -3 -10 -1 -10 4 0 6 5 11 10 11 6 0
10 -2 10 -4z"/>
<path d="M9648 5335 c-2 -2 -24 -6 -49 -9 -87 -12 -240 -77 -309 -131 -58 -45
-167 -167 -190 -212 -14 -26 -30 -55 -36 -63 -13 -18 -52 -140 -61 -195 -22
-125 2 -299 57 -422 135 -299 472 -477 790 -417 79 15 189 52 211 70 8 8 19
14 24 14 19 0 139 96 185 148 131 149 192 319 185 517 -9 252 -142 474 -363
604 -53 31 -172 77 -225 87 -36 6 -214 14 -219 9z m167 -381 c72 -17 141 -64
203 -139 21 -24 51 -99 56 -136 3 -19 6 -36 7 -39 1 -3 1 -27 0 -55 -4 -155
-135 -306 -287 -331 -66 -11 -134 -7 -179 11 -11 4 -33 13 -50 20 -37 15 -120
89 -139 124 -42 76 -54 117 -60 196 -4 57 33 169 73 218 57 70 148 125 225
138 46 7 107 4 151 -7z"/>
</g>
</svg>
