<svg version="1.2" xmlns="http://www.w3.org/2000/svg" viewBox="0 0 630 390" width="630" height="390">
	<title>apartment-svg</title>
	<style>
		.s0 { fill: #eaf1fc } 
		.s1 { fill: #ffffff } 
		.s2 { fill: #d6e0f0 } 
		.s3 { fill: #e9edf4 } 
		.s4 { fill: #cde4f7 } 
		.s5 { fill: #fcfbfc } 
		.s6 { fill: #0b2b46 } 
		.s7 { fill: #fa6e59 } 
		.s8 { fill: #c93d37 } 
		.s9 { fill: #ff524f } 
		.s10 { fill: #ff8500 } 
		.s11 { fill: #af7309 } 
		.s12 { fill: #a97000 } 
		.s13 { fill: #f4a721 } 
		.s14 { fill: #e5b571 } 
		.s15 { fill: #e4e6e6 } 
		.s16 { fill: #ce8d4d } 
		.s17 { fill: #eccf8e } 
		.s18 { fill: #c07532 } 
		.s19 { fill: #dadcdc } 
		.s20 { fill: #f8c47a } 
		.s21 { fill: #e19a54 } 
		.s22 { fill: #ffdf9a } 
		.s23 { fill: #eccf8f } 
		.s24 { fill: #c07632 } 
		.s25 { fill: #e8815f } 
		.s26 { fill: #f09976 } 
		.s27 { fill: #ffda35 } 
		.s28 { fill: #ef265b } 
		.s29 { fill: #fb446c } 
		.s30 { fill: #ffb492 } 
		.s31 { fill: #da7547 } 
		.s32 { fill: #393939 } 
		.s33 { fill: #ff7a06 } 
		.s34 { fill: #f5f5f5 } 
		.s35 { fill: #b45820 } 
		.s36 { fill: #4897d8 } 
		.s37 { fill: #5276ac } 
		.s38 { fill: #7b963b } 
		.s39 { fill: #617a27 } 
		.s40 { fill: #566c22 } 
		.s41 { fill: #ffdb5c } 
	</style>
	<path id="Layer" class="s0" d="m314.5 388c173.7 0 314.5-20.2 314.5-45.1 0-24.9-140.8-45.1-314.5-45.1-173.7 0-314.5 20.2-314.5 45.1 0 24.9 140.8 45.1 314.5 45.1z"/>
	<path id="Layer" class="s1" d="m572.3 326.3c35.9-74.6 55.7-217.3-22.1-264.7-50.9-31-103.8 8.8-158.2 10.7-42.6 1.5-83.8-32.3-122.3-41.9-101-25.2-259.7 40.4-189.9 295.9 174.5-0.5 318 0.5 492.5 0z"/>
	<path id="Layer" class="s1" d="m219 205.7h-102.3c-0.7 0-1.3-0.3-1.8-0.7-0.5-0.5-0.7-1.1-0.7-1.8v-148.4c-3.9-55.5 18.3-53.6 53.6-53.6 56.1-3.6 53.7 24 53.7 53.7v148.4c0 0.7-0.3 1.3-0.7 1.8-0.5 0.3-1.2 0.6-1.8 0.6z"/>
	<path id="Layer" fill-rule="evenodd" class="s2" d="m219.5 207.9h-104.4c-0.8 0-1.6-0.3-2.2-0.9-0.6-0.6-0.9-1.4-0.9-2.2v-172.2c0-8.6 3.4-16.9 9.5-23 6.1-6.1 14.3-9.5 23-9.5h45.5c8.6 0 16.9 3.4 23 9.5 6.1 6.1 9.5 14.4 9.6 23v172.2c0 0.8-0.3 1.6-0.9 2.2-0.6 0.5-1.4 0.9-2.2 0.9zm-104.2-3.3h104v-172c0-7.8-3.1-15.2-8.6-20.7-5.5-5.5-12.9-8.6-20.7-8.6h-45.6c-7.7 0-15.2 3.1-20.7 8.6-5.5 5.5-8.6 12.9-8.6 20.7z"/>
	<path id="Layer" class="s2" d="m167.3 206.5c-0.4 0-0.9-0.2-1.2-0.5-0.3-0.3-0.5-0.7-0.5-1.2v-203.2c0-0.4 0.2-0.9 0.5-1.2 0.3-0.3 0.7-0.5 1.2-0.5 0.4 0 0.9 0.2 1.2 0.5 0.3 0.3 0.5 0.7 0.5 1.2v203.2c0 0.4-0.2 0.9-0.5 1.2-0.4 0.4-0.8 0.5-1.2 0.5z"/>
	<path id="Layer" class="s2" d="m220.9 159.6h-107.3c-0.4 0-0.9-0.2-1.2-0.5-0.3-0.3-0.5-0.7-0.5-1.2 0-0.4 0.2-0.9 0.5-1.2 0.3-0.3 0.7-0.5 1.2-0.5h107.3c0.4 0 0.9 0.2 1.2 0.5 0.3 0.3 0.5 0.7 0.5 1.2 0 0.4-0.2 0.9-0.5 1.2-0.3 0.3-0.7 0.5-1.2 0.5zm0-102h-107.3c-0.4 0-0.9-0.2-1.2-0.5-0.3-0.3-0.5-0.7-0.5-1.2 0-0.4 0.2-0.9 0.5-1.2 0.3-0.3 0.7-0.5 1.2-0.5h107.3c0.4 0 0.9 0.2 1.2 0.5 0.3 0.3 0.5 0.7 0.5 1.2 0 0.4-0.2 0.9-0.5 1.2-0.3 0.3-0.7 0.5-1.2 0.5zm0 51h-107.3c-0.4 0-0.9-0.2-1.2-0.5-0.3-0.3-0.5-0.7-0.5-1.2 0-0.4 0.2-0.9 0.5-1.2 0.3-0.3 0.7-0.5 1.2-0.5h107.3c0.4 0 0.9 0.2 1.2 0.5 0.3 0.3 0.5 0.7 0.5 1.2 0 0.4-0.2 0.9-0.5 1.2-0.3 0.3-0.7 0.5-1.2 0.5z"/>
	<path id="Layer" class="s3" d="m424.6 211h5.1v28.6h-5.1z"/>
	<path id="Layer" class="s2" d="m445.3 240.9h-36.3c0-1.4 0.6-2.7 1.5-3.7 1-1 2.3-1.5 3.7-1.5h25.8c1.4 0 2.7 0.6 3.7 1.6 1 0.9 1.6 2.2 1.6 3.6z"/>
	<path id="Layer" class="s4" d="m445.5 215.6h-36.7c-0.4 0-0.9-0.1-1.2-0.3q-0.6-0.3-0.9-0.9c-0.2-0.4-0.4-0.8-0.4-1.2 0-0.4 0-0.9 0.2-1.3l11.1-24.8c0.2-0.5 0.5-0.8 1-1.1 0.4-0.3 0.9-0.4 1.4-0.4h14.5c0.5 0 1 0.1 1.4 0.4 0.4 0.3 0.8 0.7 1 1.1l11.1 24.8c0.2 0.4 0.2 0.8 0.2 1.3 0 0.4-0.2 0.8-0.4 1.2-0.2 0.4-0.6 0.7-0.9 0.9-0.6 0.2-1 0.3-1.4 0.3z"/>
	<path id="Layer" class="s3" d="m365.6 240.9h101.9v90.2h-101.9z"/>
	<path id="Layer" class="s2" d="m374.5 247.8h83.4v31.6h-83.4zm0 38.2h83.4v36.6h-83.4zm-4.6 45.1h9.1v7.9h-9.1zm83.4 0h9.1v7.9h-9.1z"/>
	<path id="Layer" class="s5" d="m382.8 297.6c2.5 0 4.5-2 4.5-4.5 0-2.5-2-4.5-4.5-4.5-2.5 0-4.5 2-4.5 4.5 0 2.5 2 4.5 4.5 4.5z"/>
	<path id="Layer" class="s3" d="m379.8 253.6h41.4v11h-41.4z"/>
	<path id="Layer" class="s5" d="m388.3 265h45.7v14.4h-45.7z"/>
	<path id="Layer" class="s3" d="m478.5 65.6c-5.5 2-2.9 9.5 0.6 13 3.8 3.7 9.7 5.8 13 1.7 0.2-0.2 0.4-0.5 0.4-0.9 0-0.3 0-0.6-0.2-0.9-0.2-0.3-0.4-0.5-0.7-0.7-0.3-0.1-0.6-0.2-0.9-0.2-2.4 0.1-4.1-0.6-3.2-2.3 0.9-1.7 4.5 1.6 5.9 1.6 3 0.1 4.1-2.2 3.5-4.1-0.6-1.5-4.7-2.1-3.7-3.3 1.5-1.8 3.6 1 5.1-0.3 2.4-1.9 1.9-5.7 0.9-7.1-0.8-1.1-4.3-2.8-6.8-1.7-2.4 1-1.7 6.4-2.9 6.5-2.2 0.1-0.4-4.6-2.1-6-1-0.8-4.1-0.3-4.8 1.7-1 2.6 2.7 7.6 0 8-2.4 0.3-1-2.5-1.8-4.1-0.4-0.3-1.3-1.3-2.3-0.9z"/>
	<path id="Layer" class="s4" d="m461.2 108.8c-0.2-0.1-0.3-0.2-0.2-0.3 6-18.2 18.2-33.7 34.5-43.8 0.1-0.1 0.3-0.1 0.3 0.1 0.1 0.1 0.1 0.3-0.1 0.3-16.2 10-28.3 25.5-34.3 43.6 0 0.1-0.1 0.1-0.2 0.1z"/>
	<path id="Layer" class="s3" d="m463.1 49.9c-4 4.3 1.7 9.8 6.4 11.3 5.1 1.6 11.3 0.8 12.4-4.3 0.1-0.3 0.1-0.6 0-1-0.1-0.3-0.3-0.6-0.6-0.8q-0.5-0.3-0.9-0.3-0.5 0-0.9 0.3c-2.1 1.1-3.9 1.4-3.9-0.6 0-1.9 4.8-0.6 5.9-1.2 2.7-1.3 2.7-3.9 1.2-5.2-1.2-1.1-5.1 0.2-4.8-1.3 0.5-2.3 3.7-0.7 4.4-2.5 1.2-2.8-0.8-6-2.4-6.8-1.2-0.6-5-0.6-6.9 1.6-1.7 2 1.4 6.5 0.3 7.1-1.9 1.1-2.4-3.9-4.6-4.4-1.3-0.3-3.8 1.6-3.5 3.7 0.3 2.8 5.8 5.6 3.6 7.1-2 1.4-2.1-1.8-3.4-2.8-0.3-0.1-1.5-0.7-2.3 0.1z"/>
	<path id="Layer" class="s4" d="m467 96.5c-0.1 0-0.1 0-0.2-0.1 0 0 0 0 0-0.1v-0.1c-2.7-18.9 1.2-38.2 11.2-54.5 0.1-0.1 0.2-0.1 0.3-0.1 0.1 0.1 0.1 0.2 0.1 0.3-9.9 16.2-13.8 35.4-11.1 54.3 0 0.1 0 0.2-0.3 0.3z"/>
	<path id="Layer" class="s3" d="m458.9 59.6c5 3 0.9 10-3.2 12.6-4.5 2.8-10.7 3.7-13.1-0.9-0.2-0.3-0.2-0.6-0.2-0.9 0-0.3 0.1-0.6 0.4-0.9 0.2-0.2 0.5-0.4 0.8-0.5q0.4-0.2 0.9 0c2.3 0.6 4.1 0.3 3.7-1.6-0.5-1.9-4.8 0.6-6.1 0.4-2.9-0.6-3.6-3-2.6-4.7 0.9-1.4 5-1.1 4.3-2.5-1-2.1-3.7 0.3-5-1.2-1.9-2.4-0.8-6 0.6-7.1 1-0.9 4.8-1.9 7-0.3 2.3 1.6 0.3 6.6 1.5 6.9 2.1 0.6 1.4-4.4 3.3-5.5 1.2-0.6 4.1 0.6 4.4 2.6 0.4 2.8-4.1 6.9-1.7 7.7 2.3 0.8 1.5-2.2 2.6-3.6 0.4-0.3 1.4-1.1 2.4-0.5z"/>
	<path id="Layer" class="s4" d="m467 105.5c-0.1 0-0.1 0-0.2-0.1 0 0 0 0 0-0.1v-0.1c-2.2-18.9-10.9-36.4-24.7-49.6 0 0-0.1-0.1-0.1-0.2 0-0.1 0-0.1 0.1-0.2 0 0 0.1-0.1 0.2-0.1 0.1 0 0.1 0 0.2 0.1 13.9 13.2 22.6 30.9 24.8 49.9 0 0.3-0.1 0.4-0.3 0.4z"/>
	<path id="Layer" class="s1" d="m457.3 114.4h17.9l2.8-24.5h-23.5z"/>
	<path id="Layer" class="s3" d="m478 94.2h-23.6c-0.2 0-0.3-0.1-0.4-0.2-0.1-0.1-0.2-0.3-0.2-0.4l-0.3-3q0-0.2 0-0.3c0-0.1 0.1-0.2 0.1-0.2 0.1-0.1 0.1-0.1 0.2-0.2q0.1-0.2 0.3 0h24.2q0.2 0 0.3 0c0.1 0 0.2 0.1 0.2 0.2 0.1 0.1 0.1 0.1 0.1 0.2q0 0.1 0 0.3l-0.3 3c0 0.1 0 0.2 0 0.2 0 0.1-0.1 0.1-0.1 0.2-0.1 0.1-0.1 0.1-0.2 0.1-0.1 0.1-0.2 0.1-0.3 0.1z"/>
	<path id="Layer" class="s2" d="m432.5 114.7c-0.1 0-0.1 0-0.2 0-0.1 0-0.1 0.1-0.2 0.1-0.1 0.1-0.1 0.1-0.1 0.2 0 0.1 0 0.1 0 0.2v1.5c0 0.1 0 0.1 0 0.2 0 0.1 0.1 0.1 0.1 0.2 0.1 0.1 0.1 0.1 0.2 0.1 0.1 0 0.1 0 0.2 0h56.9c0.1 0 0.1 0 0.2 0 0.1 0 0.1-0.1 0.2-0.1 0.1-0.1 0.1-0.1 0.1-0.2 0-0.1 0-0.1 0-0.2v-1.5c0-0.1 0-0.1 0-0.2 0-0.1-0.1-0.1-0.1-0.2-0.1-0.1-0.1-0.1-0.2-0.1-0.1 0-0.1 0-0.2 0zm94.6 50.5c-0.1 0-0.1 0-0.2 0-0.1 0-0.1 0.1-0.2 0.1-0.1 0.1-0.1 0.1-0.1 0.2 0 0.1 0 0.1 0 0.2v1.5c0 0.1 0 0.1 0 0.2 0 0.1 0.1 0.1 0.1 0.2 0.1 0.1 0.1 0.1 0.2 0.1 0.1 0 0.1 0 0.2 0h56.9c0.1 0 0.1 0 0.2 0 0.1 0 0.1-0.1 0.2-0.1 0.1-0.1 0.1-0.1 0.1-0.2 0-0.1 0-0.1 0-0.2v-1.5c0-0.1 0-0.1 0-0.2 0-0.1-0.1-0.1-0.1-0.2-0.1-0.1-0.1-0.1-0.2-0.1-0.1 0-0.1 0-0.2 0z"/>
	<path id="Layer" class="s2" d="m312.8 136.8c15.3 0 27.8-12.4 27.8-27.8 0-15.3-12.4-27.8-27.8-27.8-15.4 0-27.8 12.5-27.8 27.9 0 15.3 12.4 27.7 27.8 27.7z"/>
	<path id="Layer" class="s5" d="m312.8 130.2c11.6 0 21.1-9.4 21.1-21.1 0-11.6-9.4-21.1-21.1-21.1-11.6 0-21.1 9.4-21.1 21.1 0 11.6 9.4 21.1 21.1 21.1z"/>
	<path id="Layer" class="s2" d="m300.5 102.5l11.7 9.3c0.3 0.2 0.6 0.3 1 0.3 0.4 0 0.7-0.2 1-0.4l11-10.8c0.3-0.3 0.4-0.6 0.4-1 0-0.4-0.1-0.7-0.4-1-0.3-0.3-0.6-0.4-1-0.4-0.4 0-0.7 0.1-1 0.4l-10.1 9.9-10.6-8.6c-0.2-0.2-0.5-0.3-0.8-0.3-0.3 0-0.6 0-0.9 0.2-0.1 0.1-0.3 0.2-0.3 0.3-0.1 0.1-0.2 0.3-0.3 0.5-0.1 0.2-0.1 0.4-0.1 0.6 0 0.2 0.1 0.4 0.2 0.5 0 0.2 0.1 0.4 0.2 0.5z"/>
	<path id="Layer" class="s2" d="m313 113.6c1.6 0 2.9-1.3 2.9-2.9 0-1.6-1.3-2.9-2.9-2.9-1.6 0-2.9 1.3-2.9 2.9 0 1.6 1.3 2.9 2.9 2.9z"/>
	<path id="Layer" class="s0" d="m384.6 34.3h2.8v45.1h-2.8z"/>
	<path id="Layer" class="s2" d="m408 108.6c0-5.8-2.3-11.4-6.4-15.4-4.1-4.1-9.7-6.4-15.4-6.4-5.7 0-11.3 2.3-15.4 6.4-4.1 4.1-6.4 9.7-6.4 15.4z"/>
	<path id="Layer" class="s2" d="m393.9 86.9c0 6.4-3.6 11.6-8.1 11.6-4.5 0-8.1-5.2-8.1-11.6 0-6.4 3.6-11.6 8.1-11.6 4.5 0 8.1 5.1 8.1 11.6z"/>
	<path id="Layer" class="s3" d="m551 165.3h5.7v-32.5c-0.9-0.4-1.9-0.7-2.9-0.7-1 0-2 0.2-2.9 0.7z"/>
	<path id="Layer" class="s4" d="m533.6 165.2h4.9v-32.5c-0.8-0.4-1.6-0.7-2.5-0.7-0.9 0-1.7 0.2-2.5 0.7v32.5z"/>
	<path id="Layer" class="s1" d="m570.4 165.2l4.5-2.1-13.6-29.5c-0.9-0.1-1.7 0.1-2.5 0.4-0.8 0.4-1.5 0.9-2 1.7zm-31.8-0.1h5.7v-32.5c-0.9-0.4-1.9-0.7-2.9-0.7-1 0-2 0.2-2.9 0.7z"/>
	<path id="Layer" fill-rule="evenodd" class="s6" d="m117.3 346.6h5.9l-2.1-40.9h-12.9zm-66.7-40.9h-12.9l-2.1 40.9h5.9z"/>
	<path id="Layer" class="s6" d="m131.3 307.4h-105.9v10h105.9z"/>
	<path id="Layer" class="s7" d="m32.9 278.3c0.1 3.7 1.6 7.3 4.2 9.9 2.6 2.6 6.2 4.1 10 4.2h67c3.7 0 7.2-1.6 9.8-4.2 2.6-2.6 4.1-6.2 4.1-9.9v-65.4c0-1.8-0.4-3.6-1.1-5.3q-1-2.5-3-4.5-2-2-4.5-3c-1.7-0.7-3.5-1.1-5.3-1.1h-67c-7.7 0-14.2 6.2-14.2 13.9z"/>
	<path id="Layer" fill-rule="evenodd" class="s8" d="m122.8 255.4c0.7-2.4 2.3-4.3 4.4-5.5 2.1-1.2 4.7-1.5 7-0.8l10 2.9c2.4 0.7 4.3 2.3 5.5 4.4 1.2 2.1 1.5 4.7 0.8 7l-12.8 43.8c-0.7 2.4-2.3 4.3-4.4 5.5-2.1 1.2-4.7 1.5-7 0.8l-10-2.9c-2.4-0.7-4.3-2.3-5.5-4.4-1.2-2.1-1.5-4.7-0.8-7zm-73.1 43.8c0.7 2.3 0.4 4.9-0.8 7-1.2 2.1-3.1 3.7-5.5 4.4l-10 2.9c-2.3 0.7-4.9 0.4-7-0.8-2.1-1.2-3.7-3.1-4.4-5.5l-12.6-43.8c-0.7-2.3-0.4-4.9 0.8-7 1.2-2.1 3.1-3.7 5.5-4.4l10-2.9c2.3-0.7 4.9-0.4 7 0.8 2.1 1.2 3.7 3.1 4.4 5.5z"/>
	<path id="Layer" class="s9" d="m32.9 298.3c0 2 0.4 3.9 1.1 5.7 0.8 1.8 1.9 3.5 3.3 4.9 1.4 1.4 3 2.5 4.9 3.3 1.8 0.8 3.8 1.1 5.7 1.1h65.1c2 0 3.9-0.4 5.7-1.1 1.8-0.8 3.5-1.9 4.9-3.3 1.4-1.4 2.5-3 3.3-4.9 0.8-1.8 1.1-3.8 1.1-5.7 0-2-0.4-3.9-1.1-5.7-0.8-1.8-1.9-3.5-3.3-4.9-1.4-1.4-3-2.5-4.9-3.3-1.8-0.8-3.8-1.1-5.7-1.1h-65.1c-2 0-3.9 0.4-5.7 1.1-1.8 0.8-3.5 1.9-4.9 3.3-1.4 1.4-2.5 3-3.3 4.9-0.7 1.7-1.1 3.7-1.1 5.7z"/>
	<path id="Layer" class="s10" d="m90.7 287.5c0 0 6.6-5.6 4.2-13.7-2.4-8.1-13.3-14.4-26.6-11.8-13.2 2.5-23.7 16.5-24.7 25.5z"/>
	<path id="Layer" fill-rule="evenodd" class="s11" d="m46.7 269.2c-2.3-2-5.2-3.1-8.3-3.1l2 8.4zm14.5 5.2c2-5.7-3.7-10.3-3.7-10.3l-3.6 5.4c0 0 5.2 10.6 7.3 4.9z"/>
	<path id="Layer" class="s10" d="m59.9 271.2c0 0 7.1 5.2 6.4 10.9-0.7 5.7-8.5 6.7-19.6 6.1-11.1-0.6-9.5-8-9.1-10.2 0.5-2.2 8.3-17.6 22.3-6.8z"/>
	<path id="Layer" fill-rule="evenodd" class="s12" d="m59 274.9c-0.6 1.6-2.2 2.6-3.9 2.6-3.1 0.2-3.1-2.4-3.1-2.4 0 0 3.1 3.5 7-0.2zm-10.6 0.4c-0.6 1.6-2.2 2.6-3.9 2.6-3.1 0.2-3.1-2.4-3.1-2.4 0 0 3.3 3.5 7-0.2zm1.7 5.6c0 0-2-1.4-1.3-1.8 0.7-0.3 1.5-0.4 2.3-0.3 1.2 0.5-1 2.1-1 2.1z"/>
	<path id="Layer" class="s13" d="m62.6 273.6c0 0 9.5 8.6-2 13.8 0 0.1 7.6-4.4 2-13.8z"/>
	<path id="Layer" class="s11" d="m78 285.5c-7.4-1-9.5-2.2-10.5 0.8-1 3 17 7.1 23.1 1.2 6-5.9 4.5-12.2 4.5-12.2 0 0-3 12.2-17.1 10.2z"/>
	<g id="Папка 1">
		<path id="Layer" class="s14" d="m392 310h-72v42.2h72z"/>
		<path id="Layer" class="s15" d="m349.8 319h-24.2v11.1h24.2z"/>
		<path id="Layer" class="s16" d="m283.4 303.1l36.7 7v42.1l-36.7-7z"/>
		<path id="Layer" class="s17" d="m392 310l-36.2-6.9h-72.4l36.2 6.9z"/>
		<path id="Layer" class="s18" d="m309 308v11.7l-11.1-2v-11.8z"/>
		<path id="Layer" class="s16" d="m370.3 305.9l1.5 0.3 2.3 0.4 7.6 1.4h-72.8l-10.9-2.1z"/>
		<path id="Layer" class="s18" d="m309 338.4v11.8l-11.1-2.1v-11.8z"/>
		<path id="Layer" class="s14" d="m387.1 271.3h-64.3v37.3h64.3z"/>
		<path id="Layer" class="s19" d="m349.8 275.5h-21.4v9h21.4z"/>
		<path id="Layer" class="s16" d="m291 265.1l31.8 6.3v37.3l-31.8-6.2z"/>
		<path id="Layer" class="s17" d="m387.1 271.3l-32-6.2h-64.1l32 6.2z"/>
		<path id="Layer" class="s18" d="m311 296.3v9.9l-9.7-1.8v-10z"/>
		<path id="Layer" class="s18" d="m313.1 269.6v10l-9.7-1.8v-10z"/>
		<path id="Layer" class="s16" d="m368 267.9l1.4 0.2 2 0.3 6.7 0.9h-65l-9.6-1.4z"/>
		<path id="Layer" class="s20" d="m199.7 296.2h-73.3v74h73.3z"/>
		<path id="Layer" class="s21" d="m90.4 284.5l36 12.3v73.5l-36-12.2z"/>
		<path id="Layer" class="s22" d="m199.7 296.8l-36.5-12.2h-73l36.5 12.2z"/>
		<path id="Layer" class="s15" d="m154.6 301.4h-24.8v10.7h24.8z"/>
		<path id="Layer" class="s16" d="m139.3 284.6l30.2 12.2h-12.7l-29.3-12.2zm30.2 12.2v14.1h-12.5l-0.1-14.1zm0 59.2v14.1h-12.5l-0.1-14.1z"/>
		<path id="Layer" class="s14" d="m187.4 241.4h-52.1v52.1h52.1z"/>
		<path id="Layer" class="s16" d="m109.2 232.7l26.1 8.6v52.1l-26.1-8.6z"/>
		<path id="Layer" class="s23" d="m187.4 241.4l-26.1-8.6h-52.1l26.1 8.6z"/>
		<path id="Layer" class="s24" d="m127.3 276.2v14.5l-7.8-2.6v-14.5zm0-37.5v14.5l-7.8-2.6v-14.5z"/>
		<path id="Layer" class="s16" d="m171.6 236.2l1.1 0.3 1.6 0.6 5.5 1.7h-52.4l-7.8-2.6z"/>
		<path id="Layer" class="s15" d="m155.2 244.7h-17.7v7.7h17.7z"/>
		<path id="Layer" class="s25" d="m141.4 165.2c1.2-1.2 2.3-2.5 3.4-3.9 0.1-0.2 0.3-0.3 0.5-0.4q0.3-0.1 0.6 0c0.2 0.1 0.4 0.2 0.5 0.3q0.1 0.3 0.3 0.6c0.1 1.7 0.8 3.4 2 3.6 1.7 0.2 3.1-0.9 4.6-1.7 0.9-0.6 2.1-0.9 3.2-0.8 0.6 0.1 1.2 0.5 1.6 1 0.8 1.3-0.1 2.9-1.2 3.9-1.9 1.7-4.2 2.9-6.7 3.4-2.5 0.5-5.1 0.3-7.4-0.6-0.5-1.8-1-3.6-1.4-5.4z"/>
		<path id="Layer" class="s26" d="m164.4 186.8c0 0 7.2 26.8 7.3 45.4 0 0 3.1 9.1-1.2 12.8l-11.3-57.3z"/>
		<path id="Layer" class="s6" d="m141.6 141.1c-1.1 0.5-2 1.4-2.6 2.5-0.6 1.1-0.8 2.3-0.7 3.5 0.1 1.3 0.8 2.6 0.6 3.9-0.1 1.6-1.3 2.9-2.4 4.1-3.3 3.5-6 7.6-7.8 12.1-1.7 4.5-2.4 9.5-1.1 14.2 1.2 4.6 4.5 8.9 8.9 10.8 4.4 1.9 9.4 1.3 14 0.1 3.8-1 7.5-2.7 10.7-5 3.1-2.5 5.5-5.9 6.2-9.8 0.7-3.9-0.5-8.2-3.5-10.9-1.5-1.4-3.6-2.3-4.5-4.1-1.2-2.6 0.3-5.5 0.7-8.2 0.2-1.6 0.1-3.1-0.3-4.6-0.5-1.5-1.2-2.9-2.3-4.1-2-2.3-4.8-3.3-7.7-3.7-2.6-0.7-5.7-2-8.2-0.8z"/>
		<path id="Layer" class="s26" d="m177.7 249.8c0.1 0.8 0.2 1.5 0.3 2.3 1 7.7 2.1 15 3.3 21.6 1.1 6.6 2.2 12.7 3.1 17.6 0.3 1.6 0.6 3 0.8 4.4 0.3 1.2 0.5 2.4 0.7 3.5 1 1 2.2 1.7 3.6 1.9 0.1-1.5 0.3-3.2 0.5-5.1 0.1-1.6 0.3-3.3 0.4-5.2 0.4-5.1 0.8-11.2 1.2-18 0.4-6.8 0.8-14.2 1-22 0.1-4.6 0.1-9.1 0.1-13.3-5-0.6-10-0.7-14.9-0.2-0.4 0.1-0.9 0.1-1.3 0.1 0.3 4.2 0.8 8.2 1.2 12.4zm-22.1 1.7c0.1 7.8 0.3 15.3 0.7 22.1 0.3 6.8 0.7 12.9 1 18 0.1 1.5 0.2 3 0.3 4.4 0.1 1.5 0.2 2.8 0.3 4 0.9 1 2 1.8 3.3 2.1 0.3-1.5 0.7-3.1 1-5 0.3-1.6 0.7-3.3 1-5.3 1-5 2.1-11.1 3.4-17.8 1.2-6.7 2.5-14.1 3.6-21.9 0.1-1 0.3-2 0.4-3 0.6-4.2 1.1-8.4 1.5-12.3h-2.1c-4.8 0-9.6 0.5-14.2 1.5-0.3 4.2-0.3 8.6-0.2 13.2zm-10-76.1c1.6 1.1 3.5 1.8 5.5 1.9 2 0.1 3.9-0.4 5.6-1.4-0.5-1.3-0.8-2.7-1-4.1-0.1-0.4-0.1-0.8-0.1-1.2 0-0.2 0-0.5-0.1-0.7v-0.6c-3.4-0.5-6.7-1.7-9.7-3.5 0.1 1.3 0.2 2.7 0.2 4 0 0.7 0 1.4-0.1 2.1 0.1 1.1 0 2.3-0.3 3.5z"/>
		<path id="Layer" class="s25" d="m146.1 169.8c0 0.7 0 1.4-0.1 2.1 1.5 0.6 3 1 4.6 1 1.7 0 3.5-0.4 5-1-0.1-0.4-0.1-0.8-0.1-1.2 0-0.2 0-0.5-0.1-0.7v-0.6c-3.4-0.5-6.7-1.7-9.7-3.5 0.4 1.2 0.4 2.5 0.4 3.9z"/>
		<path id="Layer" class="s26" d="m143.6 161.2c0.2 1 0.5 2 0.6 2.7 0.1 0.2 0.1 0.5 0.1 0.7 0.1 0.3 0.3 0.6 0.4 0.9 0.8 2 2.3 3.7 4.1 4.8 0.6 0.4 1.2 0.7 1.9 0.9 1.5 0.5 3.2 0.6 4.8 0.1h0.1c1.2-0.4 2.3-1.1 3.1-2 1.7-2.1 1.7-5 0.9-7.6-0.1-0.2-0.1-0.5-0.2-0.7-0.6-1.7-1.5-4-2.2-6.1-1.8-0.6-3.3-1.9-4.2-3.5-1.9 3.9-5 7.1-8.7 9.3-0.2 0.2-0.4 0.4-0.7 0.5z"/>
		<path id="Layer" class="s26" d="m144 162c0-0.2-0.1-0.5-0.3-0.7-0.2-0.2-0.4-0.3-0.7-0.3-0.3 0-0.5 0.1-0.7 0.2-0.2 0.1-0.4 0.3-0.5 0.5-0.2 0.4-0.3 1-0.2 1.5 0.1 0.5 0.4 0.9 0.8 1.2 0.4 0.4 0.8 0.8 1.4 1 0.3 0.1 0.6 0.2 0.8 0.1 0.3 0 0.6-0.1 0.8-0.2-0.2-1.2-0.6-2.3-1.4-3.3z"/>
		<path id="Layer" class="s27" d="m156.3 249.5l38.2-1.6c1.6-24.7-30.6-18-30.8-48.3l3.5-1.5c-1.9-18.1-9.4-21.6-9.7-21.6-0.3-0.3-0.6-0.5-0.6-0.6l-11.1-0.5c0 0-0.3 0.1-0.9 0.2-2.3 0.6-8.2 2.6-11.8 10.1-1.8 4-2.8 8.3-2.9 12.7 1.2 1.2 2.7 2 4.3 2.4-0.9 16.4 6.2 46.9 21.8 48.7z"/>
		<path id="Layer" class="s26" d="m129.1 208.3v0.9c0 1.2 0.1 2.5 0.1 3.7 0.1 0.8 0.1 1.5 0.2 2.1 0.1 0.5 0.1 1 0.1 1.5 0 0.3 0.1 0.6 0.1 0.9 0 0.3 0.1 0.6 0.1 0.9q0.1 0.9 0.3 1.8c0.1 0.6 0.2 1.2 0.3 1.7l0.4 1.7c0.3 1.1 0.5 2.2 0.8 3.3 0.6 2.1 1.2 4 1.9 5.8 0.3 0.9 0.7 1.7 1 2.6 0.3 0.8 0.7 1.5 1 2.1-0.3 1.8-0.1 3.6 0.6 5.2 0.9 1.9 2.3 3.5 4.1 4.5 0.3 0.1 0.5 0.2 0.8 0.2 0.3 0 0.6-0.1 0.8-0.2 0.3-0.1 0.5-0.4 0.6-0.6 0.1-0.3 0.2-0.5 0.2-0.8v-7.1c0.5 0.2 1.3 0.6 2.1 1 0.1 0.1 0.3 0.1 0.4 0 0.1 0 0.2-0.1 0.3-0.2 0.1-0.1 0.1-0.2 0.1-0.4 0-0.1-0.1-0.3-0.2-0.3-1.6-1.4-3.5-2.6-5.5-3.4-0.1-0.4-0.1-0.9-0.2-1.3-0.1-0.8-0.1-1.7-0.3-2.6-0.2-1.7-0.3-3.7-0.3-5.6-0.1-1 0-2-0.1-3v-1.5c0-0.6 0.1-1 0.1-1.6 0-0.5 0-1.1 0.1-1.6v-0.8c0-0.3 0.1-0.6 0.1-0.8l0.2-3.3q0.1-1.7 0.3-3.3c0-0.3 0.1-0.6 0.1-0.8 0-0.3 0.1-0.6 0.1-0.8 0.1-0.6 0.1-1 0.2-1.6 0.1-0.6 0.1-1 0.2-1.5q0.1-0.8 0.3-1.5c0-0.1 0-0.2 0.1-0.3 0.1-0.8 0.2-1.7 0.4-2.5 0.3-1.9 0.6-3.7 0.9-5.3 0.1-0.8 0.3-1.7 0.4-2.4 0.1-0.8 0.3-1.5 0.3-2.3 0.1-1.5 0.4-2.8 0.5-4 0.1-0.6 0.1-1.2 0.1-1.7v-1.5c-0.1-1.9-0.7-3.2-1.7-3.7-1-0.5-2.3 0-3.8 1.3-0.3 0.3-0.8 0.7-1.2 1.2-0.4 0.5-0.8 1-1.1 1.5-0.9 1.2-1.6 2.6-2.3 3.9-0.3 0.8-0.7 1.6-1 2.4q-0.6 1.3-0.9 2.7c-0.6 2-1.1 4-1.5 6.1-0.2 1.1-0.3 2.2-0.5 3.3-0.1 0.6-0.1 1.2-0.2 1.7-0.1 0.6-0.1 1.2-0.1 1.8 0 0.6-0.1 1.2-0.1 1.8 0.4 0.2 0.4 0.4 0.3 0.7z"/>
		<path id="Layer" class="s27" d="m145.6 175.4c0 0-14.6 1.6-15.6 22.9 0 0 3.8 4.4 13.6 2.4z"/>
		<path id="Layer" class="s26" d="m144.8 175.6c0.4 1.5 1.2 2.9 2.5 3.9 1 0.7 2.1 1.2 3.3 1.4q1.8 0.3 3.6-0.3c1.3-0.4 2.4-1.3 3-2.5 0.2-0.5 0.4-1.1 0.3-1.7-0.3-0.3-0.6-0.5-0.6-0.6l-0.9-0.8-10-0.5-0.3 0.9c-0.1 0-0.3 0.1-0.9 0.2z"/>
		<path id="Layer" class="s6" d="m206.2 308.1v0.1c0 0 0 0.1-0.1 0.1l-0.1 0.1h-0.1c-1.7 0.5-3.5 0.8-5.3 0.9-4.1-0.1-16.3-0.2-16.3-0.2h-0.1c0 0-0.1 0-0.1-0.1l-0.1-0.1v-0.1-1.2-0.1c0 0 0-0.1 0.1-0.1l0.1-0.1h0.1c0 0 12.2 0.1 16.3 0.2 1.7-0.1 3.4-0.4 5-0.9h0.1c0 0 0.1 0 0.1 0.1l0.1 0.1v0.1z"/>
		<path id="Layer" class="s1" d="m184.2 307.2c0 0-0.7-3.3 0.5-5.2 1.2-1.9-0.4-7.2-0.2-8.6 0.2-1.5 0.7-1.3 3.2-2.5 2.5-1.2 4.8-1.5 4.6 0.6-0.2 2.1-0.1 11.8 8.6 13.7 2.1-0.4 5.2 0.6 4.6 1.4-1.6 0.6-3.3 0.9-5 0.9-6.5-0.2-16.3-0.3-16.3-0.3z"/>
		<path id="Layer" class="s28" d="m192.3 291.4c0.3-2.1-2.1-1.7-4.6-0.6-2.5 1.2-3 1-3.2 2.5-0.2 1.5 1.4 6.7 0.2 8.6-1.2 1.9-0.5 5.2-0.5 5.2 0 0 9.8 0.1 16.3 0.2 0.8 0 1.5-0.1 2.3-0.2-0.1-0.5-0.3-0.9-0.7-1.3-0.4-0.4-0.7-0.6-1.2-0.8-8.8-1.7-8.8-11.4-8.6-13.6z"/>
		<path id="Layer" class="s1" d="m199.2 305.9q0-0.1 0-0.3c0-0.1-0.1-0.2-0.2-0.2-0.1-0.1-0.2-0.1-0.3-0.1-0.1 0-0.2 0-0.3 0.1-0.1 0-0.1 0.1-0.2 0.2 0 0.1-0.1 0.2 0 0.3 0 0.1 0.1 0.2 0.1 0.2 0.1 0.1 0.1 0.1 0.2 0.1 0.1 0 0.2 0 0.3-0.1 0.3 0 0.3-0.1 0.4-0.2z"/>
		<path id="Layer" class="s1" d="m199.4 304.4c0.1-0.1-0.1-0.3-0.2-0.3-0.1-0.1-0.3 0.1-0.3 0.2l-0.3 1.1c-0.1 0.1 0.1 0.3 0.2 0.3 0.1 0.1 0.3-0.1 0.3-0.2zm-2.2 0.7c0-0.1 0.1-0.2 0.1-0.3 0-0.1 0-0.2-0.1-0.2-0.1-0.1-0.1-0.1-0.2-0.2q-0.1 0-0.3 0c-0.1 0-0.2 0.1-0.2 0.1-0.1 0.1-0.1 0.1-0.1 0.2q0 0.2 0 0.3c0 0.1 0.1 0.2 0.2 0.2 0.1 0 0.1 0.1 0.2 0.1 0.1 0 0.1 0 0.2 0 0.1 0 0.1 0 0.2-0.1-0.1 0-0.1-0.1 0-0.1z"/>
		<path id="Layer" class="s1" d="m197.7 303.7c0-0.1 0-0.1 0-0.2 0-0.1 0-0.1-0.1-0.2-0.1 0-0.1 0-0.2 0-0.1 0-0.1 0-0.2 0.1l-0.6 1c0 0.1 0 0.1 0 0.2 0 0.1 0 0.1 0.1 0.2 0.1 0 0.1 0 0.2 0 0.1 0 0.1 0 0.2-0.1zm-2.5 0.1c0.1-0.1 0.1-0.2 0.1-0.3q0-0.1 0-0.3c0-0.1-0.1-0.2-0.2-0.2-0.1-0.1-0.2-0.1-0.3-0.1-0.1 0-0.2 0-0.3 0.1-0.1 0.1-0.1 0.1-0.2 0.2q0 0.2 0 0.3c0 0.1 0.1 0.2 0.1 0.3 0.4 0.2 0.7 0.2 0.8 0z"/>
		<path id="Layer" class="s1" d="m196.2 302.7c0 0 0.1 0 0 0 0.1-0.1 0.1-0.1 0.1-0.2 0-0.1 0-0.1 0-0.1 0 0 0-0.1-0.1-0.1 0 0 0-0.1-0.1-0.1h-0.1-0.1c0 0-0.1 0-0.1 0.1l-0.8 0.8c0 0-0.1 0-0.1 0.1v0.1 0.1c0 0 0 0.1 0.1 0.1 0 0 0 0.1 0.1 0.1h0.1 0.1c0 0 0.1 0 0.1-0.1zm-2.5-0.7c0.1 0 0.1-0.1 0.2-0.2q0-0.1 0-0.3c0-0.1-0.1-0.2-0.1-0.2-0.1-0.1-0.1-0.1-0.2-0.1q-0.1 0-0.3 0c-0.1 0-0.2 0.1-0.2 0.2-0.1 0.1-0.1 0.2-0.1 0.2 0 0.1 0 0.2 0.1 0.3 0 0.1 0.1 0.1 0.1 0.1 0 0 0.1 0.1 0.2 0.1 0.1 0 0.1 0 0.2 0z"/>
		<path id="Layer" class="s1" d="m194.8 301.1c0.1-0.1 0.1-0.2 0.1-0.3-0.1-0.1-0.2-0.1-0.3-0.1l-1 0.6c-0.1 0.1-0.1 0.2-0.1 0.3 0.1 0.1 0.2 0.1 0.3 0.1zm-2.3-1.3c0.1 0 0.2-0.1 0.2-0.2 0.1-0.1 0.1-0.2 0.1-0.3 0-0.1 0-0.2-0.1-0.3-0.1-0.1-0.1-0.1-0.2-0.2q-0.1-0.1-0.3 0c-0.1 0-0.2 0.1-0.3 0.1-0.1 0.1-0.1 0.2-0.1 0.2q0 0.2 0 0.3c0.2 0.4 0.5 0.5 0.7 0.4z"/>
		<path id="Layer" class="s1" d="m193.8 299c0.1-0.1 0.1-0.1 0.1-0.1v-0.1-0.1c0 0 0-0.1-0.1-0.1 0 0-0.1 0-0.1-0.1h-0.1-0.1l-1.1 0.4c0 0-0.1 0-0.1 0.1 0 0 0 0.1-0.1 0.1v0.1 0.1c0 0 0 0.1 0.1 0.1 0 0 0.1 0 0.1 0.1h0.1 0.1zm-2.2-1.4c0.1 0 0.2-0.1 0.2-0.1 0.1-0.1 0.1-0.1 0.1-0.2q0-0.2 0-0.3c0-0.1-0.1-0.2-0.2-0.2-0.1 0-0.2-0.1-0.3-0.1-0.1 0-0.2 0-0.3 0.1-0.1 0.1-0.1 0.1-0.2 0.2-0.1 0.1 0 0.2 0 0.3 0 0.1 0 0.1 0.1 0.2 0 0.1 0.1 0.1 0.1 0.1 0.1 0 0.1 0.1 0.2 0.1 0.2-0.1 0.3-0.1 0.3-0.1z"/>
		<path id="Layer" class="s1" d="m193 297c0.1 0 0.2-0.2 0.2-0.3 0-0.1-0.2-0.2-0.3-0.2l-1.2 0.3c-0.1 0-0.2 0.2-0.2 0.3 0 0.1 0.2 0.2 0.3 0.2zm-1.8-1.8c0.1 0 0.1 0 0.2 0 0.1 0 0.1-0.1 0.1-0.1 0 0 0.1-0.1 0.1-0.2 0-0.1 0-0.1 0-0.2 0-0.1 0-0.1 0-0.2 0-0.1-0.1-0.1-0.1-0.1 0 0-0.1-0.1-0.2-0.1-0.1 0-0.1 0-0.2 0-0.3 0-0.4 0.3-0.4 0.6 0 0.2 0.2 0.3 0.5 0.3z"/>
		<path id="Layer" class="s1" d="m192.6 294.8c0.1 0 0.3-0.1 0.2-0.3 0-0.1-0.1-0.3-0.3-0.2l-1.2 0.1c-0.1 0-0.3 0.1-0.2 0.3 0 0.1 0.1 0.3 0.3 0.2z"/>
		<path id="Layer" class="s6" d="m175.7 311.5v0.1l-0.1 0.1h-0.1-0.1c-1.8 0.3-3.6 0.4-5.4 0.1-4-0.6-16.2-2.4-16.2-2.4h-0.1l-0.1-0.1v-0.1-0.1l0.2-1.2v-0.1l0.1-0.1h0.1 0.1c0 0 12.1 1.8 16.1 2.4 1.7 0.2 3.4 0.1 5.1-0.2h0.1l0.1 0.1v0.1 0.1z"/>
		<path id="Layer" class="s1" d="m154.1 307.5c0 0-0.2-3.3 1.2-5 1.4-1.7 0.6-7.2 1-8.6 0.4-1.4 0.9-1.2 3.5-2 2.6-0.8 5-0.9 4.5 1.2-0.6 2.1-1.8 11.7 6.7 14.7 2.1-0.1 5.1 1.2 4.4 1.9-0.3-0.1-2.2 0.6-5.1 0.2-6.5-0.8-16.2-2.4-16.2-2.4z"/>
		<path id="Layer" class="s29" d="m164.3 293.1c0.6-2.1-1.9-2-4.5-1.2-2.6 0.8-3.1 0.6-3.5 2-0.4 1.4 0.4 6.8-1 8.6-1.4 1.7-1.2 5-1.2 5l16.1 2.4c0.8 0.1 1.5 0.2 2.3 0.1 0-0.5-0.2-0.9-0.5-1.3-0.3-0.4-0.6-0.7-1-1-8.5-2.8-7.3-12.5-6.7-14.6z"/>
		<path id="Layer" class="s1" d="m169.1 308.3q0-0.2 0-0.3c0-0.1-0.1-0.2-0.1-0.2-0.1-0.1-0.2-0.1-0.3-0.1q-0.1 0-0.3 0c-0.1 0-0.2 0.1-0.2 0.2-0.1 0.1-0.1 0.2-0.1 0.3 0 0.1 0 0.2 0.1 0.3 0.1 0.1 0.1 0.1 0.2 0.2 0.1 0 0.2 0 0.4 0 0.1-0.2 0.2-0.3 0.3-0.4z"/>
		<path id="Layer" class="s1" d="m169.5 306.9c0-0.1 0-0.2 0-0.2 0 0 0-0.1-0.1-0.1 0 0-0.1 0-0.1-0.1h-0.1-0.1c0 0-0.1 0-0.1 0.1 0 0 0 0.1-0.1 0.1l-0.5 1.1v0.1 0.1c0 0 0 0.1 0.1 0.1 0 0 0.1 0 0.1 0.1h0.1 0.1c0 0 0.1 0 0.1-0.1 0 0 0-0.1 0.1-0.1zm-2.3 0.3c0.1-0.1 0.1-0.2 0.1-0.3 0-0.1 0-0.2-0.1-0.3 0-0.1-0.1-0.2-0.2-0.2-0.1 0-0.2-0.1-0.3-0.1-0.1 0-0.2 0-0.3 0.1-0.1 0.1-0.1 0.1-0.2 0.2q0 0.2 0 0.3c0 0.1 0.1 0.2 0.2 0.2 0 0 0.1 0.1 0.2 0.1 0.1 0 0.1 0 0.2 0 0.1 0 0.1 0 0.2-0.1 0.1 0.2 0.2 0.2 0.2 0.1z"/>
		<path id="Layer" class="s1" d="m168 306c0.1-0.1 0.1-0.3-0.1-0.3-0.1-0.1-0.3-0.1-0.3 0.1l-0.8 0.9c-0.1 0.1-0.1 0.3 0.1 0.3 0.1 0.1 0.3 0.1 0.3-0.1zm-2.5-0.2c0.1 0 0.1-0.1 0.2-0.2q0-0.1 0-0.3c0-0.1-0.1-0.2-0.1-0.2-0.1-0.1-0.1-0.1-0.2-0.1q-0.2 0-0.3 0c-0.1 0-0.2 0.1-0.2 0.2-0.1 0.1-0.1 0.2-0.1 0.2 0 0.1 0 0.2 0.1 0.3 0 0.1 0.1 0.1 0.1 0.1 0 0 0.1 0.1 0.2 0.1 0.1 0 0.1 0 0.2 0 0-0.1 0-0.1 0.1-0.1z"/>
		<path id="Layer" class="s1" d="m166.5 304.7q0.1 0 0 0c0.1-0.1 0.1-0.1 0.1-0.2v-0.1-0.1c0 0 0-0.1-0.1-0.1h-0.1-0.1-0.1l-1 0.7c0 0-0.1 0-0.1 0.1v0.1 0.1 0.1c0 0 0 0.1 0.1 0.1h0.1 0.1 0.1zm-2.3-1c0.1 0 0.2-0.1 0.2-0.2 0.1-0.1 0.1-0.2 0.1-0.3 0-0.1 0-0.2-0.1-0.3-0.1-0.1-0.1-0.1-0.2-0.2-0.1 0-0.2-0.1-0.3 0-0.1 0-0.2 0.1-0.3 0.1-0.1 0.1-0.1 0.2-0.1 0.2q0 0.2 0 0.3c0.2 0.4 0.5 0.6 0.7 0.4z"/>
		<path id="Layer" class="s1" d="m165.4 303q0.2 0 0 0c0.1-0.1 0.1-0.1 0.1-0.1v-0.1-0.1c0 0 0-0.1-0.1-0.1 0 0-0.1 0-0.1-0.1h-0.1-0.1l-1.1 0.5c0 0-0.1 0-0.1 0.1 0 0 0 0.1-0.1 0.1v0.1 0.1c0 0 0 0.1 0.1 0.1 0 0 0.1 0 0.1 0.1 0 0.1 0.1 0 0.1 0h0.1zm-2-1.6c0.1 0 0.2-0.1 0.2-0.1 0.1-0.1 0.1-0.2 0.1-0.2q0-0.2 0-0.3c0-0.1-0.1-0.2-0.2-0.2-0.1 0-0.2-0.1-0.3-0.1-0.1 0-0.2 0-0.3 0.1-0.1 0.1-0.1 0.1-0.2 0.2q0 0.1 0 0.3c0.1 0.2 0.4 0.4 0.7 0.3z"/>
		<path id="Layer" class="s1" d="m164.7 300.8c0.1 0 0.1-0.1 0.2-0.1 0-0.1 0.1-0.1 0.1-0.2 0-0.1-0.1-0.1-0.1-0.2-0.1 0-0.1-0.1-0.2-0.1l-1.1 0.3c-0.1 0-0.1 0.1-0.2 0.1 0 0.1-0.1 0.1-0.1 0.2 0 0.1 0.1 0.1 0.1 0.2 0.1 0 0.1 0.1 0.2 0.1zm-2-1.7c0.1 0 0.2 0 0.2-0.1 0.1-0.1 0.1-0.1 0.1-0.2q0-0.2 0-0.3c0-0.1-0.1-0.2-0.1-0.2-0.1-0.1-0.2-0.1-0.2-0.1q-0.1 0-0.3 0c-0.1 0-0.1 0.1-0.2 0.2 0 0.1-0.1 0.2-0.1 0.3 0.1 0.2 0.4 0.4 0.6 0.4z"/>
		<path id="Layer" class="s1" d="m164.2 298.8c0.1 0 0.3-0.1 0.2-0.3 0-0.1-0.1-0.3-0.3-0.2l-1.2 0.1c-0.1 0-0.3 0.1-0.2 0.3 0 0.1 0.1 0.3 0.3 0.2zm-1.6-2.2c0.1 0 0.2 0 0.3-0.1 0.1-0.1 0.1-0.1 0.2-0.2q0-0.2 0-0.3c0-0.1-0.1-0.2-0.1-0.2-0.1-0.1-0.2-0.1-0.2-0.1q-0.1 0-0.3 0c-0.1 0-0.2 0.1-0.2 0.2-0.1 0.1-0.1 0.2-0.1 0.3 0 0.1 0.1 0.2 0.2 0.3 0 0 0.1 0.1 0.2 0.1z"/>
	</g>
	<g id="Папка 1">
		<path id="Фигура_6" fill-rule="evenodd" class="s30" d="m260.4 129.2c0.3 6.3-2.3 11.6-2.3 11.6l2.8 4.2 1.8 2.2 3.9 2.7 2 2 4.2 2.4 3.7 2.4 1.6 0.4 0.5-1.4-2.2-3.1-1-1.1c-0.4-2.6 0.8-7.3 0.8-7.3 4.3 1.4 5.1-1.2 5.1-1.2 0.9-2.4 2.5-4.7 2.5-4.7 2.5-5.7 2.1-9.2 2.1-9.2q0.1-0.9 0.1-1.9 0.1-0.9 0-1.8 0-1-0.1-1.9-0.1-1-0.2-1.9l-3.5-3.3-6.6-1.5-8.7-0.2-5.8-0.1-3.4 0.7c3 2.5 2.7 12 2.7 12z"/>
		<path id="Фигура_29" fill-rule="evenodd" class="s31" d="m265.5 137.8c0.4 5.3 10.2 6.4 10.2 6.4-9-2-10.2-6.4-10.2-6.4z"/>
		<path id="Фигура_28" fill-rule="evenodd" class="s32" d="m259.8 127.3c-3-10.3-2.8-12.3-2.8-12.3 1.3-5.4 7.7-6.2 7.7-6.2 2.4 0.6 10-4.8 10-4.8 2.8 0.7 5.5 8.5 5.5 8.5 5.3-0.6 7.9 2.7 7.9 2.7 2.4 1.7-1.5 4.8-1.5 4.8 3.7 2.9-1.8 4-1.8 4-3.9 2.6-12 0.7-12 0.7-7-1.8-10.2 3.2-10.2 3.2-1.9 2.7-2.8-0.6-2.8-0.6z"/>
		<path id="Фигура_27" fill-rule="evenodd" class="s31" d="m269.2 125.8c-6.7 3.8-0.1 7.7-0.1 7.7 3.1 0.1 2.7-2.8 2.7-2.8 0.3-3.9-2.6-4.9-2.6-4.9z"/>
		<path id="Фигура_1" fill-rule="evenodd" class="s32" d="m261 351.5c-1.4 1.7-1.6 9.3-1.6 9.3 0.2 2.9 3.4 2.9 3.4 2.9 9.7 1.3 15.8 2.9 15.8 2.9 14.2 2.1 18.1-1.6 18.1-1.6 2.1-3.2-1.9-4.6-1.9-4.6-2.6-1.8-8.7-4.7-8.7-4.7-0.4-1.8-3.3-1.8-3.3-1.8-1.9 0.3-2.1-0.9-2.1-0.9l-2-1.2-5.1-0.8-6.5-0.4z"/>
		<path id="Фигура_2" fill-rule="evenodd" class="s32" d="m280.7 353.1c3.9 0 17.7 0.7 17.7 0.7 14 0.5 12.3-3.4 12.3-3.4-0.4-2.3-2.4-2.5-2.4-2.5-4.9-1.6-9.6-2.6-9.6-2.6-2.4-1.9-6.9-4.4-6.9-4.4-1.5-0.6-1.1-2.4-1.1-2.4l-2.7-1.8-4.3 0.3-3.1-0.2-1.2 3.7c0 0 0.1 4.1 0.1 4.3 0.1 0.1 1.2 8.3 1.2 8.3z"/>
		<path id="Фигура_4" fill-rule="evenodd" class="s33" d="m257.6 140.1c-18.1 6.4-19.3 26.9-19.3 26.9-1.9 20.8 5 35.3 5 35.3 0.1 4.5 1.9 4.9 1.9 4.9 1.3 0.9 1 3.8 1 3.8l3.7 1.2 2.7-0.3 2.9-0.6 6.1-1.8 7.5-4 0.5-6 3.6-7.9 2-6 2.7-6 5.3-1.8 6.2-0.2-4.5-10.1c-1.3-10.2-9.3-17.6-9.3-17.6-1.3 0.8 0 2.5 0 2.5 4.2 6.2-0.4 2.2-0.4 2.2-6-2.9-9.6-6.8-9.6-6.8-5-6.8-8-7.7-8-7.7z"/>
		<path id="Фигура_25" fill-rule="evenodd" class="s34" d="m280.5 160c0.1-5.7-4.3-10.8-4.3-10.8-1.8 0.5-0.7 3.1-0.7 3.1 1.6 1.7 1.2 2.6 1.2 2.6-3.3-1.6-9.1-5.8-9.1-5.8-3.8-6.2-9.6-10-9.6-10-2.1 0.3-3 1.2-3 1.2 16.9 16.5 25.5 19.7 25.5 19.7z"/>
		<path id="Фигура_13" fill-rule="evenodd" class="s35" d="m252.2 150.9c15.4-0.3 13.1 24.1 13.1 24.1 2.3-27.2-13.1-24.1-13.1-24.1z"/>
		<path id="Фигура_3" fill-rule="evenodd" class="s36" d="m281.5 352.4c0.4 2.3-1.7 1.8-1.7 1.8-1.7-1.5-2.7 0.7-2.7 0.7-1.2 0.5-3.4-0.2-3.4-0.2-3.5-1.1-7.1-1.1-7.1-1.1-8.1-0.7-7.6-4.4-7.6-4.4-0.9-1.8-0.6-4.4-0.6-4.4-2-22.7 0-39.5 0-39.5 3-5.1 0.4-8.8 0.4-8.8-1.9-5.6-2.7-12.1-2.7-12.1-3.4-6.3-2.7-11-2.7-11-1.2-7.7-3.1-14.6-3.1-14.6-5.3-13.5-5.4-20.8-5.4-20.8-2.3-9.1 2.8-15.2 2.8-15.2l-0.5-5.5c-2.7-1.6-3.2-4.1-3.2-4.1-7.9-5.9-5.4-8.9-5.4-8.9 0.7-4.1 2.9-6.8 2.9-6.8 1.9 1 2.1 6.9 2.1 6.9 0.6 2.3 2.2 2.8 2.2 2.8 0.8 0.5 0.6 2.6 0.6 2.6 4-0.2 6.1 0.7 6.1 0.7 10-2.1 15.9-13.8 15.9-13.8 4.7-8.3 7.3-23.4 7.3-23.4 0.9-6.1-10.4-17.9-10.4-17.9-4-5.8-8.2-8.1-8.2-8.1-9.4-4.7-15.1 6.5-15.1 6.5 2.7-9.9 11.9-9.6 11.9-9.6 6.5 0.3 13.2 10.7 13.2 10.7 7.5 5.9 11.3 16.9 11.3 16.9 4.5 2.2 9.8 2.8 9.8 2.8-1.6-3.3-4.6-9.4-4.6-9.4l0.1-0.4c2.6 2.8 6.6 11 6.6 11 2.4 13.2 1.1 49.5 1.1 49.5 3.9 7.1 7.8 75.4 7.8 75.4 2.5 21.6 0.4 37.4 0.4 37.4-0.5 2.1-6.5 1-6.5 1-2.2-0.5-3.7 0.8-3.7 0.8-1.3 0.1-6.5-0.6-6.5-0.6-0.1 3-1.4 13.1-1.4 13.1z"/>
		<path id="Фигура_11" fill-rule="evenodd" class="s37" d="m248 217.5c9.3 1 11.2-0.4 11.2-0.4-2.8 0.5-11.2 0.4-11.2 0.4z"/>
		<path id="Фигура_12" fill-rule="evenodd" class="s37" d="m248.8 222.7c5.4 1.5 12-0.8 12-0.8-6.5 1.4-12 0.8-12 0.8z"/>
		<path id="Фигура_7" fill-rule="evenodd" class="s37" d="m282.6 339c5.3-40.2-0.3-70.4-0.3-70.4 7.4 30.8 0.3 70.4 0.3 70.4z"/>
		<path id="Фигура_8" fill-rule="evenodd" class="s37" d="m261.8 299.9c11.3 0.5 17.8-7.6 17.8-7.6-6.7 6.4-17.8 7.6-17.8 7.6z"/>
		<path id="Фигура_8_копия" fill-rule="evenodd" class="s37" d="m258.9 279.7c11.3 0.6 17.8-7.6 17.8-7.6-6.7 6.5-17.8 7.6-17.8 7.6z"/>
		<path id="Фигура_9" fill-rule="evenodd" class="s37" d="m242.4 199.5c-2.1 8.5 2.6 10.6 2.6 10.6-2.7-4.3-2.6-10.6-2.6-10.6z"/>
		<path id="Фигура_10" fill-rule="evenodd" class="s37" d="m279.6 178.6c1.9 7-1 16.2-1 16.2 4-9.6 1-16.2 1-16.2z"/>
		<path id="Фигура_5" fill-rule="evenodd" class="s30" d="m265.3 177.9c-8.7-1-21.6 0.1-21.6 0.1-1.3 0-1.5 1.1-1.5 1.1 5 12.6 11.6 24.7 11.6 24.7 1.6 3 2 6.4 2 6.4 2.1 10.6 7.7 19.4 7.7 19.4 4 6.1 6.1 13.4 6.1 13.4l0.2 0.3q0.4 0.4 0.8 0.9 0.5 0.4 0.8 0.9 0.4 0.6 0.6 1.1 0.3 0.6 0.5 1.1c1.6 2.1 4.1 12.4 4.1 12.4l2.1-1.6v-4.6l-0.7-5.8-2.7-11.3c-2.9-5.6-3.5-16.9-3.5-16.9-1.2-11.5-5.4-16.6-5.4-16.6-1.4-3.5-0.1-5.6-0.1-5.6 0.6-12.7-1-19.4-1-19.4z"/>
		<path id="Фигура_6_копия" fill-rule="evenodd" class="s30" d="m550.4 126.1c-0.3 6.3 2.3 11.6 2.3 11.6l-2.8 4.2-1.8 2.2-3.9 2.7-2 2-4.2 2.4-3.7 2.4-1.7 0.4-0.4-1.4 2.2-3.1 1.5-0.9c-0.9-2.7-1.3-7.5-1.3-7.5-4.3 1.4-5.2-1.2-5.2-1.2-0.8-2.4-2.5-4.7-2.5-4.7-2.4-5.7-2-9.2-2-9.2q-0.1-0.9-0.2-1.9 0-0.9 0.1-1.8 0-1 0.1-1.9 0.1-1 0.2-1.9l3.5-3.3 6.6-1.5 8.7-0.2 5.7-0.1 3.5 0.7c-3 2.5-2.7 12-2.7 12z"/>
		<path id="Фигура_1_копия" fill-rule="evenodd" class="s32" d="m549.8 348.4c1.4 1.7 1.6 9.3 1.6 9.3-0.2 2.9-3.4 2.9-3.4 2.9-9.7 1.3-15.8 2.9-15.8 2.9-14.2 2.1-18.1-1.6-18.1-1.6-2.2-3.2 1.9-4.6 1.9-4.6 2.6-1.8 8.7-4.7 8.7-4.7 0.4-1.8 3.3-1.8 3.3-1.8 1.9 0.3 2-0.9 2-0.9l2-1.2 5.2-0.8 6.5-0.4z"/>
		<path id="Фигура_2_копия" fill-rule="evenodd" class="s32" d="m530 350c-3.8 0-17.6 0.7-17.6 0.7-14 0.5-12.3-3.4-12.3-3.4 0.4-2.4 2.4-2.5 2.4-2.5 4.9-1.6 9.6-2.6 9.6-2.6 2.4-1.9 6.9-4.4 6.9-4.4 1.5-0.6 1.1-2.4 1.1-2.4l2.7-1.8 4.3 0.3 3.1-0.2 1.1 3.7c0 0 0 4.1-0.1 4.2 0 0.2-1.2 8.4-1.2 8.4z"/>
		<path id="Фигура_4_копия" fill-rule="evenodd" class="s33" d="m553.2 137c18 6.4 19.2 26.8 19.2 26.8 1.9 20.9-4.9 35.4-4.9 35.4-0.1 4.5-1.9 4.9-1.9 4.9-1.3 0.9-1 3.8-1 3.8l-3.7 1.2-2.7-0.3-2.9-0.7-6.1-1.7-7.5-4-0.5-6-3.6-7.9-2-6-2.7-6-5.3-1.8-6.2-0.2 4.5-10.1c1.2-10.2 9.3-17.6 9.3-17.6 1.3 0.8-0.1 2.5-0.1 2.5-4.1 6.2 0.5 2.2 0.5 2.2 6-2.9 9.6-6.8 9.6-6.8 4.9-6.9 8-7.7 8-7.7z"/>
		<path id="Фигура_28_копия" fill-rule="evenodd" class="s32" d="m551.2 125.2c3-10.3 1.9-12.1 1.9-12.1-1.3-5.4-7.7-6.2-7.7-6.2-2.4 0.6-8.5 0.6-8.5 0.6-2.9 0.6-7 3.1-7 3.1-1.7 0.2-5.2 3.2-5.2 3.2-2.5 1.7-1.2 4.3-1.2 4.3-3.7 2.9 1.8 4 1.8 4 3.9 2.6 12 0.7 12 0.7 7-1.8 10.2 3.2 10.2 3.2 1.8 2.7 3.7-0.8 3.7-0.8z"/>
		<path id="Фигура_13_копия" fill-rule="evenodd" class="s35" d="m558.5 147.8c-15.4-0.4-13 24.1-13 24.1-2.3-27.2 13-24.1 13-24.1z"/>
		<path id="Фигура_3_копия" fill-rule="evenodd" class="s36" d="m529.3 349.3c-0.5 2.3 1.7 1.8 1.7 1.8 1.7-1.5 2.7 0.7 2.7 0.7 1.2 0.5 3.3-0.2 3.3-0.2 3.6-1.1 7.2-1.1 7.2-1.1 8.1-0.7 7.6-4.5 7.6-4.5 0.8-1.7 0.6-4.4 0.6-4.4 1.9-22.6 0-39.4 0-39.4-3-5.1-0.4-8.8-0.4-8.8 1.9-5.6 2.6-12.1 2.6-12.1 3.5-6.3 2.8-11 2.8-11 1.2-7.7 3-14.6 3-14.6 5.4-13.6 5.5-20.8 5.5-20.8 2.3-9.1-2.8-15.2-2.8-15.2l0.4-5.5c2.8-1.6 3.2-4.2 3.2-4.2 7.9-5.8 5.5-8.9 5.5-8.9-0.7-4-3-6.7-3-6.7-1.8 1-2 6.9-2 6.9-0.6 2.3-2.3 2.8-2.3 2.8-0.8 0.5-0.5 2.6-0.5 2.6-4.1-0.2-6.1 0.7-6.1 0.7-10-2.1-15.9-13.8-15.9-13.8-4.7-8.3-7.4-23.5-7.4-23.5-0.8-6 10.5-17.8 10.5-17.8 4-5.8 8.2-8.1 8.2-8.1 9.4-4.8 15.1 6.5 15.1 6.5-2.7-9.9-11.9-9.6-11.9-9.6-6.5 0.2-13.2 10.7-13.2 10.7-7.5 5.9-11.3 16.9-11.3 16.9-4.6 2.2-9.8 2.8-9.8 2.8 1.6-3.3 4.6-9.4 4.6-9.4l-0.1-0.4c-2.7 2.8-6.6 11-6.6 11-2.5 13.2-1.1 49.5-1.1 49.5-3.9 7.1-7.8 75.4-7.8 75.4-2.6 21.6-0.4 37.4-0.4 37.4 0.5 2.1 6.5 0.9 6.5 0.9 2.1-0.4 3.7 0.9 3.7 0.9 1.3 0.1 6.5-0.6 6.5-0.6 0.1 2.9 1.4 13.1 1.4 13.1z"/>
		<path id="Фигура_11_копия" fill-rule="evenodd" class="s37" d="m562.8 214.4c-9.3 1-11.3-0.4-11.3-0.4 2.8 0.5 11.3 0.4 11.3 0.4z"/>
		<path id="Фигура_12_копия" fill-rule="evenodd" class="s37" d="m562 219.6c-5.4 1.5-12-0.8-12-0.8 6.5 1.4 12 0.8 12 0.8z"/>
		<path id="Фигура_25_копия" fill-rule="evenodd" class="s34" d="m530.6 157.2c-0.1-5.8 4.4-10.8 4.4-10.8 1.7 0.4 0.7 3 0.7 3-1.6 1.8-1.3 2.7-1.3 2.7 3.3-1.7 9.1-5.9 9.1-5.9 3.8-6.2 9.6-10 9.6-10 2.1 0.4 3 1.2 3 1.2-16.9 16.5-25.5 19.8-25.5 19.8z"/>
		<path id="Фигура_7_копия" fill-rule="evenodd" class="s37" d="m528.1 335.9c-5.2-40.2 0.4-70.4 0.4-70.4-7.4 30.8-0.4 70.4-0.4 70.4z"/>
		<path id="Фигура_8_копия_2" fill-rule="evenodd" class="s37" d="m548.9 296.7c-11.3 0.6-17.7-7.6-17.7-7.6 6.7 6.5 17.7 7.6 17.7 7.6z"/>
		<path id="Фигура_8_копия_2-2" fill-rule="evenodd" class="s37" d="m551.9 276.6c-11.3 0.6-17.8-7.6-17.8-7.6 6.7 6.5 17.8 7.6 17.8 7.6z"/>
		<path id="Фигура_9_копия" fill-rule="evenodd" class="s37" d="m568.4 196.4c2.1 8.5-2.6 10.6-2.6 10.6 2.7-4.3 2.6-10.6 2.6-10.6z"/>
		<path id="Фигура_5_копия" fill-rule="evenodd" class="s30" d="m545.5 174.8c8.6-1 21.6 0.1 21.6 0.1 1.2 0 1.5 1.1 1.5 1.1-5 12.6-11.6 24.7-11.6 24.7-1.7 3-2 6.4-2 6.4-2.1 10.6-7.7 19.3-7.7 19.3-4.1 6.2-6.1 13.5-6.1 13.5l-0.2 0.3q-0.5 0.4-0.9 0.9-0.4 0.4-0.7 0.9-0.4 0.5-0.7 1.1-0.2 0.6-0.5 1.1c-1.5 2.1-4 12.4-4 12.4l-2.2-1.6v-4.6l0.8-5.8 2.7-11.3c2.9-5.6 3.5-16.9 3.5-16.9 1.2-11.5 5.4-16.6 5.4-16.6 1.3-3.5 0.1-5.6 0.1-5.6-0.7-12.7 1-19.4 1-19.4z"/>
		<path id="Фигура_16" fill-rule="evenodd" class="s32" d="m282.4 262.7l0.2 22.8 6.1-0.1 1.4-23.5z"/>
		<path id="Фигура_17" fill-rule="evenodd" class="s32" d="m304.7 261.8c0 0.3 1.4 13.1 1.4 13.1l4.7-0.4 0.1-13.5c0 0-6.3 0.4-6.2 0.8z"/>
		<path id="Фигура_18" fill-rule="evenodd" class="s32" d="m509.6 256.8l0.5 10.9 3.9-0.4 0.5-11.7z"/>
		<path id="Фигура_19" fill-rule="evenodd" class="s32" d="m522.9 256.1l2.7 23.9 5.7-0.6-0.6-24.5z"/>
		<path id="Фигура_14" fill-rule="evenodd" class="s38" d="m290.7 262.9c-0.5 1.5-11.2 0.6-11.2 0.6-4.7-2.4-3.5-12.3-3.5-12.3-1-2.5-2-54.8-2-54.8 0.1-7.9 5.2-11.4 5.2-11.4-0.5-3.3 1.1-3.2 1.1-3.2 0.7-2.4 3.4 1.3 3.4 1.3 1.3 0 3.3 3.8 3.3 3.8 2 1.6 27.9 6.8 27.9 6.8 1-8.4 0.3-21.2 0.3-21.2 0.1-4.7 5.3-3.7 5.3-3.7 12.3-2.6 32.9-0.5 32.9-0.5 27.2 0.5 50.7-1.3 50.7-1.3 4.9 0 6.4-0.7 6.4-0.7 5.9-1 4.8 3.3 4.8 3.3 4.7-0.6 8.3 1.2 8.3 1.2 7.9-1.5 17.2 0.1 17.2 0.1 16.5-0.7 55.6-4.3 55.6-4.3 12.1-2.6 8.2 2.9 8.2 2.9 1.6 2.7 1 12.6 1 12.6 3.9-1.3 15.5-1.8 15.5-1.8 1.5-0.8 2.7-2.9 2.7-2.9 2.2-3.4 4.5 1.5 4.5 1.5 7.6 4.4 6.7 16.3 6.7 16.3 1.9 18.8 1.3 56.8 1.3 56.8-0.6 6.2-4.1 4.8-4.1 4.8l-9.3-0.2c0.1 1.6-2.3 1.1-2.3 1.1-7.4-0.9-16.2 1-16.2 1-10.1 0.5-31.4 0.5-31.4 0.5l-170.2 3.6c-12.4 2.5-12.1 0.1-12.1 0.1z"/>
		<path id="Фигура_15" fill-rule="evenodd" class="s39" d="m291 263.2c0.2-8.2-1.2-20.2-1.2-20.2-0.5-3.2 2.9-2.5 2.9-2.5l226.5-6.4c3.2-0.3 1.4 5 1.4 5 1.4 7.9-0.1 18-0.1 18z"/>
		<path id="Фигура_20" fill-rule="evenodd" class="s40" d="m389.6 210.4l-85.8 2.3c-16.5-0.2-15.8 14.7-15.8 14.7-1.7 13.9 19.9 13.4 19.9 13.4 54 0 89.7-3.6 89.7-3.6 8.6-0.3 7.3-3.2 7.3-3.2 3-27.4-15.3-23.6-15.3-23.6z"/>
		<path id="Фигура_21" fill-rule="evenodd" class="s40" d="m408.7 212.5c-5.7 1.2-4.8 6-4.8 6 0 13.4 2.7 17.6 2.7 17.6 29.1 7.7 104-3.7 104-3.7 14.1-3.1 11.1-14.6 11.1-14.6-2-17.5-16.8-13.9-16.8-13.9-71.5 5.2-96.2 8.6-96.2 8.6z"/>
		<path id="Фигура_22" fill-rule="evenodd" class="s41" d="m504.3 169.5c-28.2 6.2-39 30.5-39 30.5-3.9 2.7-4.4 5.9-4.4 5.9 0.5 3.4 6.2 1.4 6.2 1.4 1.9-1.4 5.9-0.5 5.9-0.5 2.6-0.9 3.7 0.2 3.7 0.2 1 2 3.9-0.3 3.9-0.3 8.9 0.4 16.2-3.6 16.2-3.6 14.6-9.5 18.2-17.5 18.2-17.5 1.3-4.1 6.5-7 6.5-7 3.5-2.2 5.9-8.7 5.9-8.7 4.3-5-1.6-2.7-1.6-2.7-13.2-1.8-21.5 2.3-21.5 2.3z"/>
		<path id="Фигура_23" fill-rule="evenodd" class="s41" d="m281.1 175.2c-4.9-1-0.2-2.3-0.2-2.3 25.2-6 42.1 11 42.1 11 12.1 10 19.2 25.7 19.2 25.7-1.6 3.6-15.2 2.5-15.2 2.5l-13 0.1c-11.1-7.1-20.1-20.1-20.1-20.1-1.5-3.1-7-8.1-7-8.1-3.5-3.8-1.7-6.7-1.7-6.7-1.6-2.5-4.1-2.1-4.1-2.1z"/>
		<path id="Фигура_24" fill-rule="evenodd" class="s39" d="m414.7 166.9c2.4 3.6-6.5 13.9-6.5 13.9 4 1.4-0.5 25.4-0.5 25.4-1.7 3.4-3.9 6.9-3.9 6.9 3-1 4.9-6.9 4.9-6.9 4.1-22.6 1-25.8 1-25.8 8.8-11.7 5-13.5 5-13.5z"/>
		<path id="Фигура_26" fill-rule="evenodd" class="s34" d="m280.5 136.8c-0.8 4.3 1 5.9 1 5.9l2.3-4.2z"/>
		<path id="Прямоугольник_скругл._углы_1" class="s32" d="m279.9 129.6c0-0.4 0.3-0.7 0.7-0.7h2.3c0.4 0 0.7 0.3 0.7 0.7 0 0.3-0.3 0.7-0.7 0.7h-2.3c-0.4 0-0.7-0.4-0.7-0.7z"/>
	</g>
</svg>