<svg version="1.2" xmlns="http://www.w3.org/2000/svg" viewBox="0 0 630 390" width="630" height="390">
	<title>cargo-taxi-svg</title>
	<style>
		tspan { white-space:pre } 
		.s0 { fill: #eaf1fc } 
		.s1 { fill: #f8f8ff } 
		.s2 { fill: #cde4f7 } 
		.s3 { fill: #e9edf4 } 
		.s4 { fill: #ffffff } 
		.s5 { fill: #ecf7fe } 
		.s6 { fill: #393939 } 
		.s7 { fill: #718937 } 
		.s8 { fill: #6d8434 } 
		.s9 { fill: #86a341 } 
		.s10 { fill: #7b963b } 
		.s11 { fill: #e1ae72 } 
		.s12 { fill: #cea16b } 
		.s13 { fill: #d09957 } 
		.s14 { fill: #c69863 } 
		.s15 { fill: #cead85 } 
		.s16 { fill: #c8985e } 
		.s17 { fill: #ca9452 } 
		.s18 { fill: #ffb492 } 
		.s19 { fill: #f5f5f5 } 
		.s20 { fill: #bf6b45 } 
		.s21 { fill: #ff7a06 } 
		.s22 { fill: #bc5314 } 
		.s23 { fill: #7a340a } 
		.s24 { fill: #4897d8 } 
		.s25 { fill: #5276ac } 
		.s26 { fill: #664d2f } 
		.s27 { fill: #bd6d49 } 
		.s28 { fill: #b65920 } 
		.s29 { fill: #aa8458 } 
		.s30 { fill: #b38c5e } 
		.s31 { fill: #96734a } 
		.s32 { fill: #bd9363 } 
		.s33 { fill: #d2a978 } 
		.s34 { fill: #4570af } 
		.s35 { fill: #bc9363 } 
		.s36 { fill: #292929 } 
		.s37 { fill: #909090 } 
		.s38 { fill: #e3e0c2 } 
		.s39 { fill: #1f1f1f } 
		.s40 { fill: #ffdb5c } 
		.s41 { fill: #f1f1f1 } 
		.s42 { fill: #263238 } 
	</style>
	<path id="Layer" class="s0" d="m314.7 384.7c173.8 0 314.7-26.5 314.7-59.2 0-32.7-140.9-59.2-314.7-59.2-173.8 0-314.7 26.5-314.7 59.2 0 32.7 140.9 59.2 314.7 59.2z"/>
	<path id="Layer" class="s1" d="m596.2 307.9c28.6-74.6 47.2-224.7-39.3-272-56.6-31-115.6 8.9-176.1 10.7-47.5 1.4-93.3-32.2-136.2-41.9-112.4-25.2-289.2 47.9-211.5 303.2 194.3-0.5 368.7 0.5 563.1 0z"/>
	<path id="Layer" class="s2" d="m270.5 131.9h-102.6v182.5h102.6z"/>
	<path id="Layer" class="s3" d="m270.5 131.9h-32v182.5h32z"/>
	<path id="Layer" class="s4" d="m179.3 140.6h-4.7v5.2h4.7zm8.5 0h-4.7v5.2h4.7zm8.7 0h-4.7v5.2h4.7zm8.6 0h-4.7v5.2h4.7zm8.6 0h-4.7v5.2h4.7zm8.6 0h-4.7v5.2h4.7zm8.6 0h-4.7v5.2h4.7zm15.8 0h-4.7v5.2h4.7zm8.7 0h-4.7v5.2h4.7zm8.5 0h-4.7v5.2h4.7zm-84.6 11.1h-4.7v5.2h4.7zm8.5 0h-4.7v5.2h4.7zm8.7 0h-4.7v5.2h4.7zm8.6 0h-4.7v5.2h4.7zm8.6 0h-4.7v5.2h4.7zm8.6 0h-4.7v5.2h4.7zm8.6 0h-4.7v5.2h4.7zm15.8 0h-4.7v5.2h4.7zm8.7 0h-4.7v5.2h4.7zm8.5 0h-4.7v5.2h4.7zm-84.6 10.9h-4.7v5.2h4.7zm8.5 0h-4.7v5.2h4.7zm8.7 0h-4.7v5.2h4.7zm8.6 0h-4.7v5.2h4.7zm8.6 0h-4.7v5.2h4.7zm8.6 0h-4.7v5.2h4.7zm8.6 0h-4.7v5.2h4.7zm15.8 0h-4.7v5.2h4.7zm8.7 0h-4.7v5.2h4.7zm8.5 0h-4.7v5.2h4.7zm-84.6 11h-4.7v5.2h4.7zm8.5 0h-4.7v5.2h4.7zm8.7 0h-4.7v5.2h4.7zm8.6 0h-4.7v5.2h4.7zm8.6 0h-4.7v5.2h4.7zm8.6 0h-4.7v5.2h4.7zm8.6 0h-4.7v5.2h4.7zm15.8 0h-4.7v5.2h4.7zm8.7 0h-4.7v5.2h4.7zm8.5 0h-4.7v5.2h4.7zm-84.6 11.1h-4.7v5.2h4.7zm8.5 0h-4.7v5.2h4.7zm8.7 0h-4.7v5.2h4.7zm8.6 0h-4.7v5.2h4.7zm8.6 0h-4.7v5.2h4.7zm8.6 0h-4.7v5.2h4.7zm8.6 0h-4.7v5.2h4.7zm15.8 0h-4.7v5.2h4.7zm8.7 0h-4.7v5.2h4.7zm8.5 0h-4.7v5.2h4.7zm-84.6 11h-4.7v5.2h4.7zm8.5 0h-4.7v5.2h4.7zm8.7 0h-4.7v5.2h4.7zm8.6 0h-4.7v5.2h4.7zm8.6 0h-4.7v5.2h4.7zm8.6 0h-4.7v5.2h4.7zm8.6 0h-4.7v5.2h4.7zm15.8 0h-4.7v5.2h4.7zm8.7 0h-4.7v5.2h4.7zm8.5 0h-4.7v5.2h4.7zm-84.6 10.9h-4.7v5.2h4.7zm8.5 0h-4.7v5.2h4.7zm8.7 0h-4.7v5.2h4.7zm8.6 0h-4.7v5.2h4.7zm8.6 0h-4.7v5.2h4.7zm8.6 0h-4.7v5.2h4.7zm8.6 0h-4.7v5.2h4.7zm15.8 0h-4.7v5.2h4.7zm8.7 0h-4.7v5.2h4.7zm8.5 0h-4.7v5.2h4.7zm-84.6 11.1h-4.7v5.2h4.7zm8.5 0h-4.7v5.2h4.7zm8.7 0h-4.7v5.2h4.7zm8.6 0h-4.7v5.2h4.7zm8.6 0h-4.7v5.2h4.7zm8.6 0h-4.7v5.2h4.7zm8.6 0h-4.7v5.2h4.7zm15.8 0h-4.7v5.2h4.7zm8.7 0h-4.7v5.2h4.7zm8.5 0h-4.7v5.2h4.7zm-84.6 11h-4.7v5.2h4.7zm8.5 0h-4.7v5.2h4.7zm8.7 0h-4.7v5.2h4.7zm8.6 0h-4.7v5.2h4.7zm8.6 0h-4.7v5.2h4.7zm8.6 0h-4.7v5.2h4.7zm8.6 0h-4.7v5.2h4.7zm15.8 0h-4.7v5.2h4.7zm8.7 0h-4.7v5.2h4.7zm8.5 0h-4.7v5.2h4.7zm-84.6 10.9h-4.7v5.2h4.7zm8.5 0h-4.7v5.2h4.7zm8.7 0h-4.7v5.2h4.7zm8.6 0h-4.7v5.2h4.7zm8.6 0h-4.7v5.2h4.7zm8.6 0h-4.7v5.2h4.7zm8.6 0h-4.7v5.2h4.7zm15.8 0h-4.7v5.2h4.7zm8.7 0h-4.7v5.2h4.7zm8.5 0h-4.7v5.2h4.7zm-84.6 11.1h-4.7v5.2h4.7zm8.5 0h-4.7v5.2h4.7zm8.7 0h-4.7v5.2h4.7zm8.6 0h-4.7v5.2h4.7zm8.6 0h-4.7v5.2h4.7zm8.6 0h-4.7v5.2h4.7zm8.6 0h-4.7v5.2h4.7zm15.8 0h-4.7v5.2h4.7zm8.7 0h-4.7v5.2h4.7zm8.5 0h-4.7v5.2h4.7zm-84.6 11h-4.7v5.2h4.7zm8.5 0h-4.7v5.2h4.7zm8.7 0h-4.7v5.2h4.7zm8.6 0h-4.7v5.2h4.7zm8.6 0h-4.7v5.2h4.7zm8.6 0h-4.7v5.2h4.7zm8.6 0h-4.7v5.2h4.7zm15.8 0h-4.7v5.2h4.7zm8.7 0h-4.7v5.2h4.7zm8.5 0h-4.7v5.2h4.7zm-84.6 11h-4.7v5.2h4.7zm8.5 0h-4.7v5.2h4.7zm8.7 0h-4.7v5.2h4.7zm8.6 0h-4.7v5.2h4.7zm8.6 0h-4.7v5.2h4.7zm8.6 0h-4.7v5.2h4.7zm8.6 0h-4.7v5.2h4.7zm15.8 0h-4.7v5.2h4.7zm8.7 0h-4.7v5.2h4.7zm8.5 0h-4.7v5.2h4.7zm0 11h-4.7v5.2h4.7zm0 11h-4.7v5.2h4.7z"/>
	<path id="Layer" class="s2" d="m351.3 163.3h-95.2v151.1h95.2z"/>
	<path id="Layer" class="s3" d="m351.3 163.3h-29.7v151.1h29.7z"/>
	<path id="Layer" class="s4" d="m266.6 171h-4.4v22.6h4.4zm8 0h-4.4v22.6h4.4zm8 0h-4.4v22.6h4.4zm8 0h-4.4v22.6h4.4zm8 0h-4.4v22.6h4.4zm8 0h-4.4v22.6h4.4zm8 0h-4.4v22.6h4.4zm14.7 0h-4.4v22.6h4.4zm7.9 0h-4.4v22.6h4.4zm8 0h-4.4v22.6h4.4zm-78.6 25.4h-4.4v22.6h4.4zm8 0h-4.4v22.6h4.4zm8 0h-4.4v22.6h4.4zm8 0h-4.4v22.6h4.4zm8 0h-4.4v22.6h4.4zm8 0h-4.4v22.6h4.4zm8 0h-4.4v22.6h4.4zm14.7 0h-4.4v22.6h4.4zm7.9 0h-4.4v22.6h4.4zm8 0h-4.4v22.6h4.4zm-78.6 25.5h-4.4v22.6h4.4zm8 0h-4.4v22.6h4.4zm8 0h-4.4v22.6h4.4zm8 0h-4.4v22.6h4.4zm8 0h-4.4v22.6h4.4zm8 0h-4.4v22.6h4.4zm8 0h-4.4v22.6h4.4zm14.7 0h-4.4v22.6h4.4zm7.9 0h-4.4v22.6h4.4zm8 0h-4.4v22.6h4.4zm-78.6 25.6h-4.4v22.5h4.4zm8 0h-4.4v22.5h4.4zm8 0h-4.4v22.5h4.4zm8 0h-4.4v22.5h4.4zm8 0h-4.4v22.5h4.4zm8 0h-4.4v22.5h4.4zm8 0h-4.4v22.5h4.4zm14.7 0h-4.4v22.5h4.4zm7.9 0h-4.4v22.5h4.4zm8 0h-4.4v22.5h4.4zm-78.6 25.5h-4.4v22.6h4.4zm8 0h-4.4v22.6h4.4zm8 0h-4.4v22.6h4.4zm8 0h-4.4v22.6h4.4zm8 0h-4.4v22.6h4.4zm8 0h-4.4v22.6h4.4zm8 0h-4.4v22.6h4.4zm14.7 0h-4.4v22.6h4.4zm7.9 0h-4.4v22.6h4.4zm8 0h-4.4v22.6h4.4z"/>
	<path id="Layer" class="s2" d="m573.9 110.2h-95.2v204.2h95.2z"/>
	<path id="Layer" class="s3" d="m573.9 110.2h-29.7v204.2h29.7z"/>
	<path id="Layer" class="s4" d="m513.2 119.9h-4.4v22.6h4.4zm8 0h-4.4v22.6h4.4zm7.9 0h-4.4v22.6h4.4zm8.1 0h-4.4v22.6h4.4zm14.6 0h-4.4v22.6h4.4zm8 0h-4.4v22.6h4.4zm8 0h-4.4v22.6h4.4zm-54.6 25.5h-4.4v22.6h4.4zm8 0h-4.4v22.6h4.4zm7.9 0h-4.4v22.6h4.4zm8.1 0h-4.4v22.6h4.4zm14.6 0h-4.4v22.6h4.4zm8 0h-4.4v22.6h4.4zm8 0h-4.4v22.6h4.4zm-54.6 25.6h-4.4v22.6h4.4zm8 0h-4.4v22.6h4.4zm7.9 0h-4.4v22.6h4.4zm8.1 0h-4.4v22.6h4.4zm14.6 0h-4.4v22.6h4.4zm8 0h-4.4v22.6h4.4zm8 0h-4.4v22.6h4.4zm-54.6 25.4h-4.4v22.6h4.4zm8 0h-4.4v22.6h4.4zm7.9 0h-4.4v22.6h4.4zm8.1 0h-4.4v22.6h4.4zm14.6 0h-4.4v22.6h4.4zm8 0h-4.4v22.6h4.4zm8 0h-4.4v22.6h4.4zm-46.6 25.5h-4.4v22.6h4.4zm7.9 0h-4.4v22.6h4.4zm8.1 0h-4.4v22.6h4.4zm14.6 0h-4.4v22.6h4.4zm8 0h-4.4v22.6h4.4zm8 0h-4.4v22.6h4.4zm-38.7 25.6h-4.4v22.5h4.4zm8.1 0h-4.4v22.5h4.4zm14.6 0h-4.4v22.5h4.4zm8 0h-4.4v22.5h4.4zm8 0h-4.4v22.5h4.4zm-38.7 25.5h-4.4v22.6h4.4zm8.1 0h-4.4v22.6h4.4zm14.6 0h-4.4v22.6h4.4zm8 0h-4.4v22.6h4.4zm8 0h-4.4v22.6h4.4z"/>
	<path id="Layer" class="s2" d="m398.5 127.2h-66.1v187.3h66.1z"/>
	<path id="Layer" class="s5" d="m398.5 127.2h-20.5v187.3h20.5z"/>
	<path id="Layer" class="s4" d="m398.5 137.4h-66.1v1.6h66.1zm0 12.3h-66.1v1.6h66.1zm0 12.4h-66.1v1.6h66.1zm0 12.3h-66.1v1.6h66.1zm0 12.4h-66.1v1.6h66.1zm0 12.4h-66.1v1.6h66.1zm0 12.4h-66.1v1.6h66.1zm0 12.3h-66.1v1.6h66.1zm0 12.4h-66.1v1.6h66.1zm0 12.3h-66.1v1.6h66.1zm0 12.4h-66.1v1.6h66.1zm0 12.4h-66.1v1.6h66.1zm0 12.4h-66.1v1.6h66.1zm0 12.3h-66.1v1.6h66.1z"/>
	<path id="Layer" class="s2" d="m168.8 164.4h-103.7v150.1h103.7z"/>
	<path id="Layer" class="s3" d="m168.8 164.4h-32.3v150.1h32.3z"/>
	<path id="Layer" class="s4" d="m168.8 172.6h-103.7v1.2h103.7zm0 9.9h-103.7v1.2h103.7zm0 9.9h-103.7v1.2h103.7zm0 9.9h-103.7v1.2h103.7zm0 9.9h-103.7v1.2h103.7zm0 10h-103.7v1.2h103.7zm0 9.8h-103.7v1.2h103.7zm0 10h-103.7v1.2h103.7zm0 9.8h-103.7v1.2h103.7zm0 10h-103.7v1.2h103.7zm0 9.8h-103.7v1.2h103.7zm0 10h-103.7v1.2h103.7zm0 9.8h-103.7v1.2h103.7zm0 10h-103.7v1.2h103.7z"/>
	<path id="Layer" class="s2" d="m506.2 54.8h-121v259.7h121.1v-259.7z"/>
	<path id="Layer" class="s5" d="m506.2 54.8h-37.7v259.7h37.7z"/>
	<path id="Layer" class="s4" d="m398.5 67.1h-5.6v7.5h5.6zm10.2 0h-5.6v7.5h5.6zm10.2 0h-5.6v7.5h5.6zm10.1 0h-5.6v7.5h5.6zm10.2 0h-5.6v7.5h5.6zm10.2 0h-5.6v7.5h5.6zm10.1 0h-5.6v7.5h5.6zm18.7 0h-5.6v7.5h5.6zm10.1 0h-5.6v7.5h5.6zm10.2 0h-5.6v7.5h5.6zm-100 15.7h-5.6v7.5h5.6zm10.2 0h-5.6v7.5h5.6zm10.2 0h-5.6v7.5h5.6zm10.1 0h-5.6v7.5h5.6zm10.2 0h-5.6v7.5h5.6zm10.2 0h-5.6v7.5h5.6zm10.1 0h-5.6v7.5h5.6zm18.7 0h-5.6v7.5h5.6zm10.1 0h-5.6v7.5h5.6zm10.2 0h-5.6v7.5h5.6zm-100 15.6h-5.6v7.5h5.6zm10.2 0h-5.6v7.5h5.6zm10.2 0h-5.6v7.5h5.6zm10.1 0h-5.6v7.5h5.6zm10.2 0h-5.6v7.5h5.6zm10.2 0h-5.6v7.5h5.6zm10.1 0h-5.6v7.5h5.6zm18.7 0h-5.6v7.5h5.6zm10.1 0h-5.6v7.5h5.6zm10.2 0h-5.6v7.5h5.6zm-100 15.7h-5.6v7.5h5.6zm10.2 0h-5.6v7.5h5.6zm10.2 0h-5.6v7.5h5.6zm10.1 0h-5.6v7.5h5.6zm10.2 0h-5.6v7.5h5.6zm10.2 0h-5.6v7.5h5.6zm10.1 0h-5.6v7.5h5.6zm18.7 0h-5.6v7.5h5.6zm10.1 0h-5.6v7.5h5.6zm10.2 0h-5.6v7.5h5.6zm-100 15.7h-5.6v7.5h5.6zm10.2 0h-5.6v7.5h5.6zm10.2 0h-5.6v7.5h5.6zm10.1 0h-5.6v7.5h5.6zm10.2 0h-5.6v7.5h5.6zm10.2 0h-5.6v7.5h5.6zm10.1 0h-5.6v7.5h5.6zm18.7 0h-5.6v7.5h5.6zm10.1 0h-5.6v7.5h5.6zm10.2 0h-5.6v7.5h5.6zm-100 15.6h-5.6v7.5h5.6zm10.2 0h-5.6v7.5h5.6zm10.2 0h-5.6v7.5h5.6zm10.1 0h-5.6v7.5h5.6zm10.2 0h-5.6v7.5h5.6zm10.2 0h-5.6v7.5h5.6zm10.1 0h-5.6v7.5h5.6zm18.7 0h-5.6v7.5h5.6zm10.1 0h-5.6v7.5h5.6zm10.2 0h-5.6v7.5h5.6zm-100 15.6h-5.6v7.5h5.6zm10.2 0h-5.6v7.5h5.6zm10.2 0h-5.6v7.5h5.6zm10.1 0h-5.6v7.5h5.6zm10.2 0h-5.6v7.5h5.6zm10.2 0h-5.6v7.5h5.6zm10.1 0h-5.6v7.5h5.6zm18.7 0h-5.6v7.5h5.6zm10.1 0h-5.6v7.5h5.6zm10.2 0h-5.6v7.5h5.6zm-100 15.7h-5.6v7.5h5.6zm10.2 0h-5.6v7.5h5.6zm10.2 0h-5.6v7.5h5.6zm10.1 0h-5.6v7.5h5.6zm10.2 0h-5.6v7.5h5.6zm10.2 0h-5.6v7.5h5.6zm10.1 0h-5.6v7.5h5.6zm18.7 0h-5.6v7.5h5.6zm10.1 0h-5.6v7.5h5.6zm10.2 0h-5.6v7.5h5.6zm-100 15.7h-5.6v7.5h5.6zm10.2 0h-5.6v7.5h5.6zm10.2 0h-5.6v7.5h5.6zm10.1 0h-5.6v7.5h5.6zm10.2 0h-5.6v7.5h5.6zm10.2 0h-5.6v7.5h5.6zm10.1 0h-5.6v7.5h5.6zm18.7 0h-5.6v7.5h5.6zm10.1 0h-5.6v7.5h5.6zm10.2 0h-5.6v7.5h5.6zm-100 15.6h-5.6v7.5h5.6zm10.2 0h-5.6v7.5h5.6zm10.2 0h-5.6v7.5h5.6zm10.1 0h-5.6v7.5h5.6zm10.2 0h-5.6v7.5h5.6zm10.2 0h-5.6v7.5h5.6zm10.1 0h-5.6v7.5h5.6zm18.7 0h-5.6v7.5h5.6zm10.1 0h-5.6v7.5h5.6zm10.2 0h-5.6v7.5h5.6zm-100 15.7h-5.6v7.5h5.6zm10.2 0h-5.6v7.5h5.6zm10.2 0h-5.6v7.5h5.6zm10.1 0h-5.6v7.5h5.6zm10.2 0h-5.6v7.5h5.6zm10.2 0h-5.6v7.5h5.6zm10.1 0h-5.6v7.5h5.6zm18.7 0h-5.6v7.5h5.6zm10.1 0h-5.6v7.5h5.6zm10.2 0h-5.6v7.5h5.6zm-100 15.7h-5.6v7.5h5.6zm10.2 0h-5.6v7.5h5.6zm10.2 0h-5.6v7.5h5.6zm10.1 0h-5.6v7.5h5.6zm10.2 0h-5.6v7.5h5.6zm10.2 0h-5.6v7.5h5.6zm10.1 0h-5.6v7.5h5.6zm18.7 0h-5.6v7.5h5.6zm10.1 0h-5.6v7.5h5.6zm10.2 0h-5.6v7.5h5.6zm-100 15.6h-5.6v7.5h5.6zm10.2 0h-5.6v7.5h5.6zm10.2 0h-5.6v7.5h5.6zm10.1 0h-5.6v7.5h5.6zm10.2 0h-5.6v7.5h5.6zm10.2 0h-5.6v7.5h5.6zm10.1 0h-5.6v7.5h5.6zm18.7 0h-5.6v7.5h5.6zm10.1 0h-5.6v7.5h5.6zm10.2 0h-5.6v7.5h5.6zm-100 15.7h-5.6v7.5h5.6zm10.2 0h-5.6v7.5h5.6zm10.2 0h-5.6v7.5h5.6zm10.1 0h-5.6v7.5h5.6zm10.2 0h-5.6v7.5h5.6zm10.2 0h-5.6v7.5h5.6zm10.1 0h-5.6v7.5h5.6zm18.7 0h-5.6v7.5h5.6zm10.1 0h-5.6v7.5h5.6zm10.2 0h-5.6v7.5h5.6z"/>
	<path id="Layer" class="s5" d="m402.2 54.8h87.1v-11c0-4.6-3.5-8.3-8-8.3h-71.1c-4.4 0-8 3.7-8 8.3z"/>
	<path id="Layer" class="s2" d="m559 325h12c0-1.1-1-2-2.2-2h-7.6c-1.2 0-2.2 0.9-2.2 2z"/>
	<path id="Layer" class="s2" d="m563.1 308h3.6c0.4 0 0.7 0.3 0.7 0.7l0.6 14.3h-6l0.3-14.3c0-0.4 0.4-0.8 0.8-0.7z"/>
	<path id="Layer" class="s2" d="m563.5 308h3.1c0.8 0 1.5-0.5 1.5-1.3v-2.4c0-0.7-0.6-1.3-1.5-1.3h-3.1c-0.8 0-1.5 0.5-1.5 1.3v2.4c0 0.8 0.6 1.3 1.5 1.3z"/>
	<path id="Layer" class="s2" d="m566 260h-2v43h2z"/>
	<path id="Layer" class="s2" d="m561.9 261h6.3c0.5 0 0.9-0.5 0.9-1 0-0.5-0.4-1-0.9-1h-6.3c-0.5 0-0.9 0.5-0.9 1 0 0.5 0.3 1 0.9 1z"/>
	<path id="Layer" class="s4" d="m561.1 259h6.8l1.1-10h-9z"/>
	<path id="Layer" class="s2" d="m559.9 249h10.1c0.5 0 0.9-0.4 0.9-0.9 0-0.5-0.4-0.9-0.9-0.9h-10.1c-0.5 0-0.9 0.4-0.9 0.9 0 0.5 0.4 0.9 0.9 0.9zm4.1-5h2.1v-1c0-0.6-0.4-1-1-1-0.6 0-1 0.4-1 1z"/>
	<path id="Layer" class="s2" d="m559.3 248h10.7c0-2.2-1.7-4-3.9-4h-3c-2 0-3.8 1.8-3.8 4zm-516.3 73h12.6c0-1.3-1.1-2.4-2.3-2.4h-7.9c-1.3 0.1-2.4 1.1-2.4 2.4z"/>
	<path id="Layer" class="s2" d="m47.1 304h3.8c0.4 0 0.8 0.3 0.8 0.7l0.6 14.5h-6.4l0.3-14.5c0.1-0.4 0.5-0.7 0.9-0.7z"/>
	<path id="Layer" class="s2" d="m47.7 304.2h2.9c0.7 0 1.3-0.6 1.3-1.4v-2.6c0-0.7-0.6-1.4-1.3-1.4h-2.9c-0.7 0-1.3 0.6-1.3 1.4v2.7c0 0.7 0.6 1.3 1.3 1.3z"/>
	<path id="Layer" class="s2" d="m49.9 254.3h-1.6v44.6h1.6z"/>
	<path id="Layer" class="s2" d="m45.7 255.4h6.8c0.6 0 1-0.4 1-1 0-0.6-0.4-1-1-1h-6.8c-0.6 0-1 0.4-1 1 0.1 0.5 0.5 1 1 1z"/>
	<path id="Layer" class="s4" d="m45.8 253.4h6.7l1-10.2h-8.8z"/>
	<path id="Layer" class="s2" d="m44.2 243.6h10c0.6 0 1-0.4 1-1 0-0.6-0.4-1-1-1h-10c-0.6 0-1 0.4-1 1 0 0.6 0.4 1 1 1zm3.9-5.3h2.1v-1c0-0.6-0.5-1.1-1-1.1-0.6 0-1 0.5-1 1.1v1z"/>
	<path id="Layer" class="s5" d="m597.4 220.1c-3.5-0.7-5.9 3.2-6.6 6.6-0.3 1.8-0.3 3.9-1.7 5.1-0.6 0.4-1.2 0.8-1.9 1.1-3.9 2.1-4.2 6-4.2 9.9 0.1 0.7-0.1 1.3-0.3 1.9-0.3 0.7-1 1-1.5 1.6-0.3 0.4-0.4 0.9-0.5 1.5-1 4.5-0.5 8.6-0.4 13.1 0.2 31.8 16.7 30.3 16.7 30.3h0.6c4-0.2 7.6-2.8 10-6 2.4-3.3 3.8-7.5 4.6-11.6 0.6-3 0.9-6.1 1-9.1 0.2-3.3 0.8-6.4-0.3-9.6-0.6-1.4-1.4-2.9-1.5-4.5 0-1.7 1-3.3 1-5.1 0-1-0.2-2.1-0.6-3-0.8-2.4-1.9-4.8-3-7-1-1.7-3.1-2.7-3.7-4.6-0.1-0.8-0.2-1.6-0.1-2.5-0.1-4.1-3.5-6.9-7-7.9z"/>
	<path id="Layer" class="s3" d="m594.4 323.8h4l-1.3-51-0.6-1.3z"/>
	<g id="Папка 1">
		<path id="Фигура_25_копия" fill-rule="evenodd" class="s6" d="m474 331.5l1 11.1h2.8l0.2-11.2zm11.3-1l0.1 1.8h2.2v-2.1zm92-0.3l-0.1 1.9 2.3 0.1 0.3-2.1zm8.8 1.1l0.3 11.4 2.8-0.1 0.8-11.4z"/>
		<path id="Фигура_22_копия" fill-rule="evenodd" class="s7" d="m477.9 307l109.3-0.9v22.6l-109.2-0.2z"/>
		<path id="Фигура_23_копия" fill-rule="evenodd" class="s8" d="m591.6 307.2l-115.2 0.3 11.3-4.7 89.8-0.4z"/>
		<path id="Фигура_24_копия" fill-rule="evenodd" class="s9" d="m577.7 302.9l-90.5 0.4 1.2-10.2 0.2-14c-0.2-4 3.5-3.5 3.5-3.5l81.4-0.2c3.8-0.3 3.4 4.4 3.4 4.4v13.3z"/>
		<path id="Фигура_21_копия" fill-rule="evenodd" class="s10" d="m488.4 292.9c-2.6-0.9-5.4-0.3-5.4-0.3-12.7 2.1-12.6 4-12.6 4-1 3.9-0.2 9.9-0.2 9.9l0.6 23.9c0.3 1.8 1.7 1.7 1.7 1.7l6.6-0.1c0.7-1.2 1.2-0.9 1.2-0.9l104.5-0.1 0.7 1h6.5c1.3 0.3 1.3-1.6 1.3-1.6l0.7-32.7c0.1-2.5-1.8-2.5-1.8-2.5-14-5.1-15.4-2.5-15.4-2.5-1.2 3-0.5 10.1-0.5 10.1 9.5 2 8.5 3.3 8.5 3.3l-0.1 20.2c-0.2 1.7-8.8 1.2-8.8 1.2l-93.6 0.3c-3 0.1-2.5-3.6-2.5-3.6l-0.4-15.2c-0.3-2.8 2-3.2 2-3.2l7.1-2.6z"/>
		<path id="Фигура_30_копия" fill-rule="evenodd" class="s11" d="m558.3 284.3l-8.7 3.2-0.9 18.2 17.1 1.8 7.2-5 0.7-17z"/>
		<path id="Фигура_31_копия" fill-rule="evenodd" class="s12" d="m549.4 287.5l17.4 1.5-1 18.5-17.1-1.8z"/>
		<path id="Фигура_32_копия" fill-rule="evenodd" class="s13" d="m565.8 307.5l7.2-4.9 0.6-16.8-7 3.3z"/>
		<path id="Фигура_33_копия" fill-rule="evenodd" class="s14" d="m549.7 287.5l8.3-0.1 0.1 0.7z"/>
		<path id="Фигура_34_копия" fill-rule="evenodd" class="s14" d="m558.4 287.9l-0.2 0.3 7.8 0.6z"/>
		<path id="Фигура_35_копия" fill-rule="evenodd" class="s15" d="m558 287.4l7.6-2.3-7.4 3z"/>
		<path id="Фигура_24_копия-2" fill-rule="evenodd" class="s11" d="m554.7 331.6l-1 0.9-0.3 21.9 21.2 2.5 8.4-10.4 0.3-20.6-1-0.1-22.4-2.1z"/>
		<path id="Фигура_25_копия-2" fill-rule="evenodd" class="s12" d="m553.9 332.4l20.8 2.1-0.3 22.3-21.2-2.3z"/>
		<path id="Фигура_26_копия" fill-rule="evenodd" class="s13" d="m574.6 356.9l8.1-10.4 0.6-20.4-8.6 8.5z"/>
		<path id="Фигура_27_копия" fill-rule="evenodd" class="s11" d="m556.3 308.9l-0.3 0.6-1.3 22.4 21.7 2.4 6.3-8.5 0.7-20.8-17.6-1.8z"/>
		<path id="Фигура_28_копия" fill-rule="evenodd" class="s16" d="m556 309.5l-1.1 22.6 21.6 2.2 1.3-22.6z"/>
		<path id="Фигура_29_копия" fill-rule="evenodd" class="s17" d="m576.4 334.3l6.3-8.3 0.8-20.6-5.8 6.5z"/>
	</g>
	<g id="Папка 1">
		<path id="Фигура_33_копия_2" fill-rule="evenodd" class="s14" d="m566.9 261.1l12.1-0.1 0.2 1.1z"/>
		<path id="Фигура_34_копия_2" fill-rule="evenodd" class="s14" d="m579.6 261.7l-0.2 0.5 11.4 0.9z"/>
		<path id="Фигура_35_копия_2" fill-rule="evenodd" class="s15" d="m579 260.9l11.2-3.3-10.8 4.5z"/>
		<path id="Фигура_24_копия_2-2" fill-rule="evenodd" class="s11" d="m523.2 324.8l-1.5 1.3-0.5 32.1 31.2 3.8 12.3-15.3 0.5-30.3-1.5-0.1-32.9-3.1z"/>
		<path id="Фигура_25_копия_2-2" fill-rule="evenodd" class="s12" d="m521.9 325.9l30.7 3.1-0.5 32.9-31.1-3.5z"/>
		<path id="Фигура_26_копия_2" fill-rule="evenodd" class="s13" d="m552.4 362l11.9-15.3 0.9-30.1-12.6 12.5z"/>
		<path id="Фигура_27_копия_2" fill-rule="evenodd" class="s11" d="m525.4 291.4l-0.4 0.9-1.8 32.9 31.9 3.6 9.2-12.5 1-30.5-25.9-2.7z"/>
		<path id="Фигура_28_копия_2" fill-rule="evenodd" class="s16" d="m525.1 292.3l-1.7 33.2 31.8 3.3 1.8-33.3z"/>
		<path id="Фигура_29_копия_2" fill-rule="evenodd" class="s17" d="m554.9 328.8l9.4-12.2 1.1-30.3-8.5 9.5z"/>
		<path id="Фигура_7_копия" fill-rule="evenodd" class="s18" d="m569.5 235.6c0.3 4 0 6.6 0 6.6l0.2 3.4 2.6 3.2 4.1 2 2.2-1.2 1.7-2.2 0.8-3.6-2.2-2.3c2.4-3.3 2.1-5 2.1-5 1.6 0.1 1.6-3.6 1.6-3.6l-0.4-2.9-2.3-1.8-2.4-1c0 0-3.7-0.4-3.9-0.4-0.2 0.1-3.3 1.5-3.3 1.5l-1.2 1.4-0.2 0.7c-1.2-0.6-1.1 1.4-1.1 1.4-0.9 4.1 1.7 3.8 1.7 3.8z"/>
		<path id="Фигура_21_копия" fill-rule="evenodd" class="s19" d="m573.7 238.2l3.6 0.2c-2.4 5.2-3.6-0.2-3.6-0.2z"/>
		<path id="Прямоугольник_скругл._углы_1_копия_2" fill-rule="evenodd" class="s6" d="m572.7 232.7h1.2q0.2 0 0.4 0.2 0.1 0.1 0.1 0.3 0 0.2-0.1 0.3-0.2 0.2-0.4 0.2h-1.2q-0.2 0-0.3-0.2-0.1-0.1-0.1-0.3 0-0.2 0.1-0.3 0.1-0.2 0.3-0.2z"/>
		<path id="Прямоугольник_скругл._углы_1_копия_2-2" fill-rule="evenodd" class="s6" d="m578.1 233.1h1.2q0.2 0 0.4 0.2 0.1 0.1 0.1 0.3 0 0.2-0.1 0.3-0.2 0.2-0.4 0.2h-1.2q-0.2 0-0.3-0.2-0.1-0.1-0.1-0.3 0-0.2 0.1-0.3 0.1-0.2 0.3-0.2z"/>
		<path id="Фигура_20_копия" fill-rule="evenodd" class="s20" d="m574.7 243.6c1.3 0.8 0.6 3.3 0.6 3.3 1-2.6-0.6-3.3-0.6-3.3z"/>
		<path id="Фигура_19_копия" fill-rule="evenodd" class="s20" d="m569.9 238.6c2.8 5.7 7 3.8 7 3.8-4.3 1.3-7-3.8-7-3.8z"/>
		<path id="Фигура_1_копия" fill-rule="evenodd" class="s6" d="m572 354.8c-0.7 1.9-0.1 3.8-0.1 3.8-1.2 2.9 1.3 3.9 1.3 3.9 0.5 0.9 0.4 2.6 0.4 2.6 0.2 2.4 3.1 2.6 3.1 2.6 5.3 0 5-2.1 5-2.1 0-3.2-1.1-4.1-1.1-4.1-0.1-0.8-0.9-1.9-0.9-1.9-0.2-1-0.7-1.1-0.7-1.1 0.4-2.3 0-3.1 0-3.1l0.4-1.6-0.9-1.9-3.9-0.4-1.8 1.7z"/>
		<path id="Фигура_5_копия" fill-rule="evenodd" class="s18" d="m552.8 257.3c-0.5 0.8 0 3.4 0 3.4-1.2 3.1-0.7 8.3-0.7 8.3-1.3 3.5-0.5 8.3-0.5 8.3 0.4 6.8 0.5 13.1 0.5 13.1-1.6 1-2 2.5-2 2.5-1.1 2.2-0.8 4.7-0.8 4.7 0.3 1.7 1.2 0.8 1.2 0.8 1.3 1.5 1.5-2.5 1.5-2.5-0.1 3.2 1.1 2.9 1.1 2.9 0.8-0.1 0.5-3.7 0.5-3.7 0.3-3.3 0.8-0.9 0.8-0.9 0 1.8-0.1 3.5-0.1 3.5-0.2 1.5 0.6 1.2 0.6 1.2 0.9 0.1 1.2-3.6 1.2-3.6 0.4-0.4 0.3-1.5 0.3-1.5 0.5-0.8 0.9 0.3 0.9 0.3 0.2 0.4 0.6 3.1 0.6 3.1 0.3 1.8 1-0.9 1-0.9 1.4-3.7-1.5-5.2-1.5-5.2 0.1-0.9-0.2-3.8-0.2-3.8 0.6-8.8 0.5-13.2 0.5-13.2-0.1-3.5 1.4-5.7 1.4-5.7 1.7-2.6 2-8.6 2-8.6l-2.4-2.8-2.5-0.8-1.9 0.8z"/>
		<path id="Фигура_2_копия" fill-rule="evenodd" class="s6" d="m579.5 350.5c-0.3 1.1 2.1 2.1 2.1 2.1-0.1 0.9 0.6 2 0.6 2-0.2 0.9 0.4 1.2 0.4 1.2 0.5 0 0.2 1.1 0.2 1.1-1 5.4 0.9 6.1 0.9 6.1 2.2 1.5 4.5-1.5 4.5-1.5 2.8-5.2 1.1-9 1.1-9-0.6-1.9 1.1-2.6 1.1-2.6 1.2-0.7 1.3-2.3 1.3-2.3 1.8-7.2-4.7-5-4.7-5l-1.4 0.5-2.5 1.8-1.6 2.7c0 0-1.7 1-1.8 1.1z"/>
		<path id="Фигура_4_копия" fill-rule="evenodd" class="s21" d="m590.1 286c-0.5-11.2 0.2-28.5 0.2-28.5 0.1-1.5 3.7-1.8 3.7-1.8 2.2 1 3.3-0.8 3.3-0.8-1.9 0.2-3-0.5-3-0.5-2.6-4.4 1.2-7.2 1.2-7.2 1-1.1 2.5-1 2.5-1-1.1-0.5-2.9-0.5-2.9-0.5-2.4-1.7-6-1.6-6-1.6-2.1-1.9-4.4 0.2-4.4 0.2-1.8-1.2-3.2-0.6-3.2-0.6 0-1.3-2.4-2.2-2.4-2.2 2.1 3.7-0.1 5.5-0.1 5.5-3.2 0.6-3.6 2.4-3.6 2.4-1.3-3-3.4-3.1-3.4-3.1-2.3-1.3-2.5-5.6-2.5-5.6-1.6 0.2-3.2 1.3-3.2 1.3-1.3-0.4-2.1 0.3-2.1 0.3q-0.2 0-0.4 0-0.2 0-0.5 0-0.2 0.1-0.4 0.1-0.2 0.1-0.4 0.2c-4.9-0.2-6.6 3.8-6.6 3.8-2.3 3.5-3.2 11.1-3.2 11.1 3.3 0.7 8.4 2.8 8.4 2.8 0.2 0.8-0.2 2.1-0.2 2.1-0.2 10.2 3.5 25.7 3.5 25.7l5.8 1.1 6.8 0.5 4.9-0.6 5.1-1.2z"/>
		<path id="Фигура_22_копия" fill-rule="evenodd" class="s22" d="m564.3 252.5c0.8 3.5-2.3 7.4-2.3 7.4 4.1-3.4 2.3-7.4 2.3-7.4z"/>
		<path id="Фигура_23_копия" fill-rule="evenodd" class="s22" d="m566 269.2c4.5 10.2 19.1 10.6 19.1 10.6-13.4-0.8-19.1-10.6-19.1-10.6z"/>
		<path id="Фигура_18_копия" fill-rule="evenodd" class="s19" d="m578.9 241.5c2.5 0 2.8 2.1 2.8 2.1 0.3 4.4-2.8 5.2-2.8 5.2-2.1 0.1-3.4 2.2-3.4 2.2-2.6-3.4-4.1-3.1-4.1-3.1-4.1-1.4-3.6-7-3.6-7 2.2-1.1 1.8 0.2 1.8 0.2 0.9 5 2.8 5 2.8 5 2.8 0.7 2.9 2.6 2.9 2.6 1.7-1.9 3.6-2 3.6-2 2-2.2 0-5.2 0-5.2z"/>
		<path id="Фигура_6_копия" fill-rule="evenodd" class="s18" d="m594.1 254.3c2.5 1.9 7.5-0.5 7.5-0.5 1.5-0.6 3.8-1.1 3.8-1.1 0.9-0.2 1.7-1.3 1.7-1.3 0.3-0.9 1.6-2.1 1.6-2.1 0.9-2.2-0.6-3.5-0.6-3.5-4.2-5.3-10.4-8.8-10.4-8.8-1.5-1.1-4.4-3.9-4.4-3.9-1.7-1-2.2-2.6-2.2-2.6-1.7-2.5-3.6-3-3.6-3-2.3-2.5-3.4 0-3.4 0-0.6 0.4-0.7 0.9-0.7 0.9-0.9-0.2-1.1 0.5-1.1 0.5-1.9 0.1-0.9 1.8-0.9 1.8-2.3-0.2-0.2 1.3-0.2 1.3 0.5 0.6 1.5 1.3 1.5 1.3 0.7 1.7 2.1 1.8 2.1 1.8 0.5 0 1.2 0.6 1.2 0.6 0.7 0.4 1.8 0.2 1.8 0.2 1 0.1 2.3 1.2 2.3 1.2 2.5 0.7 8 8.9 8 8.9-3.6 0.7-4.2 2.8-4.2 2.8-1.5 3.6 0.2 5.5 0.2 5.5z"/>
		<path id="Фигура_8_копия" fill-rule="evenodd" class="s21" d="m568.9 230.5c0.4-0.8 1-1 1-1 0.6 3.1 2.7 1.1 2.7 1.1 4.1-3.8 8.2-0.3 8.2-0.3 1.8 1.3 1.4 0.1 1.4 0.1 0.1-5.8-1.8-6.1-1.8-6.1-1.4-2.1-3-1.7-3-1.7-0.7-0.8-1.7-0.3-1.7-0.3-0.2-0.7-1.4 0-1.4 0-3.8 0.8-4.4 3.7-4.4 3.7l-0.1 0.1c-0.7 1-0.9 4.4-0.9 4.4z"/>
		<path id="Фигура_17_копия" fill-rule="evenodd" class="s23" d="m570.9 228.9c6.8-6.8 11.1 0.6 11.1 0.6-5.2-7-11.1-0.6-11.1-0.6z"/>
		<path id="Фигура_3_копия" fill-rule="evenodd" class="s24" d="m587 346.5c-0.3 3.3-7.6 4.1-7.6 4.1-1.4-2.2-2.2-3.3-2.6-3.9-0.2-0.4-0.3-0.5-0.3-0.5-0.2-0.4-0.6-0.9-1-1.4l-0.4-0.7-0.9-1.5q-0.1 0-0.1-0.1c0.1 0.5-2 4.4-2 4.4-1.2 3.3-0.7 5.7-0.7 5.7 0.3 3.1 1 2.4 1 2.4 3-1.4 6.8 0.3 6.8 0.3 2.3-2.6 0.2-4.7 0.2-4.7l-2.6-3.9-1.3-1.9q-0.2-0.4-0.4-0.7c-0.3-0.6-0.7-1.1-0.9-1.5l-0.1-0.1q0 0 0 0-0.2-0.3-0.2-0.3c-1.7-1-4-5.5-4-5.5-1-1.8-3.8-4.8-3.8-4.8-0.8-0.1-1.3-1.5-1.3-1.5-1.4-0.6-1.6-1.9-1.6-1.9 0.1-0.5-0.5-1.1-0.5-1.1-0.7-1.1-0.5-5.1-0.5-5.1-1.4-3.5-0.6-12.4-0.6-12.4-1-3 0.8-6.7 0.8-6.7 0.2-1.4-0.4-2.6-0.4-2.6-1.1-2.6 0.2-5.2 0.2-5.2-0.1-2 1.3-2.8 1.3-2.8 0.7-1.9 0.8-5.4 0.8-5.4 14.6 2.6 19 0.3 19 0.3 7.7-1.5 6.8-2.6 6.8-2.6 0.6-0.2 0.6 2.5 0.6 2.5 4.2 10.9 0.6 14.1 0.6 14.1-0.4 4-3.1 12-3.1 12-0.1 3.8-1.7 6.7-1.7 6.7 0 0.5-0.4 2.2-0.4 2.2 0.4 0.4-0.6 4.1-0.6 4.1 0.6 1.3-0.3 3.3-0.3 3.3 0.4 0.6 0 2.2 0 2.2 0.7 1.8-0.6 6.5-0.6 6.5 3.4 4.6 2.8 5.5 2.8 5.5 0 1.8-0.4 2.5-0.4 2.5zm-10.6-18.5l0.3-0.7c-0.5-0.7-0.4-3.1-0.4-3.1-0.4-1.1 0.1-4.5 0.1-4.5 0.7-1.7 0.1-12.2 0.1-12.2-0.6 3.7-2.8 10.9-2.8 10.9-1 4.6 0.2 6.5 0.2 6.5z"/>
		<path id="Фигура_12_копия" fill-rule="evenodd" class="s25" d="m563.4 304.3c2.6 4.2 11.8 2.6 11.8 2.6-8.8 1-11.8-2.6-11.8-2.6z"/>
		<path id="Фигура_13_копия" fill-rule="evenodd" class="s25" d="m577.8 314.2c4.8 2.6 10-1.2 10-1.2-6.6 3.4-10 1.2-10 1.2z"/>
		<path id="Фигура_14_копия" fill-rule="evenodd" class="s25" d="m576.5 328.3c3.5 2.5 7.9 10.2 7.9 10.2-2.1-3.7-7.9-10.2-7.9-10.2z"/>
		<path id="Фигура_15_копия" fill-rule="evenodd" class="s25" d="m574.1 342.7c1.7 1.4 5.3 7.9 5.3 7.9-1.5-1.7-5.3-7.9-5.3-7.9z"/>
		<path id="Фигура_16_копия" fill-rule="evenodd" class="s25" d="m565 330.3c5.6 1.8 8.6-3.5 8.6-3.5-3.6 5-8.6 3.5-8.6 3.5z"/>
		<path id="Фигура_11_копия" fill-rule="evenodd" class="s26" d="m564.4 287.2c-0.3 0-0.2 0.4-0.2 0.4q0 0.1 0 0.3 0 0.1 0 0.3 0 0.1 0 0.3-0.1 0.1-0.1 0.3c0 0.3 0.3 0.2 0.3 0.2 18.3 3.5 26.4-1.8 26.4-1.8 0.1-0.1 0-0.3 0-0.3-0.1-1.4-0.4-1.9-0.4-1.9-0.5-0.5-0.4 0.1-0.4 0.1-8.3 5.2-25.6 2.1-25.6 2.1z"/>
		<path id="Фигура_9_копия" fill-rule="evenodd" class="s25" d="m563.6 292.9c4.5 1.1 4.3-2.9 4.3-2.9l-3.8-0.8c-0.1 1.8-0.5 3.7-0.5 3.7z"/>
		<path id="Фигура_10_копия" fill-rule="evenodd" class="s25" d="m591 288.8l-3.4 1c0.5 3.6 4.2 2 4.2 2 0.2-1-0.8-3-0.8-3z"/>
	</g>
	<g id="Папка 1">
		<path id="Фигура_10" fill-rule="evenodd" class="s6" d="m461.3 262.8c-0.3 0.3-2.1 0.3-2.1 0.3-0.9 1-1.7 0.6-1.7 0.6-0.6-0.1-0.8-0.5-0.8-0.5-0.4 0.3-1.5 0.2-1.5 0.2-1.5 1-0.7 3.6-0.7 3.6 0.4 1.8-1 1.4-1 1.4-0.3 1.4-1.4 0.5-1.4 0.5-0.6-0.8-0.8-0.3-0.8-0.3-0.8 0.3-1.3-1.2-1.3-1.2-1.8 0.6-1.4-1.1-1.4-1.1-0.1-2.3 0.7-2.9 0.7-2.9 0.5-0.6 1.3-0.7 1.3-0.7 1.8-2.3 2.4-1.9 2.4-1.9q0.6-0.2 1.1-0.4 0.5-0.2 1.1-0.3 0.5-0.2 1.1-0.3 0.6-0.1 1.1-0.2c2.1-1.3 3.2-0.6 3.2-0.6l0.8 0.2 0.8 1.1-0.1 1.6z"/>
		<path id="Фигура_9" fill-rule="evenodd" class="s18" d="m479.9 257.2c-1.1 1.6-2.7 2.2-2.7 2.2l-9.5 2.8c-1.6 0.1-6.6 0.7-6.6 0.7 2.1-3.5-0.7-3.9-0.7-3.9q0.7-0.2 1.4-0.4 0.7-0.2 1.4-0.5 0.6-0.2 1.3-0.5 0.7-0.3 1.4-0.5c2.6-1.8 5.8-1.6 5.8-1.6 1.4-0.3 2-1.3 2-1.3 1-1.2 2.1-2.3 2.1-2.3l0.5 0.9 0.1 1.7 1.6 1.3z"/>
		<path id="Фигура_11" fill-rule="evenodd" class="s18" d="m494.6 237c-0.9 0.1-0.5-2.1-0.5-2.1 1.5 0.8 1.6-0.7 1.6-0.7 1-1.2 0.6-3.7 0.6-3.7-0.2-1.2-1.5-0.2-1.5-0.2 0.6-1.8-0.1-4.6-0.1-4.6-8.6 0.7-11.3-0.4-11.3-0.4-1.2 0.1-1.5 4.9-1.5 4.9-2-0.4-1.1 2.4-1.1 2.4-0.1 1.6 0.7 2.4 0.7 2.4 0.4 0.9 1.1 0.7 1.1 0.7 0 2.3 2.8 4.2 2.8 4.2l-0.4 1.2 0.2 2.4 1.4 1.1h2.7l2.8-1.2 2-2.1 0.8-2.4z"/>
		<path id="Фигура_28" fill-rule="evenodd" class="s19" d="m489.9 234.9l-4.8-0.1c0.8 6.4 4.8 0.1 4.8 0.1z"/>
		<path id="Фигура_29" fill-rule="evenodd" class="s27" d="m493.1 236.5c-0.8 3.4-5.6 3.3-5.6 3.3 4.5-0.2 5.6-3.3 5.6-3.3z"/>
		<path id="Прямоугольник_скругл._углы_1" class="s6" d="m489.3 230.1c0-0.2 0.2-0.4 0.5-0.4h1.7c0.2 0 0.4 0.2 0.4 0.4 0 0.3-0.2 0.5-0.4 0.5h-1.7c-0.3 0-0.5-0.2-0.5-0.5z"/>
		<path id="Прямоугольник_скругл._углы_1_копия" class="s6" d="m483.6 230.1c0-0.2 0.2-0.4 0.4-0.4h1.8c0.2 0 0.4 0.2 0.4 0.4 0 0.3-0.2 0.5-0.4 0.5h-1.8c-0.2 0-0.4-0.2-0.4-0.5z"/>
		<path id="Фигура_5" fill-rule="evenodd" class="s18" d="m474.3 311.8c1.1 2.4 1.3 5.3 1.3 5.3l-2.3 1.7-3.4 1-2.6-0.2-0.1-4.2c0.8-1.1 0.8-5.1 0.8-5.1l3.3-0.6 1.8 1.2z"/>
		<path id="Фигура_6" fill-rule="evenodd" class="s21" d="m499.6 274l4.9 0.2 2.7 0.2 2.1-1.1 0.9-1.7 1-2c0 0-0.9-2.2-1-2.4-0.1-0.2-0.9-4.7-0.9-4.7l-0.4-1.2-0.3-1.9-0.3-2.4-0.4-2.8-0.2-2.4-0.3-2.2-0.4-2.1-0.7-1.5-0.8-1.4-1.4-1.7c-2.5-2.4-6.9-3.9-6.9-3.9-0.6-1.6-2.9-2.3-2.9-2.3 0.7 4.5-5 6.8-5 6.8-1.9 1.1-3 0.1-3 0.1-0.5-0.9-0.4-2.2-0.4-2.2q-0.1-0.2-0.2-0.4-0.1-0.1-0.2-0.3 0-0.2-0.1-0.4-0.1-0.2-0.1-0.4c-1.3 0.5-1.5 1.4-1.5 1.4-1.6 0.1-2.2 1.7-2.2 1.7-2.1 1.8-3.1 5-3.1 5-2.1 1.4-1.4 2.2-1.4 2.2-2.2 1.9-1.9 2.8-1.9 2.8-0.8 3.1 6.4 5.2 6.4 5.2 0.7 0.2 1 0 1 0 0 0.6 0.9 1.4 0.9 1.4l2.5 3.8 5.9 5 2.7 3.8z"/>
		<path id="Фигура_30" fill-rule="evenodd" class="s28" d="m503.7 255c0.1 3.3-1.9 6.2-1.9 6.2 0-0.2-0.8-0.8-0.8-0.8 0.6 0 0.8 0.5 0.8 0.5 1.5-2.7 1.9-5.9 1.9-5.9z"/>
		<path id="Фигура_3" fill-rule="evenodd" class="s18" d="m506.5 357.6c0.4-0.9 0.1-3.1 0.1-3.1l-2-0.5-4.3 0.2-0.4 1.6 0.9 2.6 2.6 1.2 2.2 0.2z"/>
		<path id="Фигура_1" fill-rule="evenodd" class="s6" d="m506.5 357.2c0.8 2 1.3 3.9 1.3 3.9 0.7 0.7 0.9 1.4 0.9 1.4 0.1 0.8-0.7 1-0.7 1-2.1 0.2-4.2 1.1-4.2 1.1-11.4 1.5-11.4-0.6-11.4-0.6-0.2-1.5 0.9-1.5 0.9-1.5 1.1-1 2.9-2.1 2.9-2.1 0.9-0.5 0.6-1.4 0.6-1.4 0.9-2 2.5-3.1 2.5-3.1-0.8 0-0.3-1.6-0.3-1.6l1.9-0.1 0.5 1c1.7 0.6 2.8 2.4 2.8 2.4 0.5 1.8 1 0.8 1 0.8 0.5-1.1 1.3-1.2 1.3-1.2z"/>
		<path id="Фигура_13" fill-rule="evenodd" class="s29" d="m484 260.3h-2.5l-31.2 3.9 1.8 16.7 19.1-1.9 20.8-2.2-2.5-14.2-1-2.6z"/>
		<path id="Фигура_18" fill-rule="evenodd" class="s30" d="m421.2 322.2l0.1 38.6 7.4 4.2 0.3-39.1z"/>
		<path id="Фигура_14" fill-rule="evenodd" class="s31" d="m469.5 263.1l1.7 15.9-19.2 1.9-1.7-16.8z"/>
		<path id="Фигура_15" fill-rule="evenodd" class="s32" d="m469.5 263.2l16.5-2.5-4.5-0.4-31 3.9z"/>
		<path id="Фигура_17" fill-rule="evenodd" class="s33" d="m488.4 326.1l-12.3-4.4-55.1 0.4 8.7 4.6z"/>
		<path id="Фигура_2" fill-rule="evenodd" class="s24" d="m497 346c0 0-0.9-5.7-0.5-9.2 0 0-2.4-11.8-1.8-30.4 0 0-2.1-6-2.7-11.4 0 0 0.2-0.8-0.5-0.8 0 0-14-2.2-16.5-3.9 0 0-1.3-0.8-1.6 0 0 0-1 0.7 0 2 0 0 1.3 0.3 0.4 2.8 0 0-0.5 2.2-0.4 4.6 0 0-0.4 1.3 0.1 2 0 0 1.6 2 1.2 3.6 0 0 0.6 0.6 0.3 1.6 0 0-0.3 2.6-0.3 5 0 0 0.2 0.6-0.4 0.5 0 0-1-0.2-1.3 0.1 0 0-1 0.5-1.8-0.1 0 0-2.2-0.9-3.5-1.1 0 0-2-0.6-4.3 0 0 0-0.9 0.3-0.9-0.6 0 0-1.8-10.6-2.1-18.7 0 0-1.7-8.2 0.9-12l22.2-2.2c0 0 2 0 4.5 0.7 0 0-0.9-1.7 0.2-1.8 0 0 0.1-1.2 2.2-1.4l-0.6-3.8c0 0-6.3-5.2-6.3-10.2 0 0-0.2-1.6-0.3-2.4 0 0-0.7-1.8-0.5-2.9 0 0-0.8-1.7-0.6-2.4 0 0 0.4-0.3 0.1-1q0-0.3 0-0.5 0-0.3 0-0.6 0-0.2 0-0.5 0.1-0.2 0.1-0.5c0 0-0.2-0.8 0.8-0.9 0 0 0.9-6.8 2.8-8.3 0 0 0 1.1 0.1 1.5 0 0-1.3 1.4-1.8 6.1 0 0 0.6 0.2 0.2 0.8 0 0-0.5 0.5-0.4 1.2 0 0 0.4 0.5 0.2 0.9 0 0-0.2 2.6-0.2 4.8 0 0 3.6 1.1 6.1 0.4 0 0-0.3-2.4 0.1-2.8 0 0 0.9-1.9 0.8-3.2 0 0 0.1-0.6 1-0.7 0 0 3.7-10.4 7.7-9.6 0 0 7.5 0 8.2 12.1 0 0 0.4 3.7 0.9 7.3 0 0 0.9 3.5 2.2 5.1 0 0 3.6 3.1-2 9.4 0 0 7.2 9.1 1.7 18.8 0 0-2.3 12.2-2.3 18.4 0 0 0.6 0.3 0.4 1.3 0 0 0.7 0.5 0.3 1 0 0-0.8 0.9-0.2 1.6 0 0 2.4 0.9 1.2 13 0 0-0.2 11.1-1.7 15.9 0 0-0.6 7.4-1.1 9.6 0 0 0 1.1-1.7 1.1 0 0-1.9-0.5-4.6 0 0 0-5.5-0.5-4.7-2.9 0 0 1.4-4.2 0.7-6.4zm10.7-93.1c0 0-0.2-8.2-4.9-10.4 0 0-3.3-2.6-7.2 1.5 0 0-4.3 6-4.1 14.6 0 0 4.1 7.3 6.7 7.7 0 0 1.9 1.4 1.3 5.3 0 0 1.3 0.8 1.3 1.5 0 0 2-0.5 5.6 0.4 0 0 0.9-0.6 1.5 0.1 0 0 1.1-1.2 0.6-2.4 0 0 0-0.9 1.7-1.2 0 0-0.2-2-1.4-4.1 0 0 0.5-3.5-0.2-5.2 0 0-0.7-4.8-0.9-7.8z"/>
		<path id="Фигура_23" fill-rule="evenodd" class="s34" d="m508.3 315.4c-7.7 3.8-12.6-1.6-12.6-1.6 5.5 4.3 12.6 1.6 12.6 1.6z"/>
		<path id="Фигура_31" fill-rule="evenodd" class="s19" d="m494.1 237c0.2-0.6 0.6-0.4 0.6-0.4 2.1 0.8 2.7 2.3 2.7 2.3-0.5 3.6-8.7 7-8.7 7-1.2 0.8-1.3 3.6-1.3 3.6-0.5-3.8-1.5-3.8-1.5-3.8-2-0.6-2.1-4.8-2.1-4.8 0.4-0.7 1.2-1.1 1.2-1.1 0.5-0.1 0.6 0.3 0.6 0.3 0.6 3.5 1.4 3.6 1.4 3.6 7.3-0.9 7.1-6.7 7.1-6.7z"/>
		<path id="Фигура_24" fill-rule="evenodd" class="s34" d="m508.5 313.2c-3.9 3.5-12.3 0-12.3 0 8 2.7 12.3 0 12.3 0z"/>
		<path id="Фигура_25" fill-rule="evenodd" class="s34" d="m507.3 349.3c-8.2 2.1-10.1-5.3-10.1-5.3 2.9 6.8 10.1 5.3 10.1 5.3z"/>
		<path id="Фигура_26" fill-rule="evenodd" class="s34" d="m472.6 290.5c-9.8 1.1-11.5-5.7-11.5-5.7 3.4 6.6 11.5 5.7 11.5 5.7z"/>
		<path id="Фигура_27" fill-rule="evenodd" class="s34" d="m474.1 305.4c-6.6 2.6-12.3-4.4-12.3-4.4 7.2 6.6 12.3 4.4 12.3 4.4z"/>
		<path id="Фигура_21" fill-rule="evenodd" class="s34" d="m499.3 277.1c-1.3 2.1 1 4.7 1 4.7-5.1-4-1-4.7-1-4.7z"/>
		<path id="Фигура_22" fill-rule="evenodd" class="s34" d="m491.3 287.9c0.7 4.2 1.5 8.5 1.5 8.5-1.3-0.2-1.5-8.5-1.5-8.5z"/>
		<path id="Фигура_19" fill-rule="evenodd" class="s6" d="m492.5 251l-1.6-0.3-1.2 4.9 2 0.5z"/>
		<path id="Фигура_20" fill-rule="evenodd" class="s6" d="m484.3 250.1l-2-0.2-0.3 4.3h2.1z"/>
		<path id="Фигура_4" fill-rule="evenodd" class="s6" d="m475.5 316.6c0.4-0.4 0.4 0.3 0.4 0.3 0.3 1.2 0.8 1.7 0.8 1.7 0.5 0.4 0.3 1.4 0.3 1.4 0.4 0.7 0.3 1.1 0.3 1.1 1.1 1.3 0.2 2.1 0.2 2.1-1.4 1.1-5.5 0.7-5.5 0.7-3.2-0.5-12.3 0.1-12.3 0.1-6.8 0.4-4.7-1.7-4.7-1.7 1.8-1 6.5-2.4 6.5-2.4 1.9-5.1 4.8-4.1 4.8-4.1 1.2-2 1.6-0.9 1.6-0.9 0.6 1.1 0 1.8 0 1.8-0.7 0.1 0.3 1 0.3 1 1.1 1.6 1.5 0.9 1.5 0.9 2.7-1.6 5.8-2 5.8-2z"/>
		<path id="Фигура_8" fill-rule="evenodd" class="s6" d="m478.1 265.5c-0.2 0.9-1.4-0.6-1.4-0.6-0.7 0.4-4-2.2-4-2.2-0.7-0.8-1.5-0.2-1.5-0.2q-0.1 0-0.2-0.1-0.1 0-0.2 0-0.1-0.1-0.2-0.1-0.1-0.1-0.2-0.2c-1.9 1-2.4 0.6-2.4 0.6-0.9-0.4 0.2-1.1 0.2-1.1 0.9-2.7 2.1-2.4 2.1-2.4 0.5-0.9 2-0.6 2-0.6 1-0.6 2.1-0.6 2.1-0.6 0.6-0.7 1.4 0.1 1.4 0.1 1.7 0.5 3.6 2.5 3.6 2.5 0.2 0.3 0.6 0.3 0.6 0.3 1.6 0.8 0.3 0.7 0.3 0.7l-1.2 1.1-0.8 1.1z"/>
		<path id="Фигура_7" fill-rule="evenodd" class="s18" d="m492.6 258.5c2.2 0.7 8.6 2.2 8.6 2.2-1.7 3.1-5.5 10.7-5.5 10.7-0.4 1.6-2.7 2.5-2.7 2.5-1.4 0.8-2.5-0.1-2.5-0.1-1.6-1.6-5.8-2.9-5.8-2.9-3.4-1.5-6.5-5.2-6.5-5.2-2.6-3.7 2.2-4.3 2.2-4.3 0.9 0.4 4.5 2.5 4.5 2.5 0.9 0.7 5.5 1.8 5.5 1.8 0.6 0 0.5-0.5 0.5-0.5-0.1-3.5 1.7-6.7 1.7-6.7z"/>
		<path id="Фигура_12" fill-rule="evenodd" class="s6" d="m483.1 225.6c6.7 1.6 11.8 0.2 11.8 0.2 1.9-3.2-0.4-3.8-0.4-3.8-0.2-1.8-2.7-1.9-2.7-1.9-10.7-5-9.6 8-9.6 8 0.4-2.9 0.9-2.5 0.9-2.5z"/>
		<path id="Фигура_16" fill-rule="evenodd" class="s35" d="m488.5 325.9l-60 0.2v39h59.9z"/>
	</g>
	<g id="Папка 1">
		<path id="Фигура_6_копия" fill-rule="evenodd" class="s36" d="m32.7 341.9l3.4-1.1 6.8-14 8-3.9 6.5-0.9 8.3 1.3 7.2 6.2 6.6 9 5.2 4.1-0.3-8.1-2.2-6.3c0 0-1.9-5.1-2-5.5-0.1-0.4-1.6-3.9-1.6-3.9l-5.1-4.6-5.1-3.2-6.3-2.4-10.1-0.8-9.4 1.8-4 6.1-6.5 6.3-0.7 9.7-0.5 6z"/>
		<path id="Фигура_4_копия" fill-rule="evenodd" class="s6" d="m43.5 314.1c-13.3 9.5-10.6 27.9-10.6 27.9-12 1.1-17.4-3.6-17.4-3.6-5.6-13.5-2.8-25.1-2.8-25.1q0-0.1 0.1-0.2 0-0.1 0.1-0.2 0 0 0.2-0.1 0.1-0.1 0.2-0.1c0.5-12.4 4.6-18.1 4.6-18.1l3.7-3.8 2.4-1.5 3.2-1.8 3.7 0.3-2.1 7.7-5.8 6.6z"/>
		<path id="Фигура_5_копия" fill-rule="evenodd" class="s37" d="m22.4 301.9l6.2-9.7 0.7-3.6-0.2-2-2.7 0.7-3.5 2.4-3.6 3.2-1.1 2.3q-0.6 1.2-1.1 2.5-0.5 1.3-0.9 2.6-0.3 1.3-0.6 2.7-0.2 1.3-0.2 2.7c0.1 1.2 1.1 0.4 1.1 0.4 4.5-2.1 5.9-4.2 5.9-4.2z"/>
		<path id="Фигура_1_копия" fill-rule="evenodd" class="s38" d="m84.6 342.2l61.9-0.4c3.9-0.9 3.1-4.4 3.1-4.4l-0.1-2.8 1.2-0.6-0.1-14.4 4.3-2 0.4 2.5 3.3-0.5-0.1-9.1-8.4 0.3-0.6-81c-1.6-2.5-7.2-1.8-7.2-1.8l-31.3 1c-8.6 0.9-14.4 7.1-14.4 7.1l-32.5 29.1c-8 6.4-21.9 12.4-21.9 12.4l-13.1 6.9c-9.2 4.7-11.5 9.9-11.5 9.9l0.6 0.3c3-5 8.5-6.9 8.5-6.9 3.3-1.8 1.6 1.2 1.6 1.2-1.5 5.5-6 12.5-6 12.5l15.2 10.3 4.7 2.9c1.9-1.4 4.2-2.5 6.5-3.3 2.3-0.8 4.7-1.3 7.3-1.4 2.4-0.1 4.9 0 7.3 0.6 2.4 0.5 4.7 1.4 6.9 2.6 8.2 5.8 9.4 10.6 9.4 10.6q0.9 2.2 1.7 4.5 0.8 2.3 1.4 4.5 0.7 2.4 1.1 4.7 0.5 2.3 0.8 4.7z"/>
		<path id="Эллипс_1_копия_4" class="s39" d="m57.5 361.1c-12.3 0-22.2-9.9-22.2-22.1 0-12.3 9.9-22.2 22.2-22.2 12.2 0 22.1 9.9 22.1 22.2 0 12.2-9.9 22.1-22.1 22.1z"/>
		<path id="Эллипс_1_копия_4-2" class="s36" d="m57.5 354.4c-8.5 0-15.3-6.9-15.3-15.4 0-8.5 6.8-15.4 15.3-15.4 8.5 0 15.4 6.9 15.4 15.4 0 8.5-6.9 15.4-15.4 15.4z"/>
		<path id="Прямоугольник_1_копия_4" fill-rule="evenodd" class="s39" d="m149 318h147.1v18.7h-147.1z"/>
		<path id="Прямоугольник_2_копия" fill-rule="evenodd" class="s39" d="m163 311.4h6.6v8.6h-6.6z"/>
		<path id="Прямоугольник_1_копия_4-2" fill-rule="evenodd" class="s39" d="m221.5 311.5h165.7v15h-165.7z"/>
		<path id="Прямоугольник_1_копия_4-3" fill-rule="evenodd" class="s39" d="m379.2 311.5h29.8v5.4h-29.8z"/>
		<path id="Прямоугольник_3_копия" fill-rule="evenodd" class="s24" d="m152.9 167.9h274.9q0.8 0 1.6 0.4 0.7 0.3 1.3 0.9 0.6 0.6 0.9 1.4 0.4 0.7 0.4 1.5v134.6q0 0.8-0.4 1.6-0.3 0.8-0.9 1.4-0.6 0.6-1.3 0.9-0.8 0.3-1.6 0.3h-274.9q-0.9 0-1.6-0.3-0.8-0.3-1.4-0.9-0.6-0.6-0.9-1.4-0.3-0.8-0.3-1.6v-134.6q0-0.8 0.3-1.5 0.3-0.8 0.9-1.4 0.6-0.6 1.4-0.9 0.7-0.4 1.6-0.4z"/>
		<path id="Фигура_11_копия" fill-rule="evenodd" class="s21" d="m429.3 311.9q0.5 0 1-0.2 0.6-0.2 0.9-0.6 0.4-0.4 0.6-0.9 0.2-0.5 0.2-1.1v-74l-59.9 33.1-49.4 16-42.3 0.8-26.6-4.8-28.9-9-22.4-6.1-20.3-4.9-18.5-1.2-15 1.7v48.5c0.3 2.8 2.7 2.7 2.7 2.7z"/>
		<path id="Прямоугольник_1_копия_4-4" fill-rule="evenodd" class="s39" d="m203 333.6h42.4v5.3h-42.4z"/>
		<path id="Эллипс_2_копия_2" class="s39" d="m57.5 346.4c-4.1 0-7.5-3.4-7.5-7.5 0-4.1 3.4-7.5 7.5-7.5 4.1 0 7.5 3.4 7.5 7.5 0 4.1-3.4 7.5-7.5 7.5z"/>
		<path id="Эллипс_1_копия_4-3" class="s39" d="m295.1 361.1c-12.3 0-22.2-9.9-22.2-22.1 0-12.3 9.9-22.2 22.2-22.2 12.2 0 22.1 9.9 22.1 22.2 0 12.2-9.9 22.1-22.1 22.1z"/>
		<path id="Эллипс_1_копия_4-4" class="s36" d="m295.1 354.4c-8.5 0-15.4-6.9-15.4-15.4 0-8.5 6.9-15.4 15.4-15.4 8.5 0 15.4 6.9 15.4 15.4 0 8.5-6.9 15.4-15.4 15.4z"/>
		<path id="Эллипс_2_копия_2-2" class="s39" d="m295.1 346.4c-4.2 0-7.5-3.4-7.5-7.5 0-4.1 3.3-7.5 7.5-7.5 4.1 0 7.4 3.4 7.4 7.5 0 4.1-3.3 7.5-7.4 7.5z"/>
		<path id="Фигура_3_копия_2" fill-rule="evenodd" class="s6" d="m123.3 288.3l7.5 0.2c5-0.4 4.3-4.5 4.3-4.5-0.9-4.1-3.8-3.6-3.8-3.6l-7.7 0.2c-4 1.2-3.8 3.9-3.8 3.9 0.9 3.6 3.5 3.8 3.5 3.8z"/>
		<path id="Фигура_7_копия" fill-rule="evenodd" class="s39" d="m322.7 343.6c1.3-13.4-5.8-20.4-5.8-20.4l7.7 0.2 0.1 20.2z"/>
		<path id="Фигура_9_копия" fill-rule="evenodd" class="s40" d="m148.7 245v17.6l-1.4 0.1v0.1h-1-0.9v0.2h-0.8-0.8v0.1h-0.8v0.1h-0.7v0.1h-0.7v0.1l-1.4 0.1c-1.5 0.4-3.3 0.4-4.7 0.8l-1.1 0.1c-0.9 0.2-2 0.4-2.9 0.6h-0.5c-0.5 0.2-1.2 0.3-1.7 0.5h-0.9v0.2h-0.8v0.1h-0.4v0.1h-0.4v0.1h-0.4v0.1h-0.3v0.1h-0.5c-1.6 0.5-3.4 0.8-4.9 1.3l-0.7 0.1v0.1h-0.3v0.1l-1 0.2v0.1l-0.6 0.1-0.7 0.2h-0.3v0.1h-0.3v0.1h-0.3v0.1l-1.2 0.3v0.1l-0.9 0.2h-0.3v0.1h-0.2v0.1h-0.3v0.1l-0.5 0.1v0.1h-0.4c-3.2 1.1-6.5 2.2-9.5 3.5l-0.6 0.1v0.1h-0.2-0.2v0.1h-0.2v0.1l-0.4 0.1v0.1h-0.3v0.1h-0.2v0.1h-0.2v0.1h-0.2-0.3v0.2h-0.4v0.1l-0.9 0.3v0.1h-0.1v0.1h-0.3v0.1h-0.2-0.3v0.2h-0.3v0.1h-0.3v0.1l-0.3 0.1v0.1h-0.3v0.1l-0.4 0.1v0.1h-0.2-0.2v0.2h-0.4v0.1h-0.3v0.1h-0.1v0.1l-0.4 0.1v0.1h-0.2v0.1h-0.2v0.1h-0.4v0.2h-0.3-0.2v0.1h-0.1v0.1l-0.6 0.2v0.1h-0.2v0.1l-0.4 0.1-0.5 0.2v0.1h-0.2v0.1h-0.3v0.1l-0.4 0.1v0.1l-0.3 0.1v0.1h-0.2-0.2v0.2l-0.5 0.1v0.1h-0.3v0.1l-0.5 0.2v0.1l-0.5 0.1v0.2l-0.6 0.1v0.1l-0.3 0.1v0.1l-0.4 0.1v0.1h-0.2v0.1h-0.2-0.1v0.2h-0.2-0.2v0.1h-0.2v0.1h-0.2v0.1h-0.1v0.1h-0.2v0.1h-0.2v0.1h-0.2l-0.1 0.1h-0.2v0.2h-0.2-0.1v0.1h-0.2v0.1h-0.2v0.1h-0.2v0.1h-0.2v0.1h-0.1v0.1l-0.4 0.1-0.1 0.2h-0.1-0.2v0.1h-0.2v0.1h-0.2v0.1h-0.2v0.1h-0.1v0.1h-0.2q-0.1 0.1-0.1 0.2h-0.2-0.1v0.2h-0.2-0.2v0.1h-0.2l-0.1 0.2h-0.2v0.1h-0.2v0.1h-0.1v0.1h-0.2l-0.1 0.1h-0.2v0.2h-0.1-0.2v0.1h-0.2l-0.1 0.2h-0.2v0.1h-0.2v0.1h-0.2v0.1h-0.1l-0.1 0.1-0.5 0.2-0.2 0.2h-0.1v0.1h-0.2v0.1h-0.2l-0.1 0.2-0.5 0.1-0.1 0.2h-0.2v0.1h-0.2v0.2l-0.6 0.2-0.1 0.2h-0.4v0.2l-0.4 0.1q0 0.1-0.1 0.2l-0.5 0.2-0.1 0.2h-0.4v0.2h-0.3v0.2l-0.4 0.1-0.1 0.2-0.4 0.1v0.1l-0.4 0.2-0.1 0.1-0.4 0.1v0.1l-0.2 0.1-0.1 0.2-0.4 0.1v0.2h-0.2l-0.1 0.1-0.4 0.1v0.1l-0.2 0.1-0.2 0.2-0.3 0.1q-0.1 0-0.1 0.2h-0.2q0 0-0.1 0.1h-0.2v0.2l-0.4 0.1-0.1 0.2h-0.2v0.1h-0.2l-0.1 0.2h-0.2l-0.1 0.2-0.3 0.1-0.1 0.2h-0.2q-0.1 0.1-0.1 0.2h-0.2l-0.1 0.2h-0.2v0.1h-0.2v0.1l-0.3 0.1-0.1 0.2h-0.1l-0.2 0.2h-0.1l-0.1 0.2h-0.2l-0.1 0.1h-0.2v0.2h-0.2l-0.1 0.2h-0.2l-0.1 0.2h-0.2l-0.3 0.2v0.1h-0.2v0.1l-0.3 0.1-0.1 0.2h-0.1v0.1l-0.3 0.1-0.1 0.2h-0.2l-0.1 0.1h-0.2l-0.2 0.3h-0.1l-0.1 0.2h-0.2v0.1h-0.3v0.2h-0.2l-0.2 0.3h-0.2v0.1l-0.3 0.1v0.2h-0.2q-0.1 0.1-0.2 0.2h-0.2l-0.1 0.2h-0.2l-0.2 0.3h-0.1q-0.1 0.1-0.1 0.2h-0.2l-0.2 0.2h-0.1l-0.2 0.2h-0.1l-0.2 0.3h-0.2l-0.1 0.2h-0.1l-0.2 0.2h-0.2l-0.1 0.2h-0.2q-0.1 0.1-0.2 0.3h-0.2l-0.1 0.2h-0.2l-0.2 0.3h-0.2v0.2h-0.2l-0.2 0.3h-0.2q-0.1 0.1-0.2 0.3h-0.1q-0.2 0.1-0.2 0.2h-0.2l-0.2 0.3h-0.2l-0.1 0.2h-0.2q-0.1 0.2-0.2 0.3h-0.2l-0.2 0.3h-0.1l-0.2 0.3h-0.2l-0.1 0.2h-0.3l-0.1 0.3h-0.2l-0.3 0.3h-0.2q-0.1 0.2-0.2 0.3h-0.2l-0.1 0.3h-0.2l-0.3 0.3h-0.1q-0.2 0.2-0.2 0.3h-0.2q-0.2 0.2-0.3 0.4h-0.2q0 0.1-0.2 0.2h-0.1q-0.2 0.2-0.3 0.4h-0.2l-0.3 0.3h-0.1l-0.3 0.4h-0.2q0 0.1-0.1 0.2l-0.2 0.2h-0.1q-0.2 0.1-0.3 0.3h-0.2l-0.1 0.2q-0.1 0.1-0.2 0.2h-0.1q-0.2 0.2-0.3 0.3h-0.2l-0.1 0.2q0 0.1 0 0.2h-0.2l-0.4 0.5h-0.2q-0.1 0.2-0.3 0.3h-0.1l-0.4 0.5h-0.2l-0.3 0.4h-0.2l-0.4 0.5h-0.2l-0.3 0.4h-0.2q-0.2 0.3-0.4 0.5h-0.1l-0.5 0.5h-0.1l-0.4 0.5h-0.2l-0.5 0.5h-0.1v0.1q-0.1 0.1-0.2 0.2 0 0-0.1 0.1-0.1 0-0.2 0-0.1 0.1-0.1 0.2-0.2-0.2-0.3-0.3-0.2-0.1-0.3-0.2-0.1-0.1-0.3-0.1-0.1-0.1-0.2-0.2l-0.1-0.1h-0.2v-0.2h-0.3l-0.1-0.2h-0.2v-0.2h-0.2l-0.2-0.3h-0.2l-0.1-0.2h-0.2v-0.1h-0.2l-0.1-0.2h-0.2l-0.1-0.2h-0.1l-0.2-0.2h-0.1v-0.1l-0.3-0.1-0.1-0.1h-0.2v-0.2h-0.2l-0.1-0.2h-0.2l-0.2-0.3h-0.2v-0.2h-0.3v-0.2h-0.2l-0.1-0.1h-0.2l-0.1-0.2h-0.2v-0.2h-0.2v-0.1l-0.3-0.1-0.1-0.2h-0.1l-0.2-0.2h-0.2l-0.1-0.2-0.3-0.1v-0.1h-0.1l-0.2-0.1h-0.1l-0.1-0.2h-0.2l-0.1-0.2h-0.2v-0.1l-0.2-0.1-0.1-0.2h-0.2l-0.2-0.3h-0.2v-0.1h-0.2l-0.1-0.2h-0.2l-0.1-0.2h-0.2v-0.1l-0.3-0.1v-0.2h-0.2l-0.3-0.1-0.1-0.2h-0.1l-0.2-0.3h-0.2l-0.1-0.1-0.3-0.2h-0.1l-0.2-0.2h-0.1l-0.1-0.2h-0.2v-0.1l-0.2-0.1-0.1-0.1h-0.2l-0.1-0.2h-0.2l-0.1-0.2h-0.2v-0.2c-0.3-0.2-0.2 0.1-0.3-0.2l0.5-0.5 0.1-0.2h0.2l0.6-0.6 0.2-0.1 0.5-0.5h0.2q0-0.2 0.1-0.3l0.3-0.2v-0.1h0.2l0.5-0.6h0.2l0.5-0.5h0.1l0.4-0.5h0.2l0.4-0.5h0.2q0.2-0.3 0.5-0.6h0.1l0.1-0.2 0.3-0.1v-0.1h0.2l0.3-0.5h0.2q0 0 0.1-0.2l0.3-0.1v-0.1h0.2l0.3-0.5h0.2l0.4-0.4h0.1l0.4-0.5h0.2q0.1-0.2 0.2-0.3h0.2l0.3-0.4h0.2q0.2-0.2 0.3-0.4h0.2l0.1-0.2h0.1l0.1-0.2h0.1l0.2-0.2q0.1-0.1 0.1-0.1h0.2q0.1-0.2 0.3-0.4h0.1q0.2-0.2 0.3-0.4h0.2l0.3-0.3h0.1l0.3-0.4h0.2q0.1-0.2 0.3-0.3h0.1q0.1-0.2 0.2-0.3h0.2l0.1-0.2h0.1v-0.2h0.2q0.2-0.2 0.3-0.4h0.2l0.1-0.1 0.3-0.1 0.2-0.4h0.2l0.2-0.3h0.1l0.3-0.3h0.2l0.2-0.3h0.2l0.2-0.3h0.1q0.1-0.1 0.2-0.2h0.2q0.1-0.2 0.2-0.3h0.2q0.1-0.2 0.2-0.4h0.2q0.1-0.1 0.2-0.2l0.3-0.1v-0.2h0.2l0.1-0.2h0.3q0.1-0.2 0.1-0.3h0.2l0.2-0.3h0.2l0.1-0.2h0.2l0.2-0.3h0.1l0.1-0.1 0.3-0.1q0.1-0.1 0.2-0.3h0.2q0-0.1 0.1-0.2h0.2l0.1-0.2h0.2l0.1-0.3h0.2q0.1-0.1 0.2-0.3h0.2q0-0.1 0.1-0.1h0.2l0.2-0.3h0.1q0.1-0.1 0.1-0.2h0.2l0.2-0.3h0.1l0.2-0.1h0.1l0.2-0.3h0.2l0.1-0.2h0.1l0.2-0.3h0.2q0.1-0.1 0.1-0.1h0.2q0.1-0.2 0.2-0.3h0.2v-0.1l0.2-0.1q0.1-0.1 0.1-0.2h0.2q0.1-0.1 0.2-0.2h0.2v-0.2h0.2v-0.1l0.3-0.1 0.1-0.2h0.1l0.2-0.3h0.2l0.1-0.2h0.3v-0.1h0.1l0.2-0.2h0.1l0.1-0.2h0.2l0.1-0.2h0.2l0.2-0.2h0.1l0.1-0.2 0.3-0.1v-0.1h0.2v-0.2h0.2l0.1-0.1h0.2l0.1-0.2h0.2l0.1-0.2h0.2v-0.2h0.2l0.1-0.2h0.2l0.1-0.1h0.1l0.2-0.2h0.1q0.1-0.1 0.1-0.2l0.4-0.1 0.1-0.2h0.2v-0.2h0.2l0.3-0.2 0.1-0.1h0.1l0.2-0.2 0.2-0.1v-0.1l0.4-0.1q0-0.1 0.1-0.1h0.2q0-0.2 0-0.2h0.2l0.1-0.2 0.4-0.1v-0.1l0.2-0.1 0.1-0.2h0.2l0.1-0.2h0.3l0.2-0.2h0.1q0-0.1 0.1-0.2l0.4-0.1 0.1-0.2h0.2v-0.2h0.4v-0.1l0.3-0.1v-0.2h0.4q0.1-0.2 0.1-0.2l0.4-0.1v-0.2l0.4-0.1 0.1-0.2 0.4-0.1 0.2-0.1 0.1-0.2h0.2v-0.1h0.2l0.1-0.2h0.3q0.1-0.2 0.1-0.2l0.6-0.2q0-0.1 0-0.2l0.4-0.1 0.1-0.2h0.4v-0.2l0.6-0.2 0.1-0.2h0.2v-0.1h0.1q0-0.1 0.1-0.2l0.5-0.2 0.2-0.1 0.5-0.2 0.1-0.2 0.5-0.2 0.1-0.2 0.6-0.1v-0.2h0.2v-0.1h0.1v-0.1h0.2v-0.1h0.2q0-0.1 0-0.1h0.2v-0.2h0.2 0.2v-0.1h0.2q0-0.1 0.1-0.2h0.2v-0.1h0.1v-0.1h0.2v-0.1h0.2v-0.1h0.2v-0.2l0.6-0.1v-0.1l0.5-0.2 0.1-0.2h0.2v-0.1h0.2 0.2v-0.2h0.2 0.1v-0.1h0.2v-0.1h0.2l0.1-0.2 0.3-0.1v-0.1h0.3v-0.1h0.1 0.2v-0.2h0.2l0.4-0.1v-0.1h0.1v-0.1h0.2v-0.1h0.2v-0.1h0.2v-0.2l1.5-0.6v-0.1l0.3-0.1v-0.1h0.4v-0.2h0.2 0.2v-0.1h0.1v-0.1h0.2v-0.1l0.6-0.2v-0.1l0.3-0.1h0.3v-0.2l0.5-0.1v-0.1h0.2v-0.1h0.2v-0.1h0.1v-0.1h0.2v-0.1h0.2v-0.1h0.2 0.2v-0.2h0.3l0.3-0.1v-0.1h0.2v-0.1h0.2v-0.1l0.5-0.2v-0.1h0.3 0.1v-0.1l0.6-0.2v-0.1h0.2v-0.1h0.2v-0.1l0.5-0.2v-0.1h0.3 0.2v-0.2h0.4v-0.1h0.2v-0.1h0.2v-0.1l0.4-0.1h0.3v-0.2l0.3-0.1h0.3v-0.2h0.3v-0.1h0.3v-0.1l0.4-0.1v-0.1h0.2l0.4-0.2h0.3v-0.1l0.3-0.1v-0.1l0.5-0.1v-0.1h0.3v-0.1l0.3-0.1h0.3v-0.2h0.1l0.5-0.1v-0.1h0.3v-0.1h0.1v-0.1l0.5-0.1v-0.1h0.3v-0.1h0.1 0.3v-0.2h0.2 0.3v-0.1h0.1v-0.1h0.3v-0.1h0.2v-0.1l0.6-0.1v-0.1h0.1v-0.1h0.3 0.2v-0.2h0.5v-0.1h0.2v-0.1l0.5-0.1v-0.1h0.2v-0.1l0.8-0.2h0.2v-0.2l0.8-0.1v-0.1h0.2v-0.1h0.3v-0.1h0.2v-0.1h0.3v-0.1h0.3c1.5-0.7 3.4-1.2 5-1.8l0.7-0.1h0.2v-0.2h0.2 0.3v-0.1l1.2-0.3v-0.1l0.9-0.2 1.6-0.4c2.2-0.8 4.8-1.3 7.1-2h0.5c1-0.3 2.4-0.5 3.4-0.9l0.9-0.1c0.7-0.2 1.5-0.3 2.2-0.5h0.5c1.3-0.4 2.8-0.4 4-0.8l1.6-0.2v-0.1l2.5-0.2c1.2-0.4 2.9-0.3 4.1-0.7h0.8v-0.1h0.8v-0.1h0.9 0.9v-0.1h0.9v-0.1h1.1v-0.1h1.1v-0.1z"/>
		<path id="Прямоугольник_4_копия" fill-rule="evenodd" class="s41" d="m144.1 230.3q0.2 0 0.3 0.1 0.1 0 0.2 0.1 0.1 0.1 0.2 0.2 0.1 0.2 0.1 0.3v104.9q0 0.3-0.3 0.6-0.2 0.2-0.5 0.2-0.3 0-0.6-0.2c-0.1-0.2-0.2-0.4-0.2-0.6v-104.9q0-0.1 0.1-0.3 0-0.1 0.1-0.2 0.2-0.1 0.3-0.1 0.2-0.1 0.3-0.1z"/>
		<path id="Фигура_10_копия" fill-rule="evenodd" class="s40" d="m148.9 262.9v-17.6l2.2-0.1v-0.1c0.6-0.1 1.5 0.1 2 0l7.9-0.1h2.4v0.1h0.6q0.3-0.1 0.6-0.1 0.3 0 0.6 0 0.3 0 0.6 0.1 0.3 0 0.6 0l4.9 0.2v0.1h1.2v0.1h1.1v0.1h1.1v0.1h0.9v0.1h0.9v0.1h0.9v0.1h0.7 0.9v0.1h0.8l10 1.6c0.6 0.1 1.4 0.2 2 0.4h0.4c0.6 0.2 1.3 0.3 1.8 0.5h0.5c1.6 0.4 3.4 0.6 4.9 1.1l1.7 0.3c2 0.6 4.4 0.9 6.4 1.7l1.8 0.3c1.5 0.6 3.2 0.9 4.6 1.4l0.7 0.1c1 0.3 2.2 0.6 3.1 1h0.8c2.4 0.9 5.1 1.4 7.5 2.3h0.4v0.1h0.3v0.1l0.6 0.1v0.1h0.6v0.2h0.6v0.1h0.4v0.1h0.2v0.1l1 0.2v0.1l0.6 0.1 0.7 0.2 0.7 0.1v0.1h0.3v0.1l1 0.2v0.1l0.6 0.1 0.7 0.2h0.3v0.1h0.4v0.1h0.3v0.1l0.6 0.1v0.1h0.4v0.1l0.7 0.1c2.3 0.8 5 1.2 7.4 2h0.8c1.1 0.4 2.4 0.6 3.5 0.9h0.4v0.1h0.4v0.1h0.5c1 0.4 2.3 0.5 3.4 0.8l0.9 0.1c1.6 0.5 3.5 0.5 5 1h0.6c0.4 0.1 1.1 0.2 1.5 0.3h0.7c0.7 0.3 1.7 0.3 2.4 0.5l3.6 0.4c1.2 0.3 3 0.1 4.2 0.5h1.1v0.1h1v0.1h1.2 1l1.8 0.2 4.3 0.1c0.9 0.3 2.7 0.1 3.9 0.1h4.1q0.3 0.1 0.5 0.1 0.3 0 0.6 0 0.3-0.1 0.5-0.1 0.3 0 0.6-0.1h2.1v-0.1h1.8 1.2v-0.2h1.2 1v-0.1h0.9v-0.1h0.9v-0.1h0.9c1.3-0.4 2.9-0.3 4.2-0.6l1.2-0.1c1-0.3 2.2-0.3 3.1-0.6h0.6c0.6-0.2 1.4-0.3 1.9-0.5h0.4c0.6-0.1 1.2-0.3 1.8-0.4h0.4c1.2-0.4 2.6-0.6 3.8-1l1.8-0.4v-0.1h0.3l0.9-0.2v-0.1l1-0.2v-0.1l0.6-0.1v-0.1h0.4v-0.1l0.9-0.2v-0.1h0.3 0.2v-0.1h0.4v-0.1l0.9-0.2v-0.1l0.5-0.1h0.3v-0.2h0.3v-0.1h0.2 0.3v-0.1h0.4v-0.1l0.8-0.2v-0.1h0.1v-0.1h0.3 0.3v-0.2h0.3v-0.1h0.2l0.9-0.2c0.3-0.2 0.8-0.4 1.2-0.6l0.6-0.1h0.1v-0.1l0.6-0.1v-0.1h0.2v-0.1h0.2v-0.1h0.3v-0.1h0.2l0.5-0.2h0.2v-0.1h0.2v-0.1h0.2v-0.1l0.6-0.1v-0.1h0.1v-0.1h0.3v-0.1h0.2l0.4-0.2h0.3v-0.1l0.4-0.1v-0.1h0.2v-0.1h0.3v-0.1l0.3-0.1v-0.1h0.3 0.2v-0.2h0.3l0.3-0.1v-0.1h0.3v-0.1h0.1v-0.1h0.3v-0.1l0.4-0.1v-0.1h0.2 0.2v-0.2h0.4v-0.1h0.3v-0.1h0.2v-0.1l0.3-0.1v-0.1h0.3v-0.1h0.1v-0.1h0.2 0.2v-0.2h0.3 0.2v-0.1h0.2v-0.1l0.3-0.1v-0.1h0.3v-0.1h0.1v-0.1h0.2v-0.1h0.2l0.5-0.2v-0.1h0.3v-0.1l0.6-0.2v-0.1h0.2v-0.1h0.1v-0.1h0.2 0.2v-0.2h0.4v-0.1h0.2v-0.1h0.2v-0.1l0.3-0.1v-0.1l0.4-0.1v-0.1h0.4v-0.2h0.1 0.2v-0.1h0.2v-0.1h0.2v-0.1h0.2v-0.1l1.4-0.6 0.1-0.2 0.5-0.2v-0.1h0.2v-0.1h0.2 0.1v-0.2h0.2 0.2v-0.1l0.4-0.1 0.1-0.2h0.2v-0.1h0.1 0.2v-0.2h0.2l0.4-0.1v-0.2l0.4-0.1v-0.1h0.2v-0.1h0.1v-0.1h0.2l0.1-0.2h0.2 0.2v-0.1h0.2v-0.1h0.2q0-0.1 0-0.2l0.4-0.1v-0.1h0.2 0.1l0.2-0.2h0.1v-0.1h0.2v-0.1h0.2v-0.1h0.2q0-0.1 0-0.2l0.6-0.2 0.1-0.1 0.5-0.2 0.1-0.2 0.4-0.1q0-0.1 0.1-0.1l0.3-0.2 0.1-0.1 0.5-0.2 0.2-0.2 0.3-0.1 0.1-0.1 0.3-0.2 0.2-0.1 0.3-0.1 0.1-0.2 0.3-0.1 0.2-0.2h0.3l0.1-0.2h0.2v-0.1h0.1l0.2-0.2h0.1l0.1-0.2 0.4-0.1q0-0.1 0.1-0.1h0.2v-0.2l0.4-0.1v-0.1l0.3-0.1v-0.2l0.4-0.1v-0.1h0.3l0.1-0.2 0.3-0.1 0.1-0.2h0.2l0.1-0.2h0.2l0.1-0.2h0.2v-0.2h0.4q0-0.1 0.1-0.2h0.2v-0.1l0.2-0.1 0.1-0.2h0.2l0.1-0.1 0.3-0.2 0.3-0.1 0.1-0.2h0.2v-0.1l0.3-0.1v-0.2h0.2l0.1-0.2h0.2l0.3-0.1 0.1-0.2h0.2l0.1-0.3h0.2l0.1-0.1 0.3-0.2h0.2v-0.2h0.2l0.1-0.2h0.2l0.1-0.2h0.1l0.2-0.1h0.1l0.2-0.3h0.2l0.1-0.2h0.1v-0.1l0.3-0.1 0.1-0.2h0.2l0.2-0.2h0.1v-0.1l0.3-0.1 0.1-0.2h0.2q0.1-0.2 0.2-0.3h0.1l0.2-0.2h0.1q0.1-0.1 0.2-0.2h0.2l0.1-0.2h0.1l0.2-0.3h0.2l0.1-0.2h0.2l0.1-0.1 0.3-0.1q0-0.2 0.1-0.3h0.2q0-0.1 0.1-0.2h0.2l0.1-0.2h0.2l0.2-0.3h0.2l0.1-0.2h0.2l0.2-0.2h0.1l0.2-0.3h0.2q0.1-0.2 0.2-0.3h0.2l0.1-0.3h0.2q0.1-0.1 0.1-0.2h0.2l0.2-0.3h0.2l0.2-0.3h0.1l0.2-0.3h0.2l0.2-0.3h0.2l0.2-0.3h0.2q0.1-0.1 0.2-0.3h0.1q0.2-0.1 0.3-0.3l0.3-0.1 0.1-0.2h0.2l0.2-0.3h0.2l0.2-0.3h0.2q0.1-0.2 0.3-0.4h0.2l0.1-0.2h0.2l0.2-0.4h0.2q0.2-0.2 0.3-0.3h0.2l0.2-0.4h0.2l0.3-0.4h0.2q0.1-0.1 0.2-0.3h0.2l0.4-0.5h0.2q0.1-0.2 0.3-0.4h0.1l0.4-0.4h0.2v-0.2h0.2v-0.1h0.2l0.1-0.2 0.2-0.2v-0.1h0.2l0.4-0.4h0.2l0.1-0.2 0.2-0.2v-0.1h0.2l0.4-0.4h0.1l0.5-0.6h0.2l0.4-0.5h0.2l0.4-0.4h0.1l0.6-0.7h0.2l0.4-0.5h0.2q0.3-0.3 0.5-0.6h0.2l0.5-0.7h0.2l0.7-0.7h0.1l0.6-0.7h0.2l0.7-0.8h0.2l0.9-0.9h0.1l0.8-0.9h0.2l0.7-0.9 0.4-0.2v-0.1h0.2l1.2-1.3h0.1l1.5-1.5h0.2l0.6-0.7 1.4-1.3 0.5-0.7q0.4-0.3 0.8-0.6 0.4-0.3 0.7-0.6 0.3-0.4 0.7-0.8 0.3-0.3 0.7-0.7 0.3-0.3 0.7-0.6 0.3-0.3 0.6-0.7 0.4-0.4 0.7-0.7 0.3-0.4 0.7-0.7l2-2 0.4-0.6 0.2-0.1v-0.2l1.7-1.6v-0.2l1.4-1.2v-0.2l0.9-0.8 0.9-1.1 0.4-0.3v-0.2l1-0.9v-0.2l0.8-0.7v-0.2l0.9-0.8v-0.2l0.8-0.6v-0.2l0.7-0.6v-0.2l0.7-0.6v-0.1l0.7-0.7v-0.2h0.1l0.3-0.3 0.2-0.2v-0.2l0.7-0.5v-0.2l0.5-0.4v-0.2l0.6-0.5v-0.2l0.6-0.5v-0.2l0.5-0.4v50.1l-0.2 0.2v0.1h-0.2q-0.1 0.2-0.2 0.3h-0.2l-0.2 0.3h-0.1l-0.3 0.3h-0.2l-0.2 0.3-0.2 0.1-0.2 0.2h-0.1l-0.2 0.2h-0.2q-0.1 0.2-0.2 0.3h-0.2l-0.1 0.3h-0.2l-0.2 0.3h-0.2l-0.2 0.2h-0.1l-0.2 0.3h-0.2q-0.1 0.1-0.2 0.2h-0.2v0.2h-0.2l-0.2 0.3h-0.2q-0.1 0.1-0.1 0.3h-0.2q-0.1 0.1-0.2 0.3h-0.2l-0.2 0.2h-0.1l-0.2 0.2h-0.1l-0.2 0.3h-0.2l-0.2 0.2h-0.2q0 0.1 0 0.2h-0.2q-0.1 0.1-0.1 0.2l-0.3 0.1-0.1 0.2h-0.2l-0.1 0.2h-0.2l-0.2 0.3h-0.2v0.2h-0.2l-0.2 0.2h-0.2q0 0.2-0.1 0.2h-0.2q0 0.1-0.2 0.3h-0.1q-0.1 0.1-0.1 0.2h-0.2q-0.1 0.1-0.2 0.2h-0.1l-0.2 0.2h-0.1l-0.2 0.3h-0.2v0.1l-0.2 0.1-0.2 0.2h-0.1l-0.2 0.2h-0.2v0.1l-0.2 0.1-0.2 0.2h-0.1l-0.2 0.3h-0.2q-0.1 0-0.1 0.2h-0.1l-0.3 0.1-0.1 0.2h-0.2q-0.1 0.1-0.2 0.3h-0.1l-0.2 0.1h-0.1v0.2h-0.3q0 0.1-0.1 0.2h-0.2q0 0.1-0.2 0.3h-0.1l-0.1 0.2h-0.3v0.2h-0.2v0.1h-0.2l-0.1 0.2h-0.2l-0.1 0.2h-0.2l-0.1 0.2h-0.2v0.2h-0.2q-0.1 0-0.1 0.1h-0.2l-0.1 0.2h-0.1q-0.1 0.1-0.2 0.2h-0.1q-0.1 0.1-0.2 0.2h-0.2l-0.1 0.2-0.3 0.1v0.1h-0.1l-0.1 0.2h-0.2q0 0.1-0.1 0.2l-0.4 0.1v0.2h-0.2l-0.1 0.1h-0.2l-0.1 0.2h-0.1l-0.2 0.2h-0.1l-0.3 0.2-0.1 0.1h-0.2v0.2h-0.2l-0.1 0.2h-0.2l-0.1 0.2h-0.3q-0.1 0.2-0.2 0.2h-0.1v0.1l-0.3 0.1q0 0.1-0.1 0.2h-0.2v0.2l-0.3 0.1-0.4 0.2-0.1 0.1h-0.1l-0.2 0.2h-0.1l-0.1 0.2-0.4 0.1-0.1 0.1h-0.2q0 0.2 0 0.2h-0.2l-0.1 0.2-0.4 0.1v0.1l-0.2 0.1-0.1 0.2h-0.4v0.2h-0.2l-0.2 0.2-0.3 0.1-0.1 0.2h-0.2l-0.1 0.2h-0.3l-0.1 0.2-0.4 0.1-0.1 0.2-0.3 0.1v0.1l-0.3 0.1v0.1l-0.4 0.2q-0.1 0-0.1 0.1l-0.4 0.1v0.2l-0.4 0.1q-0.1 0.1-0.1 0.2h-0.4v0.2l-0.4 0.1-0.1 0.2-0.4 0.1q0 0.1 0 0.2l-0.4 0.1-0.1 0.2h-0.4q0 0.1 0 0.2h-0.2v0.1h-0.2l-0.1 0.2-0.4 0.1v0.1l-0.6 0.2-0.1 0.2-0.5 0.2-0.1 0.2-0.4 0.1-0.1 0.2-0.5 0.1-0.1 0.2-0.5 0.2-0.1 0.2-0.6 0.2v0.1l-0.6 0.2-0.1 0.2-0.4 0.1v0.1h-0.1-0.2l-0.1 0.2h-0.2v0.1h-0.1v0.1h-0.2v0.1h-0.2l-0.1 0.1h-0.2v0.1h-0.2v0.1h-0.1v0.1h-0.2l-0.1 0.2h-0.2v0.1h-0.1-0.2v0.2h-0.2-0.2l-0.1 0.2h-0.2v0.1h-0.2v0.1h-0.1v0.1h-0.2v0.1h-0.2q-0.1 0.1-0.1 0.1h-0.1v0.2h-0.2-0.2v0.1h-0.2v0.1h-0.2v0.1h-0.1v0.1h-0.2q-0.1 0.1-0.1 0.2h-0.2v0.1h-0.2-0.2v0.2h-0.2-0.1v0.1l-0.4 0.1-0.1 0.2-0.3 0.1v0.1h-0.2v0.1h-0.2-0.2v0.2h-0.1l-0.4 0.1v0.1l-0.4 0.1v0.1l-0.5 0.2-0.1 0.1-0.4 0.2h-0.2v0.1h-0.1v0.1h-0.2v0.1h-0.2v0.1h-0.2v0.1l-0.3 0.1v0.1h-0.4v0.2h-0.4v0.1h-0.1v0.1h-0.2v0.1h-0.2v0.1h-0.2v0.1l-0.5 0.2-0.4 0.2h-0.2v0.1l-0.6 0.2v0.1h-0.1v0.1h-0.2v0.1h-0.2v0.1h-0.2-0.2v0.2h-0.1-0.2v0.1h-0.2v0.1h-0.2v0.1h-0.2v0.1h-0.3v0.1l-0.3 0.1v0.1h-0.2-0.2v0.2l-0.5 0.1v0.1l-0.8 0.3v0.1l-0.4 0.1h-0.3v0.2h-0.1l-0.6 0.2v0.1h-0.2v0.1h-0.2v0.1l-0.5 0.2h-0.3v0.2h-0.2l-0.3 0.1v0.1h-0.3v0.1h-0.1v0.1l-0.4 0.1v0.1h-0.3v0.1h-0.2l-0.3 0.2h-0.3v0.1l-0.3 0.1v0.1h-0.3v0.1l-0.4 0.1v0.1h-0.2v0.1h-0.4v0.2h-0.3l-0.4 0.1v0.1h-0.2v0.1h-0.2v0.1h-0.2l-0.4 0.2h-0.3v0.1h-0.2v0.1h-0.2v0.1l-0.4 0.1v0.1h-0.3v0.1h-0.1v0.1h-0.5v0.2h-0.3-0.1v0.1l-0.5 0.1v0.1h-0.3v0.1h-0.1v0.1h-0.3v0.1h-0.2v0.1h-0.3-0.1v0.2h-0.6v0.1l-0.4 0.2h-0.2v0.1h-0.3v0.1h-0.2v0.1l-0.5 0.1h-0.2v0.2h-0.5v0.1h-0.2v0.1l-0.5 0.1v0.1h-0.2v0.1h-0.3v0.1l-0.5 0.1h-0.2v0.2h-0.5v0.1h-0.2v0.1h-0.3v0.1h-0.2v0.1h-0.3v0.1h-0.3v0.1h-0.3v0.1h-0.2l-1.6 0.5v0.1h-0.2v0.1h-0.2v0.1h-0.2v0.1h-0.3-0.3v0.2h-0.3-0.2v0.1h-0.3v0.1h-0.3v0.1h-0.3v0.1l-0.5 0.1v0.1l-0.5 0.1h-0.4v0.2h-0.2-0.3v0.1h-0.3v0.1h-0.3v0.1h-0.2v0.1h-0.4v0.1h-0.3v0.1h-0.2v0.1h-0.3l-1.2 0.3v0.1l-1.5 0.4v0.1l-1.9 0.4v0.1l-0.7 0.1v0.1h-0.3v0.1l-1 0.1v0.2l-1 0.1v0.1l-0.7 0.1c-0.7 0.3-1.5 0.4-2.1 0.6l-0.7 0.1c-1.1 0.4-2.4 0.6-3.4 0.9h-0.5c-1.3 0.5-2.9 0.6-4.2 1h-0.6v0.1h-0.4v0.1h-0.5v0.1h-0.4v0.1h-0.6c-0.3 0.1-1 0.2-1.4 0.3h-0.6c-0.7 0.3-1.8 0.3-2.7 0.6h-0.6c-1.3 0.4-3 0.3-4.3 0.7l-1.5 0.1c-0.9 0.2-2.3 0.2-3.2 0.4h-0.9v0.1h-0.9v0.1h-1.1v0.1h-1.1v0.1h-1v0.1h-1.3v0.1h-1.6v0.1h-1.6-2v0.2h-3-4.8q-0.3 0-0.6 0-0.3 0.1-0.6 0-0.3 0-0.6 0-0.3 0-0.6 0h-2.7v-0.2h-1.8-1.4v-0.1h-1.3v-0.2h-1-1c-1.1-0.3-2.5-0.2-3.5-0.4l-1.5-0.2-8.2-1.2c-1.3-0.4-2.9-0.5-4.1-0.9l-1.4-0.2v-0.1l-0.8-0.1h-0.4v-0.2h-0.7v-0.1l-1.2-0.2v-0.1h-0.5v-0.1l-1.5-0.2c-2-0.7-4.3-1.1-6.2-1.8h-0.7v-0.2h-0.3l-0.6-0.1v-0.1h-0.4v-0.1h-0.3v-0.1l-1.9-0.5h-0.3v-0.1h-0.2v-0.1l-0.7-0.1v-0.1l-0.9-0.2v-0.1h-0.6v-0.2l-0.9-0.1v-0.1l-1.2-0.3v-0.1l-1.1-0.3-1.6-0.4v-0.1h-0.2v-0.1h-0.3v-0.1h-0.3-0.2v-0.2h-0.3-0.4v-0.1l-0.5-0.1v-0.1h-0.3v-0.1h-0.3v-0.1h-0.2v-0.1l-0.9-0.1v-0.2h-0.3l-0.5-0.1v-0.1l-0.6-0.1c-3.8-1.4-7.9-2.5-11.6-3.9l-0.7-0.1-0.5-0.1v-0.1h-0.2v-0.1h-0.3v-0.1h-0.3v-0.1h-0.3v-0.1l-1.1-0.2v-0.1l-0.6-0.1v-0.1h-0.3v-0.1h-0.3v-0.1h-0.3v-0.1h-0.3v-0.1h-0.2-0.4v-0.2h-0.3-0.2v-0.1h-0.3v-0.1h-0.2v-0.1h-0.4c-1.9-0.7-4-1.2-5.9-1.9h-0.4v-0.1h-0.2v-0.1l-0.7-0.1-0.6-0.2-0.7-0.1v-0.1l-0.7-0.1c-1.8-0.7-3.9-1-5.7-1.6l-1.8-0.4v-0.1h-0.4v-0.1h-0.4-0.4v-0.2h-0.3-0.4v-0.1h-0.4v-0.1l-9.7-2h-0.6c-0.6-0.2-1.5-0.2-2.2-0.5h-0.7c-0.9-0.2-2.1-0.2-3.1-0.5l-1.4-0.1c-1-0.3-2.3-0.1-3.3-0.4h-1v-0.1h-0.9v-0.1l-5.5-0.3v-0.1h-2.3c-0.9-0.2-2.3 0-3.4 0h-8c-0.4 0.1-1.2 0-1.7 0.1v0.1h-1.4v0.1z"/>
		<path id="Фигура_10_копия copy" fill-rule="evenodd" class="s40" d="m148.9 262.9v-17.6l2.2-0.1v-0.1c0.6-0.1 1.5 0.1 2 0l7.9-0.1h2.4v0.1h0.6q0.3-0.1 0.6-0.1 0.3 0 0.6 0 0.3 0 0.6 0.1 0.3 0 0.6 0l4.9 0.2v0.1h1.2v0.1h1.1v0.1h1.1v0.1h0.9v0.1h0.9v0.1h0.9v0.1h0.7 0.9v0.1h0.8l10 1.6c0.6 0.1 1.4 0.2 2 0.4h0.4c0.6 0.2 1.3 0.3 1.8 0.5h0.5c1.6 0.4 3.4 0.6 4.9 1.1l1.7 0.3c2 0.6 4.4 0.9 6.4 1.7l1.8 0.3c1.5 0.6 3.2 0.9 4.6 1.4l0.7 0.1c1 0.3 2.2 0.6 3.1 1h0.8c2.4 0.9 5.1 1.4 7.5 2.3h0.4v0.1h0.3v0.1l0.6 0.1v0.1h0.6v0.2h0.6v0.1h0.4v0.1h0.2v0.1l1 0.2v0.1l0.6 0.1 0.7 0.2 0.7 0.1v0.1h0.3v0.1l1 0.2v0.1l0.6 0.1 0.7 0.2h0.3v0.1h0.4v0.1h0.3v0.1l0.6 0.1v0.1h0.4v0.1l0.7 0.1c2.3 0.8 5 1.2 7.4 2h0.8c1.1 0.4 2.4 0.6 3.5 0.9h0.4v0.1h0.4v0.1h0.5c1 0.4 2.3 0.5 3.4 0.8l0.9 0.1c1.6 0.5 3.5 0.5 5 1h0.6c0.4 0.1 1.1 0.2 1.5 0.3h0.7c0.7 0.3 1.7 0.3 2.4 0.5l3.6 0.4c1.2 0.3 3 0.1 4.2 0.5h1.1v0.1h1v0.1h1.2 1l1.8 0.2 4.3 0.1c0.9 0.3 2.7 0.1 3.9 0.1h4.1q0.3 0.1 0.5 0.1 0.3 0 0.6 0 0.3-0.1 0.5-0.1 0.3 0 0.6-0.1h2.1v-0.1h1.8 1.2v-0.2h1.2 1v-0.1h0.9v-0.1h0.9v-0.1h0.9c1.3-0.4 2.9-0.3 4.2-0.6l1.2-0.1c1-0.3 2.2-0.3 3.1-0.6h0.6c0.6-0.2 1.4-0.3 1.9-0.5h0.4c0.6-0.1 1.2-0.3 1.8-0.4h0.4c1.2-0.4 2.6-0.6 3.8-1l1.8-0.4v-0.1h0.3l0.9-0.2v-0.1l1-0.2v-0.1l0.6-0.1v-0.1h0.4v-0.1l0.9-0.2v-0.1h0.3 0.2v-0.1h0.4v-0.1l0.9-0.2v-0.1l0.5-0.1h0.3v-0.2h0.3v-0.1h0.2 0.3v-0.1h0.4v-0.1l0.8-0.2v-0.1h0.1v-0.1h0.3 0.3v-0.2h0.3v-0.1h0.2l0.9-0.2c0.3-0.2 0.8-0.4 1.2-0.6l0.6-0.1h0.1v-0.1l0.6-0.1v-0.1h0.2v-0.1h0.2v-0.1h0.3v-0.1h0.2l0.5-0.2h0.2v-0.1h0.2v-0.1h0.2v-0.1l0.6-0.1v-0.1h0.1v-0.1h0.3v-0.1h0.2l0.4-0.2h0.3v-0.1l0.4-0.1v-0.1h0.2v-0.1h0.3v-0.1l0.3-0.1v-0.1h0.3 0.2v-0.2h0.3l0.3-0.1v-0.1h0.3v-0.1h0.1v-0.1h0.3v-0.1l0.4-0.1v-0.1h0.2 0.2v-0.2h0.4v-0.1h0.3v-0.1h0.2v-0.1l0.3-0.1v-0.1h0.3v-0.1h0.1v-0.1h0.2 0.2v-0.2h0.3 0.2v-0.1h0.2v-0.1l0.3-0.1v-0.1h0.3v-0.1h0.1v-0.1h0.2v-0.1h0.2l0.5-0.2v-0.1h0.3v-0.1l0.6-0.2v-0.1h0.2v-0.1h0.1v-0.1h0.2 0.2v-0.2h0.4v-0.1h0.2v-0.1h0.2v-0.1l0.3-0.1v-0.1l0.4-0.1v-0.1h0.4v-0.2h0.1 0.2v-0.1h0.2v-0.1h0.2v-0.1h0.2v-0.1l1.4-0.6 0.1-0.2 0.5-0.2v-0.1h0.2v-0.1h0.2 0.1v-0.2h0.2 0.2v-0.1l0.4-0.1 0.1-0.2h0.2v-0.1h0.1 0.2v-0.2h0.2l0.4-0.1v-0.2l0.4-0.1v-0.1h0.2v-0.1h0.1v-0.1h0.2l0.1-0.2h0.2 0.2v-0.1h0.2v-0.1h0.2q0-0.1 0-0.2l0.4-0.1v-0.1h0.2 0.1l0.2-0.2h0.1v-0.1h0.2v-0.1h0.2v-0.1h0.2q0-0.1 0-0.2l0.6-0.2 0.1-0.1 0.5-0.2 0.1-0.2 0.4-0.1q0-0.1 0.1-0.1l0.3-0.2 0.1-0.1 0.5-0.2 0.2-0.2 0.3-0.1 0.1-0.1 0.3-0.2 0.2-0.1 0.3-0.1 0.1-0.2 0.3-0.1 0.2-0.2h0.3l0.1-0.2h0.2v-0.1h0.1l0.2-0.2h0.1l0.1-0.2 0.4-0.1q0-0.1 0.1-0.1h0.2v-0.2l0.4-0.1v-0.1l0.3-0.1v-0.2l0.4-0.1v-0.1h0.3l0.1-0.2 0.3-0.1 0.1-0.2h0.2l0.1-0.2h0.2l0.1-0.2h0.2v-0.2h0.4q0-0.1 0.1-0.2h0.2v-0.1l0.2-0.1 0.1-0.2h0.2l0.1-0.1 0.3-0.2 0.3-0.1 0.1-0.2h0.2v-0.1l0.3-0.1v-0.2h0.2l0.1-0.2h0.2l0.3-0.1 0.1-0.2h0.2l0.1-0.3h0.2l0.1-0.1 0.3-0.2h0.2v-0.2h0.2l0.1-0.2h0.2l0.1-0.2h0.1l0.2-0.1h0.1l0.2-0.3h0.2l0.1-0.2h0.1v-0.1l0.3-0.1 0.1-0.2h0.2l0.2-0.2h0.1v-0.1l0.3-0.1 0.1-0.2h0.2q0.1-0.2 0.2-0.3h0.1l0.2-0.2h0.1q0.1-0.1 0.2-0.2h0.2l0.1-0.2h0.1l0.2-0.3h0.2l0.1-0.2h0.2l0.1-0.1 0.3-0.1q0-0.2 0.1-0.3h0.2q0-0.1 0.1-0.2h0.2l0.1-0.2h0.2l0.2-0.3h0.2l0.1-0.2h0.2l0.2-0.2h0.1l0.2-0.3h0.2q0.1-0.2 0.2-0.3h0.2l0.1-0.3h0.2q0.1-0.1 0.1-0.2h0.2l0.2-0.3h0.2l0.2-0.3h0.1l0.2-0.3h0.2l0.2-0.3h0.2l0.2-0.3h0.2q0.1-0.1 0.2-0.3h0.1q0.2-0.1 0.3-0.3l0.3-0.1 0.1-0.2h0.2l0.2-0.3h0.2l0.2-0.3h0.2q0.1-0.2 0.3-0.4h0.2l0.1-0.2h0.2l0.2-0.4h0.2q0.2-0.2 0.3-0.3h0.2l0.2-0.4h0.2l0.3-0.4h0.2q0.1-0.1 0.2-0.3h0.2l0.4-0.5h0.2q0.1-0.2 0.3-0.4h0.1l0.4-0.4h0.2v-0.2h0.2v-0.1h0.2l0.1-0.2 0.2-0.2v-0.1h0.2l0.4-0.4h0.2l0.1-0.2 0.2-0.2v-0.1h0.2l0.4-0.4h0.1l0.5-0.6h0.2l0.4-0.5h0.2l0.4-0.4h0.1l0.6-0.7h0.2l0.4-0.5h0.2q0.3-0.3 0.5-0.6h0.2l0.5-0.7h0.2l0.7-0.7h0.1l0.6-0.7h0.2l0.7-0.8h0.2l0.9-0.9h0.1l0.8-0.9h0.2l0.7-0.9 0.4-0.2v-0.1h0.2l1.2-1.3h0.1l1.5-1.5h0.2l0.6-0.7 1.4-1.3 0.5-0.7q0.4-0.3 0.8-0.6 0.4-0.3 0.7-0.6 0.3-0.4 0.7-0.8 0.3-0.3 0.7-0.7 0.3-0.3 0.7-0.6 0.3-0.3 0.6-0.7 0.4-0.4 0.7-0.7 0.3-0.4 0.7-0.7l2-2 0.4-0.6 0.2-0.1v-0.2l1.7-1.6v-0.2l1.4-1.2v-0.2l0.9-0.8 0.9-1.1 0.4-0.3v-0.2l1-0.9v-0.2l0.8-0.7v-0.2l0.9-0.8v-0.2l0.8-0.6v-0.2l0.7-0.6v-0.2l0.7-0.6v-0.1l0.7-0.7v-0.2h0.1l0.3-0.3 0.2-0.2v-0.2l0.7-0.5v-0.2l0.5-0.4v-0.2l0.6-0.5v-0.2l0.6-0.5v-0.2l0.5-0.4v50.1l-0.2 0.2v0.1h-0.2q-0.1 0.2-0.2 0.3h-0.2l-0.2 0.3h-0.1l-0.3 0.3h-0.2l-0.2 0.3-0.2 0.1-0.2 0.2h-0.1l-0.2 0.2h-0.2q-0.1 0.2-0.2 0.3h-0.2l-0.1 0.3h-0.2l-0.2 0.3h-0.2l-0.2 0.2h-0.1l-0.2 0.3h-0.2q-0.1 0.1-0.2 0.2h-0.2v0.2h-0.2l-0.2 0.3h-0.2q-0.1 0.1-0.1 0.3h-0.2q-0.1 0.1-0.2 0.3h-0.2l-0.2 0.2h-0.1l-0.2 0.2h-0.1l-0.2 0.3h-0.2l-0.2 0.2h-0.2q0 0.1 0 0.2h-0.2q-0.1 0.1-0.1 0.2l-0.3 0.1-0.1 0.2h-0.2l-0.1 0.2h-0.2l-0.2 0.3h-0.2v0.2h-0.2l-0.2 0.2h-0.2q0 0.2-0.1 0.2h-0.2q0 0.1-0.2 0.3h-0.1q-0.1 0.1-0.1 0.2h-0.2q-0.1 0.1-0.2 0.2h-0.1l-0.2 0.2h-0.1l-0.2 0.3h-0.2v0.1l-0.2 0.1-0.2 0.2h-0.1l-0.2 0.2h-0.2v0.1l-0.2 0.1-0.2 0.2h-0.1l-0.2 0.3h-0.2q-0.1 0-0.1 0.2h-0.1l-0.3 0.1-0.1 0.2h-0.2q-0.1 0.1-0.2 0.3h-0.1l-0.2 0.1h-0.1v0.2h-0.3q0 0.1-0.1 0.2h-0.2q0 0.1-0.2 0.3h-0.1l-0.1 0.2h-0.3v0.2h-0.2v0.1h-0.2l-0.1 0.2h-0.2l-0.1 0.2h-0.2l-0.1 0.2h-0.2v0.2h-0.2q-0.1 0-0.1 0.1h-0.2l-0.1 0.2h-0.1q-0.1 0.1-0.2 0.2h-0.1q-0.1 0.1-0.2 0.2h-0.2l-0.1 0.2-0.3 0.1v0.1h-0.1l-0.1 0.2h-0.2q0 0.1-0.1 0.2l-0.4 0.1v0.2h-0.2l-0.1 0.1h-0.2l-0.1 0.2h-0.1l-0.2 0.2h-0.1l-0.3 0.2-0.1 0.1h-0.2v0.2h-0.2l-0.1 0.2h-0.2l-0.1 0.2h-0.3q-0.1 0.2-0.2 0.2h-0.1v0.1l-0.3 0.1q0 0.1-0.1 0.2h-0.2v0.2l-0.3 0.1-0.4 0.2-0.1 0.1h-0.1l-0.2 0.2h-0.1l-0.1 0.2-0.4 0.1-0.1 0.1h-0.2q0 0.2 0 0.2h-0.2l-0.1 0.2-0.4 0.1v0.1l-0.2 0.1-0.1 0.2h-0.4v0.2h-0.2l-0.2 0.2-0.3 0.1-0.1 0.2h-0.2l-0.1 0.2h-0.3l-0.1 0.2-0.4 0.1-0.1 0.2-0.3 0.1v0.1l-0.3 0.1v0.1l-0.4 0.2q-0.1 0-0.1 0.1l-0.4 0.1v0.2l-0.4 0.1q-0.1 0.1-0.1 0.2h-0.4v0.2l-0.4 0.1-0.1 0.2-0.4 0.1q0 0.1 0 0.2l-0.4 0.1-0.1 0.2h-0.4q0 0.1 0 0.2h-0.2v0.1h-0.2l-0.1 0.2-0.4 0.1v0.1l-0.6 0.2-0.1 0.2-0.5 0.2-0.1 0.2-0.4 0.1-0.1 0.2-0.5 0.1-0.1 0.2-0.5 0.2-0.1 0.2-0.6 0.2v0.1l-0.6 0.2-0.1 0.2-0.4 0.1v0.1h-0.1-0.2l-0.1 0.2h-0.2v0.1h-0.1v0.1h-0.2v0.1h-0.2l-0.1 0.1h-0.2v0.1h-0.2v0.1h-0.1v0.1h-0.2l-0.1 0.2h-0.2v0.1h-0.1-0.2v0.2h-0.2-0.2l-0.1 0.2h-0.2v0.1h-0.2v0.1h-0.1v0.1h-0.2v0.1h-0.2q-0.1 0.1-0.1 0.1h-0.1v0.2h-0.2-0.2v0.1h-0.2v0.1h-0.2v0.1h-0.1v0.1h-0.2q-0.1 0.1-0.1 0.2h-0.2v0.1h-0.2-0.2v0.2h-0.2-0.1v0.1l-0.4 0.1-0.1 0.2-0.3 0.1v0.1h-0.2v0.1h-0.2-0.2v0.2h-0.1l-0.4 0.1v0.1l-0.4 0.1v0.1l-0.5 0.2-0.1 0.1-0.4 0.2h-0.2v0.1h-0.1v0.1h-0.2v0.1h-0.2v0.1h-0.2v0.1l-0.3 0.1v0.1h-0.4v0.2h-0.4v0.1h-0.1v0.1h-0.2v0.1h-0.2v0.1h-0.2v0.1l-0.5 0.2-0.4 0.2h-0.2v0.1l-0.6 0.2v0.1h-0.1v0.1h-0.2v0.1h-0.2v0.1h-0.2-0.2v0.2h-0.1-0.2v0.1h-0.2v0.1h-0.2v0.1h-0.2v0.1h-0.3v0.1l-0.3 0.1v0.1h-0.2-0.2v0.2l-0.5 0.1v0.1l-0.8 0.3v0.1l-0.4 0.1h-0.3v0.2h-0.1l-0.6 0.2v0.1h-0.2v0.1h-0.2v0.1l-0.5 0.2h-0.3v0.2h-0.2l-0.3 0.1v0.1h-0.3v0.1h-0.1v0.1l-0.4 0.1v0.1h-0.3v0.1h-0.2l-0.3 0.2h-0.3v0.1l-0.3 0.1v0.1h-0.3v0.1l-0.4 0.1v0.1h-0.2v0.1h-0.4v0.2h-0.3l-0.4 0.1v0.1h-0.2v0.1h-0.2v0.1h-0.2l-0.4 0.2h-0.3v0.1h-0.2v0.1h-0.2v0.1l-0.4 0.1v0.1h-0.3v0.1h-0.1v0.1h-0.5v0.2h-0.3-0.1v0.1l-0.5 0.1v0.1h-0.3v0.1h-0.1v0.1h-0.3v0.1h-0.2v0.1h-0.3-0.1v0.2h-0.6v0.1l-0.4 0.2h-0.2v0.1h-0.3v0.1h-0.2v0.1l-0.5 0.1h-0.2v0.2h-0.5v0.1h-0.2v0.1l-0.5 0.1v0.1h-0.2v0.1h-0.3v0.1l-0.5 0.1h-0.2v0.2h-0.5v0.1h-0.2v0.1h-0.3v0.1h-0.2v0.1h-0.3v0.1h-0.3v0.1h-0.3v0.1h-0.2l-1.6 0.5v0.1h-0.2v0.1h-0.2v0.1h-0.2v0.1h-0.3-0.3v0.2h-0.3-0.2v0.1h-0.3v0.1h-0.3v0.1h-0.3v0.1l-0.5 0.1v0.1l-0.5 0.1h-0.4v0.2h-0.2-0.3v0.1h-0.3v0.1h-0.3v0.1h-0.2v0.1h-0.4v0.1h-0.3v0.1h-0.2v0.1h-0.3l-1.2 0.3v0.1l-1.5 0.4v0.1l-1.9 0.4v0.1l-0.7 0.1v0.1h-0.3v0.1l-1 0.1v0.2l-1 0.1v0.1l-0.7 0.1c-0.7 0.3-1.5 0.4-2.1 0.6l-0.7 0.1c-1.1 0.4-2.4 0.6-3.4 0.9h-0.5c-1.3 0.5-2.9 0.6-4.2 1h-0.6v0.1h-0.4v0.1h-0.5v0.1h-0.4v0.1h-0.6c-0.3 0.1-1 0.2-1.4 0.3h-0.6c-0.7 0.3-1.8 0.3-2.7 0.6h-0.6c-1.3 0.4-3 0.3-4.3 0.7l-1.5 0.1c-0.9 0.2-2.3 0.2-3.2 0.4h-0.9v0.1h-0.9v0.1h-1.1v0.1h-1.1v0.1h-1v0.1h-1.3v0.1h-1.6v0.1h-1.6-2v0.2h-3-4.8q-0.3 0-0.6 0-0.3 0.1-0.6 0-0.3 0-0.6 0-0.3 0-0.6 0h-2.7v-0.2h-1.8-1.4v-0.1h-1.3v-0.2h-1-1c-1.1-0.3-2.5-0.2-3.5-0.4l-1.5-0.2-8.2-1.2c-1.3-0.4-2.9-0.5-4.1-0.9l-1.4-0.2v-0.1l-0.8-0.1h-0.4v-0.2h-0.7v-0.1l-1.2-0.2v-0.1h-0.5v-0.1l-1.5-0.2c-2-0.7-4.3-1.1-6.2-1.8h-0.7v-0.2h-0.3l-0.6-0.1v-0.1h-0.4v-0.1h-0.3v-0.1l-1.9-0.5h-0.3v-0.1h-0.2v-0.1l-0.7-0.1v-0.1l-0.9-0.2v-0.1h-0.6v-0.2l-0.9-0.1v-0.1l-1.2-0.3v-0.1l-1.1-0.3-1.6-0.4v-0.1h-0.2v-0.1h-0.3v-0.1h-0.3-0.2v-0.2h-0.3-0.4v-0.1l-0.5-0.1v-0.1h-0.3v-0.1h-0.3v-0.1h-0.2v-0.1l-0.9-0.1v-0.2h-0.3l-0.5-0.1v-0.1l-0.6-0.1c-3.8-1.4-7.9-2.5-11.6-3.9l-0.7-0.1-0.5-0.1v-0.1h-0.2v-0.1h-0.3v-0.1h-0.3v-0.1h-0.3v-0.1l-1.1-0.2v-0.1l-0.6-0.1v-0.1h-0.3v-0.1h-0.3v-0.1h-0.3v-0.1h-0.3v-0.1h-0.2-0.4v-0.2h-0.3-0.2v-0.1h-0.3v-0.1h-0.2v-0.1h-0.4c-1.9-0.7-4-1.2-5.9-1.9h-0.4v-0.1h-0.2v-0.1l-0.7-0.1-0.6-0.2-0.7-0.1v-0.1l-0.7-0.1c-1.8-0.7-3.9-1-5.7-1.6l-1.8-0.4v-0.1h-0.4v-0.1h-0.4-0.4v-0.2h-0.3-0.4v-0.1h-0.4v-0.1l-9.7-2h-0.6c-0.6-0.2-1.5-0.2-2.2-0.5h-0.7c-0.9-0.2-2.1-0.2-3.1-0.5l-1.4-0.1c-1-0.3-2.3-0.1-3.3-0.4h-1v-0.1h-0.9v-0.1l-5.5-0.3v-0.1h-2.3c-0.9-0.2-2.3 0-3.4 0h-8c-0.4 0.1-1.2 0-1.7 0.1v0.1h-1.4v0.1z"/>
		<path id="Фигура_3_копия_2-2" fill-rule="evenodd" class="s37" d="m61.5 296.9l3.6 0.1c2.2-0.2 2-2.1 2-2.1-0.5-1.9-1.8-1.7-1.8-1.7l-3.6 0.1c-1.8 0.6-1.8 1.9-1.8 1.9 0.4 1.6 1.6 1.7 1.6 1.7z"/>
		<path id="Фигура_2_копия" fill-rule="evenodd" class="s6" d="m125.2 273.7c6.3-1 6.1-7 6.1-7l1.5-22.8c0.9-7.8-6.1-6.5-6.1-6.5l-20.1 1.3c-7.9 1-11.7 5.8-11.7 5.8l-43.4 39c-2.2 2.5 1.6 2.2 1.6 2.2z"/>
		<path id="Фигура_22_копия" fill-rule="evenodd" class="s39" d="m84 338.6l0.6 4.1 61.8-0.3c3.6-0.6 3.2-3.8 3.2-3.8z"/>
	</g>
	<g id="&lt;Group&gt;">
		<g id="&lt;Group&gt;">
			<g id="&lt;Group&gt;">
				<g id="&lt;Group&gt;">
					<path id="&lt;Compound Path&gt;" fill-rule="evenodd" class="s42" d="m343.5 246.4l-9.1 0.4 9.1 0.4v0.1c0 2.1-1.6 3.7-3.6 3.7h-6.9c-1.3 0-2.3-1.2-2.1-2.5q0.1-0.8 0.1-1.7c0-6.2-5.1-11.1-11.3-10.8-5.4 0.2-9.8 4.4-10.3 9.7q-0.2 1.4 0 2.8c0.2 1.3-0.8 2.5-2.1 2.5h-5.9v-36.2h5.9l10.9 0.8c1 0.6 1.9 1.4 2.5 2.5l4.8 8.6 10.5 1.1c0.6 0 1.2 0.3 1.6 0.7l-20.7 0.5 25.1 0.6q0.6 0.5 1 1.2l-15.7 0.7 16.2 0.7q0 0.2 0 0.4zm-21.6-20l-4.4-7.8q0 0 0 0c-0.6-1.1-1.8-1.7-3-1.7h-10.3v9.5z"/>
					<path id="&lt;Compound Path&gt;" fill-rule="evenodd" class="s42" d="m320.2 255.3c-4.8 0-8.6-3.8-8.6-8.5 0-4.7 3.8-8.5 8.6-8.5 4.7 0 8.5 3.8 8.5 8.5 0 4.7-3.8 8.5-8.5 8.5zm4.1-8.5c0-2.3-1.8-4.2-4.1-4.2-2.4 0-4.2 1.9-4.2 4.2 0 2.3 1.8 4.2 4.2 4.2 2.3 0 4.1-1.9 4.1-4.2z"/>
					<path id="&lt;Path&gt;" class="s21" d="m295.6 222.6c0-5.4-3.2-10.3-8.1-12.6-1.8-0.8-3.7-1.2-5.7-1.2h-3.3-26.9-39.6c0 6.7 5.4 12.1 12.2 12.1h51.8c1.8 0 3.3 1.2 3.8 2.9h-55.5c0 6.7 5.4 12.2 12.2 12.2h43.5c1.8 0 3.3 1.1 3.8 2.8h-47.2c0 6.8 5.4 12.2 12.1 12.2h41.5 5.4z"/>
					<path id="&lt;Path&gt; copy" class="s21" d="m295.6 222.6c0-5.4-3.2-10.3-8.1-12.6-1.8-0.8-3.7-1.2-5.7-1.2h-3.3-26.9-39.6c0 6.7 5.4 12.1 12.2 12.1h51.8c1.8 0 3.3 1.2 3.8 2.9h-55.5c0 6.7 5.4 12.2 12.2 12.2h43.5c1.8 0 3.3 1.1 3.8 2.8h-47.2c0 6.8 5.4 12.2 12.1 12.2h41.5 5.4z"/>
				</g>
			</g>
			<g id="&lt;Group&gt;">
				<path id="&lt;Path&gt;" class="s42" d="m299.7 251h-2.3v-38.4c0-4.6-3.7-8.4-8.3-8.4h-0.8v-2.2h0.8c5.8 0 10.6 4.7 10.6 10.6z"/>
			</g>
		</g>
		<path id="&lt;Path&gt;" class="s42" d="m314.5 214.2l-7.2 0.6h-5.9v-3.7h5.2c3 0 5.8 1.2 7.9 3.1z"/>
	</g>
	<g id="&lt;Group&gt; copy 5">
		<g id="&lt;Group&gt;">
			<g id="&lt;Group&gt;">
				<g id="&lt;Group&gt;">
					<path id="&lt;Compound Path&gt;" fill-rule="evenodd" class="s42" d="m587.5 257.9h-1l1 0.1c0 0.2-0.2 0.4-0.4 0.4h-0.7c-0.2 0-0.3-0.1-0.3-0.3q0-0.1 0-0.2c0-0.6-0.5-1.2-1.2-1.1-0.6 0-1.1 0.4-1.1 1q-0.1 0.2 0 0.3c0 0.2-0.1 0.3-0.3 0.3h-0.6v-4h0.6l1.2 0.1q0.2 0.1 0.3 0.3l0.5 0.9 1.2 0.2q0.1 0 0.2 0l-2.3 0.1 2.8 0.1q0 0 0.1 0.1l-1.8 0.1h1.8q0 0.1 0 0.1zm-2.4-2.2l-0.4-0.9q0 0 0 0-0.2-0.2-0.4-0.2h-1.1v1.1z"/>
					<path id="&lt;Compound Path&gt;" fill-rule="evenodd" class="s42" d="m584.9 258.9c-0.5 0-0.9-0.4-0.9-1 0-0.5 0.4-0.9 0.9-0.9 0.6 0 1 0.4 1 0.9 0 0.6-0.4 1-1 1zm0.5-1c0-0.2-0.2-0.4-0.5-0.4-0.2 0-0.4 0.2-0.4 0.4 0 0.3 0.2 0.5 0.4 0.5 0.3 0 0.5-0.2 0.5-0.5z"/>
					<path id="&lt;Path&gt;" class="s21" d="m582.2 255.3c0-0.6-0.3-1.2-0.9-1.4q-0.3-0.2-0.6-0.2h-0.4-2.9-4.4c0 0.8 0.6 1.4 1.3 1.4h5.8c0.2 0 0.3 0.1 0.4 0.3h-6.1c0 0.7 0.6 1.4 1.3 1.4h4.8c0.2 0 0.4 0.1 0.4 0.3h-5.2c0 0.7 0.6 1.3 1.4 1.3h4.5 0.6z"/>
					<path id="&lt;Path&gt; copy" class="s40" d="m582.2 255.3c0-0.6-0.3-1.2-0.9-1.4q-0.3-0.2-0.6-0.2h-0.4-2.9-4.4c0 0.8 0.6 1.4 1.3 1.4h5.8c0.2 0 0.3 0.1 0.4 0.3h-6.1c0 0.7 0.6 1.4 1.3 1.4h4.8c0.2 0 0.4 0.1 0.4 0.3h-5.2c0 0.7 0.6 1.3 1.4 1.3h4.5 0.6z"/>
				</g>
			</g>
			<g id="&lt;Group&gt;">
				<path id="&lt;Path&gt;" class="s42" d="m582.7 258.4h-0.3v-4.2c0-0.5-0.4-1-0.9-1h-0.1v-0.2h0.1c0.7 0 1.2 0.5 1.2 1.2z"/>
			</g>
		</g>
		<path id="&lt;Path&gt;" class="s42" d="m584.3 254.4h-0.8-0.6v-0.4h0.6c0.3 0 0.6 0.1 0.8 0.4z"/>
	</g>
</svg>