<svg version="1.2" xmlns="http://www.w3.org/2000/svg" viewBox="0 0 630 390" width="630" height="390">
	<title>office-svg</title>
	<style>
		tspan { white-space:pre } 
		.s0 { fill: #eaf1fb } 
		.s1 { fill: #f8f9fd } 
		.s2 { fill: #ffffff } 
		.s3 { fill: #d6e0f0 } 
		.s4 { fill: #e8edf4 } 
		.s5 { fill: #cde4f7 } 
		.s6 { fill: #fdfcfd } 
		.s7 { fill: #ff7a06 } 
		.s8 { fill: #f5f5f6 } 
		.s9 { fill: #393939 } 
		.s10 { fill: #ffb492 } 
		.s11 { fill: #4897d8 } 
		.s12 { fill: #2b6da3 } 
		.s13 { fill: #5e7ca9 } 
		.s14 { fill: #6f4326 } 
		.s15 { fill: #ebebeb } 
		.s16 { fill: #86a341 } 
		.s17 { fill: #757575 } 
		.s18 { fill: #a95d3a } 
		.s19 { fill: #1a1a1a } 
		.s20 { fill: #252525 } 
		.s21 { fill: #484848 } 
		.s22 { fill: #a5422b } 
		.s23 { fill: #a6c341 } 
		.s24 { fill: #cb3517 } 
		.s25 { fill: #45709c } 
		.s26 { fill: #bf986a } 
		.s27 { fill: #af895c } 
		.s28 { fill: #d2a978 } 
		.s29 { fill: #cca372 } 
		.s30 { fill: #cf7851 } 
		.s31 { fill: #f5f5f5 } 
		.s32 { fill: #ad6747 } 
		.s33 { fill: #747474 } 
		.s34 { fill: #cacaca } 
		.s35 { fill: #bfbfbf } 
		.s36 { fill: #dcdcdc } 
		.s37 { fill: #9d9d9d } 
		.s38 { fill: #8c8c8c } 
		.s39 { fill: #8c8282 } 
		.s40 { fill: #cccccc } 
		.s41 { fill: #d3d3d3 } 
		.s42 { fill: #e5e5e5 } 
		.s43 { opacity: .5;fill: #ffeda3 } 
		.s44 { fill: #ffcc00 } 
		.s45 { fill: #4c4c4c } 
		.s46 { fill: #3f3f3f } 
		.s47 { fill: #fa8c5a } 
		.s48 { fill: #d4764b } 
		.s49 { fill: #e8e8e8 } 
		.s50 { fill: #345588 } 
		.s51 { fill: #47689a } 
		.s52 { fill: #2e4f82 } 
		.s53 { fill: #263238 } 
	</style>
	<path id="Layer" class="s0" d="m314.7 389c173.8 0 314.7-20.2 314.7-45.1 0-24.9-140.9-45.1-314.7-45.1-173.8 0-314.7 20.2-314.7 45.1 0 24.9 140.9 45.1 314.7 45.1z"/>
	<path id="Layer" class="s1" d="m572.9 324.9c35.9-74.6 55.6-217.4-22.1-264.8-50.9-31-103.9 8.9-158.3 10.7-42.7 1.4-83.9-32.3-122.4-41.9-101.1-25.2-259.9 40.4-190.1 296 174.7-0.5 318.3 0.5 492.9 0z"/>
	<path id="Layer" class="s2" d="m471.1 216.7h-102.2c-0.7 0-1.3-0.3-1.8-0.7-0.5-0.5-0.7-1.1-0.7-1.8v-148.3c-3.9-55.5 18.3-53.6 53.6-53.6 56-3.6 53.6 24 53.6 53.6v148.3c0.1 1.4-1.1 2.5-2.5 2.5z"/>
	<path id="Layer" fill-rule="evenodd" class="s3" d="m472.4 218h-104.5c-0.8 0-1.6-0.3-2.2-0.9-0.6-0.6-0.9-1.4-0.9-2.2v-172.4c0-8.6 3.4-16.9 9.5-23 6.1-6.1 14.4-9.5 23-9.5h45.7c8.6 0 16.9 3.4 23 9.5 6.1 6.1 9.5 14.4 9.5 23v172.3c0 0.4-0.1 0.8-0.2 1.2-0.1 0.4-0.4 0.7-0.7 1-0.3 0.3-0.6 0.5-1 0.7q-0.6 0.3-1.2 0.3zm-0.2-3.3v-172.2c0-7.8-3.1-15.2-8.6-20.7-5.5-5.5-12.9-8.6-20.7-8.6h-45.6c-7.8 0-15.2 3.1-20.7 8.6-5.5 5.5-8.6 12.9-8.6 20.7v172.2z"/>
	<path id="Layer" class="s3" d="m420.2 216.6c-0.2 0-0.4 0-0.6-0.1-0.2-0.1-0.4-0.2-0.5-0.4-0.2-0.2-0.3-0.3-0.4-0.5-0.1-0.2-0.1-0.4-0.1-0.6v-203.4c0-0.2 0-0.5 0.1-0.7q0.1-0.3 0.3-0.6c0.2-0.2 0.3-0.3 0.5-0.4 0.2-0.1 0.4-0.1 0.7-0.1 0.2 0 0.4 0 0.7 0.1 0.2 0.1 0.4 0.2 0.5 0.4q0.3 0.3 0.3 0.6c0.1 0.2 0.1 0.4 0.1 0.7v203.4c0 0.2 0 0.4-0.1 0.6-0.1 0.2-0.2 0.4-0.4 0.5-0.2 0.2-0.3 0.3-0.5 0.4-0.2 0.1-0.4 0.1-0.6 0.1z"/>
	<path id="Layer" class="s3" d="m473.9 169.6h-107.4c-0.2 0-0.5 0-0.7-0.1-0.2-0.1-0.4-0.2-0.6-0.4-0.2-0.2-0.3-0.3-0.4-0.5-0.1-0.2-0.1-0.4-0.1-0.7 0-0.2 0-0.4 0.1-0.7 0.1-0.2 0.2-0.4 0.4-0.5q0.3-0.3 0.6-0.3c0.2-0.1 0.4-0.1 0.7-0.1h107.4c0.2 0 0.5 0 0.7 0.1q0.3 0.1 0.6 0.3c0.2 0.2 0.3 0.3 0.4 0.5 0.1 0.2 0.1 0.4 0.1 0.7 0 0.2 0 0.4-0.1 0.7-0.1 0.2-0.2 0.4-0.4 0.5-0.2 0.2-0.4 0.3-0.6 0.4-0.3 0.1-0.5 0.1-0.7 0.1zm0-102.1h-107.4c-0.2 0-0.5 0-0.7-0.1q-0.3-0.1-0.6-0.3c-0.2-0.2-0.3-0.3-0.4-0.5-0.1-0.2-0.1-0.4-0.1-0.7 0-0.2 0-0.4 0.1-0.7 0.1-0.2 0.2-0.4 0.4-0.5q0.3-0.3 0.6-0.3c0.2-0.1 0.4-0.1 0.7-0.1h107.4c0.2 0 0.5 0 0.7 0.1q0.3 0.2 0.6 0.3c0.2 0.2 0.3 0.3 0.4 0.5 0.1 0.2 0.1 0.4 0.1 0.7 0 0.2 0 0.4-0.1 0.7-0.1 0.2-0.2 0.4-0.4 0.5q-0.3 0.3-0.6 0.3c-0.3 0.1-0.5 0.1-0.7 0.1zm0 51.1h-107.4c-0.2 0-0.5 0-0.7-0.1q-0.3-0.1-0.6-0.3c-0.2-0.2-0.3-0.3-0.4-0.5-0.1-0.2-0.1-0.4-0.1-0.7 0-0.2 0-0.4 0.1-0.7 0.1-0.2 0.2-0.4 0.4-0.5q0.3-0.3 0.6-0.3c0.2-0.1 0.4-0.1 0.7-0.1h107.4c0.2 0 0.5 0 0.7 0.1q0.3 0.1 0.6 0.3c0.2 0.2 0.3 0.3 0.4 0.5 0.1 0.2 0.1 0.4 0.1 0.7 0 0.2 0 0.4-0.1 0.7-0.1 0.2-0.2 0.4-0.4 0.5q-0.3 0.3-0.6 0.3c-0.3 0.1-0.5 0.1-0.7 0.1z"/>
	<path id="Layer" class="s4" d="m543.6 143.9h5.7v-32.6c-0.9-0.4-1.9-0.7-2.9-0.7-1 0-2 0.2-2.9 0.7v32.6z"/>
	<path id="Layer" class="s5" d="m526.2 143.8h5v-32.6c-0.8-0.4-1.6-0.7-2.5-0.7-0.9 0-1.7 0.2-2.5 0.7z"/>
	<path id="Layer" class="s2" d="m563 143.9l4.5-2.1-13.7-29.6c-0.9-0.1-1.7 0.1-2.5 0.4-0.8 0.4-1.5 0.9-2 1.6zm-31.9-0.1h5.7v-32.6c-0.9-0.4-1.9-0.7-2.9-0.7-1 0-2 0.2-2.9 0.7v32.6z"/>
	<path id="Layer" class="s5" d="m536.8 143.9h6.7v-32.6c-2.2-0.9-4.6-0.9-6.7 0z"/>
	<path id="Layer" class="s3" d="m517.9 144c-0.2 0-0.3 0.1-0.4 0.2-0.1 0.1-0.2 0.3-0.2 0.4v1.5c0 0.1 0 0.1 0 0.2 0 0.1 0.1 0.1 0.1 0.2 0.1 0.1 0.1 0.1 0.2 0.1 0.1 0 0.1 0 0.2 0h56.9c0.2 0 0.3-0.1 0.4-0.2 0.1-0.1 0.2-0.3 0.2-0.4v-1.5c0-0.2-0.1-0.3-0.2-0.4-0.1-0.1-0.3-0.2-0.4-0.2h-56.8z"/>
	<path id="Layer" class="s0" d="m141 0h3v57h-3z"/>
	<path id="Layer" class="s3" d="m159.6 79.6c0-4.4-1.7-8.6-4.8-11.7-3.1-3.1-7.3-4.8-11.7-4.8-4.4 0-8.6 1.7-11.7 4.8-3.1 3.1-4.8 7.3-4.8 11.7z"/>
	<path id="Layer" class="s3" d="m149 63.3c0 4.9-2.7 8.8-6.1 8.8-3.4 0-6.1-3.9-6.1-8.8 0-4.9 2.7-8.8 6.1-8.8 3.3 0 6.1 3.9 6.1 8.8z"/>
	<path id="Layer" class="s3" d="m285.4 134.5c10.6 0 19.2-8.6 19.2-19.2 0-10.6-8.5-19.3-19.2-19.3-10.6 0-19.2 8.6-19.2 19.2 0 10.6 8.6 19.3 19.2 19.3z"/>
	<path id="Layer" class="s6" d="m285.4 129.9c8.1 0 14.6-6.5 14.6-14.6 0-8.1-6.5-14.6-14.6-14.6-8.1 0-14.6 6.5-14.6 14.6 0.1 8 6.6 14.6 14.6 14.6z"/>
	<path id="Layer" class="s3" d="m289.7 124.7l-3.5-9.7c-0.1-0.2-0.2-0.4-0.5-0.5-0.2-0.1-0.5-0.1-0.7-0.1l-10.4 2.4c-0.1 0-0.2 0.1-0.4 0.2q-0.1 0.2-0.3 0.3c-0.1 0.1-0.1 0.2-0.1 0.4 0 0.1 0 0.3 0 0.4 0 0.1 0.1 0.2 0.2 0.4q0.1 0.2 0.3 0.3c0.1 0.1 0.2 0.1 0.4 0.1 0.1 0 0.3 0 0.4 0l9.5-2.3 3.2 8.9c0.1 0.2 0.2 0.4 0.4 0.5 0.2 0.1 0.4 0.2 0.6 0.2 0.1 0 0.2 0 0.3-0.1 0.1 0 0.2-0.1 0.3-0.2 0.1-0.1 0.2-0.2 0.2-0.3 0.1-0.1 0.1-0.2 0.1-0.4 0.1-0.3 0-0.4 0-0.5z"/>
	<path id="Layer" class="s3" d="m285.2 117.3c1.1 0 2-0.9 2-2 0-1.1-0.9-2-2-2-1.1 0-2 0.9-2 2 0 1.1 0.9 2 2 2z"/>
	<path id="Layer" class="s4" d="m464.9 258h102.3v90.5h-102.3z"/>
	<path id="Layer" class="s3" d="m473.7 264.9h83.7v31.7h-83.7zm0 38.4h83.7v36.7h-83.7zm-4.5 45.2h9.1v8h-9.1zm83.7 0h9.1v8h-9.1z"/>
	<path id="Layer" class="s6" d="m482.1 314.9c2.5 0 4.5-2.1 4.4-4.5 0-2.5-2.1-4.5-4.5-4.4-2.5 0-4.5 2.1-4.4 4.5 0 2.4 2.1 4.4 4.5 4.4z"/>
	<path id="Layer" class="s4" d="m479 270.7h41.6v11.1h-41.6z"/>
	<path id="Layer" class="s6" d="m487.7 282.1h45.8v14.4h-45.8z"/>
	<path id="Layer" class="s3" d="m506.4 258h-8.2l-1-10.5h10.2z"/>
	<path id="Layer" class="s6" d="m225 211.4c-0.9 0-1.7-0.3-2.4-0.7-0.7-0.5-1.3-1.1-1.7-1.9-0.4-0.8-0.5-1.7-0.3-2.5 0.1-0.9 0.5-1.7 1.1-2.3-0.4-0.1-0.8-0.1-1.1-0.1-1.1 0-2.2 0.3-3.1 0.9-0.9 0.6-1.7 1.4-2.2 2.4-0.5 1-0.7 2.1-0.6 3.2q0.2 1.7 1.2 3c0.7 0.9 1.6 1.5 2.6 1.9 1 0.4 2.2 0.5 3.2 0.3 1.1-0.2 2.1-0.7 2.9-1.5 0.8-0.8 1.4-1.7 1.7-2.8-0.5 0.1-0.9 0.1-1.3 0.1z"/>
	<g id="Папка 1">
		<path id="Фигура_10" fill-rule="evenodd" class="s7" d="m385.9 206.3c-1.2-3 1.2-7.1 1.2-7.1-1.2-3.4 0.3-5.9 0.3-5.9l1.6-2.5c-8.2-0.2-14.1-6.2-14.1-6.2 0.2-1.5 2.2-4.1 2.2-4.1 6.5-24.5 15.7-22.1 15.7-22.1 3.9-2.6 10.7-4.7 10.7-4.7 1.2-0.6 1.1-1.6 1.1-1.6 0.8-3.8 4.6-3.8 4.6-3.8l3.2 0.4 12.3 3.6c1.6-1.2 3.7 2 3.7 2l1.7 1.8 1.6-0.2c1.5-1.8 4.6-0.6 4.6-0.6 3.1-0.7 7.1 0.2 7.1 0.2 1.6-0.5 2.7 0.4 2.7 0.4 2.6-0.5 5.9 2.1 5.9 2.1 1.6-0.2 2.2 1 2.2 1 2.4-0.4 4.6 0.5 4.6 0.5-4.6 5.3-4.8 13.7-4.8 13.7 0.5 1.6-10.9-2.2-10.9-2.2-3.3 12.6-8.3 27-8.3 27-0.9 1.8-1.2 4-1.2 4-0.3 2.8-4.3 3.8-4.3 3.8l-18.8-2.4-13.7 1.9z"/>
		<path id="Фигура_27" fill-rule="evenodd" class="s8" d="m408.8 148.8c0.1-0.8-0.7-0.5-0.7-0.5-5.9 1.6-4 8.6-4 8.6 2.7 7.5 13.3 12.2 13.3 12.2 11.1-5.8 11.1-14.9 11.1-14.9-3.6-4.3-3.8-1.3-3.8-1.3 1.8 8.1-7.1 10.5-7.1 10.5-8.5-1.4-10.9-8.9-10.9-8.9-1.3-2.8 1.8-3.1 1.8-3.1 0.5 0 0.3-2.6 0.3-2.6z"/>
		<path id="Фигура_1" fill-rule="evenodd" class="s9" d="m377 354.9c1.5 2.1-0.9 3.6-0.9 3.6-3.6 1.6-5.5-1.8-5.5-1.8-4.4-4.9-4.2-13.4-4.2-13.4 0.1-6-2.8-12.1-2.8-12.1-4.4-12.3 1.5-10.7 1.5-10.7 7.4-1.6 8.6 0.3 8.6 0.3l3 14.2 1.5 1.7c1 8.9-2.2 8-2.2 8-0.5 1.7 0.5 3.8 0.5 3.8 0.8 1.1 0.5 6.4 0.5 6.4z"/>
		<path id="Фигура_2" fill-rule="evenodd" class="s10" d="m376 320.3c-3.6-0.1-4.2 2.1-4.2 2.1-1.5 6 0.4 13 0.4 13 0.4 0.7 1.7 0.9 1.7 0.9 2.4 0.5 4.2 0.2 4.2 0.2 1.1-3.3 5-8.3 5-8.3z"/>
		<path id="Фигура_3" fill-rule="evenodd" class="s9" d="m405.1 343.3c0 0 3.9 4.4 5.2 7.1 0 0 1.2 0.3 1.3 1.6 0 0 1.6 1.2 1.8 1.9 0 0 1.2 2.3-0.4 3 0 0-3.7 1.8-11.3 1.8 0 0-3.5 0.5-5.1-3 0 0-1.3-2.7-0.9-4.2 0 0 0.9-1.1 0.2-1.9 0 0-0.9-3.3-0.2-4.7z"/>
		<path id="Фигура_4" fill-rule="evenodd" class="s11" d="m407.1 343.1c0.9 2.7-2 1.7-2 1.7-9.6 0.3-18.9 3.9-18.9 3.9-2.8-6.9-3.5-22.4-3.5-22.4-0.5-6.5-0.8-21.8-0.8-21.8-1.2-4.4-0.1-9.6-0.1-9.6-1.7-8.4-1.4-13.7-1.4-13.7 0.7-4.1-0.4-8.8-0.4-8.8-0.7-2.8-0.8-9.1-0.8-9.1-1.7-3.4-1.3-7.7-1.3-7.7-0.7-35.5 6.7-45.1 6.7-45.1 1-1.7 0.9-4.1 0.9-4.1 0-0.6 1.1-0.9 1.1-0.9 2.7-1 3.6-2.6 3.6-2.6 1.2-1.3 3.5-2.8 3.5-2.8 10.2-16 8.4-25.6 8.4-25.6 0.5-2.1 0.1-2.7 0.1-2.7-1.1-6.2-6.3-15.1-6.3-15.1l4.1-1.8c5.5 8.8 5.9 16.5 5.9 16.5 1 0.3 1.3 3.3 1.3 3.3l0.6 3.2c3 1.2 19.3 0.4 19.3 0.4 0.4-2.6 0.9-5.8 0.9-5.8l0.9-1.1-0.1-2.7-0.6-1.2c0.9-4.3 0.3-13.2 0.3-13.2q0.3 0.1 0.6 0.1 0.3 0.1 0.6 0.3 0.3 0.1 0.6 0.3 0.3 0.2 0.6 0.4c0.7 0.3 1.1 0.2 1.1 0.2 1.3 1.8 0.9 9.5 0.9 9.5l-0.4 7.8c0.2 2.2-0.9 6-0.9 6 0.6 2.2-0.3 6.5-0.3 6.5-0.6 16.3-1.9 20.6-1.9 20.6 0.5 2.2-1 4.3-1 4.3-0.5 0.9 0.2 1.7 0.2 1.7 0.6 1.6 0.5 3.3 0.5 3.3 0.3 1.9 2.3 3 2.3 3 2.8 2.8 0 4.9 0 4.9-1 1.8-0.5 5.1-0.5 5.1 0.7 1.8-1.4 4.1-1.4 4.1 0 2.1-0.8 5.6-0.8 5.6 0.5 1.8 0.7 4.1 0.7 4.1 2.3 9.1 0.1 9.8 0.1 9.8 3.3 6.4 1.5 13.8 1.5 13.8 0.3 5.7-1.7 20.6-1.7 20.6 2.5 8.5-8.8 17.1-8.8 17.1-5.2 5.4-14.7 16.8-14.7 16.8 2.1 9 1.3 22.9 1.3 22.9zm-3.6-80.1q0 0.3-0.1 0.5-0.1 0.3-0.1 0.5-0.1 0.2-0.2 0.5-0.1 0.2-0.2 0.4c2.1 2.5 2 6.4 2 6.4 0.2 4.9-1.4 11.7-1.4 11.7 0.6 1.6 0.8 5.2 0.8 5.2 0.7-0.2 1.5-1.2 1.5-1.2-1.9-5.1-0.5-10.2-0.5-10.2 0-3.1 0.7-7.3 0.7-7.3-1.4-2.7-2.5-6.5-2.5-6.5z"/>
		<path id="Фигура_36" fill-rule="evenodd" class="s12" d="m406.5 181.9c1.5 5.6-6 22.1-6 22.1 3.9 3.2 25.5 2.3 25.5 2.3 3.7-10.9 1.7-23.6 1.7-23.6 1.8-0.6-21.2-0.8-21.2-0.8z"/>
		<path id="Фигура_31" fill-rule="evenodd" class="s13" d="m427.9 211.2c-7.8 5.1-37.4-0.4-37.4-0.4 33.5 6.7 37.4 0.4 37.4 0.4z"/>
		<path id="Фигура_5" fill-rule="evenodd" class="s12" d="m382.6 311.1c-2.6 1.8-7.9 9.1-7.9 9.1 4.6 7.5 15.4 16.6 15.4 16.6 2.7 0.6 11.4-12 11.4-12z"/>
		<path id="Фигура_6" fill-rule="evenodd" class="s14" d="m373.6 219.6c-0.6 7.8 3.2 27.9 3.2 27.9l34.1-14.1-4.1-28.6z"/>
		<path id="Фигура_7" fill-rule="evenodd" class="s15" d="m374.1 220.7l2.5 25.2c1 1.2 32.3-13.5 32.3-13.5-1.7-16.4-4.7-26.2-4.7-26.2z"/>
		<path id="Фигура_8" fill-rule="evenodd" class="s16" d="m394.1 217.5c2.7-2.6 14.3-8.3 14.3-8.3 1.2-0.4 0.5 0.7 0.5 0.7-8.7 5.6-14.8 7.6-14.8 7.6z"/>
		<path id="Фигура_9" fill-rule="evenodd" class="s17" d="m404 213.1l2.2 13.9 2.8-1.3-2-13.9z"/>
		<path id="Фигура_11" fill-rule="evenodd" class="s10" d="m388.6 190.8c-3.3 7.8-6 9.7-6 9.7-1.9 1.3-1.3 4.5-1.3 4.5 3.7 5.3 3.6 10.6 3.6 10.6 0.8 8 4.7 13 4.7 13 1.2 1.6 3.9 1.7 3.9 1.7 3.8 0.1 6.7 5.9 6.7 5.9 1.4 0.5 1.9 2.4 1.9 2.4 2.6 1.7 1.2 2.4 1.2 2.4-1 1.1-2.5 0-2.5 0 0.4 2.9-2.1 2.3-2.1 2.3-1.2-0.1-2.8 1.1-2.8 1.1-3.5 1-5.4 0.4-5.4 0.4-3.1 1.1-3.3-1.1-3.3-1.1-1.6-2.5-1.9-7-1.9-7-0.4-1.3-1.7-2.2-1.7-2.2-1.1-0.7-1.2-2.4-1.2-2.4-9.3-12.3-11.9-23-11.9-23-1.3-2 0-6.5 0-6.5 0.9-5.9 5-17.4 5-17.4 4.5 4 13.1 5.6 13.1 5.6z"/>
		<path id="Фигура_12" fill-rule="evenodd" class="s18" d="m395.9 234.9c1.1 2.7 3.6 5.2 3.6 5.2-0.6 0.1-1.2-0.9-1.2-0.9-0.3-0.4-1-0.9-1-0.9-0.4-0.4-1.4-3.4-1.4-3.4z"/>
		<path id="Фигура_9_копия" fill-rule="evenodd" class="s19" d="m462 275l-1.4 4.2 1 75 0.8 5.2 2.1 0.7 0.2 0.3 2.2 0.8 0.1 0.6 2.7 0.8 0.7-0.6 14 3.6 0.4 0.9 3.8 0.8 0.6-0.7 3.3 0.9 0.2-0.3 3.1 0.7 1.8-0.2 0.4-0.4v-0.4l18.9-26.7 4.4-66.1h-2.9l-0.7-1.6c-0.2-0.3-0.7-0.3-0.7-0.3l-8.3-0.5-35.6 1.5-1.4 0.1-2.7 0.1-2.7 1.4z"/>
		<path id="Фигура_10_копия" fill-rule="evenodd" class="s20" d="m470.1 275.4l-0.2 1.9 18.3-0.4 1.7-2z"/>
		<path id="Фигура_11_копия" fill-rule="evenodd" class="s20" d="m464 280l-0.1 8.7 30.6 0.5 0.4-9.6z"/>
		<path id="Фигура_12_копия" fill-rule="evenodd" class="s9" d="m465.2 280.5l-0.1 3.6h27.9v-3.5z"/>
		<path id="Фигура_13_копия" fill-rule="evenodd" class="s20" d="m463.6 288.9v9l30.5 1.4 0.4-9.9z"/>
		<path id="Фигура_14_копия" fill-rule="evenodd" class="s20" d="m463.6 298.1l0.1 8.8 30.1 2.2 0.3-9.7z"/>
		<path id="Фигура_15_копия" fill-rule="evenodd" class="s20" d="m463.7 307l-0.1 4.1 1.2 4.5 26.9 2.7 1.8-4.1 0.2-5z"/>
		<path id="Фигура_16_копия" fill-rule="evenodd" class="s21" d="m466 319.8l-0.7 5.2 0.3 2.1 21.6 3.1 0.3-2.1 2.4-5.5z"/>
		<path id="Фигура_17_копия" fill-rule="evenodd" class="s9" d="m465.4 325.2l0.3 1.9 21.4 3 0.5-1.9z"/>
		<path id="Фигура_18_копия" fill-rule="evenodd" class="s22" d="m474.7 321.8l-1.1 3.6 6 0.8 0.9-3.8z"/>
		<path id="Фигура_19_копия" fill-rule="evenodd" class="s21" d="m469.1 317.7v1.3l2.9 0.5v-1.4z"/>
		<path id="Фигура_20_копия" fill-rule="evenodd" class="s21" d="m478.9 318.8v1.4l3 0.4 0.1-1.6z"/>
		<path id="Эллипс_1_копия" class="s23" d="m474 319.3c-0.3 0-0.5-0.2-0.5-0.5 0-0.3 0.2-0.5 0.5-0.5 0.3 0 0.5 0.2 0.5 0.5 0 0.3-0.2 0.5-0.5 0.5z"/>
		<path id="Эллипс_2_копия" class="s24" d="m476.9 319.8c-0.3 0-0.6-0.3-0.6-0.6 0-0.3 0.3-0.6 0.6-0.6 0.3 0 0.6 0.3 0.6 0.6 0 0.3-0.3 0.6-0.6 0.6z"/>
		<path id="Эллипс_3_копия" class="s25" d="m486.5 321.2c-0.4 0-0.8-0.4-0.8-0.8 0-0.5 0.4-0.9 0.8-0.9 0.5 0 0.9 0.4 0.9 0.9 0 0.4-0.4 0.8-0.9 0.8z"/>
		<path id="Фигура_21_копия" fill-rule="evenodd" class="s20" d="m465.8 327.2l2.4 27.7 16.6 3.8 2.3-28.5z"/>
		<path id="Фигура_22_копия" fill-rule="evenodd" class="s9" d="m460.9 311l2.7 14.4 0.8 0.1-1.2-14.4z"/>
		<path id="Фигура_23_копия" fill-rule="evenodd" class="s9" d="m487.4 328.5l0.9 0.2 8.2-14.6-2.8-0.2z"/>
		<path id="Фигура_24_копия" fill-rule="evenodd" class="s9" d="m496.3 335.8l-0.6-0.4-3.5 4.3-4.7 22 0.7 5.4h0.6l-0.5-5.3 4.7-22.2z"/>
		<path id="Фигура_25_копия" fill-rule="evenodd" class="s21" d="m468.5 362.2l-1.4-0.5-0.3-0.6-4.1-25.9-1.7-5.4-0.1-18.7 2.7 14.2 4 32.1z"/>
		<path id="Фигура_26_копия" fill-rule="evenodd" class="s9" d="m487.4 328.6l0.9 0.2-2.6 30.4-0.9-0.3z"/>
		<path id="Фигура_27_копия" fill-rule="evenodd" class="s9" d="m517 336.8l-9.7 12.6-2 1.7-1.4-27.4c-0.2-1.6 0.2-3.4 0.2-3.4l4.4-33.6c0.2-1.4 1.1-1.9 1.1-1.9l9.6-1.5 1.4 1.6z"/>
		<path id="Фигура_28_копия" fill-rule="evenodd" class="s20" d="m509.4 285.2l1.8 1.8-4 34.3 0.2 28.1-2.1 1.7c-0.3-0.3-0.4-1.3-0.4-1.3l-1.1-26.4c-0.2-1.1 0.3-3.3 0.3-3.3l4.3-33.4c0.3-1.4 1-1.5 1-1.5z"/>
		<path id="Фигура_29_копия" fill-rule="evenodd" class="s9" d="m518.4 274l-1-1.8-9-0.5-28.6 1.1-7.4 0.5-3.6 0.2-2.7 1.3 36-1z"/>
		<path id="Фигура_13" fill-rule="evenodd" class="s9" d="m400.1 166.2l0.1 3.2 1.5 0.2 0.4 2.2-1.2 1.3 0.3 1.3 6.8-0.9-0.3-1.4-1.8-0.9v-2.1l1.1-1.1-0.7-3.2z"/>
		<path id="Фигура_16" fill-rule="evenodd" class="s26" d="m448.3 219.6l0.9 55.6 66.7 1.6 21.4-5.4 0.4-55-70.5 0.5z"/>
		<path id="Фигура_25" fill-rule="evenodd" class="s27" d="m514.5 219.5l23.1-3-76.1 0.7-13.2 2.4z"/>
		<path id="Фигура_14" fill-rule="evenodd" class="s9" d="m428.2 164.5c-0.1 0.3-0.8 3.7-0.8 3.7l1.2 0.4-0.1 2.2-1.4 1-0.2 1.4 6.4 1.1 0.5-2-0.8-0.5v-2.4l1-0.2 0.1-4.1c0 0-5.9-0.8-5.9-0.6z"/>
		<path id="Фигура_15" fill-rule="evenodd" class="s10" d="m458.8 159.5c4.4 0.2 7-0.9 7-0.9 6-1.8 9.3 2.9 9.3 2.9 0.5 0.9 2 1.3 2 1.3 5.6 3.5 4.1 6.6 4.1 6.6-1.8 3.7-23.4 3-23.4 3-4.7 0.8-7.8 0-7.8 0-0.8 0.5-1.5 0.4-1.5 0.4-0.5 3.8-3.1 6.9-3.1 6.9-0.2 1.3-1.2 2.5-1.2 2.5 0.7 8.2-0.8 9.5-0.8 9.5-2.4 1-3.8-4.4-3.8-4.4-1.1 0.2-2.2-0.2-2.2-0.2 1.7 5.6-0.3 5.5-0.3 5.5-1.5-0.1-1.9-3.1-1.9-3.1-2.4-8.9-0.1-12.8-0.1-12.8 1.4-3.6 6.3-8.1 6.3-8.1 2-3.3 5.1-3.2 5.1-3.2 3.9-1.5 9.4-1.4 9.4-1.4 0.5-1.9 2.9-4.5 2.9-4.5z"/>
		<path id="Фигура_21" fill-rule="evenodd" class="s27" d="m494.9 219.3l2.7-3.7 1.7-45.1-5 0.8z"/>
		<path id="Фигура_17" fill-rule="evenodd" class="s28" d="m448.3 219.6l1.2 55.8 66.4 1.6-1.4-57.6z"/>
		<path id="Фигура_18" fill-rule="evenodd" class="s29" d="m458.8 171.4l-0.2 47.8 36.5 0.1-0.5-48.1z"/>
		<path id="Фигура_19" fill-rule="evenodd" class="s27" d="m495.5 169.2l0.5 48.5 35.5 0.3 2.5-2.5-0.2-46.1-2.7-0.9z"/>
		<path id="Фигура_20" fill-rule="evenodd" class="s28" d="m496 217.6l35.6 0.4-0.3-49.5-35.8 0.5z"/>
		<path id="Фигура_22" fill-rule="evenodd" class="s10" d="m408 145.4c1 0.8 0.5 5.8 0.5 5.8-2.9 0.4-2.2 2.8-2.2 2.8 2.6 8.3 11.3 9.7 11.3 9.7 9.9-3.5 7.1-11 7.1-11 3.1-3.5 2.4-6.2 2.4-6.2 1.6 0.4 2.4-2.3 2.4-2.3 2.2-4.9 1.1-6.1 1.1-6.1l-1.5-5.7-0.4-4.2-1.6-3-7.9-1.6-8.1 3-4.1 3.3-1 4.8-0.3 2c-1.7 0.8-0.7 2.5-0.7 2.5 1.4 6.1 3 6.2 3 6.2z"/>
		<path id="Фигура_26" fill-rule="evenodd" class="s30" d="m409.3 149.3c5.8 14.6 14.3 4.7 14.3 4.7-8.9 11-14.3-4.7-14.3-4.7z"/>
		<path id="Фигура_23" fill-rule="evenodd" class="s9" d="m426.6 129.8c1.3 1.5 1.6 9.5 1.6 9.5 0.9-1.6 2.3-1.2 2.3-1.2 1.1-9.7-1.3-12.9-1.3-12.9-2.2-4.3-4.7-3.2-4.7-3.2-1-0.2 0.9-0.7 0.9-0.7 0.6-0.8-1.4-0.1-1.4-0.1-0.1-1.9-0.8-1.1-0.8-1.1-0.6-0.9-1 0.9-1 0.9-0.5 0.7-0.8-0.8-0.8-0.8-0.7-1.1-2.7-0.4-2.7-0.4-2.3-1-5.7 1.3-5.7 1.3-3.6 0.8-5.6 4.2-5.6 4.2-2.5 2.7-2.2 5.8-2.2 5.8-0.9 3.5 0.4 5.6 0.4 5.6-0.3 1 0.8 1.5 0.8 1.5 0.8 0.4 0.6 2.4 0.6 2.4 1 0.7 0.3-3.2 0.3-3.2-0.3-4.6 1.2-6.1 1.2-6.1 1.7-1 2.4-2.4 2.4-2.4 2.1-1.7 4.5-0.2 4.5-0.2 1.5 1.2 4.6-1.4 4.6-1.4 1 0.4 3.6-0.4 3.6-0.4 3-0.1 3 2.9 3 2.9z"/>
		<path id="Фигура_24" fill-rule="evenodd" class="s31" d="m412.8 148.9l8.7 0.2c-5.1 7.2-8.7-0.2-8.7-0.2z"/>
		<path id="Прямоугольник_скругл._углы_1_копия" fill-rule="evenodd" class="s9" d="m420.6 138.6h2.7q0.2 0 0.3 0.1 0.1 0 0.2 0.1 0.1 0.1 0.1 0.2 0.1 0.1 0.1 0.3v0.5q0 0.2-0.1 0.3 0 0.1-0.1 0.2-0.1 0.1-0.2 0.2-0.1 0-0.3 0h-2.7q-0.1 0-0.2 0-0.1-0.1-0.2-0.2-0.1-0.1-0.2-0.2 0-0.1 0-0.3v-0.5q0-0.2 0-0.3 0.1-0.1 0.2-0.2 0.1-0.1 0.2-0.1 0.1-0.1 0.2-0.1z"/>
		<path id="Прямоугольник_скругл._углы_1" fill-rule="evenodd" class="s9" d="m411.4 138.6h2.7q0.1 0 0.3 0.1 0.1 0 0.2 0.1 0.1 0.1 0.1 0.2 0.1 0.1 0.1 0.3v0.5q0 0.2-0.1 0.3 0 0.1-0.1 0.2-0.1 0.1-0.2 0.2-0.2 0-0.3 0h-2.7q-0.1 0-0.2 0-0.1-0.1-0.2-0.2-0.1-0.1-0.2-0.2 0-0.1 0-0.3v-0.5q0-0.2 0-0.3 0.1-0.1 0.2-0.2 0.1-0.1 0.2-0.1 0.1-0.1 0.2-0.1z"/>
		<path id="Фигура_28" fill-rule="evenodd" class="s13" d="m403.9 288.8c-1 0.8-2.8 6-2.8 6-5.6 2-18.8 16.3-18.8 16.3 9.2-9.7 18.4-15.9 18.4-15.9 0.8 1.1 3.2-6.4 3.2-6.4z"/>
		<path id="Фигура_29" fill-rule="evenodd" class="s13" d="m405.8 320.5c-4.8 5.4-15.1 16.3-15.1 16.3-1.6 0.6-4-2.2-4-2.2-1-1.2-3.8-4.8-3.8-4.8 0.4 1.6 3.5 5 3.5 5 4 4 4.9 1.8 4.9 1.8 4.6-4.2 14.5-16.1 14.5-16.1z"/>
		<path id="Фигура_30" fill-rule="evenodd" class="s13" d="m408.3 287.4c5.3-2.3 16.2 0.2 16.2 0.2-10.7-1.9-16.2-0.2-16.2-0.2z"/>
		<path id="Фигура_32" fill-rule="evenodd" class="s13" d="m428 229.8c-9 2.1-14.5 8.3-14.5 8.3 5.2-5.1 14.5-8.3 14.5-8.3z"/>
		<path id="Фигура_33" fill-rule="evenodd" class="s13" d="m409.9 254.1c8.3-2 16.1 7.6 16.1 7.6-8.7-8.7-16.1-7.6-16.1-7.6z"/>
		<path id="Фигура_34" fill-rule="evenodd" class="s13" d="m382.1 253.6c4 10.1 16.2 24 16.2 24-9.2-11.8-16.2-24-16.2-24z"/>
		<path id="Фигура_35" fill-rule="evenodd" class="s13" d="m405.2 253.2c4.9-7.4 4.8-15.8 4.8-15.8-1.6 10.5-4.8 15.8-4.8 15.8z"/>
		<path id="Фигура_37" fill-rule="evenodd" class="s32" d="m436.4 182.4c-0.1 2.4 1 4.7 1 4.7-0.7-2.3-1-4.7-1-4.7z"/>
		<path id="Фигура_38" fill-rule="evenodd" class="s32" d="m438.9 182.2c-0.4 1.4 0.6 4.8 0.6 4.8q-0.2-0.6-0.3-1.2-0.1-0.6-0.2-1.2 0-0.6-0.1-1.2 0-0.6 0-1.2z"/>
		<path id="Фигура_39" fill-rule="evenodd" class="s32" d="m441.5 181.9c-0.7 2.3 0.2 5.4 0.2 5.4-0.5-2.8-0.2-5.4-0.2-5.4z"/>
	</g>
	<g id="Папка 1">
		<path id="Фигура_13" fill-rule="evenodd" class="s33" d="m122.9 247.5l0.6 23.4 142.9 8.3-0.6-34.8z"/>
		<path id="Фигура_1" fill-rule="evenodd" class="s34" d="m124.6 317.4l-38 22.6-7-0.8 0.5-91.7 14.6 0.4-6.3 2.8 0.4 79.6 28.3-15.6-0.2-66.5 6.8 0.4z"/>
		<path id="Фигура_2" fill-rule="evenodd" class="s35" d="m117.2 314.4l6.1 0.5-34.4 19.6-0.2-4z"/>
		<path id="Фигура_3" fill-rule="evenodd" class="s35" d="m117.3 314.2l-0.6-65.7 6.2-0.3 0.4 66.7z"/>
		<path id="Фигура_4" fill-rule="evenodd" class="s36" d="m86.9 339.6l-6.6-0.6-0.2-93.1 6.5 0.3z"/>
		<path id="Фигура_5" fill-rule="evenodd" class="s34" d="m240.7 253.8l0.5 100.1 8 0.6 25.9-25.4-1.3-89.1-7.3 3v83.2l-16.3 14.2-0.5-87.1z"/>
		<path id="Фигура_6" fill-rule="evenodd" class="s36" d="m240.7 254.2l0.3 99.3 7.8 1-0.7-100.5z"/>
		<path id="Фигура_7" fill-rule="evenodd" class="s35" d="m250.2 340.8l0.3 7.9 23.1-22.1-7-0.6z"/>
		<path id="Фигура_8" fill-rule="evenodd" class="s35" d="m266.6 326l-0.5-78 7-3.9 0.5 82.1z"/>
		<path id="Фигура_9" fill-rule="evenodd" class="s34" d="m249.3 254.2l-0.2 4 23.1-13.9 1-3.9z"/>
		<path id="Фигура_10" fill-rule="evenodd" class="s37" d="m77.1 247.2l173.3 7.8 26-15.9v-4.2l-158.2-6.5-40.9 14z"/>
		<path id="Фигура_11" fill-rule="evenodd" class="s38" d="m76.9 242.6l173.5 7.3 0.4 5.1-174.2-7.8z"/>
		<path id="Фигура_12" fill-rule="evenodd" class="s39" d="m250.7 249.8l25.7-15.2 0.2 4.8-25.7 15.9z"/>
		<path id="Фигура_14" fill-rule="evenodd" class="s40" d="m170.9 233.7c0.5 1.6-1.2 1.7-1.2 1.7l-43 4.4c-2.1 0.4-2.5-0.2-2.5-0.2l-9.6-4c-1.9-0.7-1.8-3.1-1.8-3.1l-2.5-27.9c-0.1-1.5 1.4-1.6 1.4-1.6l41.4-3.3c2.1-0.1 1.9 2.6 1.9 2.6l3.2 27.2z"/>
		<path id="Фигура_15" fill-rule="evenodd" class="s9" d="m114.6 232.3l42-4.2-3.1-26.5-41.7 3.1z"/>
		<path id="Фигура_16" fill-rule="evenodd" class="s9" d="m121.8 233.7l31.6-2.8 4.8 1.7-31.9 3.1z"/>
		<path id="Фигура_21" fill-rule="evenodd" class="s9" d="m155.2 244l15.9-0.9c1.9 2.2 4.5 0.1 4.5 0.1l18.2 1.3 5-5.3-38.7-0.7-5.5 4.9c-0.4 0.4 0.6 0.6 0.6 0.6z"/>
		<path id="Фигура_22" fill-rule="evenodd" class="s41" d="m161.2 238.1l-5.4 4.9c16.2-1.9 14.8-0.7 14.8-0.7 0.5 1.3 3.5 0.3 3.5 0.3 7.8-0.1 19.2 1.5 19.2 1.5l4.9-5.1c-17.4-9.2-19.3-2.9-19.3-2.9-7.9-1.7-17.7 2-17.7 2z"/>
		<path id="Фигура_23" fill-rule="evenodd" class="s42" d="m178.7 236.2l-5.3 5.2-0.9-0.1z"/>
		<path id="Фигура_19" fill-rule="evenodd" class="s43" d="m200.9 194.2l-19.7 39c4.3 15.9 34.1 5.6 34.1 5.6l-0.7-42.8z"/>
		<path id="Фигура_18" fill-rule="evenodd" class="s44" d="m202.3 194.7l-5.6 12.1 7.2-12.1-3.3 12.4 5.4-12.1-1.3 12.5 2.6-12.3 1.8 13-0.1-12.9 2 12.1v-12.2l-1.7-3.5-5.5-0.3z"/>
		<path id="Фигура_17" fill-rule="evenodd" class="s40" d="m244.9 230.2c-2.7 0-5.3 2.1-5.3 2.1-4.4-0.1-4.6 2-4.6 2l0.1 2.4c12.8 3.8 23-0.6 23-0.6v-2.4c-1.2-1.8-4.5-1.4-4.5-1.4-2.5-2.2-6-2.1-6-2.1l-0.2-13.9c-2.7-22.6-20.8-22.7-20.8-22.7-1.8-3.5-8.3-2.6-8.3-2.6-3.4-1.4-5.5-4.1-5.5-4.1-10.9-4.5-13.6 7.8-13.6 7.8 4.3 2.6 18 3.6 18 3.6-0.5-1.1 0.5-1.9 0.5-1.9 7 1.5 8.5-0.5 8.5-0.5 14.9-0.6 19 19.5 19 19.5z"/>
		<path id="Фигура_1_копия" fill-rule="evenodd" class="s9" d="m76.9 334.3c-1.4 0.6-1.7 2.7-1.7 2.7-2.4 1.7-4.4 2.7-4.4 2.7-7.2 1.9-5.8 4.4-5.8 4.4l-0.7 0.2v0.9c12.5 3.8 18.4 0.2 18.4 0.2 1.6-2.1 5.3-3.4 5.3-3.4v1.7c5.7-0.3 7.4-1.7 7.4-1.7l-0.1-2.6-3.8-2.7-5.3-1-5.8-1.5z"/>
		<path id="Фигура_6_копия" fill-rule="evenodd" class="s31" d="m95 146.6c-9.8-3.9-17.3 3.4-17.3 3.4l-2.7 8.5-1.2 9-0.7 24.7 0.2 22.7 0.8 2.5 22.1 1.7 1.9-13.1c0 0-3.5-18.2-3.5-18.7 0-0.5 2.4-16.5 2.4-16.5 0 0 2.1-11.6 2.1-12.1 0.1-0.5-1.4-7.9-1.4-7.9z"/>
		<path id="Фигура_3_копия" fill-rule="evenodd" class="s45" d="m93.8 328.6c2.2 3.3 1.5 4.5 1.5 4.5-0.3 0.8 0.3 2.8 0.3 2.8-0.3 1.3 0 3.7 0 3.7-3.2 0.7-13.1-3.5-13.1-3.5-1.3-1.2-6-1.2-6-1.2 0-0.8 3.1-6.6 3.1-6.6-3 0.6-3.4-1.1-3.4-1.1-11-50.1-8.6-111.6-8.6-111.6l45.4-2c5.3 6.5 5.9 48.1 5.9 48.1 0.8 25.6 3.8 40.2 3.8 40.2 3.8 23.3 1.6 24.9 1.6 24.9-0.4 8.9-4.5 17.6-4.5 17.6-0.8-3.1-5.4-2.6-5.4-2.6-6.9-2.8-6.2 2.6-6.2 2.6-3.2-4.1-2.5-7.2-2.5-7.2-1-3.1 0.6-10.2 0.6-10.2-5.1-5.7-4.2-27.7-4.2-27.7-3-11.2-3.5-24.7-3.5-24.7-2.5-2.8-6.5-14.7-6.5-14.7-1.4 5.4-1.1 11.2-1.1 11.2 0.4 2.5-0.2 6.3-0.2 6.3 1.3 6.1 1 12.2 1 12.2 1.7 16.1-0.1 19.5-0.1 19.5-1.3 3-0.6 6.4-0.6 6.4 5.1 8.8 2.7 13.1 2.7 13.1z"/>
		<path id="Фигура_20_копия" fill-rule="evenodd" class="s9" d="m89.7 278.4c-3.3 8.2-16.3 8.6-16.3 8.6 15.5 0.1 16.3-8.6 16.3-8.6z"/>
		<path id="Фигура_21_копия" fill-rule="evenodd" class="s46" d="m80.5 327.9c8.4-1.5 9.9-13.2 9.9-13.2-2.2 11.1-9.9 13.2-9.9 13.2z"/>
		<path id="Фигура_22_копия" fill-rule="evenodd" class="s46" d="m93.2 329c-7.7 3.6-12.6-0.3-12.6-0.3 4.4 3 12.6 0.3 12.6 0.3z"/>
		<path id="Фигура_23_копия" fill-rule="evenodd" class="s46" d="m106.8 327.3c6.5 5.1 16.5 0 16.5 0-9.7 3.9-16.5 0-16.5 0z"/>
		<path id="Фигура_24_копия" fill-rule="evenodd" class="s46" d="m103 299.2c10.9 3.4 15.9-8.6 15.9-8.6-5.5 10.3-15.9 8.6-15.9 8.6z"/>
		<path id="Фигура_25_копия" fill-rule="evenodd" class="s9" d="m94.1 246.3c12.3 6.6 22.6-9.9 22.6-9.9-10.5 14.9-22.6 9.9-22.6 9.9z"/>
		<path id="Фигура_19_копия" fill-rule="evenodd" class="s9" d="m85.3 223.8c-2 6.1 3.1 19.8 3.1 19.8l2.2-0.4c-2.6-9.6-3.3-19.3-3.3-19.3z"/>
		<path id="Фигура_9_копия" fill-rule="evenodd" class="s9" d="m71.9 214.7c2.9 0.9 32.3-1 32.3-1l0.1 4.1c-15 2.1-32 1.1-32 1.1z"/>
		<path id="Фигура_7_копия" fill-rule="evenodd" class="s16" d="m82 156.7c3.2 0.9 1.9 2.8 1.9 2.8-3.7 4.7-4.1 13.9-4.1 13.9-2.7 12.4-2 40-2 40l5.7 6.2 5.7-5.9c-0.6-9.9 0-24.9 0-24.9-0.7-5 0.3-18.1 0.3-18.1 0.1-7.9-2.6-10.8-2.6-10.8-1.1-2.5 1.1-4.4 1.1-4.4l-0.5-2.2-4.2 0.1z"/>
		<path id="Фигура_10_копия" fill-rule="evenodd" class="s47" d="m94.1 146c-0.2-1.3 0.5-4.6 0.5-4.6q0.1-0.3 0.1-0.7 0.1-0.4 0.1-0.7 0.1-0.4 0.1-0.7 0-0.4 0-0.8c1.7 0.8 2.5-3.4 2.5-3.4 1-6.1-1.1-4.8-1.1-4.8-0.7 0.3-1 1.5-1 1.5l-0.8-4.3-0.3-2.2-1.4-1.6-4.5-1.3c0 0-5.2 0.1-5.4 0.1-0.3 0-4.6 0.8-4.8 0.9-0.2 0.1-1.8 1.7-1.9 1.9-0.2 0.2-1.1 3.1-1.1 3.1l0.2 4.6c-2.3-2.3-2 0.2-2 0.2-0.3 5.4 3.5 7 3.5 7 0.4 4 1.4 4.4 1.4 4.4 0.8 1.4 0.4 3.5 0.4 3.5l1.8 3.9 2 1.6 5.5 0.7 4.1-3.8z"/>
		<path id="Фигура_10_копия copy" fill-rule="evenodd" class="s10" d="m94.1 146c-0.2-1.3 0.5-4.6 0.5-4.6q0.1-0.3 0.1-0.7 0.1-0.4 0.1-0.7 0.1-0.4 0.1-0.7 0-0.4 0-0.8c1.7 0.8 2.5-3.4 2.5-3.4 1-6.1-1.1-4.8-1.1-4.8-0.7 0.3-1 1.5-1 1.5l-0.8-4.3-0.3-2.2-1.4-1.6-4.5-1.3c0 0-5.2 0.1-5.4 0.1-0.3 0-4.6 0.8-4.8 0.9-0.2 0.1-1.8 1.7-1.9 1.9-0.2 0.2-1.1 3.1-1.1 3.1l0.2 4.6c-2.3-2.3-2 0.2-2 0.2-0.3 5.4 3.5 7 3.5 7 0.4 4 1.4 4.4 1.4 4.4 0.8 1.4 0.4 3.5 0.4 3.5l1.8 3.9 2 1.6 5.5 0.7 4.1-3.8z"/>
		<path id="Фигура_13_копия" fill-rule="evenodd" class="s31" d="m82 142.4c3.3 6.1 7.4-0.2 7.4-0.2z"/>
		<path id="Фигура_12_копия" fill-rule="evenodd" class="s48" d="m92.6 144.6c-5.3 7.5-12.3 1.7-12.3 1.7 7.5 7.1 12.3-1.7 12.3-1.7z"/>
		<path id="Фигура_8_копия" fill-rule="evenodd" class="s49" d="m78.7 147c-1.1 1.8-1.1 5-1.1 5 0.3 5.1 2.5 9.6 2.5 9.6 1.1-0.7 3.2-6 3.2-6 0.2-0.8 1.6-1.3 1.6-1.3l1.8 0.5c2.2 4 4.6 5.9 4.6 5.9 1.1-1.3 3.5-6.3 3.5-6.3 2.4-5.4-0.6-9.3-0.6-9.3-0.3 2.6-8.3 7.8-8.3 7.8-1.1 0.4-1.6 0-1.6 0-6.5-3.7-5.6-5.9-5.6-5.9z"/>
		<path id="Фигура_15_копия" fill-rule="evenodd" class="s10" d="m119.2 232.1l-2.3 3.3-2-2.1-0.4-3 2.4-1.7z"/>
		<path id="Фигура_16_копия" fill-rule="evenodd" class="s50" d="m114.3 230.4l3.2-1.7 0.3-3.5-3.1-8.1-1.1-2.9-2.9 3.5 2 9.9z"/>
		<path id="Фигура_14_копия" fill-rule="evenodd" class="s10" d="m52.2 239.4c-0.1 1-0.2 3.9-0.2 3.9-0.5 1.5 1.1 2.7 1.1 2.7 1.1 3.5 2.9 4.9 2.9 4.9 1.5 1.6 5.8 2.8 5.8 2.8 0.7 0.2 0.6-0.6 0.6-0.6 1-0.8-0.3-1.7-0.3-1.7-0.1-1.1-2-1.3-2-1.3l-0.6-0.6c2.5-0.5-0.9-1.8-0.9-1.8 0.1-0.5-0.8-1.6-0.8-1.6 0.3-0.2-0.2-2.2-0.2-2.2 1-0.2 1.4-0.9 1.4-0.9 0.3 3.5 2.2 5.1 2.2 5.1 2.3 1 2-0.9 2-0.9-0.3-3.2-1-4.2-1-4.2-0.6-1.3-0.6-4.1-0.6-4.1l-2.1-1.8-4.2-0.8-1.8 1.7z"/>
		<path id="Фигура_2_копия" fill-rule="evenodd" class="s9" d="m108 342.6c1.1 2.5 0.4 3.4 0.4 3.4-1.4 2-1 4.5-1 4.5-2.3 3.6 2.8 3.8 2.8 3.8 2 0.1 7.6 0.2 7.6 0.2 5.6-0.9 3.4-4.7 3.4-4.7-0.3-2-1.5-3.3-1.5-3.3-0.4-1.2 0.2-3.7 0.2-3.7l-3.4-2.3-5.5-1.5c0 0-2.7 1.3-2.7 1.5 0 0.3-0.3 2.1-0.3 2.1z"/>
		<path id="Фигура_4_копия" fill-rule="evenodd" class="s51" d="m69.5 254.8c-2.3-2-2.1-3.3-2.1-3.3-2.8-21.1-0.2-42.3-0.2-42.3-0.9-1.9-0.3-5.5-0.3-5.5-0.3-1 0.3-6.4 0.3-6.4l-0.5-1.3c-0.5 3-1.7 5.3-1.7 5.3 0.6 5.1-1.3 11.8-1.3 11.8 0.4 2.6-1.6 12.4-1.6 12.4 0.4 3.5-0.5 9.1-0.5 9.1-0.2 1.2 0.2 3.6 0.2 3.6 0.1 0.4-0.2 0.5-0.2 0.5 0-1.3-1.4-1.3-1.4-1.3-3.7-0.5-6.4 0.9-6.4 0.9-1.4 0.2-1.6 0.6-1.6 0.6-0.1 0.6 0 1.3 0 1.3-0.8 0.2-1.7-0.8-1.7-0.8 0.5-3.5-0.5-18.7-0.5-18.7-0.3-26.7 4.3-42.8 4.3-42.8-0.2-7.6 2-14.8 2-14.8-0.2-6.3 2-5 2-5 4.5-3.1 16.5-6.5 16.5-6.5 2.6-2.2 3.3-3.7 3.3-3.7l-0.1 2c-3.2 13.8-1.2 28.5-1.2 28.5 1 12.3-0.2 34.5-0.2 34.5 0.3 27.3-7.1 41.9-7.1 41.9z"/>
		<path id="Фигура_5_копия" fill-rule="evenodd" class="s51" d="m94.7 146.1c2.3 1.5-2.3 25.5-2.3 25.5-1.5 8.8-1.1 18.5-1.1 18.5-1.2 6.6-0.5 23.9-0.5 23.9 0.3 11.3 6.7 21.1 6.7 21.1 0.8 1 3 1.8 3 1.8 15.3 5.4 15.2-1 15.2-1 0.3-1.9 0-4.4 0-4.4 0.9-1.6 0.3-5.5 0.3-5.5-0.9-1.4-0.8-6.1-0.8-6.1 0.9-0.2-1.5-1.3-1.5-1.3 0.4-1 0-1.2 0-1.2-0.6-0.9 0.4-2.6 0.4-2.6-0.4-3.1-1.1-3.5-1.1-3.5-0.1-5.3-2.2-11.2-2.2-11.2-0.6-8.4 1.1-13.5 1.1-13.5 1.6-1.2 1.5-3.4 1.5-3.4-0.1 2.1 1.8 5.1 1.8 5.1-0.3 3.1 0.5 6.3 0.5 6.3 1.4 4.6 0.6 9.7 0.6 9.7-0.7 1.7-0.2 4.5-0.2 4.5 0.1 1.6 1 3 1 3l-4.5 4.5 1.1 6.3 1.1 5.6 7.2 6.7c4.5-9.6 7.7-25.5 7.7-25.5 3-15 1.2-19 1.2-19-1-8.5-3.8-14.1-3.8-14.1-1-7.3-3.1-9.9-3.1-9.9-1.1-5.5-2.4-6.5-2.4-6.5-1-8.2-4.7-6.7-4.7-6.7-6.6-1.6-17.8-3.3-17.8-3.3-1.9-0.6-2.6-1.9-2.6-1.9-0.8-1.4-1.8-1.9-1.8-1.9z"/>
		<path id="Фигура_17_копия" fill-rule="evenodd" class="s50" d="m115.4 155.5c-7.2 1.7-3.1 19.5-3.1 19.5-2.7-18.3 3.1-19.5 3.1-19.5z"/>
		<path id="Фигура_18_копия" fill-rule="evenodd" class="s52" d="m67.1 191.8c4.9-22.2-2.7-30.9-2.7-30.9 6.3 11.2 2.7 30.9 2.7 30.9z"/>
		<path id="Фигура_11_копия" fill-rule="evenodd" class="s9" d="m96.5 130c-1.7 2.9-1.2 6-1.2 6-1.2-2.5-1.3-5.9-1.3-5.9-2.9-1.3-2.9-4.8-2.9-4.8-8.4 1.5-10.7-0.1-10.7-0.1l-0.1-0.2c-3 0.2-3.6 2.4-3.6 2.4 1.9 2-0.4 3.3-0.4 3.3-0.9 1.5-0.1 6.5-0.1 6.5-0.8-4.6-1.8-5-1.8-5-2.4-7.8 0.2-9.8 0.2-9.8 1.2-4 5.7-5.9 5.7-5.9 5.7-3.4 9.6 0.3 9.6 0.3-1 0.2-0.1 0.7-0.1 0.7 8.4-1 6.7 12.5 6.7 12.5z"/>
		<path id="Прямоугольник_скругл._углы_1_копия_2" fill-rule="evenodd" class="s9" d="m79.7 133.2h2.6q0.1 0 0.2 0 0.1 0.1 0.2 0.1 0 0.1 0.1 0.2 0 0.1 0 0.2v0.3q0 0.1 0 0.2-0.1 0.1-0.1 0.2-0.1 0-0.2 0.1-0.1 0-0.2 0h-2.6q-0.1 0-0.2 0-0.1-0.1-0.1-0.1-0.1-0.1-0.2-0.2 0-0.1 0-0.2v-0.3q0-0.1 0-0.2 0.1-0.1 0.2-0.2 0 0 0.1-0.1 0.1 0 0.2 0z"/>
		<path id="Прямоугольник_скругл._углы_1_копия_2-2" fill-rule="evenodd" class="s9" d="m88.2 132.8h2.6q0.1 0 0.2 0 0.1 0 0.1 0.1 0.1 0.1 0.1 0.2 0.1 0 0.1 0.1v0.4q0 0.1-0.1 0.2 0 0.1-0.1 0.1 0 0.1-0.1 0.1-0.1 0.1-0.2 0.1h-2.6q-0.1 0-0.2-0.1-0.1 0-0.2-0.1 0 0-0.1-0.1 0-0.1 0-0.2v-0.4q0-0.1 0-0.1 0.1-0.1 0.1-0.2 0.1-0.1 0.2-0.1 0.1 0 0.2 0z"/>
	</g>
	<g id="&lt;Group&gt;">
		<g id="&lt;Group&gt;">
			<g id="&lt;Group&gt;">
				<g id="&lt;Group&gt;">
					<path id="&lt;Compound Path&gt;" fill-rule="evenodd" class="s53" d="m425.5 196.9l-1.2 0.1h1.2c0 0.3-0.2 0.5-0.5 0.5h-0.9c-0.1 0-0.3-0.1-0.3-0.3q0.1-0.1 0.1-0.2c0-0.9-0.7-1.5-1.6-1.5-0.7 0.1-1.3 0.6-1.3 1.3q0 0.2 0 0.4c0 0.2-0.1 0.3-0.3 0.3h-0.8v-4.8h0.8l1.5 0.1q0.2 0.1 0.3 0.3l0.6 1.2 1.4 0.1q0.2 0 0.2 0.1l-2.7 0.1 3.3 0.1q0.1 0 0.2 0.1l-2.1 0.1 2.1 0.1q0 0.1 0 0.1zm-2.9-2.7l-0.5-1q0 0 0 0c-0.1-0.2-0.3-0.3-0.4-0.3h-1.4v1.3z"/>
					<path id="&lt;Compound Path&gt;" fill-rule="evenodd" class="s53" d="m422.4 198.1c-0.6 0-1.1-0.5-1.1-1.1 0-0.7 0.5-1.2 1.1-1.2 0.6 0 1.1 0.5 1.1 1.2 0 0.6-0.5 1.1-1.1 1.1zm0.6-1.1c0-0.3-0.3-0.6-0.6-0.6-0.3 0-0.5 0.3-0.5 0.6 0 0.3 0.2 0.5 0.5 0.5 0.3 0 0.6-0.2 0.6-0.5z"/>
					<path id="&lt;Path&gt;" class="s7" d="m419.1 193.7c0-0.7-0.4-1.3-1-1.6q-0.4-0.2-0.8-0.2h-0.4-3.6-5.3c0 0.9 0.7 1.6 1.6 1.6h6.9c0.3 0 0.5 0.2 0.5 0.4h-7.4c0 0.9 0.8 1.6 1.7 1.6h5.8c0.2 0 0.4 0.2 0.5 0.4h-6.3c0 0.9 0.7 1.6 1.6 1.6h5.5 0.7z"/>
				</g>
			</g>
			<g id="&lt;Group&gt;">
				<path id="&lt;Path&gt;" class="s53" d="m419.7 197.5h-0.3v-5.1c0-0.6-0.5-1.1-1.1-1.1h-0.1v-0.3h0.1c0.7 0 1.4 0.6 1.4 1.4z"/>
			</g>
		</g>
		<path id="&lt;Path&gt;" class="s53" d="m421.7 192.6l-1 0.1h-0.8v-0.5h0.7c0.4 0 0.8 0.2 1.1 0.4z"/>
	</g>
</svg>