<svg version="1.2" xmlns="http://www.w3.org/2000/svg" viewBox="0 0 1100 400" width="1100" height="400">
	<title>big-truck-svg</title>
	<style>
		tspan { white-space:pre } 
		.s0 { fill: #4897d8 } 
		.s1 { fill: #292929 } 
		.s2 { fill: #ff7a06 } 
		.s3 { fill: #ffdb5c } 
		.s4 { fill: #1f1f1f } 
		.s5 { fill: #393939 } 
		.s6 { fill: #e3e0c2 } 
		.s7 { fill: none;stroke: #878787;stroke-width: 12 } 
		.s8 { fill: #f5f5f5 } 
		.s9 { fill: #d78138 } 
		.s10 { fill: #ffb492 } 
		.s11 { fill: #e3b55f } 
		.s12 { fill: #df855c } 
		.s13 { fill: #d3a756 } 
		.s14 { fill: #eec069 } 
		.s15 { fill: #c57659 } 
		.s16 { fill: #df7c4f } 
		.s17 { fill: #9f9f9f } 
		.s18 { fill: #7b963b } 
		.s19 { fill: #d8d8d8 } 
		.s20 { fill: #b7b7b7 } 
		.s21 { fill: #445d82 } 
		.s22 { fill: #db7a4e } 
		.s23 { fill: #2a76b5 } 
		.s24 { fill: #c87835 } 
		.s25 { fill: #263238 } 
	</style>
	<path id="Прямоугольник_7_копия" class="s0" d="m274.4 52h805.6v215h-805.6z"/>
	<path id="Прямоугольник_3_копия_2" fill-rule="evenodd" class="s1" d="m336.3 268.8h44.3q1.4 0 2.7 0.5 1.3 0.5 2.2 1.5 1 1 1.6 2.3 0.5 1.3 0.5 2.7v0.1q0 1.4-0.5 2.7-0.6 1.3-1.6 2.3-0.9 1-2.2 1.5-1.3 0.5-2.7 0.5h-44.3q-1.4 0-2.7-0.5-1.3-0.5-2.3-1.5-1-1-1.5-2.3-0.5-1.3-0.5-2.7v-0.1q0-1.4 0.5-2.7 0.5-1.3 1.5-2.3 1-1 2.3-1.5 1.3-0.5 2.7-0.5z"/>
	<path id="Прямоугольник_3_копия_2-2" fill-rule="evenodd" class="s1" d="m470.5 268.8h4.1q1.4 0 2.7 0.5 1.3 0.5 2.3 1.5 0.9 1 1.5 2.3 0.5 1.3 0.5 2.7v21q0 1.3-0.5 2.6-0.6 1.3-1.5 2.3-1 1-2.3 1.5-1.3 0.5-2.7 0.6h-4.1q-1.4-0.1-2.6-0.6-1.3-0.5-2.3-1.5-1-1-1.5-2.3-0.6-1.3-0.6-2.6v-21q0-1.4 0.6-2.7 0.5-1.3 1.5-2.3 1-1 2.3-1.5 1.2-0.5 2.6-0.5z"/>
	<g id="Папка 2">
		<path id="Фигура_11_копия_3 copy 2" fill-rule="evenodd" class="s2" d="m1070.9 262.3c8.1-0.4 7.7-4.5 7.7-4.5v-118.3l-171 52.9-140.9 25.7-121 1.1-75.6-7.6-82.8-14.3-63.8-9.8-57.9-7.8-52.8-1.9-42.8 2.7v77.5c0.7 4.5 7.7 4.3 7.7 4.3z"/>
		<path id="Фигура_10_копия_4" fill-rule="evenodd" class="s3" d="m272 186.3v-28.1l6.4-0.1v-0.2c1.5-0.2 4.1 0.1 5.6-0.1l22.6-0.2h6.9v0.2h1.6q0.8 0 1.7-0.1 0.9 0 1.7 0.1 0.9 0 1.8 0 0.8 0.1 1.7 0.1l14.1 0.3v0.2h3.3v0.1h3.4v0.1h2.8v0.2h2.8v0.1h2.6v0.2h2.3v0.1h2.3v0.2h2.3v0.1h2.3l28.7 2.5c1.7 0.2 4 0.4 5.7 0.7h1.3c1.5 0.2 3.6 0.4 5.1 0.7h1.3c4.4 0.8 9.7 1.1 14.1 1.9l4.6 0.4c5.9 1.1 12.7 1.6 18.5 2.7l5.1 0.6c4.1 0.8 9 1.3 13.1 2.1l2 0.2c2.8 0.5 6.2 1 9 1.6l2 0.1c6.9 1.4 14.7 2.2 21.6 3.6h1v0.1h0.8v0.2l1.8 0.1v0.2l1.8 0.1v0.1l1.8 0.2v0.1h1v0.2h0.8v0.1l2.8 0.3v0.2l1.8 0.1v0.1l1.8 0.2v0.1l2 0.2v0.1h0.8v0.2l2.8 0.2v0.2l1.8 0.1v0.2l2.1 0.1v0.2h0.7v0.1h1.1v0.1h1v0.2l1.8 0.1v0.2h1v0.1l2.1 0.2c6.5 1.3 14.2 1.9 21 3.1l2.3 0.2c3.1 0.5 6.9 0.8 10 1.4h1.3v0.1h1v0.2h1.3c3 0.5 6.7 0.7 9.7 1.3l2.8 0.1c4.4 0.8 9.7 0.9 14.2 1.6h1.5c1.3 0.2 3.3 0.4 4.6 0.6h1.8c2 0.3 4.9 0.4 6.9 0.7l10.3 0.6c3.5 0.5 8.5 0.3 12 0.8h3.1v0.2h2.8v0.1h3.6v0.2h2.8l5.2 0.1v0.1l12 0.2c2.8 0.4 8 0.1 11.3 0.1h11.8q0.8 0.1 1.6 0.1 0.7 0 1.5 0 0.8-0.1 1.5-0.1 0.8 0 1.6-0.1h6.1v-0.2h4.9v-0.1h3.6v-0.1h3.3v-0.2h3.1v-0.1h2.6v-0.2h2.5v-0.1h2.6c3.6-0.6 8.2-0.4 11.8-1l3.6-0.2c2.7-0.4 6.3-0.5 9-1h1.5c1.6-0.2 3.8-0.4 5.4-0.7h1.3c1.4-0.2 3.4-0.4 4.8-0.7h1.3c3.4-0.6 7.5-0.9 10.8-1.6l5.1-0.6v-0.1h0.8v-0.1l2.8-0.3v-0.2l2.8-0.3v-0.1l1.8-0.1v-0.2h1v-0.1l2.6-0.3v-0.2h0.8v-0.1h0.8v-0.1h1v-0.2l2.5-0.3v-0.1l1.6-0.2v-0.1h0.8v-0.2h0.7v-0.1h0.8v-0.1h0.8v-0.2h1v-0.1l2.3-0.3v-0.2h0.5v-0.1h0.8v-0.1h0.7v-0.2h0.8v-0.1h0.8v-0.2l2.3-0.3c1.1-0.2 2.5-0.6 3.6-0.8l1.5-0.2v-0.1h0.5v-0.2l1.6-0.1v-0.1h0.5v-0.2h0.7v-0.1h0.8v-0.2h0.5v-0.1l1.6-0.2v-0.1h0.5v-0.1h0.8v-0.2h0.5v-0.1l1.5-0.2v-0.1h0.5v-0.2h0.8v-0.1h0.5v-0.1l1.3-0.2v-0.1h0.8v-0.2l1.2-0.1v-0.2h0.5v-0.1h0.8v-0.2l1-0.1v-0.1h0.8v-0.2h0.5v-0.1h0.8v-0.2l1-0.1v-0.2h0.8v-0.1h0.5v-0.1h0.8v-0.2l1-0.1v-0.2h0.5v-0.1h0.8v-0.2l1-0.1v-0.2h0.8v-0.1h0.5v-0.1l1-0.2v-0.1h0.8v-0.2h0.5v-0.1h0.5v-0.2h0.5v-0.1h0.8v-0.1h0.5v-0.2h0.5v-0.1l1-0.2v-0.1h0.8v-0.2h0.5v-0.1h0.5v-0.1h0.5v-0.2l1.6-0.3v-0.1h0.8v-0.2l1.5-0.3v-0.1h0.5v-0.1h0.5v-0.2h0.5v-0.1h0.5v-0.2l1.1-0.1v-0.2h0.7v-0.1h0.6v-0.1l1-0.2v-0.1l1-0.2v-0.1l1-0.2v-0.1h0.5v-0.1h0.6v-0.2h0.5v-0.1h0.5v-0.2h0.5v-0.1l4.1-1 0.3-0.3 1.5-0.3v-0.1h0.5v-0.2h0.5v-0.1h0.5v-0.2h0.5v-0.1h0.6v-0.2l1-0.1 0.2-0.3h0.6v-0.1h0.5v-0.2h0.5v-0.1h0.5v-0.2l1-0.1 0.3-0.3 1-0.1v-0.2h0.5v-0.1h0.5v-0.2h0.5l0.3-0.3h0.5v-0.1h0.5v-0.1h0.5v-0.2h0.6q0.1-0.1 0.2-0.3l1-0.1v-0.2h0.6v-0.1h0.5l0.2-0.3h0.5v-0.1h0.5v-0.2h0.6v-0.1h0.5q0.1-0.2 0.2-0.3l1.6-0.3q0.1-0.1 0.2-0.3l1.6-0.3 0.2-0.3 1-0.1 0.3-0.3 1-0.1q0.2-0.2 0.3-0.3l1.5-0.3q0.1-0.2 0.3-0.3l1-0.1 0.3-0.3 1-0.2 0.2-0.3 1.1-0.1 0.2-0.3 1-0.1q0.2-0.2 0.3-0.3l1-0.2 0.3-0.2h0.5v-0.2h0.5l0.3-0.3h0.5q0.1-0.1 0.2-0.3l1.1-0.1 0.2-0.3h0.5l0.3-0.3 1-0.1v-0.2l0.8-0.1 0.2-0.3 1.1-0.1v-0.2l0.7-0.1 0.3-0.3 1-0.2q0.1-0.1 0.3-0.2h0.5l0.2-0.3h0.6q0.1-0.2 0.2-0.3h0.5q0.2-0.2 0.3-0.3l1-0.2 0.3-0.2h0.5v-0.2l0.7-0.1 0.3-0.3h0.5l0.3-0.3 0.7-0.1v-0.2l1.1-0.1q0.1-0.2 0.2-0.3h0.5v-0.2l0.8-0.1q0.1-0.2 0.3-0.3h0.5l0.2-0.3h0.5v-0.1l0.8-0.2q0.1-0.1 0.3-0.3h0.5l0.5-0.4h0.5l0.3-0.3 0.7-0.1v-0.2h0.5q0.2-0.1 0.3-0.2h0.5l0.3-0.3h0.5q0.1-0.2 0.2-0.3h0.6l0.2-0.3h0.5l0.5-0.4h0.6q0.1-0.2 0.2-0.3h0.5v-0.2l0.8-0.1q0.1-0.2 0.2-0.3h0.6l0.5-0.4h0.5v-0.2l0.8-0.1 0.2-0.3h0.5l0.5-0.4h0.6l0.2-0.3h0.5l0.5-0.4h0.5q0.2-0.2 0.3-0.3h0.5l0.5-0.5h0.5q0.2-0.1 0.3-0.3h0.5l0.3-0.2 0.7-0.2 0.5-0.4h0.6q0.1-0.2 0.2-0.3h0.5l0.3-0.3 0.8-0.1 0.5-0.5h0.5q0.1-0.1 0.2-0.2h0.6l0.5-0.5h0.5l0.5-0.4h0.5l0.5-0.4h0.5l0.5-0.5h0.6l0.5-0.4h0.5l0.5-0.4h0.5l0.5-0.5h0.5l0.5-0.4h0.6l0.7-0.6h0.5l0.6-0.4h0.5l0.5-0.4h0.5l0.8-0.6 0.7-0.1 0.3-0.3h0.5l0.8-0.6h0.5q0.2-0.2 0.5-0.4h0.5l0.8-0.6 0.7-0.2q0.2-0.1 0.3-0.2h0.5l0.8-0.6h0.5l0.8-0.6h0.5l0.8-0.6h0.5l0.7-0.5h0.5l0.8-0.6h0.5l1.1-0.7h0.5l0.7-0.6h0.6l1-0.7h0.5l0.2-0.3h0.3q0.1-0.2 0.3-0.3h0.5l0.2-0.3 0.8-0.3v-0.1h0.5l1-0.7h0.5q0.2-0.2 0.3-0.3l0.8-0.3v-0.1h0.5l1-0.8h0.5l1.3-0.8h0.5l1.3-0.9h0.5l1-0.7h0.6l1.5-1h0.5l1.3-0.9h0.5l1.5-1h0.6l1.5-1h0.5l1.8-1.1h0.5l1.8-1.2h0.5l2.1-1.3h0.5l2.3-1.4h0.5l2.3-1.4h0.5l2.1-1.3 1-0.4v-0.2h0.5l3.3-2h0.6q2.1-1.3 4.3-2.6h0.5l1.6-1 4.1-2.1q0.7-0.5 1.5-1 1-0.5 2.1-1 1-0.5 2-1.1 1-0.5 1.9-1.1 1-0.5 2-1.1c2.6-1.5 5.5-2.8 7.7-4.5q2.9-1.6 5.9-3.1 0.6-0.5 1.2-0.9l0.5-0.2v-0.3q2.5-1.2 4.9-2.5v-0.3l3.9-2v-0.3q1.3-0.7 2.5-1.3 1.3-0.9 2.6-1.7 0.6-0.3 1.3-0.6v-0.3q1.4-0.7 2.8-1.4v-0.3q1.1-0.6 2.3-1.2v-0.3q1.3-0.6 2.6-1.2v-0.3q1-0.5 2-1v-0.3q1.1-0.5 2.1-1v-0.3q1-0.5 2-1v-0.3q1.1-0.5 2.1-1v-0.3h0.2q0.4-0.3 0.8-0.6 0.4-0.1 0.8-0.3v-0.2q0.9-0.5 1.8-0.9v-0.3q0.7-0.4 1.5-0.7v-0.3q0.8-0.4 1.5-0.7v-0.3l1.8-0.9v-0.3q0.8-0.3 1.6-0.7v80.2q-0.4 0.2-0.8 0.3v0.2h-0.5l-0.5 0.4h-0.5l-0.5 0.4h-0.6q-0.3 0.3-0.7 0.6h-0.5l-0.5 0.4q-0.4 0.1-0.8 0.2-0.1 0.1-0.3 0.3h-0.5l-0.5 0.4h-0.5l-0.5 0.4h-0.5q-0.3 0.2-0.6 0.5h-0.5l-0.5 0.4h-0.5q-0.3 0.2-0.5 0.4h-0.5l-0.5 0.5h-0.5l-0.6 0.4h-0.5q-0.1 0.1-0.2 0.3h-0.5l-0.5 0.4h-0.6l-0.5 0.4h-0.5q-0.2 0.2-0.5 0.5h-0.5l-0.5 0.4h-0.5q-0.2 0.1-0.3 0.3h-0.5q-0.3 0.2-0.5 0.4h-0.5l-0.5 0.4h-0.6q-0.1 0.2-0.2 0.3h-0.5q-0.2 0.2-0.3 0.3-0.4 0.1-0.8 0.2l-0.5 0.4h-0.5q-0.1 0.1-0.2 0.3h-0.6l-0.5 0.4h-0.5q-0.1 0.2-0.2 0.3h-0.5l-0.6 0.4h-0.5q-0.1 0.2-0.2 0.3h-0.5l-0.6 0.4h-0.5q-0.1 0.2-0.2 0.3h-0.5l-0.5 0.5h-0.6q-0.1 0.1-0.2 0.2h-0.5l-0.5 0.5h-0.6v0.1q-0.3 0.1-0.7 0.2-0.2 0.1-0.3 0.3h-0.5l-0.5 0.4h-0.5v0.1q-0.4 0.1-0.8 0.2-0.1 0.1-0.2 0.3h-0.6l-0.5 0.4h-0.5q-0.1 0.1-0.2 0.3h-0.6v0.1q-0.3 0.1-0.7 0.2-0.2 0.1-0.3 0.2h-0.5l-0.5 0.5h-0.5q-0.1 0.1-0.3 0.3h-0.5v0.1l-0.8 0.2q-0.1 0.1-0.2 0.2h-0.5q-0.3 0.3-0.5 0.5h-0.6q-0.1 0.1-0.2 0.3-0.4 0-0.8 0.1v0.1h-0.5q-0.1 0.2-0.2 0.3h-0.6q-0.1 0.2-0.2 0.3h-0.5q-0.2 0.2-0.3 0.3h-0.5q-0.1 0.2-0.3 0.3h-0.5q-0.1 0.1-0.2 0.3h-0.5q-0.2 0.1-0.3 0.3h-0.5q-0.1 0.1-0.3 0.3h-0.5q-0.1 0.1-0.2 0.2h-0.5q-0.3 0.3-0.6 0.5h-0.5q-0.1 0.1-0.2 0.3l-0.8 0.1v0.1h-0.5q-0.1 0.2-0.3 0.3h-0.5q-0.1 0.2-0.2 0.3-0.6 0.1-1.1 0.2-0.1 0.1-0.2 0.2h-0.5q-0.2 0.2-0.3 0.3h-0.5q-0.1 0.2-0.3 0.3h-0.5q-0.1 0.2-0.2 0.3h-0.5v0.2q-0.4 0-0.8 0.1-0.1 0.1-0.3 0.3h-0.5q-0.1 0.1-0.2 0.3h-0.6q-0.1 0.1-0.2 0.3h-0.5q-0.2 0.1-0.3 0.2-0.5 0.1-1 0.2-0.1 0.1-0.3 0.3h-0.5v0.1q-0.4 0.1-0.7 0.2-0.2 0.1-0.3 0.2h-0.5q-0.1 0.2-0.3 0.3l-0.7 0.2v0.1l-1.1 0.2q-0.1 0.1-0.2 0.3h-0.5q-0.2 0.1-0.3 0.2h-0.5q-0.1 0.2-0.3 0.3l-1 0.2q-0.1 0.1-0.2 0.3h-0.6q-0.1 0.1-0.2 0.2h-0.5q-0.1 0.2-0.3 0.3l-1 0.2v0.1q-0.4 0.1-0.8 0.2-0.1 0.1-0.2 0.3l-1.1 0.1v0.1q-0.3 0.1-0.7 0.2-0.1 0.1-0.3 0.3l-1 0.1-0.3 0.3h-0.5l-0.2 0.3-1.1 0.1q-0.1 0.2-0.2 0.3l-1 0.2-0.3 0.2-1 0.2v0.1l-0.8 0.2q-0.1 0.1-0.2 0.3l-1.1 0.1-0.2 0.3-1.1 0.1-0.2 0.3-1 0.2-0.3 0.3-1 0.1q-0.1 0.1-0.3 0.3l-1 0.1-0.3 0.3-1 0.2-0.2 0.2-1.1 0.2-0.2 0.3-1 0.1q-0.2 0.2-0.3 0.3h-0.5v0.2h-0.5l-0.3 0.2-1 0.2-0.3 0.3-1.5 0.3q-0.1 0.1-0.3 0.2l-1.5 0.3q-0.1 0.2-0.3 0.3l-1 0.2-0.2 0.2-1.6 0.3-0.2 0.3-1.6 0.3-0.2 0.3-1.6 0.3-0.2 0.3-1.6 0.3-0.2 0.2-1 0.2v0.1h-0.6v0.2h-0.5q-0.1 0.1-0.2 0.3h-0.5v0.1h-0.6v0.1h-0.5v0.2h-0.5l-0.2 0.3h-0.5v0.1h-0.6v0.2h-0.5v0.1h-0.5l-0.2 0.3h-0.6v0.1h-0.5v0.2h-0.5v0.1h-0.5v0.2h-0.5l-0.3 0.3h-0.5v0.1h-0.5v0.1h-0.5v0.2h-0.5v0.1h-0.5l-0.3 0.3h-0.5v0.2h-0.5v0.1h-0.5v0.1h-0.5v0.2h-0.6v0.1h-0.5v0.2h-0.5q-0.1 0.1-0.2 0.3h-0.5v0.1h-0.6v0.2h-0.5v0.1h-0.5v0.1h-0.5v0.2l-1 0.1q-0.2 0.2-0.3 0.3l-1 0.2v0.1h-0.5v0.1h-0.5v0.2h-0.5v0.1h-0.6v0.2l-1 0.1v0.2l-1 0.1v0.1l-1.5 0.3-0.3 0.3-1 0.2v0.1h-0.5v0.2h-0.6v0.1h-0.5v0.1h-0.5v0.2h-0.5v0.1l-1 0.2v0.1l-1 0.2v0.1l-1.1 0.1v0.2h-0.5v0.1h-0.5v0.2h-0.5v0.1h-0.5v0.2l-1.6 0.2v0.2l-1 0.1v0.2h-0.8v0.1l-1.5 0.3v0.2h-0.5v0.1h-0.5v0.1h-0.5v0.2h-0.6v0.1h-0.5v0.2h-0.5v0.1h-0.5v0.2h-0.5v0.1h-0.5v0.1h-0.5v0.2h-0.8v0.1l-1 0.2v0.1h-0.5v0.2h-0.5v0.1l-1.6 0.3v0.1l-2.3 0.5v0.1l-1 0.2v0.1h-0.8v0.1h-0.5v0.2l-1.5 0.3v0.1h-0.8v0.2h-0.5v0.1l-1.6 0.3v0.1h-0.7v0.2h-0.5v0.1l-1.1 0.2v0.1h-0.7v0.1h-0.6v0.2l-1 0.1v0.2h-0.7v0.1h-0.6v0.2l-1 0.1v0.2h-0.8v0.1l-1 0.1v0.2h-0.7v0.1l-1.1 0.2v0.1h-0.7v0.2l-1.1 0.1v0.1h-0.7v0.2l-1.1 0.1v0.2h-0.7v0.1h-0.5v0.2h-0.8v0.1l-1 0.2v0.1h-0.8v0.1h-0.5v0.2h-0.8v0.1l-1 0.2v0.1h-0.8v0.2h-0.5v0.1l-1.3 0.1v0.2h-0.8v0.1h-0.5v0.2l-1.2 0.1v0.2h-0.8v0.1h-0.5v0.1h-0.8v0.2h-0.5v0.1h-0.8v0.2h-0.5v0.1l-1.5 0.2v0.1l-1.3 0.1v0.2h-0.5v0.1h-0.8v0.2h-0.5v0.1l-1.6 0.2v0.1h-0.5v0.2l-1.5 0.1v0.1h-0.5v0.2l-1.6 0.1v0.2h-0.5v0.1h-0.7v0.2l-1.6 0.1v0.2h-0.5v0.1l-1.5 0.1v0.2h-0.5v0.1h-0.8v0.2h-0.8v0.1h-0.7v0.2h-0.8v0.1h-0.8v0.1h-0.5v0.2l-4.6 0.7v0.1h-0.5v0.2h-0.8v0.1h-0.8v0.2h-0.7v0.1h-0.8v0.2h-0.8v0.1h-0.7v0.2h-0.8v0.1h-0.8v0.1h-0.8v0.2l-1.5 0.1v0.2l-1.5 0.1v0.2h-1.1v0.1h-0.7v0.1h-0.8v0.2h-0.8v0.1h-0.7v0.2h-0.8v0.1h-1v0.2h-0.8v0.1h-0.8v0.1h-0.7v0.2l-3.4 0.4v0.2l-4.3 0.5v0.2l-5.4 0.7v0.1l-2.1 0.2v0.1h-0.7v0.2l-2.9 0.3v0.1l-2.8 0.3v0.1l-2 0.2c-1.9 0.3-4.3 0.6-6.2 1l-2 0.1c-3 0.6-6.8 0.9-9.8 1.5h-1.3c-3.7 0.6-8.3 0.9-12 1.5h-1.6v0.2h-1.2v0.1h-1.3v0.2h-1.3v0.1h-1.5c-1.2 0.2-3 0.4-4.1 0.6h-1.6c-2.3 0.4-5.3 0.5-7.7 0.8h-1.8c-3.8 0.7-8.7 0.6-12.5 1.2l-4.1 0.1c-2.8 0.5-6.5 0.3-9.3 0.7h-2.5v0.2h-2.6v0.1h-3.1v0.2h-3.1v0.1h-3v0.2h-3.6v0.1h-4.4v0.2h-4.6v0.1h-5.6v0.1h-8.8v0.2h-13.8q-0.9 0-1.7 0-0.9 0-1.8 0-0.8 0-1.7 0-0.9-0.1-1.7-0.2h-7.5v-0.1h-5.1v-0.1h-4.1v-0.2h-3.6v-0.1h-3.1v-0.2h-2.8c-3-0.5-7-0.2-10-0.7l-4.4-0.1-23.3-2c-3.7-0.7-8.1-0.8-11.8-1.5l-3.8-0.3v-0.1l-2.4-0.2v-0.1h-1v-0.1l-2.3-0.2v-0.1l-3.3-0.3v-0.2h-1.3v-0.1l-4.4-0.4c-5.7-1.1-12.1-1.6-17.7-2.8l-2-0.1v-0.1h-0.8v-0.2l-1.8-0.1v-0.2h-1v-0.1h-1v-0.2l-5.4-0.7v-0.1h-0.8v-0.2h-0.7v-0.1l-1.8-0.2v-0.1l-2.6-0.3v-0.1l-1.8-0.2v-0.1l-2.6-0.3v-0.1l-3.3-0.5v-0.1l-3.3-0.4v-0.2l-4.4-0.6v-0.1h-0.8v-0.2h-0.7v-0.1h-0.8v-0.1h-0.8v-0.2h-0.7v-0.1h-1.1v-0.2l-1.5-0.1v-0.2h-0.8v-0.1h-0.7v-0.1h-0.8v-0.2l-2.6-0.3v-0.1h-0.7v-0.2l-1.6-0.1v-0.1l-1.8-0.2c-10.7-2.2-22.3-4-33.1-6.2l-1.8-0.1v-0.1l-1.5-0.2v-0.1h-0.8v-0.2h-0.7v-0.1h-0.8v-0.2h-0.8v-0.1l-3.3-0.4v-0.2l-1.5-0.1v-0.2h-1.1v-0.1h-0.7v-0.2h-0.8v-0.1h-0.8v-0.1h-0.7v-0.2h-1.1v-0.1h-0.7v-0.2h-0.8v-0.1h-0.8v-0.2h-0.8v-0.1h-1c-5.4-1.1-11.5-1.9-16.9-3h-1v-0.2h-0.8v-0.1l-1.8-0.1v-0.2l-1.8-0.1v-0.2l-1.8-0.1v-0.2l-2.1-0.1c-5.1-1.1-11.1-1.6-16.4-2.6l-5.1-0.6v-0.1h-1v-0.2h-1v-0.1h-1.3v-0.1h-1v-0.2h-1.1v-0.1h-1v-0.2l-27.9-3.1h-1.6c-1.9-0.4-4.5-0.4-6.4-0.7h-1.8c-2.7-0.5-6.2-0.5-9-0.9l-4.1-0.2c-2.7-0.4-6.5-0.2-9.2-0.7h-2.8v-0.1h-2.8v-0.2l-15.7-0.4v-0.1h-6.4c-2.6-0.4-6.7-0.2-9.7-0.2l-22.9 0.2c-1.2 0.2-3.4-0.1-4.8 0.1v0.2h-4.1v0.1z"/>
	</g>
	<path id="Фигура_9_копия" fill-rule="evenodd" class="s1" d="m476.1 321.6h-111.4l16.5-36.1 12.6-6.4 9.8-5.1 11.4-1.1 13.3-0.5 13.1 1.6 11.2 4.8 11.2 10.8 5.9 13.7 5.1 10.7z"/>
	<path id="Эллипс_1_копия_10" fill-rule="evenodd" class="s4" d="m421.3 273c17.1 0 32.5 10.3 39 26.2 6.6 15.8 3 34-9.1 46.1-12.1 12.1-30.3 15.7-46.1 9.1-15.8-6.5-26.1-21.9-26.1-39.1 0-5.5 1.1-11 3.2-16.1 2.1-5.2 5.2-9.8 9.2-13.8 3.9-3.9 8.5-7 13.7-9.1 5.1-2.2 10.6-3.3 16.2-3.3z"/>
	<path id="Эллипс_1_копия_10 copy" fill-rule="evenodd" class="s4" d="m421.3 273c17.1 0 32.5 10.3 39 26.2 6.6 15.8 3 34-9.1 46.1-12.1 12.1-30.3 15.7-46.1 9.1-15.8-6.5-26.1-21.9-26.1-39.1 0-5.5 1.1-11 3.2-16.1 2.1-5.2 5.2-9.8 9.2-13.8 3.9-3.9 8.5-7 13.7-9.1 5.1-2.2 10.6-3.3 16.2-3.3z"/>
	<path id="Эллипс_1_копия_10-2" class="s1" d="m421.3 344.7c-16.3 0-29.4-13.1-29.4-29.4 0-16.2 13.1-29.3 29.4-29.3 16.2 0 29.3 13.1 29.3 29.3 0 16.3-13.1 29.4-29.3 29.4z"/>
	<path id="Эллипс_1_копия_10-2 copy" class="s1" d="m421.3 344.7c-16.3 0-29.4-13.1-29.4-29.4 0-16.2 13.1-29.3 29.4-29.3 16.2 0 29.3 13.1 29.3 29.3 0 16.3-13.1 29.4-29.3 29.4z"/>
	<path id="Фигура_10_копия_4-2" fill-rule="evenodd" class="s5" d="m788.6 268.5v53.8h3.7c-4.1-50.7 43-53.5 43-53.5z"/>
	<path id="Фигура_10_копия_4-3" fill-rule="evenodd" class="s5" d="m889.9 268.8v53.7h3.7c-4.1-50.7 43-53.5 43-53.5z"/>
	<path id="Фигура_10_копия_4-4" fill-rule="evenodd" class="s5" d="m886.7 268.8v53.7h-3.6c4.1-50.7-43-53.5-43-53.5z"/>
	<path id="Фигура_10_копия_4-5" fill-rule="evenodd" class="s5" d="m987.6 268.8v53.7h-3.6c4.1-50.7-43-53.5-43-53.5z"/>
	<path id="Прямоугольник_6_копия" fill-rule="evenodd" class="s5" d="m884.2 268.8h7.6v53.7h-7.6z"/>
	<path id="Эллипс_2_копия_8" class="s4" d="m421.2 329.5c-7.8 0-14.2-6.4-14.2-14.2 0-7.9 6.4-14.3 14.2-14.3 7.9 0 14.3 6.4 14.3 14.3 0 7.8-6.4 14.2-14.3 14.2z"/>
	<path id="Эллипс_1_копия_10-3" class="s4" d="m837.6 356.9c-23.4 0-42.3-18.9-42.3-42.2 0-23.4 18.9-42.3 42.3-42.3 23.4 0 42.3 18.9 42.3 42.3 0 23.3-18.9 42.2-42.3 42.2z"/>
	<path id="Эллипс_1_копия_10-4" fill-rule="evenodd" class="s1" d="m837.6 285.3c11.9 0 22.6 7.1 27.1 18.1 4.6 11 2.1 23.6-6.3 32-8.4 8.4-21.1 10.9-32 6.4-11-4.6-18.2-15.3-18.2-27.1 0-3.9 0.8-7.7 2.3-11.3 1.5-3.5 3.6-6.8 6.3-9.5 2.8-2.7 6-4.9 9.6-6.4 3.5-1.4 7.3-2.2 11.2-2.2z"/>
	<path id="Эллипс_2_копия_8-2" class="s4" d="m837.6 328.8c-7.9 0-14.3-6.4-14.3-14.2 0-7.9 6.4-14.2 14.3-14.2 7.8 0 14.2 6.3 14.2 14.2 0 7.8-6.4 14.2-14.2 14.2z"/>
	<path id="Эллипс_1_копия_10-5" fill-rule="evenodd" class="s4" d="m938.9 272.4c17.1 0 32.6 10.3 39.1 26.1 6.6 15.8 3 34-9.1 46.1-12.1 12.1-30.3 15.7-46.1 9.1-15.9-6.5-26.2-21.9-26.2-39 0-5.6 1.1-11.1 3.3-16.2 2.1-5.2 5.2-9.8 9.1-13.7 4-4 8.6-7.1 13.8-9.2 5.1-2.1 10.6-3.2 16.1-3.2z"/>
	<path id="Эллипс_1_копия_10-6" class="s1" d="m938.9 344c-16.2 0-29.3-13.1-29.3-29.3 0-16.3 13.1-29.4 29.3-29.4 16.3 0 29.4 13.1 29.4 29.4 0 16.2-13.1 29.3-29.4 29.3z"/>
	<path id="Эллипс_2_копия_8-3" fill-rule="evenodd" class="s4" d="m938.9 300.3c5.8 0 10.9 3.5 13.1 8.8 2.2 5.3 1 11.5-3 15.5-4.1 4.1-10.2 5.3-15.5 3.1-5.4-2.2-8.8-7.4-8.8-13.1 0-1.9 0.3-3.7 1.1-5.5 0.7-1.7 1.7-3.3 3-4.6 1.4-1.3 2.9-2.4 4.7-3.1 1.7-0.7 3.5-1.1 5.4-1.1z"/>
	<path id="Фигура_8_копия" fill-rule="evenodd" class="s5" d="m364 326.2l7.6-0.3c3.2-1.4 2.3-4.1 2.3-4.1 2.1-40.8 29.5-44.6 29.5-44.6 70-15.2 67.5 45.5 67.5 45.5h5.7c-1.7-61.4-56.3-53.7-56.3-53.7-68.7 3.3-56.3 57.2-56.3 57.2z"/>
	<path id="Фигура_7_копия" fill-rule="evenodd" class="s1" d="m178.3 332.1h187.3c-4-34.3 13.3-50.1 13.3-50.1 0.2-3.2-3.4-3-3.4-3h-198.6z"/>
	<path id="Прямоугольник_2_копия" fill-rule="evenodd" class="s5" d="m199.6 297.6h143.6c1.5 0 3 0.6 4.1 1.7 1 1 1.6 2.5 1.6 4 0 1.5-0.6 3-1.6 4-1.1 1.1-2.6 1.7-4.1 1.7h-143.6c-1.6 0-3-0.6-4.1-1.7-1.1-1-1.7-2.5-1.7-4 0-1.5 0.6-3 1.7-4 1.1-1.1 2.5-1.7 4.1-1.7z"/>
	<path id="Фигура_3_копия" fill-rule="evenodd" class="s1" d="m73.7 325.9h103.4l-1.6-37.2-2-23.4-17.9-8.9h-62.9l-13.7 13.7-10.1 20.2z"/>
	<path id="Фигура_2_копия" fill-rule="evenodd" class="s5" d="m173 335.1h5.7c2.2-1.3 1.6-4.6 1.6-4.6l-0.9-53.3-14.4-18.5-14.6-5.3-19.9-2.9-21.3 1.8-13.5 5.9-14.9 8.5-5.7 13-7.5 11-0.5 6-20.1-0.3-2.5-8.4-0.5-11.2-0.9-5.8 0.4-8.2-2-4.1-9.6-2.8-8.3 3.9 1 2.8c2.4 3.1 0 6.4 0 6.4q-0.4 0.2-0.8 0.5-0.4 0.3-0.7 0.6-0.4 0.3-0.7 0.7-0.3 0.3-0.6 0.7l0.2 48.3c0.1 13.7 14.9 12.3 14.9 12.3l38.7 0.5v-27c4-30.1 32-36.6 32-36.6l47.6-0.5c17.1 15.4 16 29.3 16 29.3l1.4 30.9 0.4 1.6z"/>
	<path id="Фигура_1_копия" fill-rule="evenodd" class="s6" d="m20 262.8c10.6 0 15.3-1.8 15.3-1.8 1.5-1.9 2.5 0.7 2.5 0.7q0.7 1.2 1.2 2.5 0.5 1.3 0.9 2.7 0.3 1.3 0.5 2.7 0.2 1.4 0.2 2.8l1.1 22.2c0.3 7.2 5.3 6.2 5.3 6.2l20.6-0.7c5.7 0.1 5.2-5 5.2-5 17-40.9 42.8-38 42.8-38l27.9-0.5c15.2-0.9 29.1 22 29.1 22h4.1c3.3-0.5 3.9 1.8 3.9 1.8l43.4-0.2c2.8-1.4 1.2-3.2 1.2-3.2 0.3-143.8-6.9-158.3-6.9-158.3-0.7-5 1.8-7.6 1.8-7.6q0.4-0.4 0.6-0.9 0.3-0.5 0.4-1 0.1-0.5 0.1-1.1 0-0.5-0.1-1.1c-2.8-42-8.3-62.7-8.3-62.7-0.1-2.7-3.2-1.8-3.2-1.8-28.1-0.2-44.8 12.4-44.8 12.4q-4.5 0.4-9 1.2-4.4 0.8-8.8 1.9-4.3 1.2-8.6 2.7-4.3 1.5-8.4 3.3c-25.3 1.5-37 4.8-37 4.8-14.7 1.9-20.6 16.3-20.6 16.3l-13.8 25.4c-9.9-2.4-17.3 11.8-17.3 11.8l13.9-1.3-30.4 70.4c-6.7 15.2-4.8 71.4-4.8 71.4z"/>
	<path id="Прямоугольник_1_копия" fill-rule="evenodd" class="s5" d="m103.9 226.2h18.8v7.8h-18.8z"/>
	<path id="Фигура_5_копия" fill-rule="evenodd" class="s5" d="m42.2 188.2c0 0-7.4 1.6-5.1-5.9l17.9-47.8c0 0 0.3-3.5 4.6-3.9l53-1.4c0 0 3.6 0 4.8 4.8v37.1c0 0-0.5 6.4-6.4 7.5z"/>
	<path id="Прямоугольник_4_копия" class="s7" d="m278.4 46.7h794.9q1.4 0 2.6 0.6 1.3 0.5 2.3 1.5 1 1 1.5 2.3 0.6 1.3 0.6 2.6v204.5q0 1.4-0.6 2.7-0.5 1.3-1.5 2.3-1 0.9-2.3 1.5-1.2 0.5-2.6 0.5h-794.9q-1.4 0-2.7-0.5-1.3-0.6-2.3-1.5-1-1-1.5-2.3-0.5-1.3-0.5-2.7v-204.5q0-1.3 0.5-2.6 0.5-1.3 1.5-2.3 1-1 2.3-1.5 1.3-0.6 2.7-0.6z"/>
	<path id="Фигура_4_копия" fill-rule="evenodd" class="s5" d="m192 58.1c-1.9-5-8.2-5.5-8.2-5.5-41.2 2.3-58.4 15.8-58.4 15.8-5.7 5.7 2.5 7.7 2.5 7.7l60.7-3.4 3.9-0.9c1.9-0.4 1.1-2.5 1.1-2.5z"/>
	<g id="Папка 1">
		<path id="Эллипс_1_копия_10-7" class="s4" d="m124.6 357.6c-23.4 0-42.3-18.9-42.3-42.3 0-23.3 18.9-42.2 42.3-42.2 23.3 0 42.2 18.9 42.2 42.2 0 23.4-18.9 42.3-42.2 42.3z"/>
		<path id="Эллипс_1_копия_10-8" fill-rule="evenodd" class="s1" d="m124.6 286c11.8 0 22.5 7.1 27.1 18.1 4.5 11 2 23.6-6.4 32-8.4 8.4-21 10.9-32 6.4-10.9-4.6-18.1-15.3-18.1-27.2 0-3.8 0.8-7.6 2.2-11.2 1.5-3.6 3.7-6.8 6.4-9.5 2.7-2.7 6-4.9 9.5-6.4 3.6-1.5 7.4-2.2 11.3-2.2z"/>
		<path id="Эллипс_2_копия_8-4" class="s4" d="m124.5 329.5c-7.8 0-14.2-6.4-14.2-14.2 0-7.9 6.4-14.3 14.2-14.3 7.9 0 14.2 6.4 14.2 14.3 0 7.8-6.3 14.2-14.2 14.2z"/>
	</g>
	<path id="Фигура_11_копия" fill-rule="evenodd" class="s3" d="m223.1 161.5v27.3q-0.3 0-0.7 0.1-0.3 0-0.7 0-0.3 0-0.6 0.1-0.4 0.1-0.7 0.1h-1.9c-1.4 0.3-3.4 0.3-4.8 0.6l-3 0.1v0.2h-1.4v0.1h-1.3v0.1h-1.5v0.2h-0.8v0.1h-0.9v0.2l-4 0.2c-1.2 0.3-2.7 0.5-3.9 0.7h-1.5v0.2l-1.5 0.1v0.2h-0.8v0.1l-1.9 0.1v0.2h-0.6v0.1h-1.7v0.2h-0.7v0.1h-0.6v0.1l-2.5 0.3v0.2h-0.8v0.1h-0.9v0.1h-0.8v0.2h-0.7v0.1h-0.8v0.2h-0.6v0.1h-0.7v0.1h-1.2v0.2h-0.6v0.1h-0.5v0.2h-0.8v0.1h-0.6v0.1h-0.7v0.2h-0.6v0.1h-0.8v0.2h-0.7v0.1h-0.6v0.1h-0.8v0.2h-0.5v0.1l-1.2 0.2v0.1h-0.4v0.1h-1.1v0.2l-1.3 0.1v0.2h-0.4v0.1l-1.4 0.1v0.2h-0.7v0.1h-0.4v0.2l-1.9 0.2v0.2l-1.2 0.1v0.2h-0.5v0.1l-1.4 0.1v0.2l-0.9 0.1v0.2h-0.8v0.1l-0.9 0.1v0.2h-0.6v0.1h-0.4v0.2h-0.6v0.1h-0.5v0.1h-1v0.2h-0.4v0.1l-1.1 0.1v0.2l-0.8 0.1v0.2h-0.6v0.1l-0.9 0.1v0.2h-0.6v0.1l-0.9 0.2v0.1h-0.6v0.1l-0.8 0.2v0.1h-0.7v0.2l-0.8 0.1v0.1h-0.6v0.2l-0.9 0.1v0.2h-0.6v0.1h-0.4v0.1l-0.9 0.2v0.1h-0.6v0.2h-0.4v0.1h-0.4v0.1l-1.3 0.3v0.2h-0.6v0.1l-1.3 0.3v0.1l-1.2 0.3-0.3 0.3h-0.8v0.1l-1.3 0.3v0.1h-0.4v0.2h-0.4v0.1h-0.4v0.2h-0.6l-0.3 0.2h-0.6l-0.2 0.3h-0.6v0.2l-0.7 0.1-0.2 0.3-1.2 0.1-0.2 0.3h-0.5v0.1l-0.8 0.2v0.1h-0.6l-0.2 0.3-0.9 0.1v0.2h-0.4v0.1h-0.4v0.2h-0.4v0.1h-0.5l-0.2 0.3h-0.6l-0.2 0.2h-0.4v0.2h-0.4v0.1h-0.5v0.2h-0.4l-0.2 0.2h-0.4v0.2h-0.4v0.1h-0.5v0.2h-0.4l-0.2 0.2h-0.6v0.2l-0.7 0.1-0.2 0.3h-0.6l-0.2 0.3h-0.6v0.1l-0.7 0.2-0.2 0.2-0.8 0.2-0.2 0.3h-0.7l-0.2 0.2-0.8 0.2-0.2 0.3-0.9 0.1-0.2 0.3-1.2 0.3-0.2 0.2h-0.7l-0.4 0.5h-0.6q-0.2 0.2-0.4 0.4h-0.7l-0.4 0.4h-0.4v0.1h-0.4l-0.2 0.3-0.9 0.2q-0.3 0.2-0.7 0.4-0.4 0.1-0.8 0.3-0.4 0.2-0.8 0.3-0.4 0.1-0.8 0.2v0.3c-1.4 0.2-2.2 1-3.6 1.3v0.2c-1.1 0.2-1.5 0.7-2.5 0.9v0.2c-0.9 0.2-1.1 0.5-1.9 0.6v0.3c-1.4 0.2-1.8 0.9-3.2 1.1v0.3c-1.2 0.2-1.5 0.8-2.7 1v0.2l-1.2 0.3c-0.4 0.7-0.2 0.2-0.9 0.4l-0.4 0.5h-0.4l-0.7 0.5h-0.6l-0.6 0.6h-0.4l-0.2 0.3h-0.5l-0.6 0.5h-0.6l-0.2 0.3q-0.2 0.1-0.4 0.2-0.2 0.1-0.3 0.1-0.2 0.1-0.4 0.2-0.2 0-0.4 0.1v0.2l-0.9 0.2v0.3l-0.8 0.1v0.3l-0.8 0.1v0.3c-0.7 0.1-0.8 0.3-1.5 0.4v0.3l-0.8 0.1v0.3c-0.9 0.2-1.1 0.6-1.9 0.7v0.3l-0.9 0.1v0.3c-0.5 0.1-0.4 0.2-1 0.3v0.3l-0.9 0.1v0.3c-0.5 0.1-0.4 0.2-1 0.3v0.2c-0.8 0.2-1 0.6-1.9 0.7v0.3c-0.6 0.1-0.5 0.2-1.1 0.3v0.3c-0.5 0.1-0.4 0.2-1 0.3v0.2h-0.4v0.3c-0.6 0.1-0.5 0.2-1.1 0.3v0.3c-0.5 0.1-0.5 0.2-1 0.3v0.2h-0.4c-0.5 0.5-0.2 0.1-0.7 0.3l-0.8 0.7h-0.4l-0.7 0.6-0.6 0.1v0.3h-0.6v0.3c-0.6 0.1-0.5 0-0.7 0.4-0.9 0.1-1.1 0.7-2.1 0.8v0.3l-0.6 0.1-0.6 0.6h-0.4c-0.2 0.4-0.1 0.3-0.7 0.4v0.3h-0.6c-0.2 0.4-0.1 0.3-0.6 0.4v0.3c-0.6 0.1-0.5 0-0.7 0.4h-0.6v0.3c-0.6 0.1-0.5 0-0.6 0.4-0.6 0.1-0.5 0.2-1.1 0.3-0.1 0.4 0 0.3-0.6 0.4v0.3h-0.6c-0.2 0.4-0.1 0.3-0.7 0.4q0 0.1-0.1 0.2 0 0.1-0.1 0.2-0.1 0-0.2 0.1-0.1 0-0.2 0.1h-0.2v0.3c-0.6 0-0.5 0.1-1 0.2q-0.1 0.1-0.2 0.2 0 0.1-0.1 0.2-0.1 0.1-0.2 0.1-0.1 0.1-0.2 0.1h-0.2v0.3c-0.6 0.1-0.5 0-0.6 0.4h-0.7q0 0.1-0.1 0.2 0 0.1-0.1 0.1-0.1 0.1-0.2 0.2-0.1 0-0.2 0.1h-0.2v0.2c-0.6 0.1-0.5 0.1-0.6 0.5h-0.7c-0.1 0.3 0 0.3-0.6 0.4-0.1 0.4 0 0.3-0.6 0.4v0.3c-0.6 0.1-0.7 0.1-0.9 0.5h-0.6c-0.1 0.4-0.2 0.5-0.8 0.6q-0.1 0.1-0.1 0.2-0.1 0.1-0.2 0.1-0.1 0.1-0.2 0.2 0 0-0.2 0h-0.2v0.3c-0.6 0.1-0.6 0.2-0.8 0.6-0.6 0.1-0.5 0-0.6 0.4h-0.7c-0.1 0.4-0.2 0.5-0.8 0.6-0.3 0.5-0.1 0.1-0.6 0.4v0.1h-0.2l-0.3 0.4-0.6 0.2-0.2 0.4h-0.4l-0.4 0.6h-0.5v0.1q0 0-0.1 0.1-0.1 0-0.1 0-0.1 0.1-0.1 0.2-0.1 0-0.1 0.1c-0.6 0.1-0.7 0.2-0.8 0.6-0.6 0.1-0.7 0.1-0.9 0.5h-0.6l-0.2 0.6h-0.6c-0.3 0.7-0.7 0.3-1.1 0.7l-0.2 0.6h-0.6c-0.3 0.7-0.7 0.3-1.1 0.7l-0.2 0.5h-0.6c-0.1 0.4-0.3 0.3-0.4 0.7h-0.7c-0.1 0.4-0.2 0.3-0.4 0.7q-0.1 0-0.2 0-0.1 0-0.2 0.1-0.1 0-0.2 0-0.1 0-0.2 0.1v-0.5c0.4-0.3 0.2-2.6 0.2-3.3q0.1-4.4 0.2-8.8l0.4-11.8 0.9-1.5 0.6-0.3v-0.3l0.6-0.2v-0.7h0.2q0.1-1.4 0.2-2.7h0.3v-1.2h0.2v-1.4c0.5-1.3 0.4-3 0.8-4.2q0.1-0.1 0.2-0.1 0.1-0.1 0.2-0.1 0.1 0 0.2-0.1 0.1 0 0.2 0c0.2-0.4 0.1-0.3 0.7-0.4v-0.3c0.6-0.1 0.7-0.2 0.8-0.6h0.6c0.2-0.4 0.1-0.3 0.7-0.4v-0.3c0.6-0.1 0.4 0 0.6-0.4h0.6c0.2-0.4 0.1-0.3 0.7-0.4v-0.3c0.5-0.1 0.4 0 0.6-0.4h0.6v-0.3c0.6-0.1 0.5 0 0.6-0.4 0.6-0.1 0.5-0.2 1.1-0.3 0.2-0.4 0.1-0.3 0.6-0.4v-0.3h0.7c0.1-0.4 0-0.3 0.6-0.4v-0.3c0.6-0.1 0.5 0 0.6-0.4l0.9-0.2 0.2-0.4c0.7-0.1 0.5-0.3 1.2-0.4v-0.3c0.6-0.1 0.5-0.2 1.1-0.3v-0.2c0.6-0.1 0.5-0.1 0.6-0.5 0.9-0.1 1.1-0.6 2.1-0.8v-0.3c0.6-0.1 0.5-0.2 1.1-0.2 0.1-0.4 0-0.4 0.6-0.5v-0.2c0.6-0.1 0.5-0.2 1-0.3v-0.3c0.6-0.1 0.5-0.2 1.1-0.3v-0.3c0.6 0 0.5-0.1 1-0.2v-0.3c0.6-0.1 0.5-0.2 1.1-0.3v-0.3h0.4v-0.3c0.7-0.1 0.8-0.3 1.5-0.4v-0.3h0.4v-0.2l0.8-0.2 0.3-0.4c0.8-0.1 0.8-0.5 1.8-0.7v-0.3c0.6-0.1 0.5-0.2 1.1-0.3v-0.2c1-0.2 1-0.6 1.9-0.7v-0.3l0.8-0.1v-0.3c0.7-0.1 0.8-0.3 1.5-0.4v-0.3h0.4v-0.3c0.7-0.1 0.8-0.3 1.5-0.4v-0.3l0.8-0.1v-0.3l0.9-0.2v-0.2l0.8-0.2v-0.3c1.1-0.1 1.2-0.6 2.3-0.8v-0.3l0.9-0.1v-0.3q0.1 0 0.2-0.1 0.1 0 0.2 0 0.1 0 0.2 0 0.1 0 0.2 0l0.4-0.5h0.4v-0.1q0.2-0.1 0.3-0.2 0.2 0 0.3-0.1 0.2 0 0.4-0.1 0.1 0 0.3 0c0.3-0.7 0.2-0.2 0.8-0.4l0.5-0.5h0.4l0.6-0.5h0.6l0.2-0.3q0.2-0.1 0.3-0.2 0.2 0 0.4-0.1 0.1 0 0.3-0.1 0.1 0 0.3 0v-0.3l1.3-0.3v-0.3q0.1 0 0.2 0 0.1 0 0.2-0.1 0.1 0 0.2 0 0.1 0 0.2 0l0.4-0.4q0.2-0.1 0.4-0.2 0.2 0 0.3-0.1 0.2 0 0.4-0.1 0.2 0 0.4 0v-0.3c0.7-0.1 0.8-0.3 1.5-0.4v-0.3c0.8-0.1 1.1-0.4 1.9-0.6v-0.2c1-0.2 1.3-0.6 2.3-0.7v-0.3c1-0.2 1.5-0.7 2.5-0.9v-0.2c1.8-0.3 2.6-1.3 4.4-1.6 0.3-0.5 0-0.2 0.6-0.4v-0.1h0.4v-0.2h0.5v-0.1h0.4l0.2-0.3h0.4l0.2-0.3 0.9-0.1v-0.2l0.6-0.1 0.2-0.3h0.4v-0.1h0.5l0.2-0.3 0.8-0.1 0.2-0.3 1.3-0.3 0.2-0.3h0.6l0.2-0.3h0.5l0.2-0.2h0.4l0.2-0.3 0.8-0.2 0.2-0.2h0.7l0.2-0.3 0.8-0.2 0.2-0.2 0.9-0.2 0.2-0.3h0.6l0.2-0.2 0.9-0.2 0.2-0.2h0.6l0.2-0.3 0.9-0.2 0.2-0.2h0.6l0.2-0.3h0.4v-0.2h0.5v-0.1h0.4v-0.1h0.4l0.2-0.3 1.1-0.2 0.2-0.2h0.4v-0.2h0.4v-0.1h0.4v-0.2h0.4v-0.1l0.9-0.1 0.2-0.3h0.6l0.2-0.3h0.5v-0.1h0.4v-0.2h0.4v-0.1h0.4v-0.2h0.4v-0.1h0.5v-0.1h0.4v-0.2l0.8-0.1v-0.2l0.9-0.1v-0.1h0.4v-0.2h0.4v-0.1h0.4v-0.2h0.4v-0.1h0.5v-0.1l0.8-0.2v-0.1h0.4v-0.2h0.6l0.3-0.2h0.6l0.2-0.3h0.6l0.2-0.3h0.7v-0.1h0.4v-0.2l1.2-0.3v-0.1h0.7v-0.1l0.8-0.2v-0.1h0.4v-0.1h0.7l0.2-0.3h0.4v-0.2h0.8v-0.1h0.5q0.1-0.1 0.2-0.3h0.4v-0.1h0.8v-0.2h0.4l0.3-0.2h0.6v-0.2h0.4v-0.1l1.3-0.2v-0.1l1.2-0.3v-0.1h0.4v-0.2h0.7v-0.1l0.8-0.1v-0.2h0.6v-0.1h0.5v-0.2h0.6v-0.1l0.8-0.1v-0.2l2.1-0.4v-0.1h0.5v-0.2h0.6v-0.1h0.4v-0.2l1.5-0.1v-0.1l1-0.2v-0.1l0.9-0.2v-0.1l1.4-0.1v-0.2l0.9-0.1v-0.2h0.8v-0.1l0.9-0.1v-0.2l2.9-0.4v-0.1h0.4v-0.2h0.7v-0.1h0.4v-0.2l1.2-0.1v-0.1h0.7v-0.2h0.6v-0.1h0.6v-0.2h0.7v-0.1h0.6v-0.1h0.6v-0.2h0.9v-0.1h0.6v-0.2h0.6v-0.1l2.7-0.4v-0.2h0.7v-0.1h0.4v-0.1h0.6v-0.2h1.5v-0.1h0.6v-0.1h0.7v-0.2h0.6v-0.1l1.5-0.2v-0.1h0.8v-0.1h0.6v-0.2h0.7v-0.1h0.6v-0.2l2.3-0.1v-0.1l1.5-0.2v-0.1h0.6v-0.2l1.5-0.1v-0.1h1.7v-0.2h0.6v-0.1l2.7-0.3v-0.1h1.1v-0.2h1v-0.1h0.9v-0.2h0.6v-0.1h1v-0.1h1.5v-0.2h0.8v-0.1h0.9v-0.2h1.5v-0.1h1.4v-0.1h1.3v-0.2h0.6v-0.1l4.6-0.3v-0.1h1.1v-0.2h0.8v-0.1h1.9v-0.2h1.7v-0.1h1.7v-0.1h1.7v-0.2h1.9v-0.1h1.8v-0.2h2.4q0.4 0 0.8-0.1 0.4 0 0.8-0.1 0.4 0 0.9 0 0.4 0 0.8 0z"/>
	<path id="Фигура_6_копия" fill-rule="evenodd" class="s8" d="m193.4 268.3c1.4-127.6-8.9-191.7-8.9-191.7l2-0.2c11.4 74.8 8.7 191.9 8.7 191.9z"/>
	<g id="Папка 1">
		<path id="Фигура_1" fill-rule="evenodd" class="s5" d="m1044.8 364.9l1.2 5.9c0.4 1.6-0.9 1.8-0.9 1.8-4.2 1.5-5.4 1.4-5.4 1.4-2 0.1-3.3 1.9-3.3 1.9-4.1 2-10.8 1-10.8 1-3.9-0.4-3.2-0.8-3.2-0.8l-0.1-1.9c0.4-2.5 4.6-3.9 4.6-3.9 5.7-4.6 5.4-6.5 5.4-6.5 2.4-0.8 6.3-0.1 6.3-0.1 5.5 2.9 6.2 1.2 6.2 1.2z"/>
		<path id="Фигура_2" fill-rule="evenodd" class="s5" d="m1057.4 365.2c-1 1.4-0.8 3.9-0.8 3.9q-0.2 0.3-0.3 0.6-0.1 0.4-0.1 0.7-0.1 0.4-0.1 0.8 0.1 0.3 0.1 0.7c0.6 1.3 4.2 1.7 4.2 1.7 0.7 3.5 2.5 3.3 2.5 3.3 6.8 1.5 10.9-0.6 10.9-0.6 2.9-3.4-2.7-6.1-2.7-6.1-2.7-2.7-3.3-5.7-3.3-5.7l0.3-0.8c-3.8-4.9-10.7 1.5-10.7 1.5z"/>
		<path id="Фигура_3 copy" fill-rule="evenodd" class="s2" d="m1068.2 362.9c0.5-1.2 0.4-2.4 0.4-2.4 1-1.4 0.1-2.6 0.1-2.6 1.3-0.3 1.3-0.8 1.3-0.8 0.9-3.1 0.3-4.9 0.3-4.9-2.1-0.9-2.1-1.2-2.1-1.2 2.7-2 2.7-3.5 2.7-3.5 0.7-5.5-0.1-8.7-0.1-8.7 1.1-7.9 0.5-13 0.5-13 0.6-3.7-0.2-4-0.2-4 0.5-3.5-0.8-5.1-0.8-5.1-0.4-0.9 0.6-2.5 0.6-2.5 1-7 0.1-8.8 0.1-8.8 4.5-10.8 2.6-24.1 2.6-24.1-1.1-9.3 0.2-17.1 0.2-17.1-1.6-1.7-3.9-1.4-3.9-1.4l-41.3-0.3c-2.6-0.8-4.2-0.8-4.2-0.8-1 8.9 3.3 47.3 3.3 47.3-1.5 4.1 1.3 5.4 1.3 5.4 0.9 1.8 0.2 3.6 0.2 3.6v3.9c-2.1 2.5 0.2 10 0.2 10l1.2 11.9c0.6 1.6-0.7 4-0.7 4l1.2 3.6c1.5 0 0.5 1.4 0.5 1.4 0.1 1.2 1.6 2.2 1.6 2.2-1.6 2.3-0.4 4.8-0.4 4.8l-0.5 3.1c7.9 0.4 10.7 1.8 10.7 1.8l2.1-0.1-0.3-2.4 1.9-3.9c0.4-1.4 0.2-1.9 0.2-1.9 1.3-0.7-0.2-3.6-0.2-3.6 2-5.7-2.1-4.5-2.1-4.5-1.1-2-0.2-5-0.2-5l1.3-9.6c0.5-11.3-1.2-11.9-1.2-11.9 0.8-1.3 0.2-3.3 0.2-3.3 1.1-3.9-0.2-6.7-0.2-6.7 2.2-4.8 1.4-5.3 1.4-5.3-0.7-14 2.9-26.7 2.9-26.7 4 11.8 5 27.9 5 27.9-0.4 1.3 1 2.6 1 2.6-0.7 4.8 1 6.8 1 6.8 0.7 1.9-0.7 4.7-0.7 4.7 0 4-0.2 7.8-0.2 7.8-1 3.7 0.5 8.2 0.5 8.2 0.2 4.3 0.1 9.4 0.1 9.4 0.3 2 1.6 3.1 1.6 3.1-4.9 2.8-1 5.8-1 5.8-0.4 5.8 1.6 8.6 1.6 8.6z"/>
		<path id="Фигура_4" fill-rule="evenodd" class="s9" d="m1056.8 328.1c5.1-1.9 4.9-5.8 4.8-5.8-2-3.2-3-5.2-3-5.2 8.7 0.3 5.8 6.3 5.8 6.3-1.1 4.4-7.6 4.7-7.6 4.7z"/>
		<path id="Фигура_5" fill-rule="evenodd" class="s9" d="m1033.3 316.4c4.9 2 5.2 6.4 5.2 6.4 1.8 2.5 3.5 2.4 3.5 2.4-0.7 1.2-3.9-1.5-3.9-1.5-1.6-4.3-4.8-7.3-4.8-7.3z"/>
		<path id="Фигура_6" fill-rule="evenodd" class="s9" d="m1052.5 279.8c4.5 3.9 17.1 2.1 17.1 2.1-13.2 4.7-17.1-2.1-17.1-2.1z"/>
		<path id="Фигура_6_копия_2" fill-rule="evenodd" class="s9" d="m1044.2 284.4c-4.5 3.9-17 2.1-17 2.1 13.1 4.7 17-2.1 17-2.1z"/>
		<path id="Фигура_6_копия" fill-rule="evenodd" class="s9" d="m1055 291.6c3.1 2.7 11.7 1.5 11.7 1.5-9 3.1-11.7-1.5-11.7-1.5z"/>
		<path id="Фигура_13" fill-rule="evenodd" class="s10" d="m1058.7 181.5c-3.6-1.3-4-8.7-4-8.7l-0.7-4.8c1.4 0 1.5-1.4 1.5-1.4l1-3.1c0.6-2.3-1.2-3.2-1.2-3.2-18.9-12.9-22.3 0.3-22.3 0.3 0.7 2.5 0.2 4.1 0.2 4.1 0.2 3.2 2.2 5.5 2.2 5.5 1.1 5 3.5 6.3 3.5 6.3l-0.2 1.3-0.2 5.8 1.6 2.6 3.2 2 4.8 2.4 3.6-1.5 3.6-1.9 1.6-2.1z"/>
		<path id="Фигура_7" fill-rule="evenodd" class="s0" d="m1073.5 265.6c1.2-4.3 0.3-5.6 0.3-5.6l-3.2-55.5c2.4 0.9 2.8 2.4 2.8 2.4l1 0.9 0.4 9.8c4.3 0.4 8.9-2.2 8.9-2.2q-0.3-1.2-0.7-2.4-0.3-1.2-0.6-2.5-0.3-1.2-0.5-2.5-0.3-1.2-0.5-2.5c1.3-6.1-1.3-9.5-1.3-9.5-5.1-7.7-17.2-13.1-17.2-13.1 0.5-1.5-0.2-2.2-0.2-2.2l-1.8-4.3-5.9-1c0.1 3.6 2.5 5.2 2.5 5.2-1.6 2.8-5 5-5 5-2.2-0.8-3.4 0.7-3.4 0.7l-2.5 2.5c-2.4-2.1-4.2-3-4.2-3-3.3-2.8-3.7-9-3.7-9-2.1 1.7-2.4 4.4-2.4 4.4-9.1 4.6-12.3 7.4-12.3 7.4-8 2.5-7.7 15.5-7.7 15.5l6.8 55.4c-0.4 2-1.4 3.2-1.4 3.2-0.1 0.6 0.5 0.6 0.5 0.6 0.9-1.8 2-0.6 2-0.6 2.8-0.1 4 0.7 4 0.7l40 0.3c5.9-0.2 5.3 1.9 5.3 1.9z"/>
		<path id="Фигура_18" fill-rule="evenodd" class="s8" d="m1055.1 175.5l5.7 0.9 2.2 4.7c0.6 3.4-2.1 7.6-2.1 7.6-0.8 1.4-2.3 0.3-2.3 0.3-2-1.5-5.3-2.5-5.3-2.5-4.7 3.6-4.1 13.9-4.1 13.9l-5.8 0.4c2.1-9.1 0.2-12.6 0.2-12.6-1.9 2.7-4-1.4-4-1.4-5.1-0.2-3.1 2.5-3.1 2.5-1.8-0.1-0.8-2.2-0.8-2.2l0.6-5.7c0.7-3.9 2.6-4.6 2.6-4.6 0.2 9.4 7.7 12 7.7 12 1.6-1.9 3.1-3.1 3.1-3.1 1.3-0.8 3-0.1 3-0.1 2.2-1.5 4.7-4.8 4.7-4.8-3.1-2.3-2.3-5.3-2.3-5.3z"/>
		<path id="Фигура_8" fill-rule="evenodd" class="s11" d="m1065.8 200.2l8.6 6.4 0.9 50.5-7.8-3.5z"/>
		<path id="Фигура_14" fill-rule="evenodd" class="s12" d="m1040.8 177c4.4 2.5 10-1.4 10-1.4 3.3 3.4-3.4 10.5-3.4 10.5-6.8-3-6.6-9.1-6.6-9.1z"/>
		<path id="Фигура_16" fill-rule="evenodd" class="s8" d="m1040.5 170.7c3.5 6.6 5.4-1.1 5.4-1.1z"/>
		<path id="Прямоугольник_1" fill-rule="evenodd" class="s5" d="m1035.7 163.1l3.2-0.8q0.2 0 0.4 0.1 0.3 0.1 0.3 0.4 0.1 0.3 0 0.5-0.2 0.2-0.4 0.3l-3.2 0.8q-0.2 0-0.5-0.1-0.2-0.1-0.2-0.4-0.1-0.3 0-0.5 0.2-0.2 0.4-0.3z"/>
		<path id="Прямоугольник_1_копия" fill-rule="evenodd" class="s5" d="m1044.2 161.4l3.2-0.4q0.3 0 0.5 0.1 0.2 0.2 0.2 0.4 0.1 0.3-0.1 0.5-0.2 0.2-0.4 0.3l-3.2 0.4q-0.3 0-0.5-0.1-0.2-0.2-0.3-0.5 0-0.2 0.2-0.4 0.1-0.2 0.4-0.3z"/>
		<path id="Фигура_9" fill-rule="evenodd" class="s13" d="m1075.2 257.1l-63.5 3-8.1-3.6 64-2.9z"/>
		<path id="Фигура_12" fill-rule="evenodd" class="s10" d="m1083.6 215.3c-0.1 6.9 2.3 12.1 2.3 12.1 1.1 8.6-5 20.3-5 20.3 0.3 4.6-2 6.4-2 6.4-1.7 2-3.4 5.5-3.4 5.5-1.3 0.8-5.1-0.5-5.1-0.5q-0.4-0.1-0.8-0.1-0.4-0.1-0.8-0.1-0.4-0.1-0.8-0.1-0.4 0-0.8 0c-2.2-0.7-0.3-1.6-0.3-1.6l4.2-0.3c1.6-1 3.5-4.9 3.5-4.9 0.2-0.6 1.1-1.3 1.1-1.3 0.3-2.2-0.7-4-0.7-4-3.1 0.3-2-2.7-2-2.7 1.3-0.6 1.3-1.2 1.3-1.2 0.7-1.4 1.9-1.4 1.9-1.4-1.5-5.1 0.4-10.2 0.4-10.2 0.3-6.4-2-8.5-2-8.5l0.1-5.2z"/>
		<path id="Фигура_11" fill-rule="evenodd" class="s10" d="m1007.1 257.8c1.2 1.9 1.1 2.3 1.1 2.3q0.1 0.2 0.2 0.3 0.1 0.2 0.3 0.3 0.2 0.1 0.4 0.2 0.2 0 0.4 0c0.6 1.1 1.6 0.7 1.6 0.7 0.6 0.6 1.5 0.4 1.5 0.4 1.9 0.8 3.6-1.1 3.6-1.1 2.1 0 1-1.7 1-1.7-4.3 0.6-6.1 0.2-6.1 0.2-1.9-0.5-4-1.6-4-1.6z"/>
		<path id="Фигура_10" fill-rule="evenodd" class="s14" d="m1065.9 200.2l-63.9 4 1.7 52.3 63.9-2.9z"/>
		<path id="Фигура_15" fill-rule="evenodd" class="s15" d="m1052.8 170.3c-0.1 2.7-5.1 5.2-5.1 5.2 7.3-2.6 5.1-5.2 5.1-5.2z"/>
		<path id="Фигура_17" fill-rule="evenodd" class="s5" d="m1052 160.9c1.7-0.3 3.9-0.4 4.1-2.1 0.6-3.8-1.6-5.6-3.6-9.1-1.6-2.8-9-4.1-12.8-3.6-4.5 0.7-7.1 5.8-7.8 6.8-2.1 3.1-3.1 5.1 1.7 10.5 0.5-2.6 1.3-4.4 2.6-4.7 1.3-0.3 2.3 1.3 3.5 0.9 1.4-0.5 1.3-2.9 2.7-3.4 1.1-0.4 2.4 0.7 3.5 1.7 2.8 2.2 5 3.2 6.1 3z"/>
	</g>
	<g id="Папка 2">
		<path id="Фигура_1" fill-rule="evenodd" class="s5" d="m925.7 363.8c-0.2 1.9-1.3 2.6-1.3 2.6-1.8 1.9-2.2 3.4-2.2 3.4-1.6 2.6 0.2 4.3 0.2 4.3 4.6 1.2 11.2 0.8 11.2 0.8 2.5 0 2.5-1.8 2.5-1.8 0.2-2 0-2.7 0-2.7l0.4-0.3 0.1 0.7c3.2-0.9 2.6-2.9 2.6-2.9v-2.6l-1.4-0.6-2.2-0.7-2.6-0.5-2.4-0.2c0 0-1.3 0-1.4 0-0.1 0-3.5 0.5-3.5 0.5z"/>
		<path id="Фигура_6" fill-rule="evenodd" class="s10" d="m907.8 215.5c-0.3 6.6-3.1 14.4-3.1 14.4-2.9 7.5-5.8 26.5-5.8 26.5-2.2 4.4-1.9 9.7-1.9 9.7-0.6 2.5-1.8 5.8-1.8 5.8-1.1 2.7 2.9 6.5 2.9 6.5 0.7 0.2 1.3 0.4 1.8 0.3 1.8-0.3 1.6-1.5 2.2-0.8 1.5 1.5 2.3-3.9 2.3-3.9 1.6 4.5 2.8 0.5 2.8 0.5 1.7-1.7-3.3-10.1-3.3-10.1 0.1-5 1.8-6.2 1.8-6.2 5-10 7.6-17 7.6-17 2-6.1 2.6-11.2 2.6-11.2l3.4-10.9z"/>
		<path id="Фигура_2" fill-rule="evenodd" class="s5" d="m960.2 369v1.1c0.2 1.2 3 2.2 3 2.2 2-0.2 1.7 2 1.7 2 1.1 2.6 5.9 2.1 5.9 2.1 6.7 0.4 9.6-1.2 9.6-1.2 0.5-2.3-0.6-3.3-0.6-3.3-0.2-2.6-3-3.4-3-3.4q-0.3-0.2-0.5-0.5-0.3-0.2-0.4-0.5-0.2-0.3-0.4-0.6-0.1-0.4-0.2-0.7l-2.4-0.7-2.6-0.1-2.3 0.8-2.4 0.8-2.2 0.7-1.5 0.8z"/>
		<path id="Фигура_3" fill-rule="evenodd" class="s2" d="m959.3 368.5c1.9 2.7 4.9 0.5 4.9 0.5 5.4-3.6 10-2.3 10-2.3 2.1 0.5 1.5-1.1 1.5-1.1-0.1-0.7-0.2-2.4-0.2-2.4 0.8-2.3 0.1-4 0.1-4-0.9-3.7-3.3-9-3.3-9-0.4-2.1 0.1-4.6 0.1-4.6 0.8-2.9 0.3-5.3 0.3-5.3-0.2-14.7-2.4-22.2-2.4-22.2-2.9-6.7-2.7-10.5-2.7-10.5 0.5-2.1 0.1-3.2 0.1-3.2l-0.9-10.7v-0.9c0.3-2.7-0.7-8.8-0.7-8.8 2.6-2.8-1.8-17.2-1.8-17.2-0.2-2.1-0.6-3.1-0.6-3.1 0.6-9.4-3.7-20.8-3.7-20.8l-41.7-5.3c-3.5 8.2-3.2 27.5-3.2 27.5 0.6 19.4 3 37 3 37-0.3 13.1 0.3 33.5 0.3 33.5 0.3 13.5 4.9 25.5 4.9 25.5l0.3 3.1c9.9-1.6 14.1 1.5 14.1 1.5 1.9 0.7 2.8-2.5 2.8-2.5 2.5-4.9 1.1-9.3 1.1-9.3-0.2-7-3.1-11.2-3-11.1 1.5-8.7 0.7-13.7 0.7-13.7-0.9-5.8-0.4-10.3-0.4-10.3 0.8-1.9 0.7-3.6 0.7-3.6l2.1-21.2c0.4-4.2 1-0.4 1-0.4 0.2 4.5 2.9 8.2 2.9 8.2-0.4 9.6 3.4 20.1 3.4 20.1-0.3 13.8 6.5 31 6.5 31 1.2 13.7 3.8 15.6 3.8 15.6z"/>
		<path id="Фигура_7" fill-rule="evenodd" class="s10" d="m931.6 183.5l1.4 4.9 4.2 4.5 6.7 0.2 4.4-1.5c0 0 1.9-1.8 2-2 0.1-0.2 2.3-4.3 2.3-4.3l-1.9-4c-0.5-0.7-2.3-1.9-2.3-1.9-1.8-4.3-1-9.9-1-9.9 2-0.8 1.9-3.6 1.9-3.6 0.3-4.5-0.8-4.6-0.8-4.6-0.6-0.1-1 0.9-1 0.9-0.1-4.2-1.6-6.1-1.6-6.1-4.5-0.3-11.6 2.4-11.6 2.4-6-1.6-8.3 0.5-8.3 0.5-2.5 2.4 0.3 8 0.3 8-3-2 0 3 0 3 0.3 2 2.2 3.4 2.2 3.4 1.5 4.3 3 5 3 5 1.2 3 0.1 5.1 0.1 5.1z"/>
		<path id="Фигура_11" fill-rule="evenodd" class="s16" d="m933.2 180c2.7 3.2 7.9 3.3 7.9 3.3zm10.6 6.8c0 0 4.6-6.5 2.6-8.8z"/>
		<path id="Фигура_4" fill-rule="evenodd" class="s0" d="m919.5 230.9c-3.2 7.1-3.4 14.8-3.4 14.8 13.5 5 26.9 4.4 26.9 4.4 6.9 1.2 19.4 0.8 19.4 0.8-1.2-4-1.4-15.1-1.4-15.1 2.9-10.7 3.2-23.2 3.2-23.2l4.7 8.6c10.3-0.8 13.4-6.7 13.4-6.7-4.7-11.3-10.9-22.6-10.9-22.6-7.9-6.3-21.3-11.1-21.3-11.1 3.8 7.7-8.1 10.2-8.1 10.2-11-0.9-10.1-8.4-10.1-8.4-11.9 3.4-19.6 10-19.6 10-4 8.9-8 21.3-8 21.3-0.9 2.3 4.2 3.4 4.2 3.4 4.8 1.9 8.1 3 8.1 3 3.5 0.9 3.2-1.6 3.2-1.6 0.9 2.1-0.4 4.3-0.4 4.3-1.1 2.9 0.9 5.5 0.9 5.5-0.7 1-0.8 2.4-0.8 2.4z"/>
		<path id="Фигура_8" fill-rule="evenodd" class="s8" d="m932.1 182.4c-1.8 0.3-2.9 1.2-2.9 1.2 2 12.7 12.4 10.3 12.4 10.3 15-1.6 12.1-11.6 12.1-11.6-0.8-0.9-3.8-1.6-3.8-1.6 3.7 7.6-7.5 10.1-7.5 10.1-10.9-0.1-10.3-8.4-10.3-8.4z"/>
		<path id="Фигура_12" fill-rule="evenodd" class="s9" d="m941.8 252.2c0.9 4.6-0.7 13.8-0.7 13.8l3.2 0.1c0.9-2.8 0.6-13.7 0.6-13.7z"/>
		<path id="Фигура_13" fill-rule="evenodd" class="s9" d="m939.6 277.7c-3.9 6.4-15.3 14.7-15.3 14.7z"/>
		<path id="Фигура_14" fill-rule="evenodd" class="s9" d="m945.6 274.6c4 5.6 17.2 12.8 17.2 12.8z"/>
		<path id="Фигура_15" fill-rule="evenodd" class="s9" d="m937.5 316.1c-2.7 4.1-0.8 9.6-0.8 9.6z"/>
		<path id="Фигура_16" fill-rule="evenodd" class="s9" d="m922.1 309.3c3.4 6.7 5.9 20.1 5.9 20.1z"/>
		<path id="Фигура_17" fill-rule="evenodd" class="s9" d="m970.5 328.5c-2.5 7.1-7.8 10.9-7.8 10.9z"/>
		<path id="Фигура_18" fill-rule="evenodd" class="s9" d="m926.3 341.2c5 1 11.6 9.4 11.6 9.4zm37.4 12.4c5.6 0.9 11 5.7 11 5.7z"/>
		<path id="Фигура_19" fill-rule="evenodd" class="s9" d="m918.3 246.7c1.6 3.8-2.7 7.5-2.7 7.5l0.8-8.1"/>
		<path id="Фигура_20" fill-rule="evenodd" class="s9" d="m962.1 251.1l-3.1 0.2c0 4 4.3 6 4.3 6z"/>
		<path id="Фигура_5" fill-rule="evenodd" class="s10" d="m981.2 215c5.6 12.6 3.3 15.9 3.3 15.9-3.4 4.3-5.1 3.5-5.1 3.5-1.4-0.2-1.8-1.2-1.8-1.2-4.9-0.8-7.3-2.4-7.3-2.4-4.3-2.5-11-10.9-11-10.9-7.4-1.3-9.6-4.9-9.6-4.9-2.7-1.8-2.5-2.7-2.5-2.7 0.4-1.6 2.1-0.7 2.1-0.7-1.7-2 0.5-2.5 0.5-2.5-1.2-1.9 1.1-2.3 1.1-2.3-1.2-2.2 1.7-2.1 1.7-2.1 3.3 0.4 4.8 1.8 4.8 1.8 2 0.3 1.7-2 1.7-2 0.3-2.2-0.2-4.7-0.2-4.7 0.8-3.9 1.8 0.4 1.8 0.4 1 1.6 1 5.5 1 5.5 0.4 2 0 5 0 5 0.3 1.9 1.9 2.6 1.9 2.6 5.4 3.2 8 5 8 5 3.1-0.7 9.6-3.3 9.6-3.3z"/>
		<path id="Фигура_9" fill-rule="evenodd" class="s5" d="m924.9 162.3c6.3 4.5 10.4 1.5 10.4 1.5 8 5.2 11.3-5.8 11.3-5.8 0 0-1.7-8.3-1-8.3 0.8 0.1-1.3-2.2-1.3-2.2-1.5 0-4.5 1.3-4.5 1.3 2.4 0.7-6.9-2.8-6.9-2.8 2.3 0.6-5.9 4.8-5.9 4.8-5.9 3.3-2.1 11.5-2.1 11.5z"/>
		<path id="Фигура_10" fill-rule="evenodd" class="s8" d="m934.3 175.4l7.1-1.1c-1.2 8.9-7.1 1.1-7.1 1.1z"/>
		<path id="Прямоугольник_1" fill-rule="evenodd" class="s5" d="m929.1 168l5-1.1 0.3 1.3-5 1.1z"/>
		<path id="Прямоугольник_1_копия" fill-rule="evenodd" class="s5" d="m937.9 166.3l5-1.2 0.3 1.3-5 1.2z"/>
	</g>
	<g id="Папка 1">
		<path id="Прямоугольник_2" class="s17" d="m741 268.4c0-9.4 7.6-17 17-17h64.2c9.4 0 17 7.6 17 17v84.5c0 9.4-7.6 17-17 17h-64.2c-9.4 0-17-7.6-17-17z"/>
		<path id="Эллипс_1" class="s18" d="m790.1 356.2c-18.1 0-32.7-14.6-32.7-32.7 0-18.1 14.6-32.8 32.7-32.8 18.1 0 32.8 14.7 32.8 32.8 0 18.1-14.7 32.7-32.8 32.7z"/>
		<path id="Эллипс_1_копия" class="s19" d="m790.1 351.9c-15.7 0-28.4-12.7-28.4-28.4 0-15.8 12.7-28.5 28.4-28.5 15.8 0 28.5 12.7 28.5 28.5 0 15.7-12.7 28.4-28.5 28.4z"/>
		<path id="Эллипс_2" class="s20" d="m797.7 266.1c-2.9 0-5.3-2.4-5.3-5.3 0-2.9 2.4-5.3 5.3-5.3 2.9 0 5.3 2.4 5.3 5.3 0 2.9-2.4 5.3-5.3 5.3z"/>
		<path id="Эллипс_2_копия" class="s20" d="m813.3 266.1c-3 0-5.3-2.4-5.3-5.3 0-2.9 2.3-5.3 5.3-5.3 2.9 0 5.3 2.4 5.3 5.3 0 2.9-2.4 5.3-5.3 5.3z"/>
		<path id="Эллипс_2_копия_2" class="s20" d="m828.8 266.1c-2.9 0-5.3-2.4-5.3-5.3 0-2.9 2.4-5.3 5.3-5.3 2.9 0 5.3 2.4 5.3 5.3 0 2.9-2.4 5.3-5.3 5.3z"/>
		<path id="Прямоугольник_3" class="s20" d="m749.9 261c0-3 2.5-5.5 5.5-5.5h20.3c3 0 5.5 2.5 5.5 5.5 0 3-2.5 5.5-5.5 5.5h-20.3c-3 0-5.5-2.5-5.5-5.5z"/>
		<path id="Фигура_1" fill-rule="evenodd" class="s5" d="m784 357.3c-0.6 3-1.2 8.7-1.2 8.7-1.7 4-0.3 6-0.3 6 4.2 2.1 6.7 0.9 6.7 0.9 1.8-2.1 4.2 1.4 4.2 1.4 9.2 4.5 20.5-1 20.5-1 2.3-1.9-0.5-4.7-0.5-4.7-0.8-1-4.1-1.4-4.1-1.4-7.7-2.7-8.1-8.5-8.1-8.5z"/>
		<path id="Фигура_2" fill-rule="evenodd" class="s5" d="m815.7 351.6c-1 1.3-0.6 3.2-0.6 3.2-1.1 2.9-1.1 6.4-1.1 6.4-2.2 3.9-0.1 6.5-0.1 6.5 6.1 2.7 12-0.2 12-0.2 3-2.2 6.4 0.7 6.4 0.7 11.9 1.7 16.6-3.8 16.6-3.8 2.4-3.9-1.2-5.2-1.2-5.2-2.1-1-5.1-0.3-5.1-0.3-6.7 0.4-8-3.9-8-3.9z"/>
		<path id="Фигура_3" fill-rule="evenodd" class="s2" d="m784.1 355.6c0.3 4.1 1.3 5.5 1.3 5.5 3.8 2.5 7.3 1.3 7.3 1.3 6.9-1 8.5-3.9 8.5-3.9-0.3-3.2-2.3-7.8-2.3-7.8 3-4.9 1.4-8.2 1.4-8.2l-3.5-7.6c0.6-2.6 0.2-3.5 0.2-3.5 1.6-3.2 0.5-5.7 0.5-5.7 4.9-14.4 5.3-30.1 5.3-30.1 0.6-3.6 0.9-6.4 0.9-6.4 1.4 2.8 4.7 6.6 4.7 6.6 0.8 1.2 1.4 4.1 1.4 4.1l1.9 4.6c0.4 1.6 3.2 4 3.2 4 0.9 1.8-0.1 3.1-0.1 3.1 0.4 3.5-0.5 6.5-0.5 6.5-0.5 10.8 1.8 22.4 1.8 22.4-0.4 4.3-0.6 10-0.6 10 0.8 3.5 4.9 5.3 4.9 5.3-0.3 1.6 2.2 1.4 2.2 1.4 12 0.6 12.1-2.3 12.1-2.3 0.1-3.6-0.7-4.7-0.7-4.7 1-3.9 0.6-4.5 0.6-4.5 1.2-7.7 0.4-9.4 0.4-9.4-0.3-7.5-1.3-13.2-1.3-13.2 1.1-5.4-0.1-8.9-0.1-8.9-0.8-14.9-3.2-17.8-3.2-17.8-2.8-12.1-5.4-17.4-5.4-17.4 2.7 0.2 0.5-2 0.5-2l-3-4c-1.8-4-3.4-7.4-3.4-7.4 1.2-2.4-2-3.4-2-3.4-1.5-2.9 0.6-4.8 0.6-4.8 1.6-3.1 1.4-5 1.4-5l-21.6-1-11.9 2.3-5.8 4.5-4.7 2.5c0.9 8.9 4.1 13.2 4.1 13.2 1.8 7.5 2.1 24 2.1 24-0.3 1.8 0.8 3.8 0.8 3.8-0.5 1.7 0.4 5.7 0.4 5.7-1.8 1.5-1.7 3.4-1.7 3.4-3.7 19.1 1.7 41.5 1.7 41.5 0 1.7 1.6 3.3 1.6 3.3z"/>
		<path id="Фигура_12" fill-rule="evenodd" class="s9" d="m792 260.7c-2.9 3.2-4.4 6.9-4.4 6.9-0.9-4.3-1-8.4-1-8.4l2.2-1.8z"/>
		<path id="Фигура_13" fill-rule="evenodd" class="s9" d="m811.3 257.8c0 4.5-1.2 8.7-1.2 8.7l3-1.4c0.9-3.5 0.8-8.2 0.8-8.2z"/>
		<path id="Фигура_14" fill-rule="evenodd" class="s9" d="m790 277.2c4.3 2.6 14.1 2.9 14.1 2.9-7.4 1.7-14.1-2.9-14.1-2.9z"/>
		<path id="Фигура_15" fill-rule="evenodd" class="s9" d="m801.9 294.5c-4.2 6.7-9.1 9.1-9.1 9.1 4.3-0.6 9.1-9.1 9.1-9.1z"/>
		<path id="Фигура_16" fill-rule="evenodd" class="s9" d="m796.8 335.3c0 6.1-2.4 9.7-2.4 9.7 3.9-1.3 2.4-9.7 2.4-9.7z"/>
		<path id="Фигура_17" fill-rule="evenodd" class="s9" d="m799.9 346.2c-1.1 2.6-4.7 9.2-9.6 6.8-0.2 0 9.6-6.8 9.6-6.8z"/>
		<path id="Фигура_18" fill-rule="evenodd" class="s9" d="m799.2 315.7c-5 8.8-11.8 14.9-11.8 14.9 7.5-4.9 11.8-14.9 11.8-14.9z"/>
		<path id="Фигура_19" fill-rule="evenodd" class="s9" d="m782.4 307.5c3.4-2.3 3.2-5.2 3.2-5.2 3.8 0.3-3.2 5.2-3.2 5.2z"/>
		<path id="Фигура_6" fill-rule="evenodd" class="s10" d="m819.4 207.7c1.9 7.9 4.9 12.4 4.9 12.4 2.5 4.7 2.8 11.1 2.8 11.1 0.9 6.5 3.5 14.5 3.5 14.5 0.8 1.1 2.4 1.6 2.4 1.6q0.7 0.2 1.4 0.3 0.7 0.1 1.4 0.2 0.8 0.1 1.5 0.2 0.7 0.1 1.4 0.1c0.8 0.3 1.7 1.4 1.7 1.4 2.4 0.2 3 1.9 3 1.9 1.8 2.4-0.7 4.5-0.7 4.5-0.4 0.6-0.9 0.3-0.9 0.3-2.8 3.5-3 1.6-3 1.6-3.4 0.6-0.1-2.6-0.1-2.6l-0.2-0.1c0-0.9 0.8-1.3 0.8-1.3q0-0.2-0.1-0.4 0-0.2-0.1-0.4-0.1-0.1-0.2-0.3-0.2-0.2-0.3-0.3c-1.3 2.5-4.7 0.9-4.7 0.9-3-0.9-4.6-1.3-4.6-1.3-1.1-0.1-1.3-1.4-1.3-1.4-5-7.2-11.3-17.7-11.3-17.7l-1.1-6.2-0.4-7.4 1-3.1 0.2-4.8 2-2.6z"/>
		<path id="Фигура_10" fill-rule="evenodd" class="s21" d="m817.2 164.2c4.6 1.3 4.2-0.6 4.2-0.6l-6-3.9-0.4 2.6z"/>
		<path id="Фигура_7" fill-rule="evenodd" class="s10" d="m796.6 165.4c-1.7 0.9 0.5 5.9 0.5 5.9 0.3 7.3-2.6 8.1-2.6 8.1l0.3 3.9 1.9 3.9 3.6 3.9 3.6 3.3 3.3 1.2 2.4-1.4 0.8-5.5-0.1-3.4c0.4-1.5 0.4-2.6 0.4-2.6 2.9 0 3.6-3.3 3.6-3.3 4-5.8 2.9-7.6 2.9-7.6l-0.1-0.2c0.1-2.8 0-3.7 0-3.7 1.6-0.7 0.2-2 0.2-2l0.1-4-1.3-2.6-5.7-1-5.9 0.4-3.9 2.2z"/>
		<path id="Фигура_25" fill-rule="evenodd" class="s22" d="m800.3 176.1c1.4 4.1 10 6.8 10 6.8-6.5-2.9-10-6.8-10-6.8z"/>
		<path id="Фигура_4" fill-rule="evenodd" class="s0" d="m775.5 261c7.9 0.2 8.6-0.2 8.6-0.2l0.2-2.1 1.2 1.7c0.5 0.3 1.1-0.2 1.1-0.2 3.2-1.7 5.3-3.6 5.3-3.6 4.9-2.1 7.5-0.8 7.5-0.8 4.4 2.5 9.9 2.9 9.9 2.9 7.7-0.2 11-7.2 11-7.2-0.7-2.2-3.2-3.7-3.2-3.7-0.2-1.5-2.3-4.7-2.3-4.7 3.7-14.2 3.4-32.4 3.4-32.4 2.1-2.1 1.5-3.9 1.5-3.9 1-1.8 0.3-3.2 0.3-3.2 1.3-7.2-1.1-9.8-1.1-9.8-1-4.8-4.1-6.1-4.1-6.1-2.4-1.7-4.3-2.4-4.3-2.4-3.3 5.6-3.2 8.6-3.2 8.6l-0.4-4.4c-0.4-0.8-1.2-0.4-1.2-0.4l-1.3 0.5c-4.2-2.3-7.2-7.3-7.2-7.3-0.6-1.2-1.9-2.9-1.9-2.9 1-0.4 1.5-2.3 1.5-2.3-4.8-0.5-4.3 0.9-4.3 0.9-0.7 2.3-2.3 4-2.3 4-19.3 9-20.1 23-20.1 23-0.3 4.9 3.5 15.3 3.5 15.3 7.5-1.9 16.7-0.2 16.7-0.2l-1.8 5.3-1.2 3-4.2 2.6-6.6 2.1c-0.5 3.4 0.6 10.3 0.6 10.3 1.3 0.9 0.4 2.3 0.4 2.3-0.2 3.3-3.1 9.7-3.1 9.7-0.6 5.8 1.1 5.6 1.1 5.6z"/>
		<path id="Фигура_24" fill-rule="evenodd" class="s23" d="m787.9 197.2c5.9 1.9 2.9 21.8 2.9 21.8 4.5-21.3-2.9-21.8-2.9-21.8z"/>
		<path id="Фигура_11" fill-rule="evenodd" class="s8" d="m810.4 185c1.7 0.7 2.1 1 2.1 1-2.3 7.1-4.7 11.7-4.7 11.7-2.7-0.9-3.7-4.1-3.7-4.1-5.8 0.2-13.9-11.7-13.9-11.7 1.6-1.9 2-3.8 2-3.8 0.7-2 4.6-1.2 4.6-1.2-0.5 2-1.2 2.5-1.2 2.5 2.7 5.9 8.6 9.9 8.6 9.9 3.3-1.6 2.9 1.2 2.9 1.2l0.2 2.1c0.5-3.9 3.1-7.6 3.1-7.6z"/>
		<path id="Фигура_5" fill-rule="evenodd" class="s10" d="m773.7 219.7c2 13.4 4.1 15.9 4.1 15.9 1 11.6 13.1 26.4 13.1 26.4l0.2 0.2c1.5 1.7 0.7 5.9 0.7 5.9-0.8 2.7 1.7 5.6 1.7 5.6 0.5 0.5 0.3 1.9 0.3 1.9 0.6 2 2.2 0.7 2.2 0.7 1.2 1.8 2.6 0.4 2.6 0.4 1.2 2 2.8-0.2 2.8-0.2 1.2 1.2 2.5-0.5 2.5-0.5 1.6 1.4 0.8-1.4 0.8-1.4-0.2-1.5 0.1-2.2 0.1-2.2-0.2-1.2-1.1-3.2-1.1-3.2 0.1-2.7-3.4-4.6-3.4-4.6-1.6-1.8-1.9-3.6-1.9-3.6-1.8-5.3-4.5-10.5-4.5-10.5-1.1-3-0.9-5.6-0.9-5.6-0.8-6.4-4.9-14.4-4.9-14.4q-0.1-0.3-0.1-0.6 0-0.3 0.1-0.6 0-0.3 0.2-0.6 0.1-0.2 0.3-0.5c2.1-4.2 1.7-8.6 1.7-8.6l-9.2-1.1-3.2 0.3z"/>
		<path id="Фигура_9" fill-rule="evenodd" class="s24" d="m800.4 162.7c1.2 2.6 4.2 0.9 4.2 0.9 14.6-6.5 14.4 0.7 14.4 0.7 3.7 1.2 2.2-1.4 2.2-1.4-1-1.7-3-2.6-3-2.6l-3.3-2.6-4.3 0.2-4.7 0.4c0 0-2.3 1.5-2.7 1.7-0.3 0.2-2.8 2.7-2.8 2.7z"/>
		<path id="Фигура_8" fill-rule="evenodd" class="s2" d="m797 165.6c2.8-1.4 3.8-2.4 3.8-2.4 3-1 5.2-2.4 5.2-2.4 7.4-2.5 12.4-0.4 12.4-0.4 0.2-4-2.3-5.5-2.3-5.5-6.1-3.8-8.3-2.5-8.3-2.5-1.4-1-2.2 0.3-2.2 0.3-3.2 0.1-4.8 2.5-4.8 2.5-2 1.3-2.7 3.1-2.7 3.1-0.6 1.1-0.5 3-0.5 3-0.9 1.8-0.6 4.3-0.6 4.3z"/>
		<path id="Фигура_21" fill-rule="evenodd" class="s9" d="m813.4 287.2c6.8 4 9.1 4.8 9.1 4.8-2.6-4.5-9.1-4.8-9.1-4.8z"/>
		<path id="Фигура_21_копия" fill-rule="evenodd" class="s9" d="m820.1 274.4c4.1 3.4 5.6 4.2 5.6 4.2-1.3-3.3-5.6-4.2-5.6-4.2z"/>
		<path id="Фигура_22" fill-rule="evenodd" class="s9" d="m827.3 313.3c1.5 1.8-7.4 9.1-6.8 9.1 0.6 0 6.8-9.1 6.8-9.1z"/>
		<path id="Фигура_23" fill-rule="evenodd" class="s9" d="m833.7 337.7c-3.7 5.7-10.8 9.2-10.8 9.2 9.2-2.7 10.8-9.2 10.8-9.2z"/>
		<path id="Прямоугольник_1" fill-rule="evenodd" class="s5" d="m813.4 167.3l3-0.1q0.1 0 0.1 0.1 0 0.1 0 0.1l0.1 0.7q-0.1 0.1-0.1 0.1 0 0 0 0.1-0.1 0-0.1 0l-3 0.1q0 0-0.1-0.1-0.1 0-0.1-0.1v-0.7q0 0 0-0.1 0.1-0.1 0.1-0.1 0 0 0.1 0z"/>
		<path id="Фигура_26" fill-rule="evenodd" class="s8" d="m807.9 174.4c4.2 7.3 6.9 0.2 6.9 0.2z"/>
		<path id="Прямоугольник_1_копия" fill-rule="evenodd" class="s5" d="m805.8 167.4h3q0.1 0 0.1 0 0 0 0.1 0 0 0 0 0.1v0.7q0 0.1 0 0.1 0 0 0 0.1 0 0-0.1 0l-3 0.1q-0.1 0-0.1 0 0 0-0.1 0 0-0.1 0-0.1 0 0 0-0.1v-0.7q0-0.1 0-0.1 0 0 0.1 0 0-0.1 0-0.1z"/>
	</g>
	<g id="&lt;Group&gt;">
		<g id="&lt;Group&gt;">
			<g id="&lt;Group&gt;">
				<g id="&lt;Group&gt;">
					<path id="&lt;Compound Path&gt;" fill-rule="evenodd" class="s25" d="m746.5 158.7l-15 0.7 15 0.7v0.2c0 3.3-2.7 6-6 6h-11.2c-2.2 0-3.8-1.9-3.5-4.1q0.2-1.3 0.2-2.8c0-10.1-8.4-18.2-18.6-17.7-8.7 0.4-16 7.2-16.9 15.9q-0.2 2.4 0.2 4.6c0.3 2.1-1.4 4.1-3.5 4.1h-9.7v-59.3h9.6l18 1.3c1.6 0.9 3.1 2.3 4 4.1l7.9 14 17.3 1.9c0.9 0 1.9 0.4 2.6 1.1l-34 0.8 41.1 1.1q1 0.7 1.7 1.9l-25.7 1.1 26.5 1.2q0 0.4 0 0.7zm-35.4-32.8l-7.2-12.8q0 0 0 0c-1-1.8-2.9-2.8-4.9-2.8h-16.9v15.6z"/>
					<path id="&lt;Compound Path&gt;" fill-rule="evenodd" class="s25" d="m708.2 173.4c-7.7 0-13.9-6.2-13.9-14 0-7.7 6.2-13.9 13.9-13.9 7.8 0 14 6.2 14 13.9 0 7.8-6.2 14-14 14zm6.9-14c0-3.8-3.1-6.8-6.9-6.8-3.7 0-6.8 3-6.8 6.8 0 3.8 3.1 6.9 6.8 6.9 3.8 0 6.9-3.1 6.9-6.9z"/>
					<path id="&lt;Path&gt;" class="s2" d="m668 119.7c0-8.9-5.2-16.9-13.3-20.6-2.9-1.3-6.1-2-9.3-2h-5.5-44-64.9c0 11 8.9 19.9 19.9 19.9h85c2.9 0 5.4 1.9 6.2 4.7h-90.9c0 11 8.9 19.9 19.9 19.9h71.4c2.9 0 5.4 2 6.2 4.8h-77.4c0 11 8.9 19.9 19.9 19.9h67.9 8.9z"/>
				</g>
			</g>
			<g id="&lt;Group&gt;">
				<path id="&lt;Path&gt;" class="s25" d="m674.6 166.3h-3.6v-63c0-7.5-6.1-13.7-13.7-13.7h-1.2v-3.6h1.2c9.6 0 17.3 7.8 17.3 17.3z"/>
			</g>
		</g>
		<path id="&lt;Path&gt;" class="s25" d="m699 106.1l-11.9 0.9h-9.6v-6h8.6c4.8 0 9.4 1.8 12.9 5.1z"/>
	</g>
	<g id="&lt;Group&gt; copy 5">
		<g id="&lt;Group&gt;">
			<g id="&lt;Group&gt;">
				<g id="&lt;Group&gt;">
					<path id="&lt;Compound Path&gt;" fill-rule="evenodd" class="s25" d="m957.5 202.6h-0.9l0.9 0.1c0 0.2-0.1 0.3-0.4 0.3h-0.7c-0.1 0-0.2-0.1-0.2-0.2q0-0.1 0-0.2c0-0.6-0.5-1.1-1.1-1.1-0.6 0-1 0.5-1.1 1q0 0.1 0 0.3c0 0.1-0.1 0.2-0.2 0.2h-0.6v-3.7h0.6l1.1 0.1q0.2 0.1 0.3 0.3l0.5 0.8 1.1 0.2q0.1 0 0.1 0l-2.1 0.1h2.6q0 0.1 0.1 0.2h-1.6l1.6 0.1q0 0 0 0.1zm-2.2-2.1l-0.4-0.8q0 0 0 0-0.2-0.2-0.4-0.2h-1v1z"/>
					<path id="&lt;Compound Path&gt;" fill-rule="evenodd" class="s25" d="m955.1 203.5c-0.5 0-0.9-0.4-0.9-0.9 0-0.5 0.4-0.9 0.9-0.9 0.5 0 0.9 0.4 0.9 0.9 0 0.5-0.4 0.9-0.9 0.9zm0.5-0.9c0-0.2-0.2-0.4-0.5-0.4-0.2 0-0.4 0.2-0.4 0.4 0 0.2 0.2 0.4 0.4 0.4 0.3 0 0.5-0.2 0.5-0.4z"/>
					<path id="&lt;Path&gt;" class="s2" d="m952.6 200.1c0-0.5-0.3-1-0.8-1.3q-0.3-0.1-0.6-0.1h-0.4-2.7-4.1c0 0.7 0.6 1.2 1.2 1.2h5.4c0.2 0 0.3 0.2 0.4 0.3h-5.7c0 0.7 0.5 1.3 1.2 1.3h4.5c0.2 0 0.3 0.1 0.4 0.3h-4.9c0 0.7 0.6 1.2 1.3 1.2h4.2 0.6z"/>
				</g>
			</g>
			<g id="&lt;Group&gt;">
				<path id="&lt;Path&gt;" class="s25" d="m953 203h-0.2v-3.9c0-0.5-0.4-0.9-0.9-0.9h-0.1v-0.2h0.1c0.6 0 1.1 0.5 1.1 1.1z"/>
			</g>
		</g>
		<path id="&lt;Path&gt;" class="s25" d="m954.5 199.3h-0.7-0.6v-0.4h0.5q0.5 0 0.8 0.4z"/>
	</g>
	<g id="&lt;Group&gt; copy 7">
		<g id="&lt;Group&gt;">
			<g id="&lt;Group&gt;">
				<g id="&lt;Group&gt;">
					<path id="&lt;Compound Path&gt;" fill-rule="evenodd" class="s25" d="m818 203.4h-0.6l0.6 0.1c0 0.2-0.1 0.3-0.3 0.3h-0.4c-0.1 0-0.2-0.1-0.2-0.2q0-0.1 0-0.2c0-0.6-0.3-1.1-0.7-1-0.4 0-0.7 0.4-0.7 0.9q0 0.2 0 0.3c0 0.1-0.1 0.2-0.2 0.2h-0.4v-3.5h0.4 0.8q0.1 0.1 0.1 0.3l0.4 0.8 0.7 0.2q0.1 0 0.1 0l-1.4 0.1h1.7q0 0.1 0.1 0.1l-1.1 0.1 1.1 0.1q0 0 0 0zm-1.5-1.9l-0.3-0.8q0 0 0 0-0.1-0.2-0.2-0.2h-0.7v1z"/>
					<path id="&lt;Compound Path&gt;" fill-rule="evenodd" class="s25" d="m816.4 204.3c-0.3 0-0.6-0.4-0.6-0.9 0-0.4 0.3-0.8 0.6-0.8 0.3 0 0.6 0.4 0.6 0.8 0 0.5-0.3 0.9-0.6 0.9zm0.3-0.9c0-0.2-0.1-0.4-0.3-0.4-0.2 0-0.3 0.2-0.3 0.4 0 0.3 0.1 0.4 0.3 0.4 0.2 0 0.3-0.1 0.3-0.4z"/>
					<path id="&lt;Path&gt;" class="s2" d="m814.7 201c0-0.5-0.2-1-0.5-1.2q-0.2-0.1-0.4-0.1h-0.3-1.8-2.7c0 0.6 0.4 1.2 0.8 1.2h3.6c0.1 0 0.2 0.1 0.2 0.3h-3.8c0 0.6 0.4 1.2 0.9 1.2h3c0.1 0 0.2 0.1 0.2 0.2h-3.2c0 0.7 0.4 1.2 0.8 1.2h2.8 0.4z"/>
				</g>
			</g>
			<g id="&lt;Group&gt;">
				<path id="&lt;Path&gt;" class="s25" d="m815 203.8h-0.2v-3.8c0-0.4-0.2-0.8-0.5-0.8h-0.1v-0.2h0.1c0.4 0 0.7 0.5 0.7 1z"/>
			</g>
		</g>
		<path id="&lt;Path&gt;" class="s25" d="m816 200.2l-0.5 0.1h-0.4v-0.4h0.4q0.3 0 0.5 0.3z"/>
	</g>
	<g id="&lt;Group&gt; copy 6">
		<g id="&lt;Group&gt;">
			<g id="&lt;Group&gt;">
				<g id="&lt;Group&gt;">
					<path id="&lt;Compound Path&gt;" fill-rule="evenodd" class="s25" d="m1066.5 198.6h-0.9l0.9 0.1c0 0.2-0.1 0.3-0.4 0.3h-0.7c-0.1 0-0.2-0.1-0.2-0.2q0-0.1 0-0.2c0-0.6-0.5-1.1-1.1-1.1-0.6 0-1 0.5-1.1 1q0 0.1 0 0.3c0 0.1-0.1 0.2-0.2 0.2h-0.6v-3.7h0.6l1.1 0.1q0.2 0.1 0.3 0.3l0.5 0.8 1.1 0.2q0.1 0 0.1 0l-2.1 0.1h2.6q0 0.1 0.1 0.2h-1.6l1.6 0.1q0 0 0 0.1zm-2.2-2.1l-0.4-0.8q0 0 0 0-0.2-0.2-0.4-0.2h-1v1z"/>
					<path id="&lt;Compound Path&gt;" fill-rule="evenodd" class="s25" d="m1064.1 199.5c-0.5 0-0.9-0.4-0.9-0.9 0-0.5 0.4-0.9 0.9-0.9 0.5 0 0.9 0.4 0.9 0.9 0 0.5-0.4 0.9-0.9 0.9zm0.5-0.9c0-0.2-0.2-0.4-0.5-0.4-0.2 0-0.4 0.2-0.4 0.4 0 0.2 0.2 0.4 0.4 0.4 0.3 0 0.5-0.2 0.5-0.4z"/>
					<path id="&lt;Path&gt;" class="s2" d="m1061.6 196.1c0-0.5-0.3-1-0.8-1.3q-0.3-0.1-0.6-0.1h-0.4-2.7-4.1c0 0.7 0.6 1.2 1.2 1.2h5.4c0.2 0 0.3 0.2 0.4 0.3h-5.7c0 0.7 0.5 1.3 1.2 1.3h4.5c0.2 0 0.3 0.1 0.4 0.3h-4.9c0 0.7 0.6 1.2 1.3 1.2h4.2 0.6z"/>
				</g>
			</g>
			<g id="&lt;Group&gt;">
				<path id="&lt;Path&gt;" class="s25" d="m1062 199h-0.2v-3.9c0-0.5-0.4-0.9-0.9-0.9h-0.1v-0.2h0.1c0.6 0 1.1 0.5 1.1 1.1z"/>
			</g>
		</g>
		<path id="&lt;Path&gt;" class="s25" d="m1063.5 195.3h-0.7-0.6v-0.4h0.5q0.5 0 0.8 0.4z"/>
	</g>
</svg>