<svg version="1.2" xmlns="http://www.w3.org/2000/svg" viewBox="0 0 1100 400" width="1100" height="400">
	<title>gazelle-svg</title>
	<style>
		tspan { white-space:pre } 
		.s0 { fill: #292929 } 
		.s1 { fill: #393939 } 
		.s2 { fill: #909090 } 
		.s3 { fill: #e3e0c2 } 
		.s4 { fill: #1f1f1f } 
		.s5 { fill: #4897d8 } 
		.s6 { fill: #ff7a06 } 
		.s7 { fill: #ffdb5c } 
		.s8 { fill: #f1f1f1 } 
		.s9 { fill: #263238 } 
	</style>
	<path id="Фигура_6_копия" fill-rule="evenodd" class="s0" d="m234.4 328.1l5.7-1.8 11.3-23.3 13.3-6.6 10.9-1.4 13.8 2.1 12.1 10.4 10.9 14.9 8.7 6.9-0.4-13.5-3.8-10.6c0 0-3.1-8.5-3.3-9.1-0.2-0.6-2.7-6.5-2.7-6.5l-8.4-7.6-8.5-5.4-10.5-4-16.9-1.4-15.7 3-6.6 10.2-10.8 10.6-1.3 16.2-0.7 9.9z"/>
	<path id="Фигура_4_копия" fill-rule="evenodd" class="s1" d="m252.4 281.7c-22.2 15.9-17.7 46.6-17.7 46.6-20 1.9-28.9-6-28.9-6-9.4-22.5-4.7-41.8-4.7-41.8q0-0.2 0.1-0.4 0.1-0.1 0.2-0.3 0.1-0.1 0.3-0.2 0.2-0.1 0.4-0.1c0.9-20.7 7.6-30.3 7.6-30.3l6.2-6.3 4-2.5 5.4-3 6.1 0.5-3.4 12.8-9.7 11.1z"/>
	<path id="Фигура_5_копия" fill-rule="evenodd" class="s2" d="m217.2 261.5l10.4-16.2 1.2-6-0.3-3.4-4.5 1.2-5.9 4-6 5.3-1.8 3.9q-1 2-1.9 4.1-0.8 2.2-1.4 4.4-0.6 2.2-1 4.4-0.4 2.3-0.4 4.6c0.1 2 1.8 0.6 1.8 0.6 7.5-3.4 9.8-6.9 9.8-6.9z"/>
	<path id="Фигура_1_копия" fill-rule="evenodd" class="s3" d="m321 328.6l103.2-0.6c6.5-1.6 5.1-7.3 5.1-7.3l-0.1-4.8 1.9-0.9-0.1-24 7.2-3.4 0.6 4.2 5.6-0.8-0.3-15.2-14 0.4-0.9-135c-2.7-4.2-12.1-3-12.1-3l-52.1 1.7c-14.4 1.5-24 11.9-24 11.9l-54.3 48.4c-13.2 10.7-36.5 20.8-36.5 20.8l-21.7 11.5c-15.4 7.7-19.2 16.5-19.2 16.5l0.9 0.4c5-8.3 14.2-11.5 14.2-11.5 5.5-3 2.7 2.1 2.7 2.1-2.5 9.1-10 20.7-10 20.7l25.4 17.3 7.7 4.8c3.3-2.3 7-4.2 10.9-5.6 3.9-1.3 7.9-2.1 12.1-2.3 4.1-0.2 8.2 0.1 12.2 1 4 0.9 7.9 2.4 11.5 4.4 13.7 9.7 15.8 17.6 15.8 17.6q1.5 3.7 2.8 7.5 1.3 3.8 2.3 7.6 1.1 3.9 1.8 7.8 0.8 3.9 1.4 7.8z"/>
	<path id="Эллипс_1_копия_4" class="s4" d="m275.8 360.2c-20.4 0-37-16.5-37-37 0-20.4 16.6-36.9 37-36.9 20.4 0 36.9 16.5 36.9 36.9 0 20.5-16.5 37-36.9 37z"/>
	<path id="Эллипс_1_копия_4-2" class="s0" d="m275.8 348.9c-14.2 0-25.6-11.5-25.6-25.6 0-14.2 11.4-25.7 25.6-25.7 14.2 0 25.6 11.5 25.6 25.7 0 14.1-11.4 25.6-25.6 25.6z"/>
	<path id="Прямоугольник_1_копия_4" fill-rule="evenodd" class="s4" d="m428.4 288.3h245.2v31.1h-245.2z"/>
	<path id="Прямоугольник_2_копия" fill-rule="evenodd" class="s4" d="m451.6 277.2h11.1v14.4h-11.1z"/>
	<path id="Прямоугольник_1_копия_4-2" fill-rule="evenodd" class="s4" d="m549.2 277.5h276.2v24.9h-276.2z"/>
	<path id="Прямоугольник_1_копия_4-3" fill-rule="evenodd" class="s4" d="m812.1 277.5h49.6v8.9h-49.6z"/>
	<path id="Прямоугольник_3_копия" fill-rule="evenodd" class="s5" d="m434.8 39.8h458.3q1.4 0 2.6 0.6 1.3 0.5 2.3 1.5 1 1 1.5 2.3 0.6 1.2 0.6 2.6v224.3q0 1.4-0.6 2.7-0.5 1.3-1.5 2.3-1 1-2.3 1.5-1.2 0.5-2.6 0.5h-458.3q-1.4 0-2.6-0.5-1.3-0.5-2.3-1.5-1-1-1.5-2.3-0.6-1.3-0.6-2.7v-224.3q0-1.4 0.6-2.6 0.5-1.3 1.5-2.3 1-1 2.3-1.5 1.2-0.6 2.6-0.6z"/>
	<path id="Фигура_11_копия" fill-rule="evenodd" class="s6" d="m895.6 278.1q0.9 0 1.7-0.3 0.9-0.4 1.5-1 0.6-0.7 1-1.6 0.3-0.8 0.3-1.7v-123.5l-99.9 55.2-82.3 26.8-70.6 1.2-44.2-7.9-48.3-15-37.3-10.2-33.8-8.2-30.9-1.9-25 2.8v80.8c0.5 4.7 4.5 4.5 4.5 4.5z"/>
	<path id="Прямоугольник_1_копия_4-4" fill-rule="evenodd" class="s4" d="m518.4 314.3h70.6v8.9h-70.6z"/>
	<path id="Эллипс_2_копия_2" class="s4" d="m275.8 335.6c-6.9 0-12.5-5.6-12.5-12.4 0-6.9 5.6-12.5 12.5-12.5 6.8 0 12.4 5.6 12.4 12.5 0 6.8-5.6 12.4-12.4 12.4z"/>
	<path id="Эллипс_1_копия_4-3" class="s4" d="m671.8 360.2c-20.4 0-36.9-16.5-36.9-37 0-20.4 16.5-36.9 36.9-36.9 20.4 0 37 16.5 37 36.9 0 20.5-16.6 37-37 37z"/>
	<path id="Эллипс_1_копия_4-4" class="s0" d="m671.8 348.9c-14.2 0-25.6-11.5-25.6-25.6 0-14.2 11.4-25.7 25.6-25.7 14.2 0 25.7 11.5 25.7 25.7 0 14.1-11.5 25.6-25.7 25.6z"/>
	<path id="Эллипс_2_копия_2-2" class="s4" d="m671.8 335.6c-6.9 0-12.4-5.6-12.4-12.4 0-6.9 5.5-12.5 12.4-12.5 6.9 0 12.4 5.6 12.4 12.5 0 6.8-5.5 12.4-12.4 12.4z"/>
	<path id="Фигура_3_копия_2" fill-rule="evenodd" class="s1" d="m385.5 238.8l12.5 0.3c8.3-0.6 7.2-7.5 7.2-7.5-1.6-6.8-6.4-6-6.4-6l-12.9 0.3c-6.6 2-6.3 6.6-6.3 6.6 1.5 6 5.9 6.3 5.9 6.3z"/>
	<path id="Фигура_7_копия" fill-rule="evenodd" class="s4" d="m717.9 331c2.1-22.4-9.7-34-9.7-34l12.9 0.3 0.1 33.7z"/>
	<path id="Фигура_9_копия" fill-rule="evenodd" class="s7" d="m427.8 167.3v29.3l-2.4 0.1v0.2h-1.6v0.1h-1.5v0.2h-1.4v0.1h-1.3v0.2h-1.3v0.1h-1.2v0.2h-1.2v0.1l-2.3 0.2c-2.4 0.7-5.4 0.6-7.8 1.3l-1.8 0.2c-1.5 0.4-3.3 0.6-4.8 1h-0.9c-0.8 0.3-2 0.5-2.8 0.8l-1.5 0.1v0.2l-1.4 0.1v0.2h-0.6v0.1h-0.7v0.2h-0.6v0.1h-0.6v0.2h-0.8c-2.6 0.8-5.6 1.3-8.2 2.2l-1.2 0.2v0.1h-0.4v0.2l-1.7 0.3v0.1l-1 0.2v0.1l-1.1 0.2v0.1h-0.6v0.2h-0.4v0.1h-0.6v0.2l-2 0.4v0.2l-1.5 0.3v0.1h-0.4v0.2h-0.4v0.1h-0.5v0.2l-0.9 0.1v0.2h-0.6c-5.3 1.9-10.8 3.6-15.9 5.8l-0.9 0.2v0.1h-0.3v0.1h-0.4v0.2h-0.3v0.1l-0.7 0.2v0.1h-0.5v0.2h-0.3v0.1h-0.4v0.2h-0.3v0.1h-0.5v0.2l-0.6 0.1v0.2l-1.5 0.4v0.2h-0.3v0.1h-0.4v0.2h-0.3v0.1h-0.5v0.2l-0.6 0.1v0.2h-0.4v0.1l-0.6 0.2v0.1h-0.5v0.2l-0.6 0.1v0.2h-0.4v0.1h-0.3v0.2l-0.6 0.1v0.2h-0.5v0.1h-0.3v0.2l-0.6 0.1v0.2h-0.4v0.1h-0.3v0.2l-0.6 0.1v0.2h-0.5v0.1h-0.3v0.2h-0.3v0.1l-0.9 0.3v0.2h-0.4v0.1l-0.6 0.2v0.1l-0.9 0.3v0.2h-0.3v0.1h-0.5v0.2l-0.6 0.1v0.2l-0.6 0.1v0.2h-0.3v0.1h-0.3v0.2l-0.9 0.3v0.1h-0.4v0.2l-0.9 0.3v0.1l-0.9 0.3v0.2l-0.9 0.3v0.1l-0.6 0.2v0.1l-0.6 0.2v0.1h-0.3v0.2h-0.3v0.1h-0.3v0.2h-0.3v0.1h-0.3v0.2h-0.3v0.1h-0.3v0.2h-0.3v0.1h-0.3v0.2h-0.3v0.1h-0.3l-0.2 0.3h-0.3v0.2h-0.3v0.1h-0.3v0.2h-0.3v0.1h-0.3v0.2h-0.3v0.1h-0.3v0.2h-0.3v0.1l-0.6 0.2-0.1 0.3h-0.3v0.1h-0.3v0.2h-0.3v0.1h-0.3v0.2h-0.3v0.1h-0.3v0.2h-0.3q-0.1 0.1-0.1 0.3h-0.3v0.1h-0.3v0.2h-0.3v0.1h-0.3v0.2h-0.3l-0.2 0.3h-0.3v0.1h-0.3v0.2h-0.3v0.1h-0.3l-0.1 0.3h-0.3v0.2h-0.3v0.1h-0.3v0.2h-0.3l-0.2 0.3h-0.3v0.1h-0.3v0.2h-0.3v0.1h-0.3l-0.1 0.3-0.9 0.3-0.2 0.3h-0.3v0.2h-0.3v0.1h-0.3l-0.1 0.3-0.9 0.3-0.2 0.3h-0.3v0.2h-0.3l-0.1 0.3-0.9 0.3-0.2 0.3-0.6 0.1-0.1 0.3-0.6 0.2q-0.1 0.1-0.2 0.3l-0.9 0.3-0.1 0.3-0.6 0.1v0.2l-0.5 0.1-0.1 0.3-0.6 0.2-0.2 0.3-0.6 0.1-0.1 0.3-0.6 0.2-0.2 0.3-0.6 0.1v0.2l-0.4 0.1-0.2 0.3-0.6 0.2-0.1 0.3h-0.3l-0.2 0.3-0.6 0.1v0.2l-0.4 0.1-0.2 0.3-0.6 0.2q-0.1 0.1-0.1 0.3h-0.3q-0.1 0.1-0.2 0.3h-0.3l-0.1 0.3-0.6 0.1-0.2 0.3h-0.3l-0.1 0.3h-0.3l-0.2 0.3h-0.3l-0.1 0.3-0.6 0.2-0.2 0.3h-0.3q-0.1 0.1-0.1 0.3h-0.3l-0.2 0.3h-0.3l-0.1 0.3h-0.3v0.1l-0.5 0.2-0.1 0.3h-0.3l-0.2 0.3h-0.3l-0.1 0.3h-0.3l-0.2 0.3h-0.3l-0.1 0.3h-0.3l-0.2 0.3h-0.3l-0.1 0.3h-0.3v0.1l-0.5 0.2-0.1 0.3h-0.3v0.1l-0.5 0.2-0.1 0.3h-0.3v0.1l-0.5 0.2-0.1 0.3h-0.3l-0.2 0.3h-0.3l-0.3 0.4h-0.3l-0.1 0.3h-0.3v0.2l-0.5 0.1-0.1 0.3h-0.3l-0.3 0.5h-0.3v0.1l-0.5 0.2-0.1 0.3h-0.3q-0.2 0.2-0.3 0.4h-0.3l-0.2 0.3h-0.3l-0.3 0.5h-0.3q-0.1 0.1-0.1 0.3h-0.3l-0.3 0.4h-0.3l-0.2 0.3h-0.3l-0.3 0.5h-0.3l-0.1 0.3h-0.3l-0.3 0.4h-0.3l-0.2 0.3h-0.3q-0.1 0.2-0.3 0.5h-0.3l-0.3 0.4h-0.3l-0.3 0.5h-0.3l-0.1 0.3h-0.3l-0.3 0.4h-0.3q-0.2 0.2-0.3 0.5h-0.3q-0.2 0.2-0.3 0.4h-0.3l-0.3 0.5h-0.3l-0.3 0.4h-0.3q-0.2 0.2-0.3 0.5h-0.3l-0.3 0.4h-0.3l-0.3 0.5h-0.3l-0.2 0.3-0.4 0.1-0.3 0.4h-0.3l-0.5 0.6h-0.3q-0.1 0.3-0.3 0.5h-0.3l-0.3 0.4h-0.3l-0.4 0.6h-0.3q-0.2 0.3-0.3 0.5h-0.3q-0.3 0.3-0.5 0.6h-0.3q-0.1 0.2-0.3 0.4h-0.3q-0.2 0.3-0.4 0.6h-0.3l-0.5 0.6h-0.3l-0.4 0.6h-0.3q-0.1 0.2-0.2 0.3h-0.1l-0.2 0.3h-0.3q-0.2 0.3-0.4 0.6h-0.3l-0.2 0.3h-0.1q-0.1 0.2-0.2 0.3h-0.3q-0.2 0.3-0.4 0.6h-0.3l-0.2 0.3q-0.1 0.2-0.1 0.3h-0.3l-0.6 0.8h-0.3q-0.3 0.3-0.5 0.6h-0.3l-0.6 0.7h-0.3l-0.6 0.8h-0.3l-0.6 0.7h-0.3l-0.6 0.8h-0.3q-0.3 0.4-0.6 0.7h-0.3l-0.7 0.9h-0.3l-0.6 0.8h-0.3l-0.8 0.9h-0.3v0.1q-0.1 0.2-0.2 0.3-0.1 0.1-0.3 0.2-0.1 0.1-0.2 0.1-0.2 0.1-0.3 0.2-0.2-0.2-0.4-0.4-0.3-0.2-0.5-0.3-0.2-0.2-0.5-0.3-0.2-0.1-0.4-0.2l-0.2-0.3h-0.3v-0.2l-0.4-0.1-0.2-0.3h-0.3l-0.1-0.3h-0.3l-0.3-0.5h-0.3l-0.2-0.3-0.4-0.1v-0.2h-0.3l-0.2-0.3h-0.3l-0.1-0.3h-0.3l-0.2-0.3h-0.3v-0.2l-0.4-0.1-0.2-0.3h-0.3v-0.2l-0.4-0.1-0.2-0.3h-0.3l-0.3-0.5h-0.3l-0.1-0.3-0.5-0.1v-0.2h-0.3l-0.1-0.3h-0.3l-0.2-0.3h-0.3l-0.1-0.3h-0.3v-0.1l-0.5-0.2-0.1-0.3h-0.3l-0.3-0.4h-0.3l-0.2-0.3-0.4-0.2v-0.1h-0.3l-0.2-0.3h-0.3l-0.1-0.3h-0.3l-0.2-0.3h-0.3v-0.2l-0.4-0.1-0.2-0.3h-0.3l-0.3-0.5h-0.3l-0.1-0.3h-0.3l-0.2-0.3h-0.3l-0.1-0.3h-0.3v-0.1l-0.5-0.2-0.1-0.3h-0.3v-0.1l-0.5-0.2-0.1-0.3h-0.3l-0.3-0.4h-0.3l-0.2-0.3-0.4-0.2v-0.1h-0.3l-0.2-0.3h-0.3l-0.1-0.3h-0.3v-0.2l-0.4-0.1-0.2-0.3h-0.3l-0.1-0.3h-0.3l-0.2-0.3h-0.3l-0.1-0.3c-0.4-0.3-0.3 0.2-0.5-0.4l0.9-0.8 0.2-0.3h0.3l0.9-1 0.4-0.2 0.8-0.9h0.3q0.1-0.2 0.3-0.4l0.4-0.3v-0.2h0.3l0.9-1h0.3l0.8-0.9h0.3l0.6-0.8h0.3l0.7-0.9h0.3q0.4-0.4 0.8-0.9h0.3l0.1-0.3 0.5-0.3v-0.1h0.3l0.6-0.8h0.3q0-0.1 0.1-0.3l0.5-0.3v-0.1h0.3l0.6-0.8h0.3l0.6-0.7h0.3l0.6-0.8h0.3q0.2-0.3 0.4-0.6h0.3l0.5-0.6h0.3q0.3-0.4 0.6-0.7h0.3l0.1-0.3h0.2l0.1-0.3h0.3l0.2-0.3h0.1q0.1-0.2 0.2-0.3h0.3q0.2-0.3 0.4-0.6h0.3q0.2-0.3 0.5-0.6h0.3l0.4-0.6h0.3l0.4-0.6h0.3q0.3-0.3 0.5-0.6h0.3q0.1-0.3 0.3-0.5h0.3l0.1-0.3h0.2l0.1-0.3h0.3q0.3-0.3 0.5-0.6h0.3l0.1-0.3 0.5-0.1 0.4-0.6h0.3l0.3-0.5h0.3l0.5-0.6h0.3l0.3-0.4h0.3l0.3-0.5h0.3q0.1-0.2 0.3-0.4h0.3q0.1-0.3 0.3-0.5h0.3q0.2-0.3 0.4-0.6h0.3q0.2-0.2 0.3-0.4l0.5-0.2 0.1-0.3h0.3l0.2-0.3 0.4-0.1q0.2-0.2 0.3-0.5h0.3l0.3-0.4h0.3l0.2-0.3h0.3l0.3-0.5h0.3l0.1-0.3 0.5-0.1q0.1-0.2 0.3-0.5h0.3q0.1-0.2 0.3-0.4h0.3l0.1-0.3h0.3l0.3-0.5h0.3q0.2-0.2 0.3-0.4h0.3q0.1-0.2 0.2-0.3h0.3l0.3-0.5h0.3q0.1-0.1 0.1-0.3h0.3l0.3-0.4h0.3l0.2-0.3h0.3l0.3-0.5h0.3l0.1-0.3h0.3l0.3-0.4h0.3q0.1-0.2 0.2-0.3h0.3q0.1-0.2 0.3-0.5h0.3v-0.1l0.4-0.2q0.1-0.1 0.2-0.3h0.3q0.1-0.2 0.3-0.4h0.3l0.1-0.3h0.3v-0.2l0.5-0.1 0.1-0.3h0.3l0.3-0.5h0.3l0.2-0.3 0.4-0.1v-0.2h0.3l0.2-0.3h0.3l0.1-0.3h0.3l0.2-0.3h0.3l0.3-0.4h0.3l0.1-0.3 0.5-0.2v-0.1h0.3l0.1-0.3h0.3l0.2-0.3h0.3l0.1-0.3h0.3l0.2-0.3h0.3l0.1-0.3h0.3l0.2-0.3h0.3l0.1-0.3h0.3l0.2-0.3h0.3q0.1-0.2 0.1-0.3l0.6-0.2 0.2-0.3h0.3l0.1-0.3h0.3v-0.1l0.5-0.2 0.1-0.3h0.3l0.2-0.3 0.4-0.1v-0.2l0.6-0.1q0.1-0.2 0.2-0.3h0.3q0.1-0.2 0.1-0.3h0.3l0.2-0.3 0.6-0.2v-0.1l0.4-0.2 0.2-0.3h0.3l0.1-0.3 0.6-0.1 0.2-0.3h0.3q0-0.2 0.1-0.3l0.6-0.2 0.2-0.3h0.3l0.1-0.3 0.6-0.1v-0.1l0.5-0.2 0.1-0.3 0.6-0.1q0.1-0.2 0.2-0.3l0.6-0.2 0.1-0.3 0.6-0.1 0.2-0.3 0.6-0.2v-0.1l0.4-0.1 0.2-0.3h0.3v-0.2h0.3l0.1-0.3 0.6-0.1q0.1-0.2 0.2-0.3l0.9-0.3q0-0.2 0.1-0.3l0.6-0.2 0.2-0.3 0.6-0.1 0.1-0.3 0.9-0.3 0.2-0.3h0.3v-0.2h0.3q0-0.1 0.1-0.3l0.9-0.3 0.2-0.3 0.9-0.3 0.1-0.3 0.9-0.3 0.2-0.3 0.9-0.3 0.1-0.3h0.3v-0.1h0.2v-0.2h0.3v-0.1h0.3q0.1-0.2 0.1-0.3h0.3v-0.2h0.3v-0.1h0.3v-0.2h0.3q0.1-0.1 0.2-0.3h0.3v-0.1h0.3v-0.2h0.3v-0.1h0.3v-0.2h0.3l0.1-0.3 0.9-0.3v-0.1l0.9-0.3 0.2-0.3h0.3v-0.2h0.3v-0.1h0.3v-0.2h0.3v-0.1h0.3v-0.2h0.3v-0.1h0.3l0.1-0.3 0.6-0.2v-0.1h0.4v-0.2h0.3v-0.1h0.3v-0.2h0.3v-0.1l0.6-0.2v-0.1h0.3v-0.2h0.3v-0.1h0.3v-0.2h0.3l0.1-0.3 2.4-1v-0.2l0.6-0.1v-0.2l0.6-0.1v-0.2h0.3v-0.1h0.3v-0.2h0.3v-0.1h0.3v-0.2l0.9-0.3v-0.1l0.6-0.2v-0.1h0.4v-0.2l0.9-0.3v-0.1h0.3v-0.2h0.3v-0.1h0.3v-0.2h0.3v-0.1h0.3v-0.2h0.3v-0.1h0.3v-0.2h0.5v-0.1l0.6-0.2v-0.1h0.3v-0.2h0.3v-0.1l0.9-0.3v-0.2h0.4v-0.1h0.3v-0.1l0.9-0.3v-0.2h0.4v-0.1h0.3v-0.2l0.9-0.3v-0.2h0.5v-0.1h0.3v-0.2l0.6-0.1v-0.2h0.4v-0.1h0.3v-0.2l0.6-0.1v-0.1h0.5v-0.2l0.6-0.2v-0.1h0.4v-0.2l0.6-0.1v-0.1h0.5v-0.2l0.6-0.2v-0.1h0.4v-0.1l0.6-0.2v-0.1h0.5v-0.2l0.6-0.1v-0.2l0.7-0.1v-0.2h0.5v-0.1l0.6-0.2v-0.1h0.4v-0.2h0.3v-0.1l0.8-0.2v-0.1h0.4v-0.2h0.3v-0.1l0.8-0.2v-0.1h0.4v-0.2h0.3v-0.1h0.5v-0.2h0.3v-0.1h0.4v-0.2h0.3v-0.1h0.5v-0.2h0.3v-0.1l0.9-0.2v-0.1h0.3v-0.2h0.4v-0.1h0.3v-0.2l0.9-0.1v-0.2h0.3v-0.1l0.9-0.2v-0.1h0.3v-0.2l1.4-0.3v-0.1h0.3v-0.2l1.3-0.3v-0.1h0.3v-0.2h0.5v-0.1h0.4v-0.2h0.5v-0.1h0.4c2.6-1.2 5.7-2 8.4-3l1.1-0.2v-0.1h0.4v-0.2h0.4v-0.1h0.5v-0.2l1.9-0.4v-0.2l1.5-0.3v-0.1l2.7-0.6c3.7-1.4 8-2.1 11.9-3.3h0.7c1.8-0.6 4-0.9 5.8-1.5l1.5-0.2c1.1-0.3 2.5-0.5 3.6-0.9h0.9c2.1-0.6 4.6-0.7 6.6-1.3l2.7-0.3v-0.2l4.1-0.4c2-0.6 4.8-0.5 6.9-1.1h1.3v-0.1h1.3v-0.2h1.5v-0.1h1.5v-0.1h1.6v-0.2h1.7v-0.2h1.9v-0.1z"/>
	<path id="Прямоугольник_4_копия" fill-rule="evenodd" class="s8" d="m420.1 142.1q0.3 0 0.5 0.1 0.2 0.1 0.4 0.2 0.2 0.2 0.3 0.4 0.1 0.3 0.1 0.5v174.9c0 0.3-0.1 0.6-0.4 0.9q-0.3 0.3-0.9 0.3-0.4 0-0.9-0.3c-0.2-0.3-0.4-0.6-0.4-0.9v-174.9q0-0.2 0.1-0.5 0.1-0.2 0.3-0.4 0.2-0.1 0.4-0.2 0.3-0.1 0.5-0.1z"/>
	<path id="Фигура_10_копия" fill-rule="evenodd" class="s7" d="m428.1 196.4v-29.3l3.8-0.2v-0.1c0.9-0.3 2.4 0.1 3.3-0.1l13.1-0.2h4.1v0.2h0.9q0.5-0.1 1-0.1 0.5 0 1 0 0.5 0 1 0.1 0.5 0 1 0.1l8.2 0.3v0.2h2v0.1h1.9v0.2h1.7v0.1h1.6v0.2h1.5v0.1h1.4v0.2h1.3v0.1h1.4v0.1h1.3l16.8 2.6c1 0.3 2.3 0.4 3.3 0.7h0.7c0.9 0.3 2.1 0.5 3 0.8h0.8c2.6 0.8 5.6 1.1 8.2 1.9l2.7 0.5c3.4 1.1 7.4 1.6 10.8 2.8l3 0.6c2.4 0.9 5.2 1.4 7.6 2.3l1.2 0.1c1.6 0.6 3.6 1.1 5.2 1.7l1.2 0.1c4 1.5 8.6 2.3 12.6 3.8h0.6v0.1h0.5v0.2l1 0.1v0.2l1.1 0.1v0.2l1 0.1v0.2h0.6v0.1h0.4v0.2l1.7 0.3v0.1l1 0.2v0.1l1.1 0.2v0.1l1.2 0.2v0.1h0.4v0.2l1.7 0.3v0.1l1 0.2v0.1l1.2 0.2v0.1h0.5v0.2h0.6v0.1h0.6v0.2l1 0.1v0.2h0.6v0.1l1.2 0.2c3.9 1.3 8.4 2 12.3 3.3l1.4 0.1c1.8 0.6 4 0.9 5.8 1.5h0.7v0.2h0.6v0.1h0.8c1.7 0.6 3.9 0.8 5.7 1.3l1.6 0.2c2.6 0.8 5.7 0.9 8.3 1.6h0.9c0.7 0.3 1.9 0.4 2.6 0.6h1.1c1.2 0.4 2.8 0.4 4 0.8l6 0.6c2.1 0.6 5 0.3 7.1 0.9h1.8v0.1h1.6v0.2h2.1v0.1h1.6l3 0.2v0.1l7.1 0.2c1.6 0.4 4.6 0.1 6.6 0.1h6.8q0.5 0.1 0.9 0.1 0.5 0 0.9 0 0.5-0.1 0.9-0.1 0.5 0 0.9-0.1h3.6v-0.2h2.9v-0.1h2.1v-0.2h1.9v-0.1h1.8v-0.2h1.5v-0.1h1.5v-0.2h1.5c2.1-0.6 4.8-0.4 6.9-1l2.1-0.2c1.6-0.4 3.7-0.5 5.2-1h0.9c1-0.3 2.3-0.5 3.2-0.8h0.7c0.9-0.2 2-0.4 2.9-0.7h0.7c2-0.6 4.4-1 6.3-1.6l3-0.6v-0.2h0.5v-0.1l1.6-0.3v-0.2l1.7-0.3v-0.1l1-0.2v-0.1h0.6v-0.2l1.5-0.3v-0.2h0.5v-0.1h0.4v-0.1h0.6v-0.2l1.5-0.3v-0.1l0.9-0.2v-0.1h0.4v-0.2h0.5v-0.2h0.4v-0.1h0.5v-0.1h0.6v-0.2l1.3-0.3v-0.2h0.3v-0.1h0.5v-0.1h0.4v-0.2h0.5v-0.2h0.4v-0.1l1.4-0.3c0.6-0.3 1.4-0.6 2.1-0.9l0.9-0.2v-0.1h0.3v-0.1l0.9-0.2v-0.1h0.3v-0.2h0.4v-0.1h0.5v-0.2h0.3v-0.1l0.9-0.2v-0.1h0.3v-0.2h0.4v-0.1h0.3v-0.2l0.9-0.1v-0.2h0.3v-0.1h0.4v-0.2h0.3v-0.1l0.7-0.2v-0.1h0.5v-0.2l0.7-0.1v-0.2h0.3v-0.1h0.5v-0.2l0.6-0.1v-0.2h0.4v-0.1h0.3v-0.2h0.5v-0.1l0.6-0.2v-0.1h0.4v-0.2h0.3v-0.1h0.5v-0.2l0.6-0.1v-0.2h0.3v-0.1h0.4v-0.2l0.6-0.1v-0.2h0.5v-0.1h0.3v-0.2l0.6-0.1v-0.2h0.4v-0.1h0.3v-0.2h0.3v-0.1h0.3v-0.2h0.5v-0.1h0.3v-0.2h0.3v-0.1l0.6-0.2v-0.1h0.4v-0.2h0.3v-0.1h0.3v-0.2h0.3v-0.1l0.9-0.3v-0.2h0.5v-0.1l0.9-0.3v-0.2h0.3v-0.1h0.3v-0.2h0.3v-0.1h0.3v-0.2l0.6-0.1v-0.2h0.4v-0.1h0.3v-0.2l0.6-0.1v-0.2l0.6-0.1v-0.2l0.6-0.1v-0.2h0.3v-0.1h0.3v-0.2h0.3v-0.1h0.3v-0.2h0.3v-0.1l2.4-1.1 0.1-0.3 0.9-0.3v-0.1h0.3v-0.2h0.3v-0.1h0.3v-0.2h0.3v-0.1h0.3v-0.2l0.6-0.1 0.2-0.3h0.3v-0.2h0.3v-0.1h0.3v-0.2h0.3v-0.1l0.6-0.2 0.1-0.3 0.6-0.1v-0.2h0.3v-0.1h0.3v-0.2h0.3l0.2-0.3h0.3v-0.1h0.3v-0.2h0.3v-0.1h0.3q0.1-0.2 0.1-0.3l0.6-0.2v-0.1h0.3v-0.1h0.3l0.2-0.3h0.3v-0.2h0.3v-0.1h0.3v-0.2h0.3q0.1-0.1 0.1-0.3l0.9-0.3 0.2-0.3 0.9-0.3 0.1-0.3 0.6-0.1q0.1-0.2 0.2-0.3l0.6-0.2 0.1-0.3 0.9-0.3 0.2-0.3 0.6-0.1 0.1-0.3 0.6-0.2 0.2-0.3 0.6-0.1 0.1-0.3 0.6-0.2 0.2-0.3 0.6-0.1 0.1-0.3h0.3v-0.2h0.3l0.2-0.3h0.3l0.1-0.3 0.6-0.1q0.1-0.2 0.2-0.3h0.3l0.1-0.3 0.6-0.2v-0.1l0.5-0.2 0.1-0.3 0.6-0.1v-0.2l0.5-0.1 0.1-0.3 0.6-0.2 0.2-0.3h0.3l0.1-0.3h0.3l0.2-0.3h0.3l0.1-0.3 0.6-0.1q0.1-0.2 0.2-0.3h0.3v-0.2l0.4-0.1 0.2-0.3h0.3l0.1-0.3 0.5-0.2v-0.1l0.6-0.2 0.1-0.3h0.3v-0.1l0.5-0.2 0.1-0.3h0.3l0.2-0.3h0.3v-0.1l0.4-0.2 0.2-0.3h0.3l0.3-0.4h0.3l0.1-0.3 0.5-0.2v-0.1h0.3l0.1-0.3h0.3l0.2-0.3h0.3l0.1-0.3h0.3l0.2-0.3h0.3l0.3-0.5h0.3l0.1-0.3h0.3v-0.1l0.5-0.2 0.1-0.3h0.3l0.3-0.4h0.3v-0.2l0.5-0.1 0.1-0.3h0.3q0.2-0.3 0.3-0.5h0.3l0.2-0.3h0.3q0.1-0.2 0.3-0.4h0.3l0.1-0.3h0.3l0.3-0.5h0.3l0.2-0.3h0.3l0.1-0.3 0.5-0.1q0.1-0.3 0.3-0.5h0.3q0-0.1 0.1-0.3h0.3l0.2-0.3 0.4-0.1 0.3-0.5h0.3l0.2-0.3h0.3l0.3-0.4h0.3l0.3-0.5h0.3q0.1-0.2 0.3-0.4h0.3l0.3-0.5h0.2q0.2-0.2 0.3-0.4h0.3l0.3-0.5h0.3l0.3-0.4h0.3l0.3-0.5h0.3l0.4-0.6h0.3l0.3-0.4h0.3q0.2-0.2 0.3-0.5h0.3q0.3-0.3 0.5-0.6l0.4-0.1 0.2-0.3h0.3l0.4-0.6h0.3l0.3-0.5h0.3q0.3-0.3 0.5-0.6l0.4-0.1 0.2-0.3h0.3l0.4-0.6h0.3q0.3-0.3 0.5-0.6h0.3l0.4-0.6h0.3l0.5-0.6h0.3q0.2-0.3 0.4-0.6h0.3l0.6-0.8h0.3q0.3-0.3 0.5-0.6h0.3l0.6-0.7h0.3l0.1-0.3h0.2l0.1-0.3h0.3l0.2-0.3 0.4-0.3v-0.2h0.3l0.6-0.7h0.3l0.2-0.3 0.4-0.3v-0.1h0.3l0.6-0.8h0.3l0.8-0.9h0.3l0.7-0.9h0.3l0.6-0.7h0.3l0.9-1.1h0.3l0.7-0.9h0.3q0.5-0.5 0.9-1h0.3l0.9-1.1h0.3l1.1-1.2h0.3l1-1.2h0.3l1.2-1.3h0.3l1.4-1.5h0.3l1.3-1.5h0.3l1.2-1.4 0.6-0.4v-0.2h0.3l2-2.1h0.3l2.5-2.6h0.3l0.9-1.1 2.4-2.2 0.9-1.1q0.6-0.5 1.2-1 0.7-0.6 1.2-1.1 0.6-0.6 1.2-1.2 0.5-0.6 1.1-1.2 0.6-0.5 1.2-1.1 0.5-0.5 1.1-1.1 0.6-0.6 1.1-1.2 0.5-0.6 1.1-1.2l3.4-3.3 0.7-0.9 0.3-0.2v-0.3l2.9-2.7v-0.3l2.2-2.1v-0.3l1.5-1.3 1.5-1.8 0.8-0.6v-0.3l1.6-1.5v-0.3l1.4-1.2v-0.3l1.5-1.4v-0.3l1.2-1v-0.3l1.2-1v-0.3l1.2-1v-0.3l1.2-1.1v-0.3h0.1l0.5-0.6 0.4-0.3v-0.3l1.1-0.9v-0.3l0.9-0.7v-0.3l0.9-0.8v-0.3l1-0.9v-0.3l0.9-0.7v83.6l-0.4 0.3v0.2h-0.3q-0.2 0.2-0.3 0.4h-0.3l-0.3 0.5h-0.3l-0.5 0.6h-0.3l-0.3 0.4-0.4 0.2-0.2 0.3h-0.3l-0.3 0.4h-0.3q-0.1 0.3-0.3 0.5h-0.3l-0.3 0.4h-0.3l-0.3 0.5h-0.3l-0.3 0.4h-0.3l-0.3 0.5h-0.3q-0.1 0.2-0.3 0.4h-0.3l-0.1 0.3h-0.3l-0.3 0.5h-0.3q-0.2 0.2-0.3 0.4h-0.3q-0.2 0.3-0.3 0.5h-0.3l-0.3 0.4h-0.3l-0.2 0.3h-0.3l-0.3 0.5h-0.3l-0.3 0.4h-0.3q-0.1 0.2-0.1 0.3h-0.3q-0.1 0.2-0.2 0.3l-0.4 0.2-0.3 0.4h-0.3l-0.2 0.3h-0.3l-0.3 0.5h-0.3l-0.1 0.3h-0.3l-0.3 0.4h-0.3q-0.1 0.2-0.2 0.3h-0.3q-0.1 0.2-0.3 0.5h-0.3q-0.1 0.1-0.1 0.3h-0.3q-0.2 0.2-0.3 0.4h-0.3l-0.2 0.3h-0.3l-0.3 0.5h-0.3v0.1l-0.4 0.2-0.2 0.3h-0.3l-0.3 0.4h-0.3v0.2l-0.4 0.1-0.2 0.3h-0.3l-0.3 0.5h-0.3q-0.1 0.1-0.1 0.3h-0.3v0.1l-0.5 0.2-0.1 0.3h-0.3q-0.2 0.2-0.3 0.4h-0.3l-0.2 0.3h-0.3v0.2l-0.4 0.1q-0.1 0.2-0.2 0.3h-0.3q-0.1 0.2-0.3 0.5h-0.3l-0.1 0.3-0.5 0.1v0.2h-0.3l-0.1 0.3h-0.3l-0.2 0.3h-0.3l-0.1 0.3h-0.3l-0.2 0.3h-0.3l-0.1 0.3h-0.3q-0.1 0.1-0.2 0.3h-0.3l-0.1 0.3h-0.3q-0.1 0.1-0.2 0.3h-0.3q-0.1 0.2-0.3 0.4h-0.3l-0.1 0.3-0.5 0.2v0.1h-0.3l-0.1 0.3h-0.3q-0.1 0.2-0.2 0.3l-0.6 0.2-0.1 0.3h-0.3l-0.2 0.3h-0.3l-0.1 0.3h-0.3l-0.2 0.3h-0.3v0.1l-0.4 0.2-0.2 0.3h-0.3l-0.1 0.3h-0.3l-0.2 0.3h-0.3l-0.1 0.3-0.6 0.1q-0.1 0.2-0.2 0.3h-0.3v0.2l-0.4 0.1q-0.1 0.2-0.2 0.3h-0.3l-0.1 0.3-0.5 0.2v0.1l-0.6 0.2-0.1 0.3h-0.3l-0.2 0.3h-0.3l-0.1 0.3-0.6 0.1-0.2 0.3h-0.3q0 0.2-0.1 0.3h-0.3l-0.2 0.3-0.6 0.2v0.1l-0.4 0.2-0.2 0.3-0.6 0.1v0.2l-0.4 0.1-0.2 0.3-0.6 0.2-0.1 0.3h-0.3l-0.2 0.3-0.6 0.1-0.1 0.3-0.6 0.2-0.2 0.3-0.6 0.1v0.2l-0.4 0.1-0.1 0.3-0.6 0.2q-0.1 0.1-0.2 0.3l-0.6 0.1-0.1 0.3-0.6 0.2q-0.1 0.1-0.2 0.3l-0.6 0.1-0.1 0.3-0.6 0.2-0.2 0.3-0.6 0.1q-0.1 0.2-0.1 0.3l-0.6 0.2-0.2 0.3-0.6 0.1q-0.1 0.2-0.1 0.3h-0.3v0.2h-0.3l-0.2 0.3-0.6 0.1-0.1 0.3-0.9 0.3-0.2 0.3-0.9 0.3-0.1 0.3-0.6 0.2-0.2 0.3-0.9 0.3-0.1 0.3-0.9 0.3-0.2 0.3-0.9 0.3-0.1 0.3-0.9 0.3-0.2 0.3-0.6 0.1v0.2h-0.3v0.1h-0.3l-0.1 0.3h-0.3v0.2h-0.3v0.1h-0.3v0.1h-0.3l-0.2 0.3h-0.3v0.1h-0.3v0.2h-0.3v0.1h-0.3l-0.1 0.3h-0.3v0.2h-0.3v0.1h-0.3v0.2h-0.3v0.1h-0.3l-0.2 0.3h-0.3v0.2h-0.3v0.1h-0.3v0.2h-0.3v0.1h-0.3q-0.1 0.2-0.1 0.3h-0.3v0.2h-0.3v0.1h-0.3v0.2h-0.3v0.1h-0.3v0.2h-0.3v0.1h-0.3q-0.1 0.2-0.2 0.3h-0.3v0.2h-0.3v0.1h-0.3v0.2h-0.3v0.1h-0.3v0.2l-0.6 0.1-0.1 0.3-0.6 0.2v0.1h-0.3v0.2h-0.3v0.1h-0.3v0.2h-0.3v0.1l-0.6 0.2v0.1l-0.6 0.2v0.1l-0.9 0.3-0.2 0.3-0.6 0.2v0.1h-0.3v0.2h-0.3v0.1h-0.3v0.2h-0.3v0.1h-0.3v0.2l-0.6 0.1v0.2l-0.6 0.1v0.2l-0.6 0.1v0.2h-0.3v0.1h-0.3v0.2h-0.3v0.1h-0.3v0.2l-0.9 0.3v0.1l-0.6 0.2v0.1h-0.4v0.2l-0.9 0.3v0.1h-0.3v0.2h-0.3v0.1h-0.3v0.2h-0.3v0.1h-0.3v0.2h-0.3v0.1h-0.3v0.2h-0.3v0.1h-0.3v0.2h-0.3v0.1h-0.5v0.2l-0.6 0.1v0.2h-0.3v0.1h-0.3v0.2l-0.9 0.3v0.1l-1.3 0.5v0.1l-0.6 0.2v0.1h-0.5v0.2h-0.3v0.1l-0.9 0.3v0.2h-0.4v0.1h-0.3v0.2l-0.9 0.3v0.1h-0.4v0.2h-0.3v0.1l-0.6 0.2v0.1h-0.4v0.2h-0.3v0.1l-0.6 0.2v0.1h-0.5v0.2h-0.3v0.1l-0.6 0.2v0.1h-0.4v0.2l-0.6 0.1v0.2h-0.5v0.1l-0.6 0.2v0.1h-0.4v0.2l-0.6 0.1v0.2h-0.5v0.1l-0.6 0.2v0.1h-0.4v0.1h-0.3v0.2h-0.4v0.1l-0.6 0.2v0.1h-0.5v0.2h-0.3v0.1h-0.4v0.2l-0.6 0.1v0.2h-0.5v0.2h-0.3v0.1l-0.7 0.1v0.2h-0.5v0.1h-0.3v0.2l-0.7 0.1v0.2h-0.5v0.1h-0.3v0.2h-0.4v0.2h-0.3v0.1h-0.5v0.1h-0.3v0.2l-0.9 0.1v0.2l-0.7 0.2v0.1h-0.3v0.1h-0.5v0.2h-0.3v0.1l-0.9 0.2v0.1h-0.3v0.2l-0.9 0.1v0.2h-0.3v0.1l-0.9 0.2v0.1h-0.3v0.2h-0.4v0.1l-0.9 0.2v0.1h-0.3v0.2l-0.9 0.1v0.2h-0.3v0.1h-0.5v0.2h-0.4v0.1h-0.5v0.2h-0.4v0.1h-0.5v0.2h-0.3v0.1l-2.7 0.8v0.1h-0.3v0.2h-0.4v0.1h-0.4v0.2h-0.5v0.1h-0.4v0.2h-0.5v0.1h-0.4v0.2h-0.5v0.1h-0.4v0.2h-0.5v0.1l-0.9 0.2v0.1l-0.9 0.2v0.1h-0.6v0.2h-0.4v0.1h-0.5v0.2h-0.4v0.1h-0.5v0.2h-0.4v0.1h-0.6v0.2h-0.5v0.1h-0.4v0.2h-0.5v0.1l-1.9 0.5v0.1l-2.6 0.6v0.2l-3.1 0.7v0.2l-1.2 0.1v0.2h-0.5v0.1l-1.6 0.3v0.2l-1.7 0.3v0.1l-1.2 0.2c-1.1 0.4-2.5 0.7-3.5 1l-1.2 0.2c-1.8 0.6-4 0.9-5.7 1.5h-0.8c-2.2 0.7-4.8 1-7 1.6h-0.9v0.2h-0.8v0.1h-0.7v0.2h-0.8v0.1h-0.9c-0.6 0.2-1.7 0.4-2.4 0.6h-0.9c-1.3 0.4-3.1 0.5-4.5 0.9h-1c-2.2 0.7-5.1 0.6-7.3 1.2l-2.4 0.2c-1.6 0.4-3.8 0.3-5.4 0.7h-1.5v0.2h-1.5v0.1h-1.8v0.2h-1.8v0.1h-1.8v0.2h-2.1v0.1h-2.6v0.2h-2.7v0.1h-3.3v0.2h-5v0.1h-8.1q-0.5 0-1 0-0.5 0.1-1 0-0.5 0-1 0-0.5-0.1-1-0.1h-4.4v-0.2h-3v-0.1h-2.4v-0.2h-2.1v-0.2h-1.8v-0.1h-1.6c-1.8-0.5-4.1-0.3-5.8-0.7l-2.6-0.2-13.6-2.1c-2.2-0.7-4.8-0.8-6.9-1.5l-2.2-0.3v-0.1l-1.4-0.2v-0.1h-0.6v-0.2l-1.3-0.1v-0.2l-2-0.3v-0.1h-0.7v-0.2l-2.6-0.4c-3.3-1.1-7.1-1.7-10.3-2.9l-1.2-0.1v-0.2h-0.4v-0.1l-1.1-0.2v-0.1h-0.6v-0.2h-0.6v-0.1l-3.1-0.8v-0.1h-0.5v-0.2h-0.4v-0.1l-1.1-0.2v-0.1l-1.5-0.3v-0.2l-1-0.1v-0.2l-1.5-0.3v-0.1l-2-0.5v-0.1l-1.9-0.5v-0.1l-2.6-0.6v-0.2h-0.4v-0.1h-0.5v-0.2h-0.4v-0.1h-0.4v-0.2h-0.5v-0.1h-0.6v-0.2l-0.9-0.1v-0.2h-0.4v-0.1h-0.5v-0.2h-0.4v-0.1l-1.5-0.3v-0.2h-0.5v-0.1l-0.9-0.2v-0.1l-1-0.2c-6.3-2.3-13.1-4.1-19.3-6.4l-1.1-0.2v-0.1l-0.9-0.1v-0.2h-0.4v-0.1h-0.5v-0.2h-0.4v-0.2h-0.5v-0.1l-1.9-0.4v-0.2l-0.9-0.1v-0.2h-0.6v-0.1h-0.5v-0.2h-0.4v-0.1h-0.5v-0.2h-0.4v-0.1h-0.6v-0.2h-0.5v-0.1h-0.4v-0.2h-0.5v-0.1h-0.4v-0.2h-0.6c-3.1-1.1-6.7-2-9.9-3.1h-0.6v-0.2h-0.4v-0.1l-1.1-0.2v-0.1l-1-0.2v-0.1l-1.1-0.2v-0.1l-1.2-0.2c-3-1.1-6.5-1.6-9.6-2.7l-3-0.6v-0.1h-0.6v-0.2h-0.6v-0.1h-0.7v-0.2h-0.6v-0.1h-0.6v-0.2h-0.6v-0.1l-16.3-3.3h-0.9c-1.1-0.3-2.6-0.4-3.7-0.8h-1.1c-1.6-0.4-3.6-0.4-5.2-0.9l-2.4-0.1c-1.6-0.5-3.8-0.3-5.4-0.8h-1.7v-0.1h-1.6v-0.2l-9.1-0.4v-0.2h-3.8c-1.5-0.4-3.9-0.1-5.7-0.1l-13.3 0.1c-0.7 0.2-2 0-2.8 0.2v0.1h-2.4v0.2z"/>
	<path id="Фигура_3_копия_2-2" fill-rule="evenodd" class="s2" d="m282.5 253.1l5.9 0.2c3.8-0.3 3.3-3.5 3.3-3.5-0.7-3.2-3-2.8-3-2.8l-5.9 0.1c-3.1 1-3 3.1-3 3.1 0.7 2.8 2.7 2.9 2.7 2.9z"/>
	<path id="Фигура_2_копия" fill-rule="evenodd" class="s1" d="m388.6 214.4c10.5-1.7 10.2-11.6 10.2-11.6l2.5-38c1.5-13.1-10.1-10.9-10.1-10.9l-33.6 2.2c-13.1 1.7-19.4 9.6-19.4 9.6l-72.5 65c-3.6 4.2 2.7 3.7 2.7 3.7z"/>
	<path id="Фигура_22_копия" fill-rule="evenodd" class="s4" d="m319.9 322.7l1.1 6.8 102.9-0.5c6.1-1 5.4-6.3 5.4-6.3z"/>
	<g id="&lt;Group&gt;">
		<g id="&lt;Group&gt;">
			<g id="&lt;Group&gt;">
				<g id="&lt;Group&gt;">
					<path id="&lt;Compound Path&gt;" fill-rule="evenodd" class="s9" d="m737.5 161.9l-11.7 0.5 11.7 0.5v0.2c0 2.6-2.1 4.7-4.7 4.7h-8.7c-1.7 0-3-1.5-2.8-3.2q0.2-1.1 0.2-2.2c0-7.9-6.6-14.2-14.6-13.9-6.8 0.3-12.5 5.7-13.1 12.5q-0.2 1.8 0.1 3.6c0.2 1.7-1.1 3.2-2.8 3.2h-7.6v-46.4h7.6l14 1c1.3 0.8 2.4 1.9 3.2 3.2l6.1 11 13.5 1.5c0.8 0 1.5 0.3 2.1 0.8l-26.6 0.7 32.1 0.8q0.9 0.6 1.4 1.5l-20.1 0.9 20.7 0.9q0 0.3 0 0.6zm-27.7-25.7l-5.6-10q0 0 0 0c-0.8-1.4-2.3-2.2-3.8-2.2h-13.3v12.2z"/>
					<path id="&lt;Compound Path&gt;" fill-rule="evenodd" class="s9" d="m707.6 173.3c-6.1 0-10.9-4.8-10.9-10.9 0-6 4.8-10.9 10.9-10.9 6 0 10.9 4.9 10.9 10.9 0 6.1-4.9 10.9-10.9 10.9zm5.4-10.9c0-2.9-2.4-5.3-5.4-5.3-3 0-5.4 2.4-5.4 5.3 0 3 2.4 5.4 5.4 5.4 3 0 5.4-2.4 5.4-5.4z"/>
					<path id="&lt;Path&gt;" class="s6" d="m676.1 131.4c0-7-4-13.3-10.3-16.1-2.3-1.1-4.8-1.6-7.4-1.6h-4.2-34.5-50.7c0 8.6 7 15.6 15.6 15.6h66.4c2.3 0 4.3 1.5 4.8 3.6h-71c0 8.6 6.9 15.6 15.5 15.6h55.9c2.2 0 4.2 1.5 4.8 3.7h-60.5c0 8.6 7 15.6 15.6 15.6h53 7z"/>
				</g>
			</g>
			<g id="&lt;Group&gt;">
				<path id="&lt;Path&gt;" class="s9" d="m681.3 167.8h-2.8v-49.2c0-6-4.8-10.8-10.7-10.8h-1v-2.8h1c7.4 0 13.5 6.1 13.5 13.6z"/>
			</g>
		</g>
		<path id="&lt;Path&gt;" class="s9" d="m700.4 120.7l-9.3 0.7h-7.6v-4.7h6.7c3.8 0 7.4 1.4 10.2 4z"/>
	</g>
</svg>