<svg version="1.2" xmlns="http://www.w3.org/2000/svg" viewBox="0 0 170 80" width="170" height="80">
	<title>standart (4)-svg</title>
	<defs>
		<clipPath clipPathUnits="userSpaceOnUse" id="cp1">
			<path d="m0-15h222v97.64h-222z"/>
		</clipPath>
		<clipPath clipPathUnits="userSpaceOnUse" id="cp2">
			<path d="m13.69 46.05q0.8-0.71 1.82-1.07c2.51-0.88 6.32-2.18 10.29-3.51q0.09-0.03 0.18 0 0.09 0.03 0.14 0.1 0.06 0.08 0.06 0.17 0 0.09-0.06 0.17l-3.31 4.55-1.56 3.43q-0.17 0.37-0.48 0.62-0.32 0.25-0.71 0.34l-8.31 1.55c0-2.32 0.75-4.41 1.94-6.35z"/>
		</clipPath>
	</defs>
	<style>
		tspan { white-space:pre } 
		.s0 { fill: #172126 } 
		.s1 { fill: #e3e0c2 } 
		.s2 { fill: #9f9f9f } 
		.s3 { mix-blend-mode: overlay;fill: #9f9f9f } 
		.s4 { fill: #a7a9ac } 
		.s5 { mix-blend-mode: multiply;fill: #909697 } 
		.s6 { fill: #e3dbc4 } 
		.s7 { opacity: .3;fill: #e3dbc4 } 
		.s8 { opacity: .5;fill: #cdccc9 } 
		.s9 { mix-blend-mode: multiply;fill: #414042 } 
		.s10 { fill: #182127 } 
		.s11 { fill: #393939 } 
		.s12 { fill: #a41e22 } 
		.s13 { fill: #cac9ae } 
		.s14 { fill: #36424a } 
		.s15 { fill: #b1af9d } 
		.s16 { mix-blend-mode: multiply;fill: #b1af9d } 
		.s17 { fill: #ff7a06 } 
		.s18 { fill: #ffdb5c } 
		.s19 { fill: #45525b } 
		.s20 { fill: #ffbf64 } 
		.s21 { fill: #f7941d } 
		.s22 { fill: #263238 } 
		.s23 { fill: #1f1f1f } 
		.s24 { fill: #292929 } 
	</style>
	<g id="Clip-Path" clip-path="url(#cp1)">
		<g id="Layer">
			<path id="Layer" class="s0" d="m137.9 65.4h-22.7v-14.4h23.5z"/>
			<path id="Layer" class="s0" d="m43.8 65.4h-24v-14.4h24.9z"/>
			<path id="Layer" class="s1" d="m13.8 46c0 0 8.2-6.3 17.1-9.1 0 0 18.4-18.5 23.1-22.5 0 0 7.9-6.2 17.3-6.2h76.3c0 0 1.2 0.2 3.4 1.7 0 0 3.2 7.6 3.6 29.4v23.3l-16.7 2.8q0-0.2 0-0.4c0-3-1.2-5.9-3.3-8.1-2.2-2.1-5.1-3.3-8.1-3.3-1.5 0-2.9 0.3-4.3 0.8-1.4 0.6-2.7 1.5-3.7 2.5-1.1 1.1-1.9 2.3-2.5 3.7-0.5 1.4-0.8 2.9-0.8 4.4q0 0.2 0 0.4h-71.7q0-0.2 0-0.4c0-3-1.2-5.9-3.4-8.1-2.1-2.1-5-3.3-8-3.3-2.6 0-5.1 0.9-7.2 2.5-2 1.7-3.4 4-3.9 6.6q-0.1 0.2-0.2 0.3-0.2 0.2-0.4 0.3-0.2 0-0.4 0-0.2-0.1-0.4-0.3l-7.6-8.2c0 0-1.2-4.3 1.8-8.8z"/>
			<path id="Layer" class="s2" d="m13.7 46.1c0.5-0.5 1.1-0.9 1.8-1.1 2.5-0.9 6.3-2.2 10.3-3.5q0.1-0.1 0.2 0 0.1 0 0.1 0.1 0.1 0 0.1 0.1 0 0.1-0.1 0.2l-3.3 4.6-1.6 3.4q-0.1 0.4-0.4 0.6-0.3 0.3-0.7 0.3l-8.3 1.6c0-2.3 0.7-4.4 1.9-6.3z"/>
			<path id="Layer" class="s2" d="m20.2 46.3q0.1-0.1 0.2-0.2 0.1 0 0.2-0.1l1.8-0.3q0.1 0 0.1 0 0.1 0 0.1 0.1 0 0 0 0 0 0.1 0 0.1l-1.8 4.4-3.1 0.6z"/>
			<path id="Layer" class="s2" d="m13.4 48.9c-0.3 1.1 0 2.2 0.5 2.3 0.5 0.1 1.2-0.8 1.4-1.9 0.3-1.2 0-2.2-0.5-2.3-0.5-0.1-1.2 0.7-1.4 1.9z"/>
			<path id="Layer" class="s2" d="m17.1 45.5c0.4 0 0.8 0.8 0.8 1.7 0 1-0.4 1.7-0.8 1.7-0.5 0-0.9-0.7-0.9-1.7 0-0.9 0.4-1.7 0.9-1.7z"/>
			<g id="Clip-Path" clip-path="url(#cp2)">
				<g id="Layer">
					<g id="Layer" style="opacity: .3">
						<path id="Layer" class="s3" d="m12 48.5c0.1-0.8 1.3-1.8 1.7-2.4q0.8-0.8 1.8-1.1c2.5-0.9 6.3-2.2 10.3-3.5q0.1-0.1 0.2 0 0.1 0 0.1 0.1 0.1 0 0.1 0.1 0 0.1-0.1 0.2v0.1c-2.6 1.4-10.4 5.7-14.2 8.9 0-1.2 0.1-1.7 0.1-2.4z"/>
					</g>
					<path id="Layer" class="s4" d="m11.8 52l8.2-1.6q0.2-0.1 0.5-0.3 0.2-0.1 0.3-0.4l1.6-3.4v-0.1l3-4.1c-3.3 1.1-6.9 2.3-9.7 3.3-1.1 0.4-2.3 1.2-2.9 2.2 0-0.5 0.6-1.1 0.9-1.5q0.8-0.8 1.8-1.1c2.5-0.9 6.3-2.2 10.3-3.5q0 0 0.1 0 0.1 0 0.1 0 0.1 0 0.1 0.1 0.1 0.1 0.1 0.2 0 0-0.1 0.1l-3.3 4.6-1.6 3.4q-0.1 0.4-0.4 0.6-0.3 0.3-0.7 0.3l-8.4 1.6q0-0.2 0.1-0.4z"/>
				</g>
			</g>
			<g id="Layer" style="opacity: .1">
				<path id="Layer" class="s5" d="m154.5 62.6l-16.7 2.8q0-0.2 0-0.4c0-1.5-0.3-3-0.8-4.4-0.6-1.4-1.4-2.6-2.5-3.7-1-1-2.3-1.9-3.7-2.5-1.4-0.5-2.8-0.8-4.3-0.8-3 0-5.9 1.2-8.1 3.3-2.1 2.2-3.3 5.1-3.3 8.1q0 0.2 0 0.4h-71.7q0-0.2 0-0.4c0-3-1.2-5.9-3.3-8.1-2.1-2.1-5-3.3-8-3.3-2.7 0-5.2 0.9-7.2 2.5-2 1.7-3.4 4-4 6.6q0 0.2-0.2 0.3-0.1 0.2-0.3 0.3-0.2 0-0.4 0-0.3-0.1-0.4-0.3l-7.6-8.2c0 0-0.3-1-0.3-2.5h142.8z"/>
			</g>
			<path id="Layer" class="s6" d="m146.7 34.2l-2.1-13.3c-0.1-0.6-0.4-1.1-0.8-1.5-0.4-0.3-1-0.5-1.5-0.5h-66.3q-0.5 0-0.9 0.2-0.4 0.2-0.8 0.5-0.3 0.4-0.5 0.8-0.1 0.5-0.1 1l1.1 13.2c0.1 0.6 0.3 1.1 0.7 1.5 0.5 0.4 1 0.6 1.6 0.6l67.9-0.5q0.4 0 0.7-0.2 0.4-0.1 0.6-0.4 0.2-0.3 0.3-0.7 0.1-0.3 0.1-0.7z"/>
			<path id="Layer copy" class="s7" d="m146.7 34.2l-2.1-13.3c-0.1-0.6-0.4-1.1-0.8-1.5-0.4-0.3-1-0.5-1.5-0.5h-66.3q-0.5 0-0.9 0.2-0.4 0.2-0.8 0.5-0.3 0.4-0.5 0.8-0.1 0.5-0.1 1l1.1 13.2c0.1 0.6 0.3 1.1 0.7 1.5 0.5 0.4 1 0.6 1.6 0.6l67.9-0.5q0.4 0 0.7-0.2 0.4-0.1 0.6-0.4 0.2-0.3 0.3-0.7 0.1-0.3 0.1-0.7z"/>
			<path id="Layer" class="s8" d="m69.7 13.6c-10.7 0-19.6 6.3-19.6 6.3-2.5 1.8-8.1 6.7-13.6 11.4 5.8-5.8 14.5-14.3 17.5-16.9 0 0 7.9-6.2 17.3-6.2h76.3c0 0 1.2 0.2 3.4 1.7 0 0 0.4 1.1 1 3.7z"/>
			<g id="Layer" style="opacity: .2">
				<path id="Layer" class="s9" d="m63.9 41.6v-1.4q0-0.2-0.1-0.3-0.1-0.1-0.3-0.1h-5.7q-0.2 0-0.3 0.1-0.1 0.1-0.1 0.3v1.4q0 0.2 0.1 0.3 0.1 0.1 0.3 0.1h5.7q0.2 0 0.3-0.1 0.1-0.1 0.1-0.3z"/>
			</g>
			<path id="Layer" class="s10" d="m63.5 41.1h-5.7q-0.2 0-0.3-0.1-0.1-0.1-0.1-0.3v-0.5q0-0.2 0.1-0.3 0.1-0.1 0.3-0.1h5.7q0.2 0 0.3 0.1 0.1 0.1 0.1 0.3v0.5q0 0.2-0.1 0.3-0.1 0.1-0.3 0.1z"/>
			<g id="Layer" style="opacity: .2">
				<path id="Layer" class="s9" d="m73.4 37.2h-1.4q-0.2 0-0.3 0.1-0.1 0.2-0.1 0.3v5.7q0 0.2 0.1 0.3 0.1 0.2 0.3 0.2h1.4q0.1 0 0.3-0.2 0.1-0.1 0.1-0.3v-5.7q0-0.1-0.1-0.3-0.2-0.1-0.3-0.1z"/>
			</g>
			<path id="Layer" class="s10" d="m72.9 37.6v5.7q0 0.2-0.1 0.3-0.1 0.2-0.3 0.2h-0.5q-0.2 0-0.3-0.2-0.1-0.1-0.1-0.3v-5.7q0-0.1 0.1-0.3 0.1-0.1 0.3-0.1h0.5q0.2 0 0.3 0.1 0.1 0.2 0.1 0.3z"/>
			<path id="Layer" class="s11" d="m46.4 25.6q1.8-2 4.1-3.5c3.4-1.3 9.2-1.7 12.3-1.8 1-0.1 1.7 0.9 1.6 1.9-0.5 4.7-1.1 10.7-1.1 10.7-0.2 1.7-1.2 2.8-2 3.4q-0.7 0.5-1.5 0.6l-20.2 3.4q-0.2 0.1-0.4 0-0.1 0-0.2-0.1-0.2-0.1-0.2-0.3-0.1-0.1-0.1-0.3v-4.7c0-0.4 0.1-0.7 0.4-1z"/>
			<g id="Layer" style="opacity: .6">
				<path id="Layer" fill-rule="evenodd" class="s5" d="m39.1 33.9l7.3-8.3q1.8-2 4.1-3.5c3.4-1.3 9.2-1.7 12.3-1.8 1.1 0 1.7 0.9 1.6 1.9-0.5 4.7-1.1 10.7-1.1 10.7-0.2 1.7-1.2 2.8-2 3.4q-0.7 0.5-1.5 0.7l-20.2 3.3q-0.1 0-0.2 0-0.3 0-0.5-0.2-0.2-0.2-0.2-0.5v-4.7c0-0.4 0.1-0.7 0.4-1zm0.4 5.6l20.1-3.4q0.7-0.1 1.2-0.5c0.7-0.5 1.5-1.4 1.7-2.8 0-0.3 0.6-6.1 1-10.6 0.1-0.4 0-0.7-0.2-0.9q-0.1-0.1-0.2-0.1-0.1-0.1-0.3-0.1c-3 0.1-8.6 0.5-11.9 1.7q-2.2 1.4-3.9 3.4l-7.3 8.2q-0.2 0.2-0.2 0.5z"/>
			</g>
			<path id="Layer" class="s12" d="m154.6 39.3h-3.2v14.9l3.6-0.2c0 0 0.5-8.3 0-14.3q0-0.2-0.1-0.3-0.1-0.1-0.3-0.1z"/>
			<path id="Layer" class="s13" d="m111.3 65.4q0-0.2 0-0.5c0-8.4 6.9-15.4 15.3-15.4 8.4 0 15.2 6.8 15.3 15.2l-0.8 0.2c0-8-6.5-14.5-14.5-14.5-8 0-14.5 6.5-14.5 14.5q0 0.3 0 0.5z"/>
			<path id="Layer" class="s14" d="m154.6 54h1.1c0 0 1.1 0 1.1 1l-1.1 7.9q0 0.2-0.1 0.4-0.2 0.2-0.4 0.2l-7.2 1.2q-0.1 0-0.2 0-0.1 0-0.2-0.1-0.1-0.1-0.1-0.2-0.1-0.1-0.1-0.2v-3.3l-10.1 0.4c-0.9-2.6-2.7-4.8-5.1-6.2z"/>
			<path id="Layer" class="s15" d="m151.4 33.2c0-0.4-1-14.4-3.8-25q0.3 0.1 0.6 0.2c2.7 10.6 3.7 24.6 3.7 24.8v6.1h-0.5z"/>
			<path id="Layer" class="s15" d="m70.3 65.4h-0.5v-57.1q0.3-0.1 0.5-0.1z"/>
			<g id="Layer" style="opacity: .4">
				<path id="Layer" class="s16" d="m142.4 19.6h-66.5q-0.7 0-1.3 0.4-0.6 0.4-0.9 1c0.1-0.6 0.3-1.1 0.7-1.5 0.5-0.4 1-0.7 1.6-0.7h66.3c0.5 0 1.1 0.2 1.5 0.6 0.4 0.4 0.7 0.9 0.8 1.4l0.1 0.4c-0.2-0.5-0.5-0.9-0.9-1.2-0.4-0.3-0.9-0.4-1.4-0.4z"/>
			</g>
			<path id="Layer" class="s15" d="m76.6 35.9l68.9-0.5c0.4 0 0.8-0.1 1.1-0.4q-0.2 0.5-0.6 0.8-0.5 0.3-1 0.3l-67.9 0.5q-0.7 0-1.3-0.3-0.5-0.4-0.8-1c0.4 0.4 1 0.6 1.6 0.6z"/>
			<path id="Layer" class="s15" d="m103.8 8.2h0.4v57.2h-0.4z"/>
			<path id="Layer" class="s17" d="m120.4 55.4c-2.3 1.5-4 3.8-4.8 6.5h-72.6c-0.7-2.7-2.5-5-4.8-6.5z"/>
			<g id="Layer" style="opacity: .4">
			</g>
			<g id="Layer" style="opacity: .4">
				<path id="Layer" fill-rule="evenodd" class="s5" d="m37.5 33.3c4.8-5.6 9.4-10.2 11.1-11.9q0.6-0.5 1.4-0.8c4.4-1.5 11.8-2 14.7-2.1 0.3-0.1 0.7 0.1 0.9 0.3 0.3 0.2 0.5 0.5 0.5 0.9 0.6 8 1 17.6 1 17.7 0 8.2-1.9 20.9-2.5 24.6-0.1 0.4-0.3 0.7-0.6 1-0.3 0.2-0.6 0.3-1 0.3h-12.6c-0.5 0-1-0.1-1.3-0.4-0.4-0.4-0.6-0.8-0.7-1.3-0.5-3.8-2.7-6.9-2.9-7.2-2-1.9-4.3-3.6-6.9-4.7q-0.6-0.3-1-0.9-0.3-0.6-0.3-1.3v-13.4q0-0.5 0.2-0.8zm0.3 14.2q0 0.5 0.3 1 0.3 0.4 0.8 0.6c2.6 1.2 5 2.9 7 4.9l0.1 0.1c0.1 0.1 2.5 3.3 3 7.4 0 0.4 0.2 0.7 0.5 0.9 0.2 0.2 0.5 0.4 0.9 0.4h12.6q0.4-0.1 0.6-0.3 0.3-0.2 0.4-0.6c0.6-3.7 2.5-16.4 2.5-24.5 0-0.1-0.4-9.6-1-17.7q0-0.3-0.2-0.5-0.2-0.2-0.5-0.2h-0.1c-2.9 0.2-10.2 0.7-14.6 2.2q-0.6 0.2-1.1 0.6c-1.3 1.4-6.1 6.1-11 11.9q-0.2 0.2-0.2 0.4z"/>
			</g>
			<path id="Layer" class="s18" d="m118.2 57.3h-77.7q-1-1.1-2.3-1.9h82.2q-1.2 0.8-2.2 1.9z"/>
			<path id="Layer" class="s19" d="m132.2 55.1l22.4-1.1h1.1c0 0 1.1 0 1.1 1l-0.1 0.8-22.3 0.9q-1-0.9-2.2-1.6z"/>
			<path id="Layer" class="s14" d="m19.3 65.9c0 0 1.4 0 1.5-1.1 0 0-0.1-4.7 4.3-8.7q0 0 0-0.1 0 0 0-0.1 0 0 0-0.1-0.1 0-0.1 0l-3.3-0.5q-0.3 0-0.5 0h-7.3q-0.6 0-1.3-0.2l-0.6-0.3-0.9 0.8c0 0 0.3 4.3 2.2 7.4 0 0 0.9 2.4 6 2.9z"/>
			<path id="Layer" class="s19" d="m12.6 55.1q0.7 0.2 1.3 0.2h7.3q0.2 0 0.5 0l3.3 0.5q0 0 0.1 0 0 0.1 0 0.1 0 0.1 0 0.1 0 0.1 0 0.1-0.6 0.6-1.1 1.2c-11.5-0.1-12.9-1.7-12.9-1.7l0.9-0.8z"/>
			<path id="Layer" class="s20" d="m155.2 45.7h-3.8v-3.4h3.7q0.1 1.7 0.1 3.4z"/>
			<path id="Layer" class="s21" d="m155.1 50.3c0 2.2-0.1 3.7-0.1 3.7l-3.6 0.2v-3.9z"/>
			<path id="Layer" class="s10" d="m38.6 38.6h1.1c0.2 0 0.3-0.2 0.3-0.4v-7.2c0-0.2-0.2-0.4-0.3-0.4h-1.1c-0.2 0-0.3 0.2-0.3 0.4v7.2c0 0.2 0.2 0.4 0.3 0.4z"/>
		</g>
	</g>
	<g id="&lt;Group&gt;">
		<g id="&lt;Group&gt;">
			<g id="&lt;Group&gt;">
				<g id="&lt;Group&gt;">
					<path id="&lt;Compound Path&gt;" fill-rule="evenodd" class="s22" d="m122.5 32l-2.2 0.1 2.2 0.1c0 0.5-0.4 0.9-0.9 0.9h-1.7c-0.3 0-0.6-0.3-0.5-0.6q0-0.2 0-0.4c0-1.5-1.2-2.8-2.8-2.7-1.3 0.1-2.4 1.1-2.5 2.4q-0.1 0.4 0 0.7c0 0.3-0.2 0.6-0.5 0.6h-1.5v-8.9h1.5l2.7 0.2q0.4 0.2 0.6 0.6l1.2 2.1 2.6 0.3q0.2 0 0.4 0.1l-5.2 0.2 6.2 0.1q0.2 0.1 0.3 0.3l-3.9 0.2 4 0.2q0 0 0 0.1zm-5.3-5l-1.1-1.9q0 0 0 0c-0.2-0.3-0.4-0.4-0.7-0.4h-2.6v2.3z"/>
					<path id="&lt;Compound Path&gt;" fill-rule="evenodd" class="s22" d="m116.7 34.2c-1.1 0-2.1-1-2.1-2.1 0-1.2 1-2.1 2.1-2.1 1.2 0 2.2 0.9 2.2 2.1 0 1.1-1 2.1-2.2 2.1zm1.1-2.1c0-0.6-0.5-1.1-1.1-1.1-0.5 0-1 0.5-1 1.1 0 0.6 0.5 1 1 1 0.6 0 1.1-0.4 1.1-1z"/>
					<path id="&lt;Path&gt;" class="s17" d="m110.7 26.1c0-1.3-0.8-2.6-2-3.1q-0.7-0.3-1.4-0.3h-0.9-6.6-9.8c0 1.6 1.3 3 3 3h12.8c0.5 0 0.8 0.3 1 0.7h-13.8c0 1.7 1.4 3 3 3h10.8c0.5 0 0.8 0.3 1 0.7h-11.7c0 1.7 1.3 3 3 3h10.2 1.4z"/>
				</g>
			</g>
			<g id="&lt;Group&gt;">
				<path id="&lt;Path&gt;" class="s22" d="m111.7 33.1h-0.6v-9.5c0-1.1-0.9-2.1-2-2.1h-0.2v-0.5h0.2c1.4 0 2.6 1.2 2.6 2.6z"/>
			</g>
		</g>
		<path id="&lt;Path&gt;" class="s22" d="m115.4 24l-1.8 0.2h-1.5v-0.9h1.3c0.7 0 1.4 0.2 2 0.7z"/>
	</g>
	<g id="Папка 2">
		<path id="Эллипс_1_копия_6" fill-rule="evenodd" class="s23" d="m32 55c3.6 0 6.9 2.2 8.3 5.6 1.4 3.3 0.6 7.2-1.9 9.8-2.6 2.5-6.5 3.3-9.8 1.9-3.4-1.4-5.6-4.7-5.6-8.3q0-1.8 0.7-3.4 0.7-1.7 1.9-3c0.9-0.8 1.9-1.5 3-1.9 1.1-0.4 2.2-0.7 3.4-0.7z"/>
		<path id="Эллипс_1_копия_6-2" fill-rule="evenodd" class="s24" d="m32 57.8c2.5 0 4.8 1.5 5.8 3.8 0.9 2.4 0.4 5-1.4 6.8-1.8 1.8-4.5 2.3-6.8 1.4-2.3-1-3.8-3.3-3.8-5.8q0-1.2 0.4-2.4c0.3-0.7 0.8-1.4 1.4-2q0.9-0.9 2-1.4c0.8-0.3 1.6-0.4 2.4-0.4z"/>
		<path id="Эллипс_2_копия_4" class="s23" d="m32 67c-1.7 0-3-1.3-3-3 0-1.7 1.3-3.1 3-3.1 1.7 0 3 1.4 3 3.1 0 1.7-1.3 3-3 3z"/>
	</g>
	<g id="Папка 2 copy">
		<path id="Эллипс_1_копия_6" fill-rule="evenodd" class="s23" d="m127 55c3.6 0 6.9 2.2 8.3 5.6 1.4 3.3 0.6 7.2-1.9 9.8-2.6 2.5-6.5 3.3-9.8 1.9-3.4-1.4-5.6-4.7-5.6-8.3q0-1.8 0.7-3.4 0.7-1.7 1.9-3c0.9-0.8 1.9-1.5 3-1.9 1.1-0.4 2.2-0.7 3.4-0.7z"/>
		<path id="Эллипс_1_копия_6-2" fill-rule="evenodd" class="s24" d="m127 57.8c2.5 0 4.8 1.5 5.8 3.8 0.9 2.4 0.4 5-1.4 6.8-1.8 1.8-4.5 2.3-6.8 1.4-2.3-1-3.8-3.3-3.8-5.8q0-1.2 0.4-2.4c0.3-0.7 0.8-1.4 1.4-2q0.9-0.9 2-1.4c0.8-0.3 1.6-0.4 2.4-0.4z"/>
		<path id="Эллипс_2_копия_4" class="s23" d="m127 67c-1.7 0-3-1.3-3-3 0-1.7 1.3-3.1 3-3.1 1.7 0 3 1.4 3 3.1 0 1.7-1.3 3-3 3z"/>
	</g>
</svg>