<svg version="1.2" xmlns="http://www.w3.org/2000/svg" viewBox="0 0 1100 400" width="1100" height="400">
	<title>truck-svg</title>
	<style>
		tspan { white-space:pre } 
		.s0 { fill: #151515 } 
		.s1 { fill: #393939 } 
		.s2 { fill: #292929 } 
		.s3 { fill: #2f2f2f } 
		.s4 { fill: #1f1f1f } 
		.s5 { fill: #e3e0c2 } 
		.s6 { fill: #ffdb5c } 
		.s7 { fill: #4897d8;stroke: #8a8888;stroke-width: 12.9 } 
		.s8 { fill: #ff7a06 } 
		.s9 { fill: none } 
		.s10 { fill: #47689a } 
		.s11 { fill: #c2722e } 
		.s12 { fill: #ffb492 } 
		.s13 { fill: #4897d8 } 
		.s14 { fill: #f5f5f5 } 
		.s15 { fill: #e3b55f } 
		.s16 { fill: #df855c } 
		.s17 { fill: #d3a756 } 
		.s18 { fill: #eec069 } 
		.s19 { fill: #c57659 } 
		.s20 { fill: #9f9f9f } 
		.s21 { fill: #7b963b } 
		.s22 { fill: #d8d8d8 } 
		.s23 { fill: #b7b7b7 } 
		.s24 { fill: #d78138 } 
		.s25 { fill: #445d82 } 
		.s26 { fill: #db7a4e } 
		.s27 { fill: #2a76b5 } 
		.s28 { fill: #c87835 } 
		.s29 { fill: #263238 } 
	</style>
	<path id="Прямоугольник_4_копия" fill-rule="evenodd" class="s0" d="m353.9 268.7h511.2v31.4h-511.2z"/>
	<path id="Прямоугольник_5_копия" fill-rule="evenodd" class="s0" d="m753.8 294h81.9v23.5h-81.9z"/>
	<path id="Фигура_10_копия_2" fill-rule="evenodd" class="s1" d="m227.5 126.3q0.3-1.6 0.7-3.1 0.4-1.5 1-3 0.6-1.5 1.3-3 0.6-1.4 1.5-2.7c25.2-44.4 118.4-82.3 118.4-82.3q0.4-0.1 0.9 0 0.5 0.1 0.8 0.4 0.4 0.3 0.6 0.8 0.1 0.4 0.1 0.9l3 17.6-1.6 69.8z"/>
	<path id="Фигура_5_копия" fill-rule="evenodd" class="s2" d="m387.8 323.1h-110.7l5.6-22.7 7.2-9c0 0 11.8-8.1 12.5-8.3 0.7-0.2 9.1-4 9.1-4l12.2-3.7c0 0 12.3-0.4 13.4 0 1.1 0.4 7.1 0.6 8.5 0.5 1.3-0.1 10.4 0.6 10.4 0.6l6.7 6 13 10 8.3 12.7 3.7 9.7z"/>
	<path id="Фигура_6_копия" fill-rule="evenodd" class="s3" d="m403 297.5v-6.7h-8.9v1.4q-1.4 0.2-2.9 0.2-1.4-0.1-2.8-0.5-1.3-0.4-2.6-1.1-1.2-0.7-2.3-1.6-2.6-3.4-5.6-6.4-3-3-6.4-5.7-3.3-2.6-7-4.8-3.7-2.2-7.6-3.9l-2.7 2.7 3.7 3.5c0 0 9.1 6.3 9.3 6.7 0.2 0.5 15.4 14.1 15.7 14.3 0.2 0.2 6.8 3.1 7 3.2 0.2 0.1 6.6 0.7 6.9 0.8 0.3 0 4.5-0.7 4.5-0.7z"/>
	<path id="Фигура_8_копия" fill-rule="evenodd" class="s3" d="m669.3 298l-3.4-7.5h8.5l16.5-19.4h12l-1.5 5.6c0 0-6.9 5.7-7 6.1-0.1 0.3-7.4 9.4-7.4 9.4 0 0-5.6 7.9-5.9 8-0.3 0.2-7 1.1-7 1.1z"/>
	<path id="Фигура_9_копия" fill-rule="evenodd" class="s3" d="m784.5 295.6l-4.7-6.4h-8.1l1.7 7 7.7 4.8z"/>
	<path id="Фигура_7_копия" fill-rule="evenodd" class="s1" d="m668.5 330.5h10.4c2.9-22.4 11.3-28.2 11.3-28.2 9.6-9.9 17.3-12.6 17.3-12.6 2.8-1.1 7.2-0.8 7.2-0.8l26.6-0.2q1 0.1 2.1 0.2 1 0.2 2 0.4 1.1 0.3 2.1 0.6 1 0.3 1.9 0.7c29 14.7 26.1 39.9 26.1 39.9h9.8v-31.1q0-0.5 0-1-0.1-0.5-0.2-1-0.1-0.5-0.2-1-0.2-0.5-0.4-1h-9.1c-9.4-18.2-23.7-24.3-23.7-24.3h-50.4c-13.9 10.5-23.5 26.2-23.5 26.2h-8.8z"/>
	<path id="Фигура_4_копия" fill-rule="evenodd" class="s1" d="m347.3 279.3c32.3 11.8 35.9 46.4 35.9 46.4 1 6.6 6.4 6.7 6.4 6.7h13.6l-0.2-35.2h-11.8q-2.1-0.8-4.1-1.8-2-1.1-3.8-2.4-1.8-1.3-3.4-2.9-1.6-1.5-3-3.3c-16.6-15.9-23.2-16-23.2-16z"/>
	<path id="Эллипс_1_копия_6" fill-rule="evenodd" class="s4" d="m332.5 289.1c16 0 30.3 9.7 36.5 24.4 6.1 14.8 2.7 31.7-8.6 43-11.3 11.3-28.3 14.7-43 8.6-14.8-6.1-24.4-20.5-24.4-36.5 0-5.2 1-10.3 3-15.1 2-4.8 4.9-9.1 8.6-12.8 3.6-3.7 8-6.6 12.8-8.5 4.8-2 9.9-3.1 15.1-3.1z"/>
	<path id="Эллипс_1_копия_6-2" fill-rule="evenodd" class="s2" d="m332.5 301.2c11.1 0 21.1 6.7 25.3 16.9 4.2 10.3 1.9 22.1-5.9 29.9-7.9 7.8-19.7 10.2-29.9 5.9-10.2-4.2-16.9-14.2-16.9-25.3q0-5.4 2.1-10.5c1.3-3.3 3.4-6.3 5.9-8.9 2.6-2.5 5.6-4.5 8.9-5.9 3.3-1.4 6.9-2.1 10.5-2.1z"/>
	<path id="Эллипс_2_копия_4" class="s4" d="m332.5 341.8c-7.4 0-13.3-5.9-13.3-13.3 0-7.3 5.9-13.3 13.3-13.3 7.3 0 13.3 6 13.3 13.3-0.1 7.4-6 13.3-13.3 13.3z"/>
	<path id="Эллипс_1_копия_6-3" class="s4" d="m726.4 368.1c-21.8 0-39.4-17.6-39.4-39.5 0-21.8 17.6-39.4 39.4-39.4 21.9 0 39.5 17.6 39.5 39.4 0 21.9-17.6 39.5-39.5 39.5z"/>
	<path id="Эллипс_1_копия_6-4" fill-rule="evenodd" class="s2" d="m726.4 301.2c11.1 0 21.1 6.7 25.3 16.9 4.3 10.3 1.9 22.1-5.9 29.9-7.8 7.8-19.6 10.2-29.9 5.9-10.2-4.2-16.9-14.2-16.9-25.3q0-5.4 2.1-10.5c1.4-3.3 3.4-6.3 6-8.9 2.5-2.5 5.5-4.5 8.8-5.9q5.1-2.1 10.5-2.1z"/>
	<path id="Эллипс_2_копия_4-2" class="s4" d="m726.4 341.8c-7.3 0-13.3-5.9-13.3-13.3 0-7.3 6-13.3 13.3-13.3 7.4 0 13.3 6 13.3 13.3 0 7.4-5.9 13.3-13.3 13.3z"/>
	<path id="Фигура_3_копия" fill-rule="evenodd" class="s1" d="m205.7 282.5l-5.1 7.5 1.3 26.5q-0.2 0.3-0.3 0.6-0.1 0.3-0.2 0.6 0 0.3 0 0.6 0 0.3 0 0.6-0.2 1.2-0.2 2.4 0.1 1.2 0.3 2.3 0.3 1.2 0.8 2.3 0.5 1 1.2 2c-0.6 4 1.1 5.6 1.1 5.6 4 4 25.5 2.7 25.5 2.7l0.9-1.9 43.5 2.7q0.6 0.2 1.1 0.2 0.6 0.1 1.1 0 0.6-0.1 1.1-0.4 0.5-0.2 0.9-0.6l4-4.6c1.4-2.5 1.3-3.7 1.3-3.7 0.9-56.7 59.3-47.8 59.3-47.8 4.4 0.7 6.1-1.8 6.1-1.8l12.8-15.4q0.2-0.4 0.3-0.8 0.2-0.4 0.2-0.8 0.1-0.4 0.1-0.9 0.1-0.4 0.1-0.8v-6.7h-10.1l-33-2.1-26.5 7.2-12.4 9.1-4.9 13.9-7.2 3.9-13.9-0.8-34.9 1.1h-10.8l0.8-3.1z"/>
	<path id="Фигура_2_копия" fill-rule="evenodd" class="s5" d="m200 268.4l5.6 11.8v9l69.4-0.5c1.8 0.2 2.4-2.2 2.4-2.2 20-38.6 60.5-33 60.5-33h17.6l-1.1-132-126.7 4.3c-21.2 49.8-25.5 109.3-25.5 109.3q-0.4 0.5-0.6 1.1-0.3 0.5-0.5 1.1-0.2 0.6-0.4 1.2-0.1 0.6-0.1 1.2z"/>
	<path id="Прямоугольник_1_копия" fill-rule="evenodd" class="s1" d="m310.2 240.7h10.8q0.6 0 1.1 0.2 0.6 0.3 1 0.7 0.4 0.4 0.6 1 0.3 0.5 0.3 1.1v2.5q0 0.6-0.3 1.1-0.2 0.6-0.6 1-0.4 0.4-1 0.7-0.5 0.2-1.1 0.2h-10.8q-0.6 0-1.2-0.2-0.5-0.3-0.9-0.7-0.5-0.4-0.7-1-0.2-0.5-0.2-1.1v-2.5q0-0.6 0.2-1.1 0.2-0.6 0.7-1 0.4-0.4 0.9-0.7 0.6-0.2 1.2-0.2z"/>
	<path id="Прямоугольник_2_копия" fill-rule="evenodd" class="s2" d="m403.2 297.2h266.1v35.2h-266.1z"/>
	<path id="Прямоугольник_3_копия_2" fill-rule="evenodd" class="s1" d="m420.9 310.6h229.6c1.1 0 2.2 0.5 2.9 1.3 0.8 0.8 1.3 1.8 1.3 3 0 1.1-0.5 2.1-1.3 2.9-0.7 0.8-1.8 1.3-2.9 1.3h-229.6c-1.2 0-2.2-0.5-3-1.3-0.8-0.8-1.2-1.8-1.2-2.9q0-1.8 1.2-3c0.8-0.8 1.8-1.3 3-1.3z"/>
	<path id="Фигура_11_копия_2" fill-rule="evenodd" class="s6" d="m354.9 149v29.7q-0.3 0-0.6 0-0.2 0-0.5 0.1-0.3 0-0.5 0-0.3 0.1-0.5 0.2h-1.5c-1 0.3-2.6 0.3-3.6 0.6l-2.3 0.1v0.2h-1.1v0.2h-1v0.1h-1.1v0.2h-0.6v0.1h-0.7v0.2l-3 0.3c-0.9 0.2-2.1 0.4-3 0.7h-1.2v0.2l-1.1 0.1v0.2h-0.6v0.1l-1.5 0.2v0.1h-0.4v0.2h-1.3v0.1h-0.5v0.2h-0.5v0.1l-1.9 0.3v0.2h-0.6v0.1h-0.7v0.2h-0.6v0.1h-0.5v0.2h-0.6v0.1h-0.5v0.2h-0.5v0.2h-1v0.1h-0.4v0.2h-0.4v0.1h-0.6v0.2h-0.5v0.1h-0.5v0.2h-0.4v0.1h-0.7v0.2h-0.5v0.1h-0.4v0.2h-0.7v0.1h-0.3v0.2l-1 0.1v0.2h-0.3v0.1h-0.8v0.2l-0.9 0.1v0.2h-0.4v0.1l-1.1 0.2v0.1h-0.5v0.2h-0.3v0.1l-1.4 0.3v0.2l-1 0.1v0.2h-0.3v0.1l-1.1 0.2v0.1l-0.7 0.2v0.1h-0.6v0.2l-0.6 0.2v0.1h-0.5v0.2h-0.3v0.1h-0.5v0.2h-0.3v0.1h-0.8v0.2h-0.4v0.1l-0.8 0.2v0.1l-0.6 0.2v0.1h-0.5v0.2l-0.6 0.1v0.2h-0.5v0.1l-0.6 0.2v0.1h-0.5v0.2l-0.7 0.1v0.2h-0.4v0.1l-0.7 0.2v0.1h-0.5v0.2l-0.6 0.1v0.2h-0.5v0.2h-0.3v0.1l-0.6 0.2v0.1h-0.5v0.2h-0.3v0.1h-0.4v0.2l-0.9 0.3v0.1h-0.5v0.2l-1 0.3v0.1l-0.9 0.3q-0.1 0.2-0.2 0.3h-0.6v0.2l-1 0.3v0.1h-0.3v0.2h-0.3v0.1h-0.3v0.2h-0.5l-0.2 0.3h-0.5l-0.1 0.3h-0.5v0.1l-0.5 0.2-0.1 0.3-1 0.1-0.2 0.3h-0.3v0.2l-0.6 0.2v0.1h-0.5q-0.1 0.2-0.2 0.3l-0.6 0.2v0.1h-0.3v0.2h-0.3v0.1h-0.4v0.2h-0.3q-0.1 0.1-0.1 0.3h-0.5q-0.1 0.1-0.2 0.3h-0.3v0.1h-0.3v0.2h-0.3v0.1h-0.4q0 0.2-0.1 0.3h-0.3v0.2h-0.4v0.1h-0.3v0.2h-0.3q-0.1 0.1-0.2 0.3h-0.4v0.1l-0.5 0.2q-0.1 0.1-0.2 0.3h-0.5q0 0.1-0.1 0.3h-0.5v0.1l-0.5 0.2q-0.1 0.1-0.1 0.3l-0.7 0.1q-0.1 0.2-0.1 0.3h-0.5l-0.2 0.3-0.6 0.2-0.2 0.3-0.6 0.1q-0.1 0.2-0.2 0.3l-0.9 0.3-0.2 0.3h-0.5l-0.3 0.5h-0.5q-0.1 0.2-0.3 0.4h-0.5l-0.3 0.5h-0.3v0.2h-0.3q-0.1 0.1-0.2 0.3l-0.6 0.2q-0.3 0.2-0.6 0.4-0.3 0.2-0.6 0.3-0.3 0.2-0.6 0.4-0.3 0.1-0.6 0.2v0.3c-1.1 0.2-1.7 1.1-2.8 1.4v0.3c-0.8 0.1-1.1 0.7-1.9 0.9v0.3c-0.6 0.1-0.8 0.4-1.4 0.6v0.3c-1.1 0.2-1.4 1-2.4 1.2v0.3c-0.9 0.2-1.2 0.9-2.1 1.1v0.3l-1 0.3c-0.2 0.7-0.1 0.1-0.6 0.4l-0.3 0.5h-0.3l-0.5 0.6h-0.5l-0.5 0.6h-0.3q-0.1 0.1-0.2 0.3h-0.3l-0.5 0.6h-0.4q-0.1 0.1-0.2 0.3-0.1 0.1-0.3 0.2-0.1 0.1-0.2 0.2-0.2 0-0.3 0.1-0.2 0.1-0.3 0.1v0.3l-0.7 0.2v0.3l-0.6 0.1v0.3l-0.6 0.2v0.3c-0.6 0.1-0.7 0.3-1.2 0.4v0.3l-0.6 0.2v0.3c-0.6 0.1-0.8 0.6-1.4 0.7v0.3l-0.7 0.2v0.3c-0.4 0.1-0.3 0.2-0.8 0.3v0.3l-0.6 0.1v0.3c-0.5 0.1-0.4 0.2-0.8 0.3v0.3c-0.7 0.2-0.8 0.6-1.5 0.8v0.3c-0.4 0.1-0.3 0.2-0.8 0.3v0.3c-0.4 0.1-0.3 0.2-0.8 0.3v0.3h-0.3v0.3c-0.4 0.1-0.3 0.2-0.8 0.3v0.3c-0.4 0.1-0.3 0.2-0.8 0.3v0.3h-0.3c-0.3 0.4-0.1 0.1-0.5 0.3l-0.6 0.7h-0.3l-0.5 0.6-0.5 0.2v0.3h-0.5v0.3c-0.4 0.1-0.3 0-0.5 0.5-0.7 0.1-0.9 0.7-1.6 0.9v0.3l-0.4 0.1-0.5 0.6h-0.3c-0.2 0.4-0.1 0.4-0.5 0.5v0.3h-0.5c-0.1 0.4 0 0.3-0.5 0.4v0.3c-0.4 0.1-0.3 0.1-0.5 0.5h-0.4v0.3c-0.5 0.1-0.4 0-0.5 0.4-0.5 0.1-0.4 0.2-0.8 0.3-0.1 0.5-0.1 0.4-0.5 0.5v0.3h-0.5c-0.1 0.4 0 0.3-0.5 0.5q0 0 0 0.1-0.1 0.1-0.1 0.2-0.1 0.1-0.2 0.1-0.1 0.1-0.1 0.2h-0.2v0.3c-0.4 0.1-0.4 0.2-0.8 0.3q0 0.1-0.1 0.1 0 0.1-0.1 0.2 0 0.1-0.1 0.2-0.1 0-0.2 0.1h-0.1v0.3c-0.5 0.1-0.4 0-0.5 0.4h-0.5q0 0.1-0.1 0.2 0 0.1-0.1 0.2 0 0.1-0.1 0.1-0.1 0.1-0.2 0.1h-0.1v0.3c-0.5 0.1-0.4 0.1-0.5 0.5h-0.5c-0.1 0.4 0 0.3-0.5 0.4-0.1 0.5 0 0.4-0.5 0.5v0.3q-0.1 0-0.2 0-0.1 0.1-0.2 0.2-0.1 0-0.1 0.2-0.1 0.1-0.1 0.2h-0.5q0 0.1 0 0.2-0.1 0.1-0.2 0.2-0.1 0.1-0.2 0.2-0.1 0-0.2 0 0 0.1-0.1 0.2 0 0.1-0.1 0.2-0.1 0-0.1 0.1-0.1 0.1-0.2 0.1h-0.2v0.3q-0.1 0-0.2 0-0.1 0.1-0.2 0.2-0.1 0.1-0.1 0.2-0.1 0.1-0.1 0.2c-0.4 0.1-0.4 0.1-0.5 0.5h-0.5q0 0.1 0 0.2-0.1 0.1-0.2 0.2 0 0.1-0.2 0.1-0.1 0.1-0.2 0.1c-0.2 0.6-0.1 0.1-0.5 0.4v0.2h-0.1q-0.1 0.2-0.2 0.4l-0.5 0.2q-0.1 0.2-0.1 0.4h-0.4l-0.3 0.6h-0.3v0.2q-0.1 0-0.1 0.1-0.1 0-0.1 0.1-0.1 0-0.1 0.1 0 0.1 0 0.2-0.2 0.1-0.3 0.3-0.2 0.1-0.4 0.3-0.1 0.1-0.3 0.3-0.1 0.1-0.3 0.3h-0.5q-0.1 0.3-0.1 0.6h-0.5c-0.3 0.8-0.5 0.4-0.8 0.7q-0.1 0.3-0.2 0.6h-0.5c-0.2 0.8-0.5 0.4-0.8 0.8q0 0.3-0.1 0.6h-0.5c-0.1 0.4-0.2 0.3-0.3 0.8h-0.5c-0.1 0.4-0.2 0.3-0.3 0.7q-0.1 0-0.2 0-0.1 0-0.2 0.1 0 0-0.1 0-0.1 0-0.2 0.1v-0.5c0.4-0.4 0.2-2.8 0.2-3.6q0.1-4.8 0.2-9.6 0.1-6.3 0.3-12.7l0.6-1.7 0.5-0.3v-0.3l0.5-0.3v-0.7h0.1q0.1-1.5 0.2-2.9h0.2v-1.4h0.1v-1.5c0.4-1.3 0.4-3.2 0.7-4.5q0-0.1 0.1-0.1 0.1-0.1 0.2-0.1 0-0.1 0.1-0.1 0.1 0 0.2 0c0.1-0.5 0-0.4 0.5-0.5v-0.3q0.1 0 0.2 0 0.1-0.1 0.2-0.2 0.1-0.1 0.2-0.2 0-0.1 0-0.2h0.5c0.1-0.4 0-0.3 0.5-0.5v-0.3c0.4-0.1 0.3 0 0.5-0.4h0.4c0.2-0.4 0.1-0.4 0.5-0.5v-0.3c0.5-0.1 0.4 0 0.5-0.4h0.5v-0.3c0.4-0.1 0.3-0.1 0.5-0.5 0.4-0.1 0.3-0.2 0.8-0.3 0.1-0.4 0-0.3 0.4-0.4v-0.3h0.5c0.1-0.5 0.1-0.4 0.5-0.5v-0.3c0.4-0.1 0.4 0 0.5-0.4l0.6-0.2q0.1-0.2 0.2-0.4c0.5-0.2 0.4-0.4 0.9-0.5v-0.3c0.5-0.1 0.4-0.2 0.8-0.3v-0.3c0.5-0.1 0.4 0 0.5-0.5 0.7-0.1 0.9-0.7 1.6-0.9v-0.3c0.5-0.1 0.4-0.2 0.8-0.3 0.1-0.4 0.1-0.3 0.5-0.4v-0.3c0.4-0.1 0.4-0.2 0.8-0.3v-0.3c0.4-0.1 0.4-0.2 0.8-0.3v-0.3c0.4-0.1 0.4-0.2 0.8-0.3v-0.3c0.4-0.1 0.4-0.2 0.8-0.3v-0.3h0.3v-0.3c0.5-0.1 0.6-0.4 1.1-0.5v-0.3h0.4v-0.3l0.6-0.1q0.1-0.3 0.2-0.5c0.6-0.1 0.6-0.6 1.4-0.7v-0.3c0.4-0.1 0.4-0.2 0.8-0.3v-0.3c0.8-0.2 0.8-0.6 1.4-0.8v-0.3l0.7-0.1v-0.3c0.5-0.1 0.6-0.3 1.1-0.5v-0.3h0.3v-0.3c0.6-0.1 0.6-0.3 1.1-0.4v-0.3l0.7-0.2v-0.3l0.6-0.1v-0.3l0.7-0.2v-0.3c0.8-0.1 0.9-0.7 1.7-0.9v-0.3l0.7-0.1v-0.3q0-0.1 0.1-0.1 0.1 0 0.2 0 0-0.1 0.1-0.1 0.1 0 0.2 0l0.3-0.4h0.3v-0.2q0.1-0.1 0.3-0.1 0.1-0.1 0.2-0.2 0.1 0 0.2-0.1 0.2 0 0.3 0c0.2-0.8 0.1-0.2 0.6-0.5q0.2-0.2 0.4-0.4h0.3l0.5-0.7h0.4q0.1-0.1 0.2-0.3 0.1 0 0.2-0.1 0.1-0.1 0.2-0.1 0.2-0.1 0.3-0.1 0.1-0.1 0.3-0.1v-0.3l0.9-0.3v-0.3q0.1 0 0.2-0.1 0 0 0.1 0 0.1 0 0.2 0 0.1-0.1 0.2-0.1 0.1-0.2 0.3-0.4 0.1-0.1 0.2-0.2 0.2 0 0.3-0.1 0.2-0.1 0.3-0.1 0.1 0 0.3-0.1v-0.3c0.5-0.1 0.6-0.3 1.1-0.4v-0.3c0.7-0.1 0.9-0.5 1.5-0.6v-0.3c0.7-0.2 1-0.6 1.7-0.8v-0.3c0.8-0.1 1.2-0.7 1.9-0.9v-0.3c1.4-0.3 2-1.4 3.4-1.7 0.2-0.6 0-0.2 0.5-0.4v-0.2h0.3v-0.2h0.3v-0.1h0.3l0.2-0.3h0.3q0.1-0.2 0.2-0.3l0.6-0.2v-0.1l0.5-0.2q0.1-0.1 0.2-0.3h0.3v-0.1h0.3q0.1-0.2 0.2-0.3l0.6-0.2q0.1-0.1 0.2-0.3l0.9-0.3q0.1-0.1 0.2-0.3h0.5q0-0.1 0.1-0.3h0.3l0.2-0.3h0.3q0.1-0.1 0.2-0.3l0.6-0.1q0.1-0.2 0.2-0.3h0.5q0-0.2 0.1-0.3l0.7-0.2q0-0.1 0.1-0.3l0.7-0.1q0-0.2 0.1-0.3h0.5q0.1-0.2 0.2-0.3l0.6-0.2q0.1-0.1 0.2-0.3h0.4l0.2-0.3 0.6-0.1 0.2-0.3h0.5l0.1-0.3h0.4v-0.3h0.3v-0.1h0.3v-0.2h0.3l0.2-0.3 0.8-0.1 0.1-0.3h0.4v-0.2h0.3v-0.1h0.3v-0.2h0.3v-0.1l0.7-0.2q0-0.1 0.1-0.3h0.5q0.1-0.1 0.2-0.3h0.3v-0.1h0.3v-0.2h0.3v-0.1h0.3v-0.2h0.4v-0.1h0.3v-0.2h0.3v-0.1l0.6-0.2v-0.1l0.7-0.2v-0.2h0.3v-0.1h0.3v-0.2h0.3v-0.1h0.4v-0.2h0.3v-0.1l0.6-0.2v-0.1h0.3v-0.2h0.5q0.1-0.1 0.2-0.3h0.5q0-0.1 0.1-0.3h0.5q0.1-0.1 0.2-0.3h0.4v-0.1h0.4v-0.2l0.9-0.3v-0.1h0.5v-0.2l0.6-0.1v-0.2h0.4v-0.1h0.4l0.2-0.3h0.3v-0.2h0.7v-0.1h0.3l0.1-0.3h0.4v-0.2h0.6v-0.2h0.3l0.2-0.3h0.5v-0.1h0.3v-0.2l0.9-0.1v-0.2l1-0.3v-0.1h0.3v-0.2h0.5v-0.1l0.6-0.2v-0.1h0.5v-0.2h0.3v-0.1h0.5v-0.2l0.7-0.1v-0.2l1.6-0.4v-0.2h0.3v-0.1h0.5v-0.2h0.3v-0.1l1.1-0.2v-0.1l0.8-0.2v-0.1l0.6-0.2v-0.2l1.2-0.1v-0.2l0.6-0.1v-0.2h0.6v-0.1l0.7-0.2v-0.1l2.2-0.5v-0.1h0.3v-0.2h0.5v-0.1h0.3v-0.2l1-0.1v-0.2h0.5v-0.1h0.5v-0.2h0.4v-0.1h0.5v-0.2h0.5v-0.1h0.5v-0.2h0.6v-0.1h0.5v-0.2h0.5v-0.1l2.1-0.5v-0.1h0.4v-0.2h0.4v-0.2h0.4v-0.1h1.2v-0.2h0.4v-0.1h0.5v-0.2h0.5v-0.1l1.1-0.2v-0.1h0.7v-0.2h0.4v-0.1h0.5v-0.2h0.5v-0.1l1.8-0.2v-0.1l1.1-0.2v-0.1h0.5v-0.2l1.1-0.1v-0.2h1.3v-0.1h0.4v-0.2l2.1-0.3v-0.1h0.8v-0.2h0.8v-0.1h0.7v-0.2h0.4v-0.1h0.8v-0.2h1.2v-0.1h0.6v-0.2h0.6v-0.1h1.2v-0.2h1.1v-0.2h0.9v-0.1h0.5v-0.2l3.5-0.3v-0.1h0.8v-0.2h0.7v-0.1h1.4v-0.2h1.3v-0.1h1.3v-0.2h1.3v-0.1h1.4v-0.2h1.4v-0.1h1.8q0.3-0.1 0.6-0.2 0.4 0 0.7-0.1 0.3 0 0.6 0 0.3 0 0.7 0z"/>
	<path id="Фигура_1_копия" fill-rule="evenodd" class="s1" d="m222.2 215.4l92-16.5c11.3-0.9 10.9-11.6 10.9-11.6l1.3-38.6c0.5-9.5-8.5-7.8-8.5-7.8l-69.4 1.4c-17.3 0.7-18 14.7-18 14.7z"/>
	<path id="Прямоугольник_3_копия_2-2" fill-rule="evenodd" class="s7" d="m361.7 37.5h530.8q1.4 0 2.7 0.5 1.3 0.6 2.3 1.5 1 1 1.5 2.3 0.5 1.3 0.5 2.7v219.3q0 1.4-0.5 2.7-0.5 1.2-1.5 2.2-1 1-2.3 1.5-1.3 0.6-2.7 0.6h-530.8q-1.4 0-2.7-0.6-1.3-0.5-2.2-1.5-1-1-1.6-2.2-0.5-1.3-0.5-2.7v-219.3q0-1.4 0.5-2.7 0.6-1.3 1.6-2.3 0.9-0.9 2.2-1.5 1.3-0.5 2.7-0.5z"/>
	<path id="Фигура_11_копия_2-2 copy" fill-rule="evenodd" class="s8" d="m886.9 264.7c5.3-0.3 5.1-4.6 5.1-4.6v-123.4l-112.5 55.1-92.8 26.9-79.5 1.2-49.8-8-54.5-15-41.9-10.1-38.2-8.2-34.6-2-28.2 2.9v80.7q0.1 0.9 0.5 1.8 0.4 0.8 1.1 1.4 0.7 0.6 1.6 1.1 0.9 0.3 1.8 0.2z"/>
	<path id="Фигура_10_копия_2-2 copy" fill-rule="evenodd" class="s6" d="m360 180.8v-29.2l4.2-0.1v-0.2c1-0.2 2.7 0.1 3.8-0.1l14.7-0.2h4.6v0.2h1.1q0.5-0.1 1.1-0.1 0.5 0 1.1 0 0.6 0 1.1 0.1 0.6 0 1.1 0.1l9.3 0.3v0.1h2.3v0.2h2.1v0.1h1.9v0.2h1.9v0.1h1.6v0.2h1.6v0.1h1.5v0.2h1.5v0.1h1.5l18.9 2.5c1.1 0.4 2.7 0.5 3.7 0.8h0.9c0.9 0.3 2.4 0.5 3.4 0.8h0.8c2.9 0.8 6.4 1.1 9.3 1.9l3 0.4c3.9 1.1 8.4 1.7 12.2 2.9l3.3 0.6c2.7 0.8 6 1.4 8.6 2.2l1.4 0.1c1.9 0.6 4 1.2 5.9 1.7l1.4 0.2c4.5 1.4 9.6 2.2 14.2 3.7h0.6v0.1h0.5v0.3l1.2 0.1v0.1l1.1 0.2v0.1l1.3 0.2v0.1h0.7v0.2h0.5v0.1l1.8 0.3v0.2l1.1 0.1v0.2l1.3 0.1v0.2l1.3 0.1v0.1h0.5v0.2l1.8 0.3v0.1l1.3 0.2v0.1l1.3 0.2v0.1h0.5v0.2h0.7v0.1h0.6v0.2l1.2 0.1v0.2h0.7v0.1l1.4 0.1c4.3 1.5 9.4 2.1 13.8 3.4l1.5 0.1c2 0.6 4.6 0.9 6.6 1.5h0.8v0.1h0.7v0.3h0.9c1.9 0.5 4.3 0.8 6.4 1.3l1.8 0.1c2.9 0.8 6.4 0.9 9.3 1.7h1c0.8 0.2 2.2 0.3 3.1 0.5h1.1c1.3 0.4 3.2 0.4 4.6 0.8l6.7 0.7c2.4 0.5 5.5 0.3 8 0.8h1.9v0.2h2v0.1h2.3v0.2h1.9l3.3 0.1v0.2l8 0.1c1.8 0.5 5.2 0.2 7.4 0.2h7.8q0.5 0 1 0 0.5 0 0.9 0 0.5 0 1-0.1 0.5 0 1.1-0.1h4v-0.1h3.2v-0.2h2.4v-0.1h2.2v-0.2h2v-0.1h1.7v-0.2h1.7v-0.1h1.7c2.4-0.6 5.4-0.4 7.8-1.1l2.3-0.2c1.8-0.4 4.1-0.5 5.9-1h1.1c1-0.3 2.4-0.5 3.4-0.7h1c0.9-0.3 2.2-0.5 3.1-0.8h0.8c2.3-0.6 4.9-0.9 7.2-1.6l3.3-0.7v-0.1h0.5v-0.2l1.9-0.2v-0.2l1.8-0.3v-0.1l1.2-0.2v-0.1h0.7v-0.2l1.7-0.3v-0.1h0.5v-0.2h0.5v-0.1h0.7v-0.2l1.7-0.3v-0.1l1-0.1v-0.2h0.5v-0.1h0.5v-0.2h0.5v-0.1h0.5v-0.2h0.7v-0.1l1.6-0.3v-0.2h0.3v-0.1h0.5v-0.2h0.5v-0.1h0.5v-0.3h0.5v-0.1l1.5-0.3c0.8-0.2 1.7-0.6 2.4-0.9l1-0.1v-0.2h0.3v-0.1l1-0.2v-0.1h0.3v-0.2h0.5v-0.1h0.6v-0.1h0.4v-0.2l1-0.1v-0.2h0.3v-0.1h0.5v-0.2h0.3v-0.1l1-0.2v-0.1h0.3v-0.2h0.5v-0.1h0.5v-0.2l0.8-0.1v-0.2h0.5v-0.1l0.8-0.1v-0.3h0.4v-0.1h0.5v-0.2l0.6-0.1v-0.2h0.5v-0.1h0.3v-0.2h0.5v-0.1l0.8-0.2v-0.1h0.5v-0.2h0.3v-0.1h0.5v-0.2l0.7-0.1v-0.1h0.3v-0.2h0.5v-0.1l0.7-0.2v-0.1h0.5v-0.2h0.4v-0.1l0.7-0.2v-0.1h0.5v-0.2h0.3v-0.1h0.3v-0.2h0.4v-0.1h0.5v-0.1h0.3v-0.2h0.3v-0.1l0.7-0.2v-0.1h0.5v-0.2h0.3v-0.1h0.5v-0.3h0.3v-0.1l1-0.3v-0.2h0.5v-0.1l1-0.3v-0.2h0.3v-0.1h0.3v-0.1h0.4v-0.2h0.3v-0.1l0.8-0.2v-0.1h0.5v-0.2h0.3v-0.1l0.7-0.2v-0.1l0.6-0.2v-0.1l0.7-0.2v-0.1h0.2v-0.1h0.3v-0.2h0.4v-0.1h0.3v-0.2h0.3v-0.1l2.8-1.2 0.1-0.3 1-0.2v-0.2h0.4v-0.1h0.3v-0.2h0.3v-0.1h0.4v-0.2h0.3v-0.1l0.7-0.2 0.2-0.3h0.3v-0.1h0.4v-0.2h0.3v-0.1h0.3v-0.2l0.7-0.1 0.2-0.3 0.6-0.1v-0.2h0.4v-0.1h0.3v-0.2h0.3q0.1-0.1 0.2-0.3h0.4v-0.1h0.3v-0.2h0.4v-0.1h0.3l0.2-0.3 0.6-0.2v-0.1h0.4v-0.2h0.3q0.1-0.2 0.2-0.3h0.3v-0.2h0.3v-0.1h0.3v-0.2h0.4l0.1-0.3 1.1-0.3 0.2-0.3 1-0.3 0.2-0.2 0.6-0.2 0.2-0.3 0.6-0.1 0.2-0.3 1-0.3 0.2-0.3 0.7-0.2 0.2-0.3 0.7-0.1 0.1-0.3 0.7-0.1 0.2-0.4 0.6-0.2 0.2-0.3 0.6-0.1 0.2-0.3h0.3v-0.2h0.4l0.1-0.2h0.4l0.1-0.3 0.8-0.2 0.2-0.3h0.3l0.2-0.3 0.6-0.1v-0.2l0.5-0.1 0.2-0.3 0.6-0.2v-0.1l0.5-0.1q0.1-0.2 0.2-0.3l0.7-0.2 0.1-0.3h0.5l0.1-0.3h0.4q0-0.1 0.1-0.3h0.4l0.1-0.4 0.7-0.1 0.1-0.3h0.4v-0.1l0.5-0.2 0.1-0.3h0.4l0.1-0.3 0.5-0.1v-0.2l0.7-0.1q0.1-0.2 0.2-0.3h0.4v-0.2l0.5-0.1q0.1-0.2 0.2-0.3h0.3l0.2-0.3h0.3v-0.1l0.5-0.2 0.2-0.3h0.3l0.3-0.4h0.3l0.2-0.3 0.5-0.2v-0.1h0.3l0.2-0.4h0.3l0.3-0.3h0.3l0.2-0.3h0.3l0.2-0.3h0.3l0.3-0.4h0.4l0.1-0.3h0.4v-0.2l0.5-0.1 0.1-0.3h0.4l0.3-0.4h0.3v-0.2l0.5-0.1 0.2-0.3h0.4l0.3-0.5h0.4l0.1-0.3h0.4l0.3-0.4h0.3l0.2-0.3h0.3l0.3-0.5h0.4l0.1-0.3h0.4l0.1-0.3 0.5-0.2 0.4-0.4h0.4l0.2-0.3h0.3l0.2-0.3 0.5-0.1 0.3-0.5h0.3l0.2-0.3h0.3q0.2-0.2 0.3-0.4h0.4q0.1-0.2 0.3-0.4h0.3l0.4-0.5h0.3l0.3-0.4h0.5l0.3-0.6h0.3l0.4-0.4h0.3l0.3-0.4h0.3l0.4-0.5h0.3l0.5-0.6h0.3l0.4-0.4h0.3l0.3-0.4h0.4l0.6-0.6 0.5-0.2q0-0.1 0.1-0.3h0.4l0.5-0.6h0.3q0.2-0.2 0.3-0.5h0.4l0.5-0.6 0.5-0.1 0.1-0.3h0.3l0.5-0.6h0.5l0.5-0.6h0.3q0.3-0.3 0.5-0.6h0.3l0.5-0.6h0.3l0.5-0.6h0.4l0.6-0.7h0.4l0.6-0.7h0.3l0.6-0.7h0.4l0.1-0.3h0.2q0.1-0.2 0.2-0.3h0.3l0.2-0.3 0.5-0.3v-0.1h0.3l0.7-0.8h0.3l0.2-0.3 0.5-0.2v-0.2h0.4q0.3-0.4 0.6-0.7h0.4l0.8-1h0.3q0.4-0.5 0.9-0.9h0.3l0.7-0.7h0.3l1.1-1.1h0.3l0.8-0.8h0.4l1-1.2h0.3l1-1h0.3l1.3-1.2h0.3l1.1-1.1h0.4l1.3-1.3h0.3l1.6-1.6h0.4l1.4-1.5h0.4l1.3-1.3 0.8-0.4v-0.2h0.3l2.1-2.1h0.4l2.9-2.7h0.3l1-1.1 2.6-2.2 1.1-1q0.7-0.5 1.4-1 0.6-0.7 1.3-1.2 0.6-0.6 1.3-1.2 0.7-0.5 1.3-1.1 0.6-0.5 1.3-1.1 0.6-0.5 1.2-1.2 0.7-0.6 1.3-1.2 0.7-0.6 1.2-1.2l3.8-3.3 1-0.9 0.3-0.1v-0.3l3.1-2.7v-0.3l2.6-2.1v-0.3l1.7-1.3 1.6-1.9 0.9-0.6v-0.3l1.9-1.4v-0.3l1.5-1.2v-0.3l1.7-1.4v-0.3l1.3-1v-0.3l1.4-1v-0.3l1.3-1.2v-0.2l1.4-1.1v-0.3h0.2l0.5-0.6 0.5-0.2v-0.3l1.1-0.9v-0.3l1-0.7v-0.4l1.1-0.8v-0.3l1.2-0.8v-0.3l1-0.8v83.6l-0.5 0.3v0.1h-0.4l-0.3 0.6h-0.3l-0.4 0.4h-0.3l-0.6 0.6h-0.3l-0.4 0.4-0.5 0.2-0.1 0.3h-0.4l-0.3 0.4h-0.3l-0.3 0.4h-0.4l-0.3 0.5h-0.3q-0.2 0.2-0.4 0.4h-0.3q-0.2 0.2-0.3 0.5h-0.5l-0.3 0.4h-0.3l-0.4 0.5h-0.3l-0.2 0.3h-0.3l-0.3 0.5h-0.3l-0.4 0.4h-0.3l-0.3 0.5h-0.4q-0.1 0.2-0.3 0.4h-0.3l-0.2 0.3h-0.4l-0.4 0.4h-0.3l-0.3 0.5h-0.3l-0.2 0.3h-0.3q-0.1 0.1-0.2 0.3l-0.5 0.1-0.3 0.4h-0.4l-0.1 0.4h-0.4l-0.3 0.5h-0.3l-0.2 0.3h-0.4l-0.4 0.4h-0.3l-0.1 0.3h-0.4l-0.3 0.4h-0.3l-0.2 0.3h-0.3l-0.4 0.5h-0.3l-0.2 0.3h-0.3l-0.3 0.4h-0.3v0.2l-0.5 0.1-0.2 0.3h-0.4l-0.4 0.4h-0.3v0.2l-0.5 0.1q-0.1 0.2-0.2 0.4h-0.3q-0.2 0.2-0.3 0.5h-0.4l-0.1 0.3h-0.4v0.1l-0.5 0.1-0.1 0.3h-0.4l-0.3 0.5h-0.3l-0.2 0.3h-0.4v0.1l-0.5 0.2-0.2 0.3h-0.3q-0.2 0.2-0.3 0.4h-0.4l-0.1 0.3-0.5 0.1v0.2h-0.4q0 0.1-0.1 0.3h-0.4l-0.1 0.3h-0.4l-0.1 0.3h-0.3l-0.2 0.3h-0.3l-0.3 0.4h-0.3l-0.2 0.2h-0.3l-0.2 0.3h-0.3l-0.2 0.3h-0.3l-0.4 0.5h-0.3l-0.1 0.3-0.5 0.1v0.2h-0.4l-0.1 0.3h-0.4l-0.1 0.2-0.7 0.2-0.3 0.3h-0.3l-0.2 0.3h-0.3l-0.2 0.3h-0.3q-0.1 0.1-0.2 0.3h-0.3v0.1l-0.5 0.2-0.1 0.3h-0.4l-0.1 0.2h-0.4l-0.1 0.4h-0.4l-0.1 0.3-0.7 0.2-0.2 0.3h-0.4v0.1l-0.5 0.2-0.2 0.3h-0.3q-0.1 0.1-0.2 0.2l-0.5 0.2v0.1l-0.6 0.2-0.2 0.3h-0.3l-0.2 0.3h-0.3l-0.2 0.3-0.6 0.1-0.2 0.3h-0.3l-0.3 0.3h-0.3q-0.1 0.2-0.2 0.3l-0.6 0.1v0.2l-0.5 0.1-0.2 0.3-0.7 0.3v0.1l-0.5 0.2-0.1 0.3-0.7 0.1-0.2 0.3h-0.3l-0.2 0.3-0.7 0.1-0.2 0.3-0.6 0.2-0.2 0.3-0.7 0.1v0.2l-0.5 0.1-0.1 0.3-0.7 0.2q-0.1 0.1-0.2 0.2l-0.6 0.2q-0.1 0.1-0.2 0.3l-0.7 0.1q0 0.2-0.1 0.3l-0.8 0.2-0.1 0.3-0.7 0.1-0.2 0.4-0.6 0.2-0.2 0.2-0.7 0.2-0.1 0.3-0.7 0.1-0.2 0.3h-0.3v0.2h-0.3l-0.3 0.3-0.6 0.1-0.2 0.3-1 0.3-0.2 0.3-0.9 0.3q-0.1 0.1-0.2 0.3l-0.7 0.1q-0.1 0.2-0.1 0.3l-1 0.3-0.3 0.3-1 0.4-0.2 0.3-1 0.3-0.1 0.3-1 0.3-0.2 0.3-0.6 0.1v0.2h-0.4v0.1h-0.3l-0.3 0.3h-0.3v0.1h-0.3v0.2h-0.4v0.1h-0.3l-0.1 0.3h-0.4v0.2h-0.3v0.1h-0.3v0.2h-0.4l-0.1 0.3h-0.4v0.1h-0.3v0.2h-0.3v0.1h-0.4v0.1h-0.3l-0.3 0.3h-0.3v0.2h-0.3v0.1h-0.3v0.3h-0.4v0.1h-0.3l-0.2 0.3h-0.3v0.2h-0.3v0.1h-0.4v0.2h-0.3v0.1h-0.3v0.1h-0.4v0.2h-0.3q-0.1 0.2-0.2 0.3h-0.3v0.1h-0.3v0.2h-0.4v0.1h-0.4v0.2h-0.3v0.1l-0.7 0.2-0.1 0.3-0.7 0.1v0.2h-0.3v0.1h-0.4v0.1h-0.3v0.2h-0.3v0.1l-0.7 0.2v0.1l-0.7 0.2v0.1l-1 0.3-0.2 0.3-0.7 0.3v0.1h-0.3v0.2h-0.3v0.1h-0.4v0.1h-0.3v0.2h-0.3v0.1l-0.7 0.2v0.1l-0.6 0.2v0.1l-0.8 0.2v0.1h-0.3v0.2h-0.4v0.1h-0.3v0.2h-0.3v0.1l-1 0.3v0.2l-0.7 0.1v0.1h-0.5v0.2l-1.1 0.3v0.1h-0.3v0.2h-0.3v0.1h-0.4v0.2h-0.3v0.1h-0.3v0.2h-0.4v0.1h-0.3v0.2h-0.3v0.1h-0.3v0.2h-0.4v0.2h-0.5v0.1l-0.6 0.2v0.1h-0.4v0.2h-0.4v0.1l-1 0.3v0.2l-1.5 0.4v0.2l-0.6 0.1v0.1h-0.5v0.2h-0.4v0.1l-1.1 0.3v0.2h-0.5v0.1h-0.3v0.2l-1 0.3v0.1h-0.5v0.2h-0.3v0.1l-0.7 0.2v0.1h-0.5v0.1h-0.3v0.2l-0.8 0.1v0.2h-0.5v0.2h-0.3v0.2l-0.6 0.1v0.2h-0.5v0.1l-0.7 0.2v0.1h-0.5v0.2l-0.7 0.1v0.2h-0.5v0.1l-0.7 0.1v0.2h-0.5v0.1l-0.7 0.2v0.1h-0.5v0.2h-0.3v0.1h-0.5v0.2l-0.7 0.1v0.2h-0.5v0.1h-0.3v0.2h-0.5v0.1l-0.8 0.1v0.2h-0.5v0.1h-0.3v0.2l-0.8 0.1v0.2h-0.5v0.1h-0.3v0.2l-0.9 0.1v0.2h-0.5v0.2h-0.3v0.2h-0.5v0.1h-0.4v0.2h-0.5v0.1h-0.3v0.1l-1 0.2v0.1l-0.8 0.2v0.1h-0.4v0.2h-0.5v0.1h-0.3v0.2l-1.1 0.1v0.2h-0.3v0.1l-1 0.2v0.1h-0.4v0.2l-0.9 0.1v0.1h-0.4v0.2h-0.5v0.1l-1 0.2v0.1h-0.3v0.2l-1.1 0.1v0.2h-0.3v0.1h-0.5v0.2h-0.5v0.1h-0.5v0.2h-0.5v0.1h-0.5v0.3h-0.3v0.1l-3.1 0.7v0.2h-0.3v0.1h-0.5v0.2h-0.5v0.1h-0.5v0.2h-0.5v0.1h-0.5v0.2h-0.6v0.1h-0.5v0.2h-0.5v0.1h-0.5v0.1l-1 0.2v0.1l-1 0.2v0.1h-0.6v0.2h-0.6v0.1h-0.5v0.2h-0.5v0.1h-0.5v0.2h-0.5v0.1h-0.7v0.2h-0.5v0.1h-0.5v0.2h-0.5v0.1l-2.3 0.4v0.3l-2.8 0.6v0.1l-3.5 0.8v0.1l-1.4 0.1v0.2h-0.5v0.1l-1.9 0.3v0.2l-1.8 0.3v0.1l-1.3 0.2c-1.3 0.3-2.9 0.6-4.1 1l-1.3 0.1c-2.1 0.6-4.5 1-6.5 1.6h-0.8c-2.4 0.7-5.4 1-7.9 1.6h-1.1v0.2h-0.8v0.1h-0.8v0.2h-0.8v0.1h-1c-0.9 0.2-2 0.4-2.8 0.6h-1c-1.5 0.4-3.5 0.5-5 0.9h-1.2c-2.6 0.7-5.7 0.6-8.3 1.2l-2.6 0.2c-1.9 0.4-4.3 0.3-6.2 0.7h-1.7v0.2h-1.6v0.1h-2.1v0.2h-2v0.1h-2.1v0.2h-2.3v0.1h-2.9v0.1h-3v0.2h-3.7v0.1h-5.7v0.2h-9.2q-0.5 0-1.1 0-0.5 0-1.1 0-0.6 0-1.2 0-0.6-0.1-1.1-0.2h-4.9v-0.1h-3.3v-0.2h-2.8v-0.1h-2.3v-0.1h-2.1v-0.2h-1.8c-2-0.5-4.6-0.2-6.5-0.7l-3-0.2-15.3-2.1c-2.5-0.7-5.4-0.8-7.8-1.5l-2.5-0.3v-0.1l-1.5-0.2v-0.1h-0.7v-0.2l-1.5-0.1v-0.2l-2.2-0.3v-0.1h-0.8v-0.1l-2.9-0.5c-3.8-1.1-8-1.7-11.6-2.9l-1.5-0.1v-0.2h-0.5v-0.1l-1.1-0.2v-0.1h-0.7v-0.2h-0.6v-0.1l-3.6-0.7v-0.2h-0.5v-0.1h-0.5v-0.2l-1.2-0.1v-0.2l-1.7-0.4v-0.1l-1.2-0.2v-0.1l-1.6-0.3v-0.1l-2.3-0.5v-0.1l-2.1-0.5v-0.1l-2.9-0.6v-0.1h-0.5v-0.2h-0.5v-0.1h-0.5v-0.2h-0.5v-0.1h-0.5v-0.2h-0.7v-0.1l-1-0.2v-0.1h-0.6v-0.2h-0.5v-0.1h-0.5v-0.2l-1.6-0.3v-0.1h-0.5v-0.1l-1-0.3v-0.1l-1.3-0.2c-7-2.2-14.7-4.1-21.7-6.4l-1.2-0.1v-0.2l-1-0.1v-0.2h-0.5v-0.1h-0.6v-0.2h-0.5v-0.1h-0.5v-0.2l-2.1-0.4v-0.1l-1-0.2v-0.1h-0.8v-0.2h-0.5v-0.1h-0.5v-0.2h-0.5v-0.1h-0.5v-0.2h-0.6v-0.1h-0.5v-0.2h-0.5v-0.2h-0.5v-0.2h-0.5v-0.1h-0.8c-3.5-1.1-7.5-2-11.1-3.1h-0.6v-0.1h-0.5v-0.2l-1.2-0.1v-0.2l-1.1-0.1v-0.2l-1.3-0.1v-0.2l-1.3-0.1c-3.4-1.2-7.3-1.7-10.8-2.7l-3.4-0.6v-0.2h-0.6v-0.1h-0.7v-0.2h-0.8v-0.1h-0.7v-0.2h-0.7v-0.1h-0.7v-0.2l-18.4-3.3h-0.9c-1.4-0.3-3.1-0.4-4.3-0.7h-1.1c-1.9-0.5-4.2-0.4-6-0.9l-2.7-0.1c-1.8-0.5-4.3-0.3-6-0.8h-1.9v-0.1h-1.9v-0.3l-10.3-0.4v-0.2h-4.2c-1.6-0.4-4.4-0.1-6.4-0.1l-15 0.1c-0.8 0.2-2.3 0-3.2 0.2v0.1h-2.7v0.2z"/>
	<path id="форма 1" class="s9" d=""/>
	<path id="форма 2" class="s9" d=""/>
	<g id="Папка 1 copy">
		<path id="Фигура_1" fill-rule="evenodd" class="s1" d="m833.2 371.8l1.5 7.5c0.4 2-1.2 2.3-1.2 2.3-5.3 1.9-6.9 1.7-6.9 1.7-2.4 0.2-4.1 2.4-4.1 2.4-5.2 2.7-13.7 1.4-13.7 1.4-4.9-0.5-4-1.2-4-1.2l-0.1-2.3c0.6-3.1 5.8-4.9 5.8-4.9 7.2-5.8 6.8-8.2 6.8-8.2 3.1-1 7.9-0.1 7.9-0.1 7 3.6 8 1.4 8 1.4z"/>
		<path id="Фигура_2" fill-rule="evenodd" class="s1" d="m847 372.6c-1.2 1.9-1 5.1-1 5.1q-0.2 0.3-0.3 0.8-0.2 0.4-0.2 0.9-0.2 0.4-0.2 1 0.2 0.4 0.3 0.9c0.6 1.8 5.3 2.1 5.3 2.1 0.9 4.7 3.2 4.3 3.2 4.3 8.8 2 14.1-0.8 14.1-0.8 3.7-4.3-3.5-7.7-3.5-7.7-3.6-3.6-4.3-7.5-4.3-7.5l0.4-1c-4.9-6.4-13.8 1.9-13.8 1.9z"/>
		<path id="Фигура_3" fill-rule="evenodd" class="s10" d="m857.9 370.4c0.6-1.4 0.5-2.6 0.5-2.6 1-1.5 0.1-2.7 0.1-2.7 1.3-0.4 1.4-0.9 1.4-0.9 0.9-3.2 0.2-5.2 0.2-5.2-2.2-0.9-2.2-1.2-2.2-1.2 2.9-2.1 2.9-3.7 2.9-3.7 0.7-5.8-0.2-9.2-0.2-9.2 1.3-8.4 0.7-13.8 0.7-13.8 0.5-3.9-0.3-4.3-0.3-4.3 0.5-3.6-0.9-5.3-0.9-5.3-0.4-1 0.7-2.7 0.7-2.7 1-7.5 0-9.3 0-9.3 4.9-11.5 2.8-25.7 2.8-25.7-1.1-9.7 0.3-17.9 0.3-17.9-1.7-1.9-4.2-1.5-4.2-1.5l-43.8-0.4c-2.6-0.9-4.3-0.7-4.3-0.7-1.2 9.3 3.5 49.9 3.5 49.9-1.6 4.5 1.3 5.8 1.3 5.8 0.9 1.9 0.2 3.8 0.2 3.8v4.1c-2.2 2.7 0.2 10.6 0.2 10.6l1.3 12.7c0.5 1.7-0.7 4.2-0.7 4.2l1.2 3.8c1.6 0 0.6 1.5 0.6 1.5 0 1.3 1.6 2.3 1.6 2.3-1.7 2.5-0.4 5.1-0.4 5.1l-0.6 3.4c8.5 0.3 11.4 1.8 11.4 1.8h2.2l-0.2-2.6 1.9-4.2c0.4-1.5 0.2-2 0.2-2 1.4-0.7-0.2-3.8-0.2-3.8 2.1-6-2.2-4.8-2.2-4.8-1.1-2.1-0.1-5.4-0.1-5.4l1.3-10.1c0.6-11.9-1.3-12.6-1.3-12.6 0.8-1.3 0.2-3.4 0.2-3.4 1.2-4.1-0.2-7.2-0.2-7.2 2.3-5 1.4-5.6 1.4-5.6-0.6-14.7 3.1-28.2 3.1-28.2 4.4 12.5 5.4 29.5 5.4 29.5-0.5 1.3 1 2.8 1 2.8-0.7 5 1.1 7.1 1.1 7.1 0.8 2-0.8 5-0.8 5 0.1 4.3-0.2 8.3-0.2 8.3-1 4 0.5 8.8 0.5 8.8 0.3 4.5 0.1 9.9 0.1 9.9 0.4 2.1 1.7 3.2 1.7 3.2-5.2 3-1.1 6.1-1.1 6.1-0.3 6.3 1.8 9.3 1.8 9.3z"/>
		<path id="Фигура_3 copy" fill-rule="evenodd" class="s8" d="m857.9 369.4c0.6-1.4 0.5-2.6 0.5-2.6 1-1.5 0.1-2.7 0.1-2.7 1.3-0.4 1.4-0.9 1.4-0.9 0.9-3.2 0.2-5.2 0.2-5.2-2.2-0.9-2.2-1.2-2.2-1.2 2.9-2.1 2.9-3.7 2.9-3.7 0.7-5.8-0.2-9.2-0.2-9.2 1.3-8.4 0.7-13.8 0.7-13.8 0.5-3.9-0.3-4.3-0.3-4.3 0.5-3.6-0.9-5.3-0.9-5.3-0.4-1 0.7-2.7 0.7-2.7 1-7.5 0-9.3 0-9.3 4.9-11.5 2.8-25.7 2.8-25.7-1.1-9.7 0.3-17.9 0.3-17.9-1.7-1.9-4.2-1.5-4.2-1.5l-43.8-0.4c-2.6-0.9-4.3-0.7-4.3-0.7-1.2 9.3 3.5 49.9 3.5 49.9-1.6 4.5 1.3 5.8 1.3 5.8 0.9 1.9 0.2 3.8 0.2 3.8v4.1c-2.2 2.7 0.2 10.6 0.2 10.6l1.3 12.7c0.5 1.7-0.7 4.2-0.7 4.2l1.2 3.8c1.6 0 0.6 1.5 0.6 1.5 0 1.3 1.6 2.3 1.6 2.3-1.7 2.5-0.4 5.1-0.4 5.1l-0.6 3.4c8.5 0.3 11.4 1.8 11.4 1.8h2.2l-0.2-2.6 1.9-4.2c0.4-1.5 0.2-2 0.2-2 1.4-0.7-0.2-3.8-0.2-3.8 2.1-6-2.2-4.8-2.2-4.8-1.1-2.1-0.1-5.4-0.1-5.4l1.3-10.1c0.6-11.9-1.3-12.6-1.3-12.6 0.8-1.3 0.2-3.4 0.2-3.4 1.2-4.1-0.2-7.2-0.2-7.2 2.3-5 1.4-5.6 1.4-5.6-0.6-14.7 3.1-28.2 3.1-28.2 4.4 12.5 5.4 29.5 5.4 29.5-0.5 1.3 1 2.8 1 2.8-0.7 5 1.1 7.1 1.1 7.1 0.8 2-0.8 5-0.8 5 0.1 4.3-0.2 8.3-0.2 8.3-1 4 0.5 8.8 0.5 8.8 0.3 4.5 0.1 9.9 0.1 9.9 0.4 2.1 1.7 3.2 1.7 3.2-5.2 3-1.1 6.1-1.1 6.1-0.3 6.3 1.8 9.3 1.8 9.3z"/>
		<path id="Фигура_4" fill-rule="evenodd" class="s11" d="m846.1 332.6c5.5-2 5.3-6.2 5.1-6.1-2.1-3.5-3.2-5.6-3.2-5.6 9.3 0.4 6.1 6.6 6.1 6.6-1.1 4.8-8 5.1-8 5.1z"/>
		<path id="Фигура_5" fill-rule="evenodd" class="s11" d="m821.2 320.1c5.1 2.2 5.5 6.8 5.5 6.8 1.9 2.7 3.7 2.6 3.7 2.6-0.8 1.3-4.1-1.6-4.1-1.6-1.8-4.5-5.1-7.8-5.1-7.8z"/>
		<path id="Фигура_6" fill-rule="evenodd" class="s11" d="m841.7 281.5c4.8 4.1 18 2.2 18 2.2-13.8 5-18-2.2-18-2.2z"/>
		<path id="Фигура_6_копия_2" fill-rule="evenodd" class="s11" d="m832.8 286.3c-4.8 4-18.1 2.2-18.1 2.2 13.9 4.9 18.1-2.2 18.1-2.2z"/>
		<path id="Фигура_6_копия" fill-rule="evenodd" class="s11" d="m844.2 293.9c3.3 2.9 12.4 1.5 12.4 1.5-9.5 3.4-12.4-1.5-12.4-1.5z"/>
		<path id="Фигура_13" fill-rule="evenodd" class="s12" d="m848.1 177.2c-3.8-1.2-4.2-9.1-4.2-9.1l-0.8-5.2c1.6 0 1.6-1.4 1.6-1.4l1-3.2c0.6-2.5-1.3-3.5-1.3-3.5-19.9-13.7-23.6 0.3-23.6 0.3 0.8 2.7 0.3 4.4 0.3 4.4 0.2 3.3 2.4 5.9 2.4 5.9 1.1 5.2 3.6 6.6 3.6 6.6l-0.2 1.4-0.2 6.1 1.7 2.8 3.4 2.1 5.1 2.5 3.8-1.6 3.7-2 1.8-2.2z"/>
		<path id="Фигура_7" fill-rule="evenodd" class="s13" d="m863.8 266.5c1.2-4.6 0.4-5.9 0.4-5.9l-3.4-58.8c2.5 0.9 2.8 2.6 2.8 2.6l1.2 0.8 0.4 10.4c4.5 0.4 9.4-2.2 9.4-2.2q-0.3-1.4-0.8-2.6-0.3-1.3-0.6-2.7-0.2-1.3-0.6-2.6-0.2-1.3-0.4-2.6c1.3-6.6-1.5-10.2-1.5-10.2-5.3-8.1-18.1-13.8-18.1-13.8 0.4-1.6-0.2-2.4-0.2-2.4l-1.9-4.5-6.4-1c0.1 3.7 2.7 5.4 2.7 5.4-1.7 3-5.2 5.4-5.2 5.4-2.4-0.9-3.7 0.7-3.7 0.7l-2.6 2.6c-2.5-2.1-4.5-3.2-4.5-3.2-3.5-2.9-3.8-9.5-3.8-9.5-2.3 1.8-2.7 4.7-2.7 4.7-9.6 4.8-13 7.8-13 7.8-8.4 2.6-8.2 16.4-8.2 16.4l7.3 58.7c-0.5 2.1-1.5 3.4-1.5 3.4-0.1 0.6 0.6 0.7 0.6 0.7 0.9-2 2.1-0.7 2.1-0.7 2.9-0.1 4.2 0.7 4.2 0.7l42.3 0.4c6.4-0.2 5.7 2 5.7 2z"/>
		<path id="Фигура_18" fill-rule="evenodd" class="s14" d="m844.2 171l6 0.8 2.5 5.1c0.5 3.6-2.2 8-2.2 8-0.9 1.5-2.5 0.3-2.5 0.3-2.1-1.6-5.7-2.6-5.7-2.6-4.9 3.8-4.2 14.6-4.2 14.6l-6.2 0.6c2.2-9.7 0.2-13.4 0.2-13.4-1.9 2.8-4.1-1.4-4.1-1.4-5.5-0.4-3.4 2.5-3.4 2.5-1.9-0.1-0.9-2.3-0.9-2.3l0.6-6c0.9-4.1 2.8-4.9 2.8-4.9 0.3 9.9 8.2 12.7 8.2 12.7 1.7-2 3.2-3.2 3.2-3.2 1.5-0.9 3.3-0.2 3.3-0.2 2.2-1.5 4.9-5.1 4.9-5.1-3.3-2.4-2.5-5.5-2.5-5.5z"/>
		<path id="Фигура_8" fill-rule="evenodd" class="s15" d="m855.7 197l9.1 6.9 0.9 53.4-8.2-3.6z"/>
		<path id="Фигура_14" fill-rule="evenodd" class="s16" d="m829.1 172.4c4.7 2.8 10.7-1.4 10.7-1.4 3.4 3.6-3.7 11.1-3.7 11.1-7.1-3.1-7-9.7-7-9.7z"/>
		<path id="Фигура_16" fill-rule="evenodd" class="s14" d="m828.9 165.8c3.6 7 5.6-1.2 5.6-1.2z"/>
		<path id="Прямоугольник_1" fill-rule="evenodd" class="s1" d="m823.7 157.8l3.4-0.9q0.3 0 0.5 0.1 0.3 0.1 0.3 0.5 0.1 0.2 0 0.4-0.3 0.2-0.5 0.4l-3.3 0.9q-0.2 0-0.6-0.2-0.2-0.1-0.2-0.4-0.1-0.2 0-0.5 0.2-0.2 0.4-0.3z"/>
		<path id="Прямоугольник_1_копия" fill-rule="evenodd" class="s1" d="m832.8 156l3.4-0.4q0.2-0.1 0.5 0.1 0.2 0.1 0.2 0.4 0.1 0.3-0.1 0.5-0.1 0.2-0.5 0.3l-3.4 0.5q-0.3 0-0.5-0.1-0.2-0.3-0.2-0.5-0.1-0.3 0.1-0.5 0.1-0.3 0.5-0.3z"/>
		<path id="Фигура_9" fill-rule="evenodd" class="s17" d="m865.6 257.3l-67.4 3.3-8.4-3.8 67.7-3.2z"/>
		<path id="Фигура_12" fill-rule="evenodd" class="s12" d="m874.4 213.1c0 7.3 2.4 12.7 2.4 12.7 1.3 9.2-5.2 21.6-5.2 21.6 0.2 4.8-2.1 6.8-2.1 6.8-1.8 2.1-3.7 5.8-3.7 5.8-1.3 0.9-5.3-0.5-5.3-0.5q-0.5-0.1-0.8-0.1-0.4-0.2-0.9-0.2-0.4 0-0.9-0.1-0.4 0-0.9 0c-2.2-0.7-0.2-1.6-0.2-1.6l4.5-0.4c1.6-1 3.6-5.2 3.6-5.2 0.3-0.6 1.3-1.3 1.3-1.3 0.3-2.4-0.8-4.2-0.8-4.2-3.4 0.3-2.1-3-2.1-3 1.3-0.6 1.3-1.2 1.3-1.2 0.8-1.4 2-1.4 2-1.4-1.6-5.4 0.4-10.8 0.4-10.8 0.4-6.8-2.1-9.1-2.1-9.1l0.1-5.5z"/>
		<path id="Фигура_11" fill-rule="evenodd" class="s12" d="m793.5 258.1c1.2 1.9 1.2 2.4 1.2 2.4q0 0.2 0.1 0.4 0.2 0.1 0.3 0.2 0.2 0.1 0.5 0.3 0.2 0 0.4 0c0.7 1.1 1.7 0.7 1.7 0.7 0.7 0.7 1.5 0.4 1.5 0.4 2 0.9 3.8-1.1 3.8-1.1 2.3 0 1.1-1.8 1.1-1.8-4.5 0.6-6.4 0.2-6.4 0.2-2-0.6-4.2-1.7-4.2-1.7z"/>
		<path id="Фигура_10" fill-rule="evenodd" class="s18" d="m855.7 197l-67.7 4.2 1.8 55.6 67.7-3.2z"/>
		<path id="Фигура_15" fill-rule="evenodd" class="s19" d="m841.9 165.4c-0.1 2.9-5.5 5.6-5.5 5.6 7.8-2.8 5.5-5.6 5.5-5.6z"/>
		<path id="Фигура_17" fill-rule="evenodd" class="s1" d="m841 155.5c1.8-0.5 4.1-0.6 4.3-2.3 0.7-4-1.6-5.9-3.7-9.5-1.7-3-9.6-4.5-13.6-3.9-4.8 0.8-7.5 6.1-8.3 7.1-2.2 3.3-3.3 5.5 1.8 11.1 0.6-2.6 1.5-4.6 2.8-4.9 1.3-0.3 2.3 1.4 3.7 0.9 1.5-0.4 1.4-3.1 2.9-3.5 1.1-0.4 2.4 0.7 3.6 1.7 2.9 2.5 5.4 3.5 6.5 3.3z"/>
	</g>
	<g id="Папка 1">
		<path id="Прямоугольник_2" class="s20" d="m903 261.1c0-9.4 7.6-17 17-17h79c9.4 0 17 7.6 17 17v102.3c0 9.4-7.6 17-17 17h-79c-9.4 0-17-7.6-17-17z"/>
		<path id="Эллипс_1" class="s21" d="m959.5 364.7c-20.8 0-37.6-16.9-37.6-37.7 0-20.8 16.8-37.7 37.6-37.7 20.8 0 37.6 16.9 37.6 37.7 0 20.8-16.8 37.7-37.6 37.7z"/>
		<path id="Эллипс_1_копия" class="s22" d="m959.5 359.7c-18.1 0-32.7-14.6-32.7-32.7 0-18.1 14.6-32.7 32.7-32.7 18.1 0 32.8 14.6 32.8 32.7 0 18.1-14.7 32.7-32.8 32.7z"/>
		<path id="Эллипс_2" class="s23" d="m950.8 261c-3.4 0-6.1-2.7-6.1-6.1 0-3.4 2.7-6.1 6.1-6.1 3.3 0 6.1 2.7 6.1 6.1 0 3.4-2.8 6.1-6.1 6.1z"/>
		<path id="Эллипс_2_копия" class="s23" d="m933 261c-3.4 0-6.1-2.7-6.1-6.1 0-3.4 2.7-6.1 6.1-6.1 3.3 0 6 2.7 6 6.1 0 3.4-2.7 6.1-6 6.1z"/>
		<path id="Эллипс_2_копия_2" class="s23" d="m915 261c-3.3 0-6.1-2.7-6.1-6.1 0-3.4 2.8-6.1 6.1-6.1 3.4 0 6.1 2.7 6.1 6.1 0 3.4-2.7 6.1-6.1 6.1z"/>
		<path id="Прямоугольник_3" class="s23" d="m969.8 255.2c0-3.5 2.8-6.4 6.3-6.4h23.3c3.5 0 6.4 2.9 6.4 6.4 0 3.5-2.9 6.4-6.4 6.4h-23.3c-3.5 0-6.3-2.9-6.3-6.4z"/>
		<path id="Фигура_1" fill-rule="evenodd" class="s1" d="m966.6 366c0.7 3.3 1.4 9.9 1.4 9.9 1.8 4.5 0.3 7 0.3 7-4.8 2.4-7.7 1-7.7 1-2.1-2.6-4.9 1.5-4.9 1.5-10.4 5.2-23.5-1.2-23.5-1.2-2.7-2 0.5-5.3 0.5-5.3 1-1.1 4.8-1.7 4.8-1.7 8.8-3 9.3-9.7 9.3-9.7z"/>
		<path id="Фигура_2" fill-rule="evenodd" class="s1" d="m930.1 359.4c1.2 1.3 0.7 3.7 0.7 3.7 1.3 3.2 1.3 7.4 1.3 7.4 2.5 4.4 0.1 7.3 0.1 7.3-7.1 3.2-13.8-0.3-13.8-0.3-3.4-2.4-7.4 0.8-7.4 0.8-13.8 2.1-19.1-4.2-19.1-4.2-2.6-4.6 1.4-6.1 1.4-6.1 2.4-1 5.9-0.3 5.9-0.3 7.8 0.5 9.2-4.4 9.2-4.4z"/>
		<path id="Фигура_3" fill-rule="evenodd" class="s8" d="m966.5 363.9c-0.5 4.7-1.5 6.3-1.5 6.3-4.4 2.9-8.4 1.5-8.4 1.5-8-1.1-9.8-4.5-9.8-4.5 0.2-3.7 2.6-8.9 2.6-8.9-3.4-5.5-1.6-9.5-1.6-9.5l4-8.7c-0.6-3-0.2-4-0.2-4-1.8-3.7-0.5-6.5-0.5-6.5-5.7-16.5-6.2-34.7-6.2-34.7-0.7-4.2-1-7.3-1-7.3-1.6 3.2-5.4 7.6-5.4 7.6-0.9 1.3-1.7 4.8-1.7 4.8l-2.1 5.2c-0.5 1.7-3.8 4.6-3.8 4.6-0.9 2.1 0.3 3.5 0.3 3.5-0.5 4 0.5 7.5 0.5 7.5 0.6 12.5-2 25.8-2 25.8 0.4 5 0.6 11.5 0.6 11.5-0.9 4-5.5 6.1-5.5 6.1 0.2 1.9-2.7 1.5-2.7 1.5-13.7 0.7-13.9-2.5-13.9-2.5 0-4.2 0.9-5.5 0.9-5.5-1.2-4.5-0.7-5.1-0.7-5.1-1.4-8.9-0.5-10.8-0.5-10.8 0.3-8.6 1.5-15.2 1.5-15.2-1.3-6.1 0.2-10.3 0.2-10.3 0.8-17 3.6-20.4 3.6-20.4 3.3-14 6.3-20.1 6.3-20.1-3.3 0.3-0.6-2.3-0.6-2.3l3.3-4.5c2.1-4.7 4.1-8.6 4.1-8.6-1.4-2.7 2.2-3.9 2.2-3.9 1.7-3.3-0.7-5.5-0.7-5.5-1.8-3.6-1.6-5.8-1.6-5.8l24.9-1 13.6 2.5 6.7 5.2 5.4 2.8c-1.1 10.3-4.8 15.3-4.8 15.3-2.1 8.6-2.4 27.6-2.4 27.6 0.4 2-0.8 4.3-0.8 4.3 0.6 2-0.5 6.6-0.5 6.6 2 1.8 2 3.9 2 3.9 4.3 22-2 47.8-2 47.8 0 1.9-1.8 3.7-1.8 3.7z"/>
		<path id="Фигура_12" fill-rule="evenodd" class="s24" d="m957.4 254.8c3.4 3.7 5 7.9 5 7.9 1.1-5 1.2-9.6 1.2-9.6l-2.6-2.1z"/>
		<path id="Фигура_13" fill-rule="evenodd" class="s24" d="m935.2 251.5c0 5.2 1.3 10.1 1.3 10.1l-3.4-1.7c-1-4-0.9-9.5-0.9-9.5z"/>
		<path id="Фигура_14" fill-rule="evenodd" class="s24" d="m959.6 273.8c-4.9 3-16.2 3.4-16.2 3.4 8.6 1.9 16.2-3.4 16.2-3.4z"/>
		<path id="Фигура_15" fill-rule="evenodd" class="s24" d="m946 293.7c4.8 7.7 10.4 10.4 10.4 10.4-5-0.6-10.4-10.4-10.4-10.4z"/>
		<path id="Фигура_16" fill-rule="evenodd" class="s24" d="m951.9 340.6c-0.1 7.1 2.6 11.1 2.6 11.1-4.5-1.4-2.6-11.1-2.6-11.1z"/>
		<path id="Фигура_17" fill-rule="evenodd" class="s24" d="m948.3 353.2c1.3 2.9 5.4 10.4 11 7.7 0.2 0.1-11-7.7-11-7.7z"/>
		<path id="Фигура_18" fill-rule="evenodd" class="s24" d="m949.1 318.2c5.7 10 13.5 17 13.5 17-8.6-5.6-13.5-17-13.5-17z"/>
		<path id="Фигура_19" fill-rule="evenodd" class="s24" d="m968.4 308.5c-3.9-2.5-3.7-5.9-3.7-5.9-4.4 0.4 3.7 5.9 3.7 5.9z"/>
		<path id="Фигура_6" fill-rule="evenodd" class="s12" d="m927.1 196.2c-2.3 9.1-5.7 14.3-5.7 14.3-3 5.3-3.2 12.7-3.2 12.7-1.2 7.5-4.1 16.7-4.1 16.7-0.9 1.3-2.7 1.9-2.7 1.9q-0.8 0.2-1.7 0.3-0.8 0.1-1.6 0.2-0.8 0.2-1.6 0.3-0.9 0.1-1.7 0.1c-1 0.2-1.9 1.6-1.9 1.6-2.8 0.1-3.6 2.2-3.6 2.2-1.9 2.7 1 5.1 1 5.1 0.4 0.7 0.9 0.3 0.9 0.3 3.2 4 3.6 1.9 3.6 1.9 3.8 0.7 0.1-2.9 0.1-2.9l0.1-0.2c0-1.1-0.9-1.5-0.9-1.5q0-0.3 0.1-0.5 0.1-0.1 0.2-0.3 0.1-0.3 0.3-0.5 0.1-0.1 0.3-0.4c1.4 3.1 5.3 1.1 5.3 1.1 3.5-1.1 5.4-1.5 5.4-1.5 1.1-0.1 1.5-1.6 1.5-1.6 5.6-8.3 12.9-20.3 12.9-20.3l1.3-7.2 0.5-8.5-1.2-3.5-0.2-5.6-2.3-3z"/>
		<path id="Фигура_10" fill-rule="evenodd" class="s25" d="m928.4 143.8c-5.3 1.5-4.9-0.7-4.9-0.7l7-4.3 0.4 3z"/>
		<path id="Фигура_7" fill-rule="evenodd" class="s12" d="m952.1 145.2c1.9 1.1-0.6 6.9-0.6 6.9-0.3 8.3 3 9.3 3 9.3l-0.3 4.4-2.2 4.5-4.2 4.6-4.1 3.7-3.9 1.4-2.6-1.5-0.9-6.4 0.1-4c-0.6-1.7-0.5-3-0.5-3-3.5 0-4.2-3.8-4.2-3.8-4.6-6.6-3.3-8.7-3.3-8.7l0.1-0.2c-0.1-3.2 0-4.3 0-4.3-1.9-0.8-0.2-2.3-0.2-2.3l-0.1-4.5 1.5-3.1 6.6-1.2 6.7 0.6 4.5 2.4z"/>
		<path id="Фигура_25" fill-rule="evenodd" class="s26" d="m947.8 157.5c-1.6 4.7-11.4 7.9-11.4 7.9 7.4-3.4 11.4-7.9 11.4-7.9z"/>
		<path id="Фигура_4" fill-rule="evenodd" class="s13" d="m976.3 255.2c-9 0.2-9.8-0.2-9.8-0.2l-0.3-2.5-1.4 2c-0.5 0.3-1.2-0.4-1.2-0.4-3.6-1.8-6.2-4-6.2-4-5.6-2.4-8.5-0.9-8.5-0.9-5.1 2.9-11.5 3.3-11.5 3.3-8.8-0.2-12.6-8.2-12.6-8.2 0.8-2.7 3.7-4.4 3.7-4.4 0.2-1.7 2.7-5.3 2.7-5.3-4.3-16.3-4-37.2-4-37.2-2.4-2.5-1.7-4.6-1.7-4.6-1.2-2-0.4-3.7-0.4-3.7-1.3-8.2 1.4-11.2 1.4-11.2 1.1-5.5 4.7-7 4.7-7 2.7-1.9 4.8-2.8 4.8-2.8 3.8 6.5 3.8 9.9 3.8 9.9l0.4-5c0.5-1 1.5-0.5 1.5-0.5l1.5 0.5c4.7-2.7 8.2-8.3 8.2-8.3 0.6-1.4 2.2-3.3 2.2-3.3-1.3-0.5-1.7-2.6-1.7-2.6 5.4-0.7 4.8 0.9 4.8 0.9 1 2.7 2.8 4.7 2.8 4.7 22.1 10.2 23.1 26.4 23.1 26.4 0.3 5.6-4 17.5-4 17.5-8.8-2.1-19.3-0.2-19.3-0.2l2.1 6.1 1.4 3.5 4.7 3 7.8 2.4c0.4 3.8-0.9 11.8-0.9 11.8-1.3 1.1-0.4 2.6-0.4 2.6 0.2 3.8 3.7 11.2 3.7 11.2 0.6 6.7-1.4 6.5-1.4 6.5z"/>
		<path id="Фигура_24" fill-rule="evenodd" class="s27" d="m962.1 181.8c-6.7 2.1-3.4 25-3.4 25-5.2-24.4 3.4-25 3.4-25z"/>
		<path id="Фигура_11" fill-rule="evenodd" class="s14" d="m936.3 167.8c-2 0.8-2.5 1.2-2.5 1.2 2.6 8.1 5.5 13.4 5.5 13.4 3.1-1.1 4.1-4.8 4.1-4.8 6.6 0.4 16-13.4 16-13.4-1.7-2.2-2.3-4.4-2.3-4.4-0.7-2.3-5.3-1.3-5.3-1.3 0.5 2.2 1.4 2.9 1.4 2.9-3.1 6.6-9.9 11.3-9.9 11.3-3.8-1.9-3.3 1.4-3.3 1.4l-0.3 2.4c-0.6-4.5-3.4-8.7-3.4-8.7z"/>
		<path id="Фигура_5" fill-rule="evenodd" class="s12" d="m978.4 207.7c-2.3 15.4-4.8 18.3-4.8 18.3-1.1 13.3-15 30.2-15 30.2l-0.2 0.3c-1.8 1.9-0.9 6.8-0.9 6.8 1 3.1-1.9 6.5-1.9 6.5-0.5 0.6-0.2 2.2-0.2 2.2-0.9 2.3-2.7 0.8-2.7 0.8-1.4 2.1-3 0.4-3 0.4-1.3 2.4-3.1-0.3-3.1-0.3-1.4 1.5-2.8-0.5-2.8-0.5-2 1.5-1.1-1.6-1.1-1.6 0.3-1.7-0.1-2.5-0.1-2.5 0.3-1.4 1.3-3.6 1.3-3.6-0.1-3.1 3.9-5.3 3.9-5.3 1.9-2.1 2.1-4.2 2.1-4.2 2.2-6 5.2-12 5.2-12 1.3-3.5 1.2-6.5 1.2-6.5 0.8-7.4 5.5-16.6 5.5-16.6q0.1-0.3 0.1-0.7 0-0.3-0.1-0.7 0-0.3-0.2-0.7-0.1-0.2-0.3-0.5c-2.5-4.9-2-10-2-10l10.5-1.2 3.7 0.4z"/>
		<path id="Фигура_9" fill-rule="evenodd" class="s28" d="m947.7 142.1c-1.4 3-4.8 1-4.8 1-16.8-7.4-16.6 0.9-16.6 0.9-4.3 1.3-2.4-1.5-2.4-1.5 1-2.1 3.3-3.2 3.3-3.2l3.8-3 5 0.4 5.3 0.4c0 0 2.7 1.8 3.2 2 0.3 0.2 3.2 3 3.2 3z"/>
		<path id="Фигура_8" fill-rule="evenodd" class="s8" d="m951.6 145.5c-3.2-1.7-4.4-2.8-4.4-2.8-3.4-1.2-6-2.8-6-2.8-8.4-2.9-14.2-0.5-14.2-0.5-0.2-4.5 2.7-6.2 2.7-6.2 6.9-4.4 9.6-2.9 9.6-2.9 1.5-1.2 2.4 0.3 2.4 0.3 3.7 0.2 5.5 2.9 5.5 2.9 2.4 1.4 3.1 3.5 3.1 3.5 0.7 1.3 0.7 3.6 0.7 3.6 0.9 2 0.6 4.9 0.6 4.9z"/>
		<path id="Фигура_21" fill-rule="evenodd" class="s24" d="m932.7 285.3c-7.7 4.6-10.5 5.5-10.5 5.5 3.1-5.2 10.5-5.5 10.5-5.5z"/>
		<path id="Фигура_21_копия" fill-rule="evenodd" class="s24" d="m925 270.6c-4.7 3.9-6.5 4.8-6.5 4.8 1.5-3.8 6.5-4.8 6.5-4.8z"/>
		<path id="Фигура_22" fill-rule="evenodd" class="s24" d="m916.8 315.3c-1.7 2 8.5 10.5 7.8 10.5-0.7 0-7.8-10.5-7.8-10.5z"/>
		<path id="Фигура_23" fill-rule="evenodd" class="s24" d="m909.4 343.4c4.3 6.5 12.4 10.5 12.4 10.5-10.5-3.1-12.4-10.5-12.4-10.5z"/>
		<path id="Прямоугольник_1" fill-rule="evenodd" class="s1" d="m932.8 147.4l-3.5-0.1q-0.1 0-0.1 0.1 0 0.1-0.1 0.1v0.9q0.1 0.1 0.1 0.1 0.1 0.1 0.1 0.1h3.5q0.1 0 0.1 0 0 0 0.1-0.1v-0.8q0-0.2 0-0.2 0 0-0.1 0 0-0.1 0-0.1-0.1 0-0.1 0z"/>
		<path id="Фигура_26" fill-rule="evenodd" class="s14" d="m939.1 155.5c-4.9 8.5-7.9 0.4-7.9 0.4z"/>
		<path id="Прямоугольник_1_копия" fill-rule="evenodd" class="s1" d="m941.5 147.5h-3.5q0 0-0.1 0 0 0-0.1 0.2v0.8q0 0.1 0 0.1 0 0 0.1 0.1 0.1 0 0.1 0l3.5 0.1q0.1 0 0.1-0.1 0 0 0-0.1l0.1-0.8q-0.1-0.1-0.1-0.1-0.1-0.2-0.1-0.2z"/>
	</g>
	<g id="&lt;Group&gt;">
		<g id="&lt;Group&gt;">
			<g id="&lt;Group&gt;">
				<g id="&lt;Group&gt;">
					<path id="&lt;Compound Path&gt;" fill-rule="evenodd" class="s29" d="m699.5 151.3l-12.8 0.6 12.8 0.5v0.2c0 2.8-2.3 5.1-5.1 5.1h-9.6c-1.9 0-3.3-1.6-3-3.4q0.2-1.2 0.2-2.4c0-8.7-7.2-15.6-16-15.2-7.4 0.3-13.7 6.2-14.4 13.6q-0.2 2 0.1 3.9c0.3 1.9-1.1 3.5-3 3.5h-8.3v-50.8h8.3l15.3 1.2c1.5 0.8 2.7 2 3.5 3.5l6.7 12 14.8 1.6c0.9 0 1.7 0.4 2.2 0.9l-29 0.8 35.1 0.9h0.1q0.9 0.6 1.4 1.6l-22 1 22.7 1q0 0.3 0 0.6zm-30.3-28.1l-6.2-11q0 0 0 0c-0.8-1.5-2.5-2.3-4.2-2.3h-14.5v13.3z"/>
					<path id="&lt;Compound Path&gt;" fill-rule="evenodd" class="s29" d="m666.7 163.8c-6.6 0-11.9-5.3-11.9-11.9 0-6.6 5.3-12 11.9-12 6.7 0 12 5.4 12 12 0 6.6-5.3 11.9-12 11.9zm5.9-11.9c0-3.3-2.6-5.9-5.9-5.9-3.2 0-5.8 2.6-5.8 5.9 0 3.2 2.6 5.8 5.8 5.8 3.3 0 5.9-2.6 5.9-5.8z"/>
					<path id="&lt;Path&gt;" class="s8" d="m632.3 117.9c0-7.6-4.4-14.5-11.4-17.7-2.5-1.1-5.2-1.7-8-1.7h-4.7-37.7-55.5c0 9.4 7.6 17.1 17.1 17.1h72.7c2.5 0 4.6 1.6 5.3 4h-77.8c0 9.4 7.6 17 17 17h61.2c2.4 0 4.6 1.7 5.2 4.1h-66.2c0 9.4 7.6 17 17.1 17h58.1 7.6z"/>
				</g>
			</g>
			<g id="&lt;Group&gt;">
				<path id="&lt;Path&gt;" class="s29" d="m638 157.7h-3.1v-53.9c0-6.4-5.3-11.7-11.8-11.7h-1v-3.1h1c8.2 0 14.9 6.7 14.9 14.8z"/>
			</g>
		</g>
		<path id="&lt;Path&gt;" class="s29" d="m658.8 106.2l-10.1 0.7h-8.3v-5.1h7.4c4.1 0 8 1.6 11 4.4z"/>
	</g>
	<g id="&lt;Group&gt; copy 5">
		<g id="&lt;Group&gt;">
			<g id="&lt;Group&gt;">
				<g id="&lt;Group&gt;">
					<path id="&lt;Compound Path&gt;" fill-rule="evenodd" class="s29" d="m954.5 192h-1.1l1.1 0.1c0 0.2-0.2 0.4-0.4 0.4h-0.8c-0.2 0-0.3-0.1-0.3-0.3q0-0.1 0-0.2c0-0.7-0.6-1.3-1.3-1.3-0.6 0.1-1.1 0.6-1.2 1.2q0 0.2 0 0.3c0 0.2-0.1 0.3-0.2 0.3h-0.7v-4.3h0.6l1.3 0.1q0.2 0.1 0.3 0.3l0.6 1 1.2 0.2q0.2 0 0.2 0l-2.4 0.1 2.9 0.1q0.1 0 0.2 0.1l-1.9 0.1 1.9 0.1q0 0 0 0zm-2.5-2.3l-0.5-0.9q0 0 0 0c-0.1-0.2-0.3-0.2-0.4-0.2h-1.2v1.1z"/>
					<path id="&lt;Compound Path&gt;" fill-rule="evenodd" class="s29" d="m951.8 193c-0.6 0-1-0.4-1-1 0-0.5 0.4-1 1-1 0.5 0 1 0.5 1 1 0 0.6-0.5 1-1 1zm0.5-1c0-0.3-0.3-0.5-0.5-0.5-0.3 0-0.5 0.2-0.5 0.5 0 0.3 0.2 0.5 0.5 0.5 0.2 0 0.5-0.2 0.5-0.5z"/>
					<path id="&lt;Path&gt;" class="s8" d="m948.9 189.2c0-0.7-0.4-1.3-1-1.5q-0.3-0.2-0.7-0.2h-0.4-3.1-4.7c0 0.8 0.6 1.5 1.4 1.5h6.2c0.2 0 0.3 0.1 0.4 0.3h-6.5c0 0.8 0.6 1.4 1.4 1.4h5.1c0.2 0 0.4 0.2 0.5 0.4h-5.6c0 0.8 0.6 1.4 1.4 1.4h4.9 0.7z"/>
				</g>
			</g>
			<g id="&lt;Group&gt;">
				<path id="&lt;Path&gt;" class="s29" d="m949.3 192.5h-0.2v-4.5c0-0.6-0.5-1-1-1h-0.1v-0.3h0.1c0.7 0 1.2 0.6 1.2 1.3z"/>
			</g>
		</g>
		<path id="&lt;Path&gt;" class="s29" d="m951.1 188.2h-0.9-0.6v-0.4h0.6c0.3 0 0.6 0.1 0.9 0.4z"/>
	</g>
	<g id="&lt;Group&gt; copy 6">
		<g id="&lt;Group&gt;">
			<g id="&lt;Group&gt;">
				<g id="&lt;Group&gt;">
					<path id="&lt;Compound Path&gt;" fill-rule="evenodd" class="s29" d="m856.5 197h-1.1l1.1 0.1c0 0.2-0.2 0.4-0.4 0.4h-0.8c-0.2 0-0.3-0.1-0.3-0.3q0-0.1 0-0.2c0-0.7-0.6-1.3-1.3-1.3-0.6 0.1-1.1 0.6-1.2 1.2q0 0.2 0 0.3c0 0.2-0.1 0.3-0.2 0.3h-0.7v-4.3h0.6l1.3 0.1q0.2 0.1 0.3 0.3l0.6 1 1.2 0.2q0.2 0 0.2 0l-2.4 0.1 2.9 0.1q0.1 0 0.2 0.1l-1.9 0.1 1.9 0.1q0 0 0 0zm-2.5-2.3l-0.5-0.9q0 0 0 0c-0.1-0.2-0.3-0.2-0.4-0.2h-1.2v1.1z"/>
					<path id="&lt;Compound Path&gt;" fill-rule="evenodd" class="s29" d="m853.8 198c-0.6 0-1-0.4-1-1 0-0.5 0.4-1 1-1 0.5 0 1 0.5 1 1 0 0.6-0.5 1-1 1zm0.5-1c0-0.3-0.3-0.5-0.5-0.5-0.3 0-0.5 0.2-0.5 0.5 0 0.3 0.2 0.5 0.5 0.5 0.2 0 0.5-0.2 0.5-0.5z"/>
					<path id="&lt;Path&gt;" class="s8" d="m850.9 194.2c0-0.7-0.4-1.3-1-1.5q-0.3-0.2-0.7-0.2h-0.4-3.1-4.7c0 0.8 0.6 1.5 1.4 1.5h6.2c0.2 0 0.3 0.1 0.4 0.3h-6.5c0 0.8 0.6 1.4 1.4 1.4h5.1c0.2 0 0.4 0.2 0.5 0.4h-5.6c0 0.8 0.6 1.4 1.4 1.4h4.9 0.7z"/>
				</g>
			</g>
			<g id="&lt;Group&gt;">
				<path id="&lt;Path&gt;" class="s29" d="m851.3 197.5h-0.2v-4.5c0-0.6-0.5-1-1-1h-0.1v-0.3h0.1c0.7 0 1.2 0.6 1.2 1.3z"/>
			</g>
		</g>
		<path id="&lt;Path&gt;" class="s29" d="m853.1 193.2h-0.9-0.6v-0.4h0.6c0.3 0 0.6 0.1 0.9 0.4z"/>
	</g>
</svg>