<svg version="1.2" xmlns="http://www.w3.org/2000/svg" viewBox="0 0 609 257" width="609" height="257">
	<title>5350907-ai</title>
	<style>
		tspan { white-space:pre } 
		.s0 { fill: #ffffff } 
		.s1 { fill: #ff7a06 } 
	</style>
	<g id="&lt;Group&gt;">
		<g id="&lt;Group&gt;">
			<g id="&lt;Group&gt;">
				<g id="&lt;Group&gt;">
					<path id="&lt;Compound Path&gt;" fill-rule="evenodd" class="s0" d="m586.5 200.9l-39.3 1.8 39.3 1.8v0.4c0 8.7-7 15.7-15.7 15.7h-29.4c-5.6 0-10-5-9.1-10.6q0.5-3.6 0.5-7.3c0-26.5-22-47.7-48.7-46.5-22.8 1-41.9 19-44.2 41.8-0.4 4.1-0.2 8.1 0.4 12 0.9 5.6-3.5 10.6-9.2 10.6h-25.4v-155.3h25.3l47 3.5c4.3 2.5 8.1 6.1 10.6 10.6l20.6 36.8 45.2 5c2.6 0 5 1 6.8 2.8l-88.9 2.3 107.6 2.8c1.8 1.2 3.3 2.9 4.4 4.8l-67.3 3 69.4 3.2q0.1 0.9 0.1 1.8zm-92.7-85.8l-18.9-33.6q0-0.1 0-0.1c-2.6-4.6-7.6-7.2-12.9-7.2h-44.3v40.9z"/>
					<path id="&lt;Compound Path&gt;" fill-rule="evenodd" class="s0" d="m522.9 202.7c0 20.2-16.4 36.6-36.6 36.6-20.2 0-36.6-16.4-36.6-36.6 0-20.2 16.4-36.6 36.6-36.6 20.2 0 36.6 16.4 36.6 36.6zm-18.7 0c0-9.9-8-18-17.9-18-9.9 0-18 8.1-18 18 0 9.9 8.1 18 18 18 9.9 0 17.9-8.1 17.9-18z"/>
					<path id="&lt;Path&gt;" class="s1" d="m380.9 98.7c0-23.2-13.6-44.3-34.7-53.9-7.7-3.5-16.1-5.3-24.5-5.3h-14.4-115.3-169.8c0 28.8 23.3 52.1 52.1 52.1h222.6c7.5 0 14.1 5.1 16.1 12.4h-238.1c0 28.8 23.4 52.1 52.2 52.1h187c7.6 0 14.2 5.1 16.1 12.4h-202.5c0 28.8 23.3 52.1 52.1 52.1h177.7 23.4z"/>
				</g>
			</g>
			<g id="&lt;Group&gt;">
				<path id="&lt;Path&gt;" class="s0" d="m398.3 220.6h-9.5v-164.8c0-19.8-16.1-35.9-35.9-35.9h-3.2v-9.5h3.2c25 0 45.4 20.4 45.4 45.4z"/>
			</g>
		</g>
		<path id="&lt;Path&gt;" class="s0" d="m462.1 62.9l-31.1 2.4h-25.3v-15.6h22.5c12.6 0 24.6 4.7 33.9 13.2z"/>
	</g>
</svg>