<svg version="1.2" xmlns="http://www.w3.org/2000/svg" viewBox="0 0 412 360" width="412" height="360">
	<title>phone-svg</title>
	<defs>
		<linearGradient id="g1" x1="396.6" y1="182.5" x2="396.6" y2="265.4" gradientUnits="userSpaceOnUse">
			<stop offset="0" stop-color="#d9d9d9"/>
			<stop offset=".019" stop-color="#fafafa"/>
			<stop offset=".038" stop-color="#d8d8d8"/>
			<stop offset=".082" stop-color="#ababab"/>
			<stop offset=".105" stop-color="#e1e1e1"/>
			<stop offset=".905" stop-color="#d7d7d7"/>
			<stop offset=".939" stop-color="#ababab"/>
			<stop offset=".965" stop-color="#d8d8d8"/>
			<stop offset=".983" stop-color="#f5f5f5"/>
			<stop offset="1" stop-color="#d6d6d6"/>
		</linearGradient>
		<linearGradient id="g2" x1="397.1" y1="182.5" x2="397.1" y2="265.4" gradientUnits="userSpaceOnUse">
			<stop offset="0" stop-color="#ededed"/>
			<stop offset=".064" stop-color="#d8d8d8"/>
			<stop offset=".186" stop-color="#e8e8e8"/>
			<stop offset=".806" stop-color="#e8e8e8"/>
			<stop offset=".919" stop-color="#d8d8d8"/>
			<stop offset="1" stop-color="#ededed"/>
		</linearGradient>
		<linearGradient id="g3" x1="21.4" y1="182.5" x2="21.4" y2="238.2" gradientUnits="userSpaceOnUse">
			<stop offset="0" stop-color="#d9d9d9"/>
			<stop offset=".019" stop-color="#fafafa"/>
			<stop offset=".038" stop-color="#d8d8d8"/>
			<stop offset=".082" stop-color="#ababab"/>
			<stop offset=".105" stop-color="#e1e1e1"/>
			<stop offset=".905" stop-color="#d7d7d7"/>
			<stop offset=".939" stop-color="#ababab"/>
			<stop offset=".965" stop-color="#d8d8d8"/>
			<stop offset=".983" stop-color="#f5f5f5"/>
			<stop offset="1" stop-color="#d6d6d6"/>
		</linearGradient>
		<linearGradient id="g4" x1="20.9" y1="182.5" x2="20.9" y2="238.2" gradientUnits="userSpaceOnUse">
			<stop offset="0" stop-color="#ededed"/>
			<stop offset=".064" stop-color="#d8d8d8"/>
			<stop offset=".186" stop-color="#e8e8e8"/>
			<stop offset=".806" stop-color="#e8e8e8"/>
			<stop offset=".919" stop-color="#d8d8d8"/>
			<stop offset="1" stop-color="#ededed"/>
		</linearGradient>
		<linearGradient id="g5" x1="-1196.1" y1="238.3" x2="-1196.1" y2="182.5" gradientUnits="userSpaceOnUse">
			<stop offset="0" stop-color="#d9d9d9"/>
			<stop offset=".053" stop-color="#ababab"/>
			<stop offset=".518" stop-color="#d8d8d8"/>
			<stop offset=".965" stop-color="#ababab"/>
			<stop offset="1" stop-color="#d6d6d6"/>
		</linearGradient>
		<linearGradient id="g6" x1="21.4" y1="252.4" x2="21.4" y2="308.2" gradientUnits="userSpaceOnUse">
			<stop offset="0" stop-color="#d9d9d9"/>
			<stop offset=".019" stop-color="#fafafa"/>
			<stop offset=".038" stop-color="#d8d8d8"/>
			<stop offset=".082" stop-color="#ababab"/>
			<stop offset=".105" stop-color="#e1e1e1"/>
			<stop offset=".905" stop-color="#d7d7d7"/>
			<stop offset=".939" stop-color="#ababab"/>
			<stop offset=".965" stop-color="#d8d8d8"/>
			<stop offset=".983" stop-color="#f5f5f5"/>
			<stop offset="1" stop-color="#d6d6d6"/>
		</linearGradient>
		<linearGradient id="g7" x1="20.9" y1="252.4" x2="20.9" y2="308.2" gradientUnits="userSpaceOnUse">
			<stop offset="0" stop-color="#ededed"/>
			<stop offset=".064" stop-color="#d8d8d8"/>
			<stop offset=".186" stop-color="#e8e8e8"/>
			<stop offset=".806" stop-color="#e8e8e8"/>
			<stop offset=".919" stop-color="#d8d8d8"/>
			<stop offset="1" stop-color="#ededed"/>
		</linearGradient>
		<linearGradient id="g8" x1="-1196.1" y1="308.2" x2="-1196.1" y2="252.4" gradientUnits="userSpaceOnUse">
			<stop offset="0" stop-color="#d9d9d9"/>
			<stop offset=".053" stop-color="#ababab"/>
			<stop offset=".518" stop-color="#d8d8d8"/>
			<stop offset=".965" stop-color="#ababab"/>
			<stop offset="1" stop-color="#d6d6d6"/>
		</linearGradient>
		<linearGradient id="g9" x1="21.4" y1="116.5" x2="21.4" y2="146.7" gradientUnits="userSpaceOnUse">
			<stop offset="0" stop-color="#d9d9d9"/>
			<stop offset=".019" stop-color="#fafafa"/>
			<stop offset=".038" stop-color="#d8d8d8"/>
			<stop offset=".082" stop-color="#ababab"/>
			<stop offset=".105" stop-color="#e1e1e1"/>
			<stop offset=".905" stop-color="#d7d7d7"/>
			<stop offset=".939" stop-color="#ababab"/>
			<stop offset=".965" stop-color="#d8d8d8"/>
			<stop offset=".983" stop-color="#f5f5f5"/>
			<stop offset="1" stop-color="#d6d6d6"/>
		</linearGradient>
		<linearGradient id="g10" x1="20.9" y1="116.5" x2="20.9" y2="146.7" gradientUnits="userSpaceOnUse">
			<stop offset="0" stop-color="#ededed"/>
			<stop offset=".064" stop-color="#d8d8d8"/>
			<stop offset=".186" stop-color="#e8e8e8"/>
			<stop offset=".806" stop-color="#e8e8e8"/>
			<stop offset=".919" stop-color="#d8d8d8"/>
			<stop offset="1" stop-color="#ededed"/>
		</linearGradient>
		<linearGradient id="g11" x1="-335.9" y1="146.7" x2="-335.9" y2="116.5" gradientUnits="userSpaceOnUse">
			<stop offset="0" stop-color="#d9d9d9"/>
			<stop offset=".053" stop-color="#ababab"/>
			<stop offset=".518" stop-color="#d8d8d8"/>
			<stop offset=".965" stop-color="#ababab"/>
			<stop offset="1" stop-color="#d6d6d6"/>
		</linearGradient>
		<linearGradient id="g12" x1="236.4" y1="46.3" x2="241.2" y2="51.9" gradientUnits="userSpaceOnUse">
			<stop offset="0" stop-color="#171919"/>
			<stop offset="1" stop-color="#4e4f51"/>
		</linearGradient>
		<linearGradient id="g13" x1="242.1" y1="46.4" x2="242.1" y2="53.1" gradientUnits="userSpaceOnUse">
			<stop offset="0" stop-color="#0b131c"/>
			<stop offset="1" stop-color="#354039"/>
		</linearGradient>
		<radialGradient id="g14" cx="240.3" cy="51.2" r="1.1" gradientUnits="userSpaceOnUse">
			<stop offset="0" stop-color="#cccccc"/>
			<stop offset="1" stop-color="#000000"/>
		</radialGradient>
	</defs>
	<style>
		.s0 { fill: #e3e3e3 } 
		.s1 { mix-blend-mode: screen;fill: #ffffff } 
		.s2 { fill: #dcdcdc } 
		.s3 { fill: #dddddd } 
		.s4 { fill: url(#g1) } 
		.s5 { fill: url(#g2) } 
		.s6 { fill: url(#g3) } 
		.s7 { fill: url(#g4) } 
		.s8 { fill: url(#g5) } 
		.s9 { fill: url(#g6) } 
		.s10 { fill: url(#g7) } 
		.s11 { fill: url(#g8) } 
		.s12 { fill: url(#g9) } 
		.s13 { fill: url(#g10) } 
		.s14 { fill: url(#g11) } 
		.s15 { fill: #aaaaaa } 
		.s16 { opacity: .2;fill: #000000 } 
		.s17 { opacity: .4;fill: url(#g12) } 
		.s18 { fill: url(#g13) } 
		.s19 { mix-blend-mode: screen;fill: url(#g14) } 
	</style>
	<g id="_Artboards_">
	</g>
	<g id="Layer 1">
		<g id="&lt;Group&gt;" style="opacity: .6">
			<path id="&lt;Compound Path&gt;" fill-rule="evenodd" class="s0" d="m395.4 72.8c0 10.7 0 660.9 0 670.4 0 29-23.6 52.5-52.6 52.5h-266.3c-29.1 0-52.6-23.5-52.6-52.5 0-9.5 0-659.7 0-670.4 0-29 23.5-52.5 52.6-52.5h266.3c29 0 52.6 23.5 52.6 52.5zm-5.1 1.9c0-27.3-22.1-49.3-49.3-49.3h-262.7c-27.2 0-49.3 22-49.3 49.3 0 10.6 0 657.2 0 666.6 0 27.3 22.1 49.3 49.3 49.3h262.7c27.2 0 49.3-22 49.3-49.3 0-9.4 0-656 0-666.6z"/>
			<g id="&lt;Group&gt;" style="opacity: .7">
				<path id="&lt;Path&gt;" class="s1" d="m37.9 38.4c10.7-9.6 24.6-17 40.8-16.8l252.6 0.5c32.9 2 61.8 20 62.9 58.2 0 4.2 2.3-32-21.2-47.9-11.2-8-27.7-11.5-37.6-11.7-16.2-0.3-230.2-0.6-256.4 0-21.9 0.5-32.3 9.4-41.1 17.7z"/>
			</g>
			<g id="&lt;Group&gt;">
				<path id="&lt;Compound Path&gt;" fill-rule="evenodd" class="s2" d="m390.3 74.7c0 10.6 0 657.2 0 666.6 0 27.3-22.1 49.3-49.3 49.3h-262.7c-27.2 0-49.3-22-49.3-49.3 0-9.4 0-656 0-666.6 0-27.3 22.1-49.3 49.3-49.3h262.7c27.2 0 49.3 22 49.3 49.3zm-2.6 1.4c0-26.6-21.6-48.2-48.2-48.2h-259.7c-26.6 0-48.2 21.6-48.2 48.2 0 10.7 0 654.3 0 663.8 0 26.6 21.6 48.2 48.2 48.2h259.7c26.6 0 48.2-21.6 48.2-48.2 0-9.4 0-653.2 0-663.8z"/>
				<path id="&lt;Compound Path&gt;" fill-rule="evenodd" class="s3" d="m341 790.9h-262.7c-27.3 0-49.5-22.2-49.5-49.6v-666.6c0-27.4 22.2-49.6 49.5-49.6h262.7c27.3 0 49.5 22.2 49.5 49.6v666.6c0 27.4-22.2 49.6-49.5 49.6zm-262.7-765.3c-27 0-49 22-49 49.1v666.6c0 27.1 22 49.1 49 49.1h262.7c27 0 49-22 49-49.1v-666.6c0-27.1-22-49.1-49-49.1zm261.1 762.7h-259.6c-26.8 0-48.5-21.7-48.5-48.4v-663.8c0-26.7 21.7-48.4 48.5-48.4h259.6c26.8 0 48.5 21.7 48.5 48.4v663.8c0 26.7-21.7 48.4-48.5 48.4zm-259.6-760.1c-26.5 0-48 21.5-48 47.9v663.8c0 26.4 21.5 47.9 48 47.9h259.6c26.5 0 48-21.5 48-47.9v-663.8c0-26.4-21.5-47.9-48-47.9z"/>
			</g>
			<g id="&lt;Group&gt;" style="opacity: .5">
				<path id="&lt;Path&gt;" class="s1" d="m37.9 777.6c10.7 9.6 24.6 17 40.8 16.8l252.6-0.5c32.9-2 61.8-20 62.9-58.2 0-4.2 2.3 32-21.2 47.9-11.2 8-27.7 11.5-37.6 11.7-16.2 0.3-230.2 0.6-256.4 0-21.9-0.5-32.3-9.4-41.1-17.7z"/>
			</g>
			<g id="&lt;Group&gt;">
				<path id="&lt;Path&gt;" class="s4" d="m395.4 265.4v-82.9h1.2v82.9z"/>
				<path id="&lt;Path&gt;" class="s5" d="m396.6 265.4v-82.9l0.5 0.7c-0.3 6-0.2 75.6 0 81.5z"/>
			</g>
			<g id="&lt;Group&gt;">
				<path id="&lt;Path&gt;" class="s6" d="m22.6 238.2v-55.7h-1.2v55.7z"/>
				<path id="&lt;Path&gt;" class="s7" d="m21.4 238.2v-55.7l-0.5 0.7c0.3 6 0.2 48.4 0 54.3z"/>
				<path id="&lt;Path&gt;" class="s8" d="m23.9 238.3h-1.3v-55.8h1.3z"/>
			</g>
			<g id="&lt;Group&gt;">
				<path id="&lt;Path&gt;" class="s9" d="m22.6 308.2v-55.8h-1.2v55.8z"/>
				<path id="&lt;Path&gt;" class="s10" d="m21.4 308.2v-55.8l-0.5 0.7c0.3 6 0.2 48.4 0 54.3z"/>
				<path id="&lt;Path&gt;" class="s11" d="m23.9 308.2h-1.3v-55.8h1.3z"/>
			</g>
			<g id="&lt;Group&gt;">
				<path id="&lt;Path&gt;" class="s12" d="m22.6 146.7v-30.2h-1.2v30.2z"/>
				<path id="&lt;Path&gt;" class="s13" d="m21.4 146.7v-30.2l-0.5 0.7c0.3 5.9 0.2 22.9 0 28.8z"/>
				<path id="&lt;Path&gt;" class="s14" d="m23.9 146.7h-1.3v-30.2h1.3z"/>
			</g>
			<path id="&lt;Path&gt;" class="s15" d="m228 794.4h-36.7c-0.8 0-1.4 0-1.7 0.2l-1.6 0.7c-0.3 0.2 0.5 0.4 1.6 0.4h40c1.2 0 2-0.2 1.6-0.4l-1.6-0.7c-0.2-0.2-0.8-0.2-1.6-0.2z"/>
			<path id="&lt;Path&gt;" class="s16" d="m242.5 63.3h-67c-7.5 0-13.6-6.1-13.6-13.7 0-7.5 6.1-13.6 13.6-13.6h67c7.5 0 13.6 6.1 13.6 13.6 0 7.6-6.1 13.7-13.6 13.7z"/>
			<g id="&lt;Group&gt;" style="opacity: .7">
				<path id="&lt;Mesh&gt;" class="s17" d="m234.8 53.6c0.6 0.6 1.3 1.1 2.2 1.3-0.2-1-0.7-1.8-0.8-2.9-0.9-0.2-2.2-0.4-2.8-0.7 0.3 0.8 0.7 1.6 1.4 2.3zm-1.4-2.3c0.6 0.3 1.9 0.5 2.8 0.7-0.1-1.9-0.2-3.9 0.1-5.8-0.9 0.2-1.7 0.3-2.5 0.7-0.7 1.4-0.9 3-0.4 4.4zm0.4-4.4c0.8-0.4 1.6-0.5 2.5-0.7 0.1-0.6 0.6-1.4 0.7-1.9-0.9 0.3-1.6 0.8-2.3 1.4q-0.5 0.5-0.9 1.2zm3.2 8q1.8 0.6 3.6 0c0.3-0.8 0.5-1.8 0.6-2.9-1.2 0.2-3.8 0.1-5 0 0.1 1.1 0.6 1.9 0.8 2.9zm-0.8-2.9c1.2 0.1 3.8 0.2 5 0 0.2-2.1 0.2-4.3-0.2-5.9-1.4-0.2-3.4-0.1-4.7 0.1-0.3 1.9-0.2 3.9-0.1 5.8zm0.1-5.8c1.3-0.2 3.3-0.3 4.7-0.1-0.1-0.5-0.2-1.3-0.4-1.7-1.2-0.4-2.4-0.4-3.6-0.1-0.1 0.5-0.6 1.3-0.7 1.9zm4.3 8.7c0.7-0.3 1.4-0.8 2-1.3 0.7-0.7 1.1-1.5 1.4-2.3-0.7 0.3-1.9 0.5-2.8 0.7-0.1 1.1-0.3 2.1-0.6 2.9zm0.6-2.9c0.9-0.2 2.1-0.4 2.8-0.7 0.4-1.4 0.3-3-0.5-4.4-0.7-0.4-1.5-0.6-2.5-0.8 0.4 1.6 0.4 3.8 0.2 5.9zm-0.2-5.9c1 0.2 1.8 0.4 2.5 0.8q-0.3-0.7-0.9-1.2c-0.6-0.6-1.3-1-2-1.3 0.2 0.4 0.3 1.2 0.4 1.7z"/>
				<path id="&lt;Path&gt;" class="s18" d="m235.3 49.6c0-1.8 1.5-3.4 3.4-3.4 1.9 0 3.4 1.6 3.4 3.4 0 1.9-1.5 3.4-3.4 3.4-1.9 0-3.4-1.5-3.4-3.4z"/>
				<path id="&lt;Path&gt;" class="s19" d="m241.4 51.2c0-0.6-0.5-1.1-1.1-1.1-0.6 0-1 0.5-1 1.1 0 0.6 0.4 1 1 1 0.6 0 1.1-0.4 1.1-1z"/>
			</g>
		</g>
	</g>
</svg>